# Blender v2.83.0 OBJ File: ''
# www.blender.org
mtllib broom_on_the_ground.mtl
o cube
v 0.370439 0.338406 0.995712
v 0.870439 0.338406 1.861737
v 0.504395 0.183726 0.918372
v 1.004395 0.183726 1.784398
v 0.504357 0.183682 0.918395
v 1.004357 0.183682 1.784420
v 0.370400 0.338362 0.995734
v 0.870400 0.338361 1.861760
vt 0.328125 0.500000
vt 0.328125 0.000000
vt 0.218750 0.500000
vt 0.218750 0.000000
vt 0.218750 0.500000
vt 0.218750 0.000000
vt 0.328125 0.500000
vt 0.328125 0.000000
vt 0.109375 1.000000
vt 0.000000 1.000000
vt 0.109375 1.000000
vt 0.000000 1.000000
vt 0.000000 1.000000
vt 0.109375 1.000000
vt 0.000000 1.000000
vt 0.109375 1.000000
vt 0.000000 0.500000
vt 0.000000 0.500000
vt 0.000000 1.000000
vt 0.000000 0.500000
vt 0.000000 1.000000
vt 0.000000 0.500000
vn 0.6124 0.7071 -0.3536
vn -0.6124 -0.7071 0.3536
vn -0.5000 0.0000 -0.8660
vn -0.4984 -0.0000 -0.8670
vn -0.5001 0.0001 -0.8660
vn -0.4983 -0.0000 -0.8670
vn 0.5002 0.0000 0.8659
vn 0.5000 0.0000 0.8660
vn -0.6132 0.7062 0.3540
vn -0.6123 0.7071 0.3538
vn -0.6123 0.7069 0.3541
vn 0.6123 -0.7071 -0.3535
vn 0.6124 -0.7071 -0.3536
usemtl 0
s 1
f 1/1/1 2/2/1 3/3/1
f 2/2/1 4/4/1 3/3/1
f 5/5/2 6/6/2 7/7/2
f 6/6/2 8/8/2 7/7/2
f 5/9/3 7/10/4 3/11/5
f 7/10/4 1/12/6 3/11/5
f 8/13/7 6/14/8 2/15/7
f 6/14/8 4/16/8 2/15/7
f 7/10/9 8/17/10 1/12/9
f 8/17/10 2/18/11 1/12/9
f 3/19/12 4/20/12 5/21/13
f 4/20/12 6/22/13 5/21/13
o stick
v 0.063339 0.324369 0.026629
v 0.684006 0.177447 1.101657
v 0.059666 0.262302 0.020267
v 0.680333 0.115381 1.095295
v 0.005539 0.262302 0.051517
v 0.626207 0.115381 1.126545
v 0.009212 0.324369 0.057879
v 0.629880 0.177447 1.132907
vt 0.609375 1.000000
vt 0.609375 0.375000
vt 0.578125 1.000000
vt 0.578125 0.375000
vt 0.578125 1.000000
vt 0.578125 0.375000
vt 0.609375 1.000000
vt 0.609375 0.375000
vt 0.578125 0.984375
vt 0.578125 0.953125
vt 0.609375 0.984375
vt 0.609375 0.953125
vt 0.171875 0.203125
vt 0.171875 0.171875
vt 0.203125 0.203125
vt 0.203125 0.171875
vt 0.171875 1.000000
vt 0.171875 0.375000
vt 0.203125 1.000000
vt 0.203125 0.375000
vt 0.625000 1.000000
vt 0.625000 0.375000
vt 0.656250 1.000000
vt 0.656250 0.375000
vn 0.8660 0.0000 -0.5000
vn -0.8660 -0.0000 0.5000
vn -0.4965 0.1175 -0.8600
vn 0.4965 -0.1175 0.8600
vn 0.0588 0.9931 0.1018
vn -0.0588 -0.9931 -0.1018
usemtl 0
s 1
f 9/23/14 10/24/14 11/25/14
f 10/24/14 12/26/14 11/25/14
f 13/27/15 14/28/15 15/29/15
f 14/28/15 16/30/15 15/29/15
f 13/31/16 15/32/16 11/33/16
f 15/32/16 9/34/16 11/33/16
f 16/35/17 14/36/17 10/37/17
f 14/36/17 12/38/17 10/37/17
f 15/39/18 16/40/18 9/41/18
f 16/40/18 10/42/18 9/41/18
f 11/43/19 12/44/19 13/45/19
f 12/44/19 14/46/19 13/45/19
o stick.000
v 0.667671 0.184442 1.076696
v 1.058296 0.184442 1.753278
v 0.667671 0.121942 1.076696
v 1.058296 0.121942 1.753278
v 0.613545 0.121942 1.107946
v 1.004170 0.121942 1.784528
v 0.613545 0.184442 1.107946
v 1.004170 0.184442 1.784528
vt 0.203125 0.390625
vt 0.203125 0.000000
vt 0.171875 0.390625
vt 0.171875 0.000000
vt 0.156250 0.390625
vt 0.156250 0.000000
vt 0.187500 0.390625
vt 0.187500 0.000000
vt 0.515625 0.968750
vt 0.515625 0.937500
vt 0.546875 0.968750
vt 0.546875 0.937500
vt 0.234375 0.062500
vt 0.234375 0.031250
vt 0.265625 0.062500
vt 0.265625 0.031250
vt 0.171875 0.390625
vt 0.171875 0.000000
vt 0.171875 0.406250
vt 0.171875 0.015625
vt 0.203125 0.406250
vt 0.203125 0.015625
vn 0.8660 0.0000 -0.5000
vn -0.8660 0.0000 0.5000
vn -0.5000 0.0000 -0.8660
vn 0.5000 0.0000 0.8660
vn 0.0000 1.0000 0.0000
vn -0.0000 -1.0000 0.0000
usemtl 0
s 1
f 17/47/20 18/48/20 19/49/20
f 18/48/20 20/50/20 19/49/20
f 21/51/21 22/52/21 23/53/21
f 22/52/21 24/54/21 23/53/21
f 21/55/22 23/56/22 19/57/22
f 23/56/22 17/58/22 19/57/22
f 24/59/23 22/60/23 18/61/23
f 22/60/23 20/62/23 18/61/23
f 23/63/24 24/64/24 17/47/24
f 24/64/24 18/48/24 17/47/24
f 19/65/25 20/66/25 21/67/25
f 20/66/25 22/68/25 21/67/25
o cube.000
v 0.710845 0.360719 0.799179
v 1.210845 0.360719 1.665204
v 0.710883 0.360675 0.799157
v 1.210883 0.360675 1.665182
v 0.557790 0.183898 0.887545
v 1.057790 0.183898 1.753570
v 0.557751 0.183942 0.887567
v 1.057751 0.183942 1.753592
vt 0.000000 1.000000
vt 0.000000 0.500000
vt 0.000000 1.000000
vt 0.000000 0.500000
vt 0.000000 1.000000
vt 0.000000 0.500000
vt 0.000000 1.000000
vt 0.000000 0.500000
vt 0.125000 1.000000
vt 0.125000 1.000000
vt 0.000000 1.000000
vt 0.000000 1.000000
vt 0.125000 1.000000
vt 0.125000 1.000000
vt 0.171875 0.500000
vt 0.171875 0.000000
vt 0.046875 0.500000
vt 0.046875 0.000000
vt 0.046875 0.500000
vt 0.046875 0.000000
vt 0.171875 0.500000
vt 0.171875 0.000000
vn 0.6125 0.7072 -0.3531
vn 0.6122 0.7071 -0.3539
vn 0.6123 0.7069 -0.3540
vn -0.6124 -0.7072 0.3533
vn -0.6124 -0.7070 0.3538
vn -0.5001 0.0000 -0.8660
vn -0.4983 -0.0000 -0.8670
vn 0.5000 -0.0000 0.8660
vn 0.5000 -0.0001 0.8660
vn 0.5003 -0.0001 0.8658
vn 0.5001 -0.0000 0.8660
vn -0.6124 0.7071 0.3536
vn 0.6124 -0.7071 -0.3536
usemtl 0
s 1
f 25/69/26 26/70/27 27/71/26
f 26/70/27 28/72/28 27/71/26
f 29/73/29 30/74/30 31/75/29
f 30/74/30 32/76/30 31/75/29
f 29/73/31 31/75/31 27/77/32
f 31/75/31 25/78/32 27/77/32
f 32/79/33 30/80/34 26/81/35
f 30/80/34 28/82/36 26/81/35
f 31/83/37 32/84/37 25/85/37
f 32/84/37 26/86/37 25/85/37
f 27/87/38 28/88/38 29/89/38
f 28/88/38 30/90/38 29/89/38
o cube.001
v 0.557828 0.125561 0.887523
v 1.057828 0.125561 1.753548
v 0.710921 -0.051215 0.799135
v 1.210921 -0.051215 1.665160
v 0.710883 -0.051260 0.799157
v 1.210883 -0.051260 1.665182
v 0.557790 0.125517 0.887545
v 1.057790 0.125517 1.753570
vt 0.171875 0.500000
vt 0.171875 0.000000
vt 0.046875 0.500000
vt 0.046875 0.000000
vt 0.046875 0.500000
vt 0.046875 0.000000
vt 0.171875 0.500000
vt 0.171875 0.000000
vt 0.125000 1.000000
vt 0.000000 1.000000
vt 0.125000 1.000000
vt 0.000000 1.000000
vt 0.000000 1.000000
vt 0.125000 1.000000
vt 0.000000 1.000000
vt 0.125000 1.000000
vt 0.000000 0.500000
vt 0.000000 0.500000
vt 0.000000 1.000000
vt 0.000000 0.500000
vt 0.000000 1.000000
vt 0.000000 0.500000
vn 0.6124 0.7071 -0.3536
vn -0.6124 -0.7071 0.3536
vn -0.4999 -0.0000 -0.8661
vn -0.5015 -0.0000 -0.8652
vn -0.5000 0.0001 -0.8660
vn -0.5015 -0.0001 -0.8652
vn 0.5000 0.0000 0.8660
vn -0.6121 0.7073 0.3536
vn -0.6124 0.7072 0.3533
vn -0.6124 0.7069 0.3538
vn 0.6124 -0.7071 -0.3535
vn 0.6124 -0.7071 -0.3536
usemtl 0
s 1
f 33/91/39 34/92/39 35/93/39
f 34/92/39 36/94/39 35/93/39
f 37/95/40 38/96/40 39/97/40
f 38/96/40 40/98/40 39/97/40
f 37/99/41 39/100/42 35/101/43
f 39/100/42 33/102/44 35/101/43
f 40/103/45 38/104/45 34/105/45
f 38/104/45 36/106/45 34/105/45
f 39/100/46 40/107/47 33/102/48
f 40/107/47 34/108/47 33/102/48
f 35/109/49 36/110/50 37/111/49
f 36/110/50 38/112/50 37/111/49
o cube.002
v 0.506805 0.122759 0.916981
v 1.006805 0.122759 1.783006
v 0.506844 0.122715 0.916959
v 1.006844 0.122715 1.782984
v 0.353751 -0.054062 1.005347
v 0.853751 -0.054062 1.871372
v 0.353712 -0.054018 1.005369
v 0.853712 -0.054018 1.871395
vt 0.000000 1.000000
vt 0.000000 0.500000
vt 0.000000 1.000000
vt 0.000000 0.500000
vt 0.000000 1.000000
vt 0.000000 0.500000
vt 0.000000 1.000000
vt 0.000000 0.500000
vt 0.125000 1.000000
vt 0.125000 1.000000
vt 0.000000 1.000000
vt 0.000000 1.000000
vt 0.125000 1.000000
vt 0.125000 1.000000
vt 0.328125 0.500000
vt 0.328125 0.000000
vt 0.203125 0.500000
vt 0.203125 0.000000
vt 0.203125 0.500000
vt 0.203125 0.000000
vt 0.328125 0.500000
vt 0.328125 0.000000
vn 0.6123 0.7072 -0.3535
vn 0.6122 0.7073 -0.3534
vn 0.6123 0.7071 -0.3535
vn -0.6124 -0.7070 0.3536
vn -0.6124 -0.7071 0.3535
vn -0.6123 -0.7071 0.3536
vn -0.4985 -0.0000 -0.8669
vn -0.4999 -0.0002 -0.8661
vn 0.4971 -0.0000 0.8677
vn 0.4972 -0.0000 0.8677
vn 0.5000 -0.0000 0.8660
vn -0.6124 0.7071 0.3536
vn 0.6124 -0.7071 -0.3536
usemtl 0
s 1
f 41/113/51 42/114/52 43/115/53
f 42/114/52 44/116/52 43/115/53
f 45/117/54 46/118/55 47/119/56
f 46/118/55 48/120/55 47/119/56
f 45/117/57 47/119/57 43/121/58
f 47/119/57 41/122/58 43/121/58
f 48/123/59 46/124/60 42/125/61
f 46/124/60 44/126/61 42/125/61
f 47/127/62 48/128/62 41/129/62
f 48/128/62 42/130/62 41/129/62
f 43/131/63 44/132/63 45/133/63
f 44/132/63 46/134/63 45/133/63
