# Blender v2.82 (sub 7) OBJ File: ''
# www.blender.org
mtllib caribbean_royal_palm_old_straight_2.mtl
o cube.464
v -0.521303 0.408163 1.788398
v -0.521328 0.408122 1.788359
v 0.277610 -0.413444 2.152170
v 0.277585 -0.413485 2.152131
v 0.949244 -0.101561 1.381545
v 0.949219 -0.101603 1.381506
v 0.150331 0.720046 1.017772
v 0.150306 0.720004 1.017733
v 0.561725 -0.351653 0.213282
v 0.074346 0.987409 0.213282
v 0.561725 -0.351653 1.682813
v 0.074346 0.987409 1.682813
v 0.074287 0.987388 0.213282
v 0.561666 -0.351674 0.213282
v 0.074287 0.987388 1.682813
v 0.561666 -0.351674 1.682813
v -0.027398 0.894326 0.436144
v -0.027367 0.894303 0.436193
v 0.433126 1.984020 0.650890
v 0.433157 1.983997 0.650939
v 1.263219 1.758183 0.016721
v 1.263250 1.758160 0.016770
v 0.802695 0.668490 -0.198025
v 0.802726 0.668467 -0.197976
v 0.020374 0.668489 1.479668
v 0.020431 0.668466 1.479660
v 0.480898 1.758183 1.694414
v 0.480956 1.758160 1.694407
v 0.433126 1.984020 0.650890
v 0.433184 1.983997 0.650883
v -0.027398 0.894326 0.436144
v -0.027341 0.894303 0.436136
v 0.433126 1.984020 0.650890
v 0.433138 1.983980 0.650938
v 1.362587 2.670064 0.984172
v 1.362598 2.670025 0.984220
v 2.009764 2.099820 0.353133
v 2.009776 2.099781 0.353181
v 1.080304 1.413775 0.019852
v 1.080316 1.413736 0.019900
v 0.401593 1.552082 1.627958
v 0.401632 1.552037 1.627940
v 1.331053 2.238126 1.961239
v 1.331093 2.238081 1.961221
v 1.362587 2.670064 0.984172
v 1.362626 2.670020 0.984154
v 0.433126 1.984020 0.650890
v 0.433166 1.983975 0.650872
v 1.362587 2.670064 0.984172
v 1.362577 2.670021 0.984216
v 2.378823 2.861181 1.396644
v 2.378813 2.861138 1.396688
v 2.784386 2.121910 0.739968
v 2.784376 2.121866 0.740011
v 1.768149 1.930793 0.327496
v 1.768140 1.930749 0.327539
v 1.101941 2.137253 1.873217
v 1.101962 2.137199 1.873191
v 2.118178 2.328367 2.285690
v 2.118198 2.328315 2.285663
v 2.378823 2.861181 1.396644
v 2.378843 2.861128 1.396618
v 1.362587 2.670064 0.984172
v 1.362607 2.670011 0.984146
v 0.150331 0.720046 1.017772
v 0.150285 0.720009 1.017792
v 0.949244 -0.101561 1.381545
v 0.949198 -0.101598 1.381564
v 0.910734 -0.565050 0.419297
v 0.910687 -0.565087 0.419316
v 0.111821 0.256557 0.055524
v 0.111774 0.256520 0.055544
v 0.949244 -0.101561 1.381545
v 0.949189 -0.101579 1.381566
v 1.365398 -1.219782 1.529967
v 1.365342 -1.219800 1.529988
v 1.064617 -1.463929 0.533900
v 1.064562 -1.463947 0.533921
v 0.648464 -0.345708 0.385477
v 0.648408 -0.345726 0.385499
v 0.153231 -0.307151 2.064514
v 0.153195 -0.307171 2.064467
v 0.569384 -1.425372 2.212936
v 0.569349 -1.425391 2.212889
v 1.365342 -1.219800 1.529988
v 1.365306 -1.219819 1.529941
v 0.949189 -0.101579 1.381566
v 0.949153 -0.101599 1.381519
v 0.048266 0.587127 1.268923
v 0.048284 0.587074 1.268895
v 1.191997 0.795912 1.575385
v 1.192015 0.795858 1.575357
v 1.341920 1.322169 0.657341
v 1.341937 1.322115 0.657314
v 0.198189 1.113384 0.350880
v 0.198206 1.113330 0.350852
v 0.198206 1.113330 0.350852
v 0.198207 1.113277 0.350884
v 1.341937 1.322115 0.657314
v 1.341938 1.322062 0.657346
v 1.671122 0.795859 -0.212696
v 1.671123 0.795805 -0.212664
v 0.527391 0.587074 -0.519158
v 0.527392 0.587021 -0.519126
v 1.341948 1.322164 0.657351
v 1.341924 1.322116 0.657384
v 2.453003 0.910250 0.861104
v 2.452979 0.910202 0.861137
v 2.397824 0.321162 -0.028928
v 2.397800 0.321115 -0.028895
v 1.286769 0.733076 -0.232681
v 1.286746 0.733029 -0.232648
v 0.980483 0.759575 1.491056
v 0.980472 0.759527 1.491018
v 2.091537 0.347661 1.694809
v 2.091526 0.347613 1.694771
v 2.453003 0.910250 0.861104
v 2.452992 0.910201 0.861067
v 1.341948 1.322164 0.657351
v 1.341937 1.322115 0.657314
v 2.453029 0.910290 0.861145
v 2.452991 0.910254 0.861179
v 3.290345 0.194213 1.020934
v 3.290307 0.194177 1.020968
v 2.997058 -0.344086 0.145466
v 2.997020 -0.344122 0.145501
v 2.159742 0.371990 -0.014323
v 2.159705 0.371954 -0.014288
v 1.910384 0.454257 1.661018
v 1.910358 0.454217 1.660977
v 2.747700 -0.261819 1.820807
v 2.747673 -0.261859 1.820766
v 3.290345 0.194213 1.020934
v 3.290318 0.194174 1.020893
v 2.453029 0.910290 0.861145
v 2.453003 0.910250 0.861104
vt 0.000000 1.000000
vt 0.000000 1.000000
vt 0.000000 1.000000
vt 0.000000 1.000000
vt 0.000000 1.000000
vt 0.000000 1.000000
vt 0.000000 1.000000
vt 0.000000 1.000000
vt 0.495350 0.303125
vt 0.495350 0.640625
vt 0.195350 0.303125
vt 0.195350 0.640625
vt 0.495350 0.640625
vt 0.495350 0.303125
vt 0.195350 0.640625
vt 0.195350 0.303125
vt 0.000000 1.000000
vt 0.000000 1.000000
vt 0.000000 1.000000
vt 0.000000 1.000000
vt 0.000000 1.000000
vt 0.000000 1.000000
vt 0.000000 1.000000
vt 0.000000 1.000000
vt 0.807850 0.303125
vt 0.807850 0.640625
vt 0.507850 0.303125
vt 0.507850 0.640625
vt 0.807850 0.640625
vt 0.807850 0.303125
vt 0.507850 0.640625
vt 0.507850 0.303125
vt 0.000000 1.000000
vt 0.000000 1.000000
vt 0.000000 1.000000
vt 0.000000 1.000000
vt 0.000000 1.000000
vt 0.000000 1.000000
vt 0.000000 1.000000
vt 0.000000 1.000000
vt 0.807850 0.000000
vt 0.807850 0.337500
vt 0.507850 0.000000
vt 0.507850 0.337500
vt 0.807850 0.337500
vt 0.807850 0.000000
vt 0.507850 0.337500
vt 0.507850 0.000000
vt 0.000000 1.000000
vt 0.000000 1.000000
vt 0.000000 1.000000
vt 0.000000 1.000000
vt 0.000000 1.000000
vt 0.000000 1.000000
vt 0.000000 1.000000
vt 0.000000 1.000000
vt 0.495350 0.000000
vt 0.495350 0.337500
vt 0.195350 0.000000
vt 0.195350 0.337500
vt 0.495350 0.337500
vt 0.495350 0.000000
vt 0.195350 0.337500
vt 0.195350 0.000000
vt 0.000000 0.000000
vt 0.000000 1.000000
vt 1.000000 0.000000
vt 1.000000 1.000000
vt 0.000000 1.000000
vt 0.000000 0.000000
vt 1.000000 1.000000
vt 1.000000 0.000000
vt 0.000000 1.000000
vt 0.000000 1.000000
vt 0.000000 1.000000
vt 0.000000 1.000000
vt 0.000000 1.000000
vt 0.000000 1.000000
vt 0.000000 1.000000
vt 0.000000 1.000000
vt 0.807850 0.662500
vt 0.807850 1.000000
vt 0.507850 0.662500
vt 0.507850 1.000000
vt 0.807850 1.000000
vt 0.807850 0.662500
vt 0.507850 1.000000
vt 0.507850 0.662500
vt 0.000000 1.000000
vt 0.000000 1.000000
vt 0.000000 1.000000
vt 0.000000 1.000000
vt 0.000000 1.000000
vt 0.000000 1.000000
vt 0.000000 1.000000
vt 0.000000 1.000000
vt 0.495350 0.662500
vt 0.495350 1.000000
vt 0.195350 0.662500
vt 0.195350 1.000000
vt 0.495350 1.000000
vt 0.495350 0.662500
vt 0.195350 1.000000
vt 0.195350 0.662500
vt 0.000000 1.000000
vt 0.000000 1.000000
vt 0.000000 1.000000
vt 0.000000 1.000000
vt 0.000000 1.000000
vt 0.000000 1.000000
vt 0.000000 1.000000
vt 0.000000 1.000000
vt 0.807850 0.357812
vt 0.807850 0.695312
vt 0.507850 0.357812
vt 0.507850 0.695312
vt 0.807850 0.695312
vt 0.807850 0.357812
vt 0.507850 0.695312
vt 0.507850 0.357812
vt 0.000000 1.000000
vt 0.000000 1.000000
vt 0.000000 1.000000
vt 0.000000 1.000000
vt 0.000000 1.000000
vt 0.000000 1.000000
vt 0.000000 1.000000
vt 0.000000 1.000000
vt 0.495350 0.326562
vt 0.495350 0.664062
vt 0.195350 0.326562
vt 0.195350 0.664062
vt 0.495350 0.664062
vt 0.495350 0.326562
vt 0.195350 0.664062
vt 0.195350 0.326562
vt 0.000000 1.000000
vt 0.000000 1.000000
vt 0.000000 1.000000
vt 0.000000 1.000000
vt 0.000000 1.000000
vt 0.000000 1.000000
vt 0.000000 1.000000
vt 0.000000 1.000000
vt 0.807800 0.000000
vt 0.807800 0.312500
vt 0.507850 0.000000
vt 0.507850 0.312500
vt 0.807800 0.312500
vt 0.807800 0.000000
vt 0.507850 0.312500
vt 0.507850 0.000000
vt 0.000000 1.000000
vt 0.000000 1.000000
vt 0.000000 1.000000
vt 0.000000 1.000000
vt 0.000000 1.000000
vt 0.000000 1.000000
vt 0.000000 1.000000
vt 0.000000 1.000000
vt 0.495350 0.000000
vt 0.495350 0.312500
vt 0.195350 0.000000
vt 0.195350 0.312500
vt 0.495350 0.312500
vt 0.495350 0.000000
vt 0.195350 0.312500
vt 0.195350 0.000000
vt 0.000000 1.000000
vt 0.000000 1.000000
vt 0.000000 1.000000
vt 0.000000 1.000000
vt 0.000000 1.000000
vt 0.000000 1.000000
vt 0.000000 1.000000
vt 0.000000 1.000000
vt 0.495350 0.662500
vt 0.495350 1.000000
vt 0.195350 0.662500
vt 0.195350 1.000000
vt 0.495350 1.000000
vt 0.495350 0.662500
vt 0.195350 1.000000
vt 0.195350 0.662500
vt 0.000000 1.000000
vt 0.000000 1.000000
vt 0.000000 1.000000
vt 0.000000 1.000000
vt 0.000000 1.000000
vt 0.000000 1.000000
vt 0.000000 1.000000
vt 0.000000 1.000000
vt 0.807850 0.662500
vt 0.807850 1.000000
vt 0.507850 0.662500
vt 0.507850 1.000000
vt 0.807850 1.000000
vt 0.807850 0.662500
vt 0.507850 1.000000
vt 0.507850 0.662500
vt 0.000000 1.000000
vt 0.000000 1.000000
vt 0.000000 1.000000
vt 0.000000 1.000000
vt 0.000000 1.000000
vt 0.000000 1.000000
vt 0.000000 1.000000
vt 0.000000 1.000000
vt 0.807850 0.357812
vt 0.807850 0.695312
vt 0.507850 0.357812
vt 0.507850 0.695312
vt 0.807850 0.695312
vt 0.807850 0.357812
vt 0.507850 0.695312
vt 0.507850 0.357812
vt 0.000000 1.000000
vt 0.000000 1.000000
vt 0.000000 1.000000
vt 0.000000 1.000000
vt 0.000000 1.000000
vt 0.000000 1.000000
vt 0.000000 1.000000
vt 0.000000 1.000000
vt 0.495350 0.326562
vt 0.495350 0.664062
vt 0.195350 0.326562
vt 0.195350 0.664062
vt 0.495350 0.664062
vt 0.495350 0.326562
vt 0.195350 0.664062
vt 0.195350 0.326562
vt 0.000000 1.000000
vt 0.000000 1.000000
vt 0.000000 1.000000
vt 0.000000 1.000000
vt 0.000000 1.000000
vt 0.000000 1.000000
vt 0.000000 1.000000
vt 0.000000 1.000000
vt 0.807800 0.000000
vt 0.807800 0.312500
vt 0.507850 0.000000
vt 0.507850 0.312500
vt 0.807800 0.312500
vt 0.807800 0.000000
vt 0.507850 0.312500
vt 0.507850 0.000000
vt 0.000000 1.000000
vt 0.000000 1.000000
vt 0.000000 1.000000
vt 0.000000 1.000000
vt 0.000000 1.000000
vt 0.000000 1.000000
vt 0.000000 1.000000
vt 0.000000 1.000000
vt 0.495350 0.000000
vt 0.495350 0.312500
vt 0.195350 0.000000
vt 0.195350 0.312500
vt 0.495350 0.312500
vt 0.495350 0.000000
vt 0.195350 0.312500
vt 0.195350 0.000000
vn -0.6277 -0.2912 0.7219
vn -0.6277 -0.2913 0.7218
vn -0.6311 -0.2911 0.7190
vn 0.6302 0.2911 -0.7198
vn 0.6302 0.2912 -0.7198
vn 0.6273 0.2911 -0.7223
vn 0.4044 0.6692 0.6233
vn -0.4044 -0.6692 -0.6233
vn -0.6660 0.6842 -0.2973
vn -0.6659 0.6842 -0.2975
vn -0.6669 0.6810 -0.3024
vn 0.6658 -0.6827 0.3012
vn 0.6658 -0.6827 0.3010
vn 0.6647 -0.6824 0.3041
vn 0.0375 0.4331 0.9006
vn 0.0316 0.4356 0.8996
vn -0.0360 -0.4337 -0.9003
vn -0.0363 -0.4336 -0.9004
vn -0.0360 -0.4347 -0.8998
vn -0.0360 -0.4349 -0.8998
vn 0.7465 0.5873 -0.3128
vn -0.7465 -0.5873 0.3128
vn -0.6645 0.6835 -0.3022
vn -0.6643 0.6836 -0.3022
vn -0.6642 0.6835 -0.3028
vn -0.6642 0.6834 -0.3029
vn 0.6650 -0.6829 0.3023
vn 0.6669 -0.6816 0.3010
vn 0.6669 -0.6816 0.3011
vn 0.2902 0.2273 0.9296
vn 0.2901 0.2273 0.9296
vn 0.2770 0.2293 0.9331
vn -0.2811 -0.2278 -0.9322
vn -0.2810 -0.2278 -0.9323
vn -0.2825 -0.2291 -0.9315
vn -0.2824 -0.2291 -0.9315
vn 0.8950 0.2878 -0.3408
vn -0.8950 -0.2878 0.3408
vn -0.3501 0.9285 -0.1235
vn -0.3440 0.9308 -0.1234
vn 0.3492 -0.9289 0.1233
vn 0.3491 -0.9289 0.1234
vn 0.3439 -0.9307 0.1247
vn 0.3440 -0.9307 0.1246
vn -0.7417 -0.1935 0.6423
vn -0.7417 -0.1934 0.6423
vn -0.7373 -0.1942 0.6470
vn -0.7372 -0.1943 0.6471
vn 0.7438 0.1925 -0.6400
vn 0.7439 0.1925 -0.6399
vn 0.7452 0.1927 -0.6383
vn 0.7453 0.1927 -0.6383
vn 0.5706 0.3131 0.7592
vn -0.5706 -0.3131 -0.7592
vn -0.3501 0.9284 -0.1249
vn -0.3437 0.9310 -0.1228
vn 0.3472 -0.9289 0.1289
vn 0.3434 -0.9315 0.1198
vn 0.9397 0.3420 0.0000
vn -0.9397 -0.3420 -0.0000
vn -0.7755 0.2117 0.5949
vn -0.7791 0.2108 0.5903
vn -0.7791 0.2107 0.5904
vn 0.7758 -0.2112 -0.5946
vn 0.7757 -0.2113 -0.5947
vn 0.7767 -0.2117 -0.5932
vn 0.7767 -0.2116 -0.5933
vn -0.5000 0.3660 -0.7849
vn 0.5000 -0.3660 0.7849
vn -0.3834 -0.9061 -0.1786
vn -0.3831 -0.9062 -0.1787
vn -0.3834 -0.9075 -0.1717
vn 0.3815 0.9077 0.1746
vn 0.3835 0.9054 0.1825
vn 0.3834 0.9054 0.1821
vn 0.0573 -0.2117 0.9756
vn 0.0578 -0.2116 0.9756
vn 0.0482 -0.2111 0.9763
vn -0.0463 0.2120 -0.9762
vn -0.0464 0.2120 -0.9762
vn -0.0418 0.2111 -0.9766
vn -0.9227 0.3660 0.1214
vn 0.9227 -0.3660 -0.1214
vn -0.3837 -0.9060 -0.1788
vn -0.3836 -0.9060 -0.1788
vn -0.3825 -0.9065 -0.1785
vn -0.3824 -0.9066 -0.1784
vn 0.3844 0.9057 0.1787
vn 0.3845 0.9057 0.1786
vn 0.3838 0.9058 0.1794
vn 0.3841 0.9058 0.1790
vn -0.6076 0.5325 0.5893
vn -0.6076 0.5326 0.5892
vn -0.6085 0.5390 0.5825
vn 0.6057 -0.5326 -0.5912
vn 0.6057 -0.5353 -0.5887
vn -0.1890 0.6243 -0.7580
vn 0.1890 -0.6243 0.7580
vn -0.7696 -0.5686 -0.2905
vn -0.7695 -0.5687 -0.2905
vn -0.7739 -0.5704 -0.2753
vn 0.7761 0.5693 0.2712
vn 0.7761 0.5693 0.2713
vn 0.7740 0.5691 0.2774
vn -0.0419 -0.3973 0.9168
vn -0.0186 -0.4053 0.9140
vn -0.0182 -0.4056 0.9139
vn 0.0329 0.4072 -0.9128
vn 0.0263 0.4015 -0.9155
vn -0.6337 0.7149 0.2956
vn 0.6337 -0.7149 -0.2956
vn -0.7731 -0.5703 -0.2776
vn -0.7741 -0.5696 -0.2762
vn -0.7742 -0.5696 -0.2760
vn 0.7714 0.5730 0.2770
vn 0.7752 0.5677 0.2771
vn 0.7752 0.5676 0.2772
vn -0.3826 0.6934 0.6106
vn -0.3827 0.6935 0.6104
vn -0.3786 0.6886 0.6184
vn 0.3781 -0.6929 -0.6139
vn 0.3761 -0.6814 -0.6278
vn 0.3761 -0.6814 -0.6279
vn 0.1508 0.7015 -0.6966
vn -0.1508 -0.7015 0.6966
vn -0.9109 -0.1757 -0.3734
vn -0.9109 -0.1757 -0.3733
vn -0.9134 -0.1707 -0.3695
vn -0.9134 -0.1707 -0.3696
vn 0.9104 0.1741 0.3754
vn 0.9104 0.1743 0.3753
vn 0.9164 0.1686 0.3630
vn -0.2456 -0.5053 0.8273
vn -0.2457 -0.5054 0.8272
vn -0.2404 -0.4926 0.8364
vn -0.2404 -0.4925 0.8364
vn 0.2503 0.5099 -0.8230
vn 0.2500 0.5099 -0.8231
vn 0.2352 0.4803 -0.8450
vn -0.3275 0.8497 0.4132
vn 0.3275 -0.8497 -0.4132
vn -0.9104 -0.1748 -0.3750
vn -0.9104 -0.1749 -0.3750
vn -0.9150 -0.1698 -0.3659
vn 0.9122 0.1709 0.3724
vn 0.9139 0.1733 0.3670
vn 0.9139 0.1732 0.3670
vn -0.1418 -0.4956 0.8569
vn -0.1413 -0.4906 0.8599
vn -0.1411 -0.4908 0.8598
vn 0.1395 0.4957 -0.8572
vn 0.1398 0.4958 -0.8571
vn 0.1401 0.4937 -0.8583
vn -0.2747 0.8529 0.4440
vn 0.2747 -0.8529 -0.4440
vn -0.9509 -0.1740 -0.2558
vn -0.9510 -0.1739 -0.2558
vn -0.9507 -0.1744 -0.2564
vn -0.9508 -0.1743 -0.2563
vn 0.9516 0.1708 0.2555
vn 0.9516 0.1707 0.2555
vn 0.9516 0.1734 0.2539
vn -0.3062 0.4891 0.8167
vn -0.3093 0.4951 0.8119
vn -0.3093 0.4949 0.8120
vn 0.3086 -0.4936 -0.8131
vn 0.3086 -0.4938 -0.8130
vn 0.3093 -0.4932 -0.8131
vn -0.0159 0.8529 -0.5219
vn 0.0158 -0.8529 0.5219
vn -0.9525 -0.1703 -0.2526
vn -0.9514 -0.1753 -0.2531
vn -0.9514 -0.1755 -0.2531
vn 0.9502 0.1807 0.2538
vn 0.9507 0.1777 0.2540
vn 0.0507 0.5507 0.8331
vn 0.0507 0.5508 0.8331
vn 0.0510 0.5551 0.8302
vn 0.0510 0.5551 0.8303
vn -0.0515 -0.5468 -0.8357
vn -0.0518 -0.5535 -0.8312
vn -0.0518 -0.5536 -0.8312
vn 0.3787 0.7608 -0.5270
vn -0.3787 -0.7608 0.5270
vn -0.9241 0.3426 -0.1691
vn -0.9241 0.3426 -0.1695
vn -0.9248 0.3409 -0.1691
vn -0.9248 0.3408 -0.1689
vn 0.9286 -0.3299 0.1701
vn 0.9285 -0.3300 0.1701
vn 0.9220 -0.3485 0.1688
vn 0.9220 -0.3484 0.1689
vn -0.3433 -0.5287 0.7763
vn -0.3434 -0.5285 0.7764
vn -0.3333 -0.5236 0.7841
vn -0.3332 -0.5236 0.7841
vn 0.3366 0.5197 -0.7852
vn 0.3365 0.5198 -0.7852
vn 0.3391 0.5280 -0.7786
vn 0.3393 0.5279 -0.7786
vn 0.1780 0.7782 0.6023
vn -0.1780 -0.7782 -0.6023
vn -0.9237 0.3449 -0.1670
vn -0.9236 0.3449 -0.1672
vn -0.9231 0.3440 -0.1718
vn 0.9258 -0.3376 0.1702
vn 0.9258 -0.3377 0.1701
vn 0.9248 -0.3409 0.1687
vn 0.2716 0.5065 0.8184
vn 0.2701 0.5028 0.8211
vn -0.2726 -0.5031 -0.8201
vn -0.2760 -0.5043 -0.8182
vn -0.2760 -0.5042 -0.8183
vn 0.5992 0.5767 -0.5553
vn -0.5992 -0.5767 0.5553
vn -0.7488 0.6471 -0.1436
vn -0.7530 0.6422 -0.1438
vn 0.7479 -0.6482 0.1433
vn 0.7601 -0.6331 0.1465
vn -0.5094 -0.4252 0.7481
vn -0.5105 -0.4267 0.7465
vn 0.5092 0.4272 -0.7472
vn 0.5092 0.4271 -0.7472
vn 0.5074 0.4234 -0.7505
vn 0.4201 0.6358 0.6475
vn -0.4201 -0.6358 -0.6475
vn -0.7564 0.6382 -0.1431
vn -0.7564 0.6382 -0.1432
vn -0.7519 0.6439 -0.1417
vn 0.7564 -0.6383 0.1431
vn 0.7563 -0.6384 0.1430
vn 0.7446 -0.6520 0.1431
usemtl 4.015
s 1
f 1/1/1 2/2/2 3/3/3
f 2/2/2 4/4/3 3/3/3
f 5/5/4 6/6/5 7/7/6
f 6/6/5 8/8/6 7/7/6
f 5/9/7 7/10/7 3/11/7
f 7/10/7 1/12/7 3/11/7
f 8/13/8 6/14/8 2/15/8
f 6/14/8 4/16/8 2/15/8
f 7/7/9 8/8/10 1/1/11
f 8/8/10 2/2/11 1/1/11
f 3/3/12 4/4/13 5/5/14
f 4/4/13 6/6/14 5/5/14
f 65/17/15 66/18/15 67/19/16
f 66/18/15 68/20/16 67/19/16
f 69/21/17 70/22/18 71/23/19
f 70/22/18 72/24/20 71/23/19
f 69/25/21 71/26/21 67/27/21
f 71/26/21 65/28/21 67/27/21
f 72/29/22 70/30/22 66/31/22
f 70/30/22 68/32/22 66/31/22
f 71/23/23 72/24/24 65/17/25
f 72/24/24 66/18/26 65/17/25
f 67/19/27 68/20/27 69/21/28
f 68/20/27 70/22/29 69/21/28
f 73/33/30 74/34/31 75/35/32
f 74/34/31 76/36/32 75/35/32
f 77/37/33 78/38/34 79/39/35
f 78/38/34 80/40/36 79/39/35
f 77/41/37 79/42/37 75/43/37
f 79/42/37 73/44/37 75/43/37
f 80/45/38 78/46/38 74/47/38
f 78/46/38 76/48/38 74/47/38
f 79/39/39 80/40/39 73/33/40
f 80/40/39 74/34/40 73/33/40
f 75/35/41 76/36/42 77/37/43
f 76/36/42 78/38/44 77/37/43
f 81/49/45 82/50/46 83/51/47
f 82/50/46 84/52/48 83/51/47
f 85/53/49 86/54/50 87/55/51
f 86/54/50 88/56/52 87/55/51
f 85/57/53 87/58/53 83/59/53
f 87/58/53 81/60/53 83/59/53
f 88/61/54 86/62/54 82/63/54
f 86/62/54 84/64/54 82/63/54
f 87/55/55 88/56/55 81/49/56
f 88/56/55 82/50/56 81/49/56
f 83/51/57 84/52/57 85/53/58
f 84/52/57 86/54/58 85/53/58
usemtl 2.020
f 9/65/59 10/66/59 11/67/59
f 10/66/59 12/68/59 11/67/59
f 13/69/60 14/70/60 15/71/60
f 14/70/60 16/72/60 15/71/60
usemtl 3.020
f 17/73/61 18/74/61 19/75/62
f 18/74/61 20/76/63 19/75/62
f 21/77/64 22/78/65 23/79/66
f 22/78/65 24/80/67 23/79/66
f 21/81/68 23/82/68 19/83/68
f 23/82/68 17/84/68 19/83/68
f 24/85/69 22/86/69 18/87/69
f 22/86/69 20/88/69 18/87/69
f 23/79/70 24/80/71 17/73/72
f 24/80/71 18/74/72 17/73/72
f 19/75/73 20/76/73 21/77/74
f 20/76/73 22/78/75 21/77/74
f 25/89/76 26/90/77 27/91/78
f 26/90/77 28/92/78 27/91/78
f 29/93/79 30/94/80 31/95/81
f 30/94/80 32/96/81 31/95/81
f 29/97/82 31/98/82 27/99/82
f 31/98/82 25/100/82 27/99/82
f 32/101/83 30/102/83 26/103/83
f 30/102/83 28/104/83 26/103/83
f 31/95/84 32/96/85 25/89/86
f 32/96/85 26/90/87 25/89/86
f 27/91/88 28/92/89 29/93/90
f 28/92/89 30/94/91 29/93/90
f 33/105/92 34/106/93 35/107/94
f 34/106/93 36/108/94 35/107/94
f 37/109/95 38/110/95 39/111/96
f 38/110/95 40/112/96 39/111/96
f 37/113/97 39/114/97 35/115/97
f 39/114/97 33/116/97 35/115/97
f 40/117/98 38/118/98 34/119/98
f 38/118/98 36/120/98 34/119/98
f 39/111/99 40/112/100 33/105/101
f 40/112/100 34/106/101 33/105/101
f 35/107/102 36/108/103 37/109/104
f 36/108/103 38/110/104 37/109/104
f 41/121/105 42/122/105 43/123/106
f 42/122/105 44/124/107 43/123/106
f 45/125/108 46/126/108 47/127/109
f 46/126/108 48/128/109 47/127/109
f 45/129/110 47/130/110 43/131/110
f 47/130/110 41/132/110 43/131/110
f 48/133/111 46/134/111 42/135/111
f 46/134/111 44/136/111 42/135/111
f 47/127/112 48/128/112 41/121/113
f 48/128/112 42/122/114 41/121/113
f 43/123/115 44/124/115 45/125/116
f 44/124/115 46/126/117 45/125/116
f 49/137/118 50/138/119 51/139/120
f 50/138/119 52/140/120 51/139/120
f 53/141/121 54/142/121 55/143/122
f 54/142/121 56/144/123 55/143/122
f 53/145/124 55/146/124 51/147/124
f 55/146/124 49/148/124 51/147/124
f 56/149/125 54/150/125 50/151/125
f 54/150/125 52/152/125 50/151/125
f 55/143/126 56/144/127 49/137/128
f 56/144/127 50/138/129 49/137/128
f 51/139/130 52/140/131 53/141/132
f 52/140/131 54/142/132 53/141/132
f 57/153/133 58/154/134 59/155/135
f 58/154/134 60/156/136 59/155/135
f 61/157/137 62/158/138 63/159/139
f 62/158/138 64/160/139 63/159/139
f 61/161/140 63/162/140 59/163/140
f 63/162/140 57/164/140 59/163/140
f 64/165/141 62/166/141 58/167/141
f 62/166/141 60/168/141 58/167/141
f 63/159/142 64/160/143 57/153/144
f 64/160/143 58/154/144 57/153/144
f 59/155/145 60/156/145 61/157/146
f 60/156/145 62/158/147 61/157/146
f 89/169/148 90/170/148 91/171/149
f 90/170/148 92/172/150 91/171/149
f 93/173/151 94/174/152 95/175/153
f 94/174/152 96/176/153 95/175/153
f 93/177/154 95/178/154 91/179/154
f 95/178/154 89/180/154 91/179/154
f 96/181/155 94/182/155 90/183/155
f 94/182/155 92/184/155 90/183/155
f 95/175/156 96/176/157 89/169/158
f 96/176/157 90/170/159 89/169/158
f 91/171/160 92/172/161 93/173/162
f 92/172/161 94/174/162 93/173/162
f 97/185/163 98/186/163 99/187/164
f 98/186/163 100/188/165 99/187/164
f 101/189/166 102/190/167 103/191/168
f 102/190/167 104/192/168 103/191/168
f 101/193/169 103/194/169 99/195/169
f 103/194/169 97/196/169 99/195/169
f 104/197/170 102/198/170 98/199/170
f 102/198/170 100/200/170 98/199/170
f 103/191/171 104/192/171 97/185/172
f 104/192/171 98/186/173 97/185/172
f 99/187/174 100/188/174 101/189/175
f 100/188/174 102/190/175 101/189/175
f 105/201/176 106/202/177 107/203/178
f 106/202/177 108/204/179 107/203/178
f 109/205/180 110/206/180 111/207/181
f 110/206/180 112/208/182 111/207/181
f 109/209/183 111/210/183 107/211/183
f 111/210/183 105/212/183 107/211/183
f 112/213/184 110/214/184 106/215/184
f 110/214/184 108/216/184 106/215/184
f 111/207/185 112/208/186 105/201/187
f 112/208/186 106/202/188 105/201/187
f 107/203/189 108/204/190 109/205/191
f 108/204/190 110/206/192 109/205/191
f 113/217/193 114/218/194 115/219/195
f 114/218/194 116/220/196 115/219/195
f 117/221/197 118/222/198 119/223/199
f 118/222/198 120/224/200 119/223/199
f 117/225/201 119/226/201 115/227/201
f 119/226/201 113/228/201 115/227/201
f 120/229/202 118/230/202 114/231/202
f 118/230/202 116/232/202 114/231/202
f 119/223/203 120/224/204 113/217/205
f 120/224/204 114/218/205 113/217/205
f 115/219/206 116/220/207 117/221/208
f 116/220/207 118/222/208 117/221/208
f 121/233/209 122/234/209 123/235/210
f 122/234/209 124/236/210 123/235/210
f 125/237/211 126/238/211 127/239/212
f 126/238/211 128/240/213 127/239/212
f 125/241/214 127/242/214 123/243/214
f 127/242/214 121/244/214 123/243/214
f 128/245/215 126/246/215 122/247/215
f 126/246/215 124/248/215 122/247/215
f 127/239/216 128/240/216 121/233/217
f 128/240/216 122/234/217 121/233/217
f 123/235/218 124/236/218 125/237/219
f 124/236/218 126/238/219 125/237/219
f 129/249/220 130/250/220 131/251/221
f 130/250/220 132/252/221 131/251/221
f 133/253/222 134/254/223 135/255/224
f 134/254/223 136/256/224 135/255/224
f 133/257/225 135/258/225 131/259/225
f 135/258/225 129/260/225 131/259/225
f 136/261/226 134/262/226 130/263/226
f 134/262/226 132/264/226 130/263/226
f 135/255/227 136/256/228 129/249/229
f 136/256/228 130/250/229 129/249/229
f 131/251/230 132/252/231 133/253/232
f 132/252/231 134/254/232 133/253/232
