# Blender v2.83.0 OBJ File: ''
# www.blender.org
mtllib diagonal_oak_branch_22_45_branches.mtl
o halfbeam
v 0.905638 0.613328 0.727182
v 0.973287 0.382358 0.794831
v 0.252356 0.230645 0.073900
v 0.320006 -0.000325 0.141549
v 0.075579 0.230645 0.250677
v 0.143229 -0.000325 0.318326
v 0.728861 0.613328 0.903958
v 0.796510 0.382358 0.971608
vt 0.250000 0.062500
vt 0.500000 0.062500
vt 0.250000 0.875000
vt 0.500000 0.875000
vt 0.250000 0.031250
vt 0.500000 0.031250
vt 0.250000 0.843750
vt 0.500000 0.843750
vt 0.750000 1.000000
vt 0.750000 0.187500
vt 1.000000 1.000000
vt 1.000000 0.187500
vt 1.000000 0.187500
vt 1.000000 1.000000
vt 0.750000 0.187500
vt 0.750000 1.000000
vt 0.750000 0.437500
vt 0.750000 0.687500
vt 0.500000 0.437500
vt 0.500000 0.687500
vt 1.000000 0.218750
vt 1.000000 0.468750
vt 0.750000 0.218750
vt 0.750000 0.468750
vn 0.7071 0.0000 -0.7071
vn -0.7071 -0.0000 0.7071
vn -0.2706 0.9239 -0.2706
vn 0.2706 -0.9239 0.2706
vn 0.6533 0.3827 0.6533
vn -0.6533 -0.3827 -0.6533
usemtl m_2_7_1
s 1
f 1/1/1 2/2/1 3/3/1
f 2/2/1 4/4/1 3/3/1
f 5/5/2 6/6/2 7/7/2
f 6/6/2 8/8/2 7/7/2
f 5/9/3 7/10/3 3/11/3
f 7/10/3 1/12/3 3/11/3
f 8/13/4 6/14/4 2/15/4
f 6/14/4 4/16/4 2/15/4
f 7/17/5 8/18/5 1/19/5
f 8/18/5 2/20/5 1/19/5
f 3/21/6 4/22/6 5/23/6
f 4/22/6 6/24/6 5/23/6
o halfbeam.000
v 0.252356 0.230645 0.073900
v 0.320006 -0.000325 0.141549
v 0.027791 0.099097 -0.150666
v 0.095440 -0.131873 -0.083016
v -0.148986 0.099097 0.026111
v -0.081337 -0.131873 0.093761
v 0.075579 0.230645 0.250677
v 0.143229 -0.000325 0.318326
vt 0.250000 0.531250
vt 0.500000 0.531250
vt 0.250000 0.875000
vt 0.500000 0.875000
vt 0.250000 0.500000
vt 0.500000 0.500000
vt 0.250000 0.843750
vt 0.500000 0.843750
vt 0.750000 0.343750
vt 0.750000 0.000000
vt 1.000000 0.343750
vt 1.000000 0.000000
vt 1.000000 0.656250
vt 1.000000 1.000000
vt 0.750000 0.656250
vt 0.750000 1.000000
vt 0.750000 0.437500
vt 0.750000 0.687500
vt 0.500000 0.437500
vt 0.500000 0.687500
vt 1.000000 0.218750
vt 1.000000 0.468750
vt 0.750000 0.218750
vt 0.750000 0.468750
vn 0.7071 -0.0000 -0.7071
vn -0.7071 -0.0000 0.7071
vn -0.2706 0.9239 -0.2706
vn 0.2706 -0.9239 0.2706
vn 0.6533 0.3827 0.6533
vn -0.6533 -0.3827 -0.6533
usemtl m_2_7_1
s 1
f 9/25/7 10/26/7 11/27/7
f 10/26/7 12/28/7 11/27/7
f 13/29/8 14/30/8 15/31/8
f 14/30/8 16/32/8 15/31/8
f 13/33/9 15/34/9 11/35/9
f 15/34/9 9/36/9 11/35/9
f 16/37/10 14/38/10 10/39/10
f 14/38/10 12/40/10 10/39/10
f 15/41/11 16/42/11 9/43/11
f 16/42/11 10/44/11 9/43/11
f 11/45/12 12/46/12 13/47/12
f 12/46/12 14/48/12 13/47/12
o halfbeam.001
v 1.103859 0.618545 0.923331
v 1.103859 0.375625 0.923331
v 0.904985 0.618545 0.724457
v 0.904985 0.375625 0.724457
v 0.728208 0.618545 0.901234
v 0.728208 0.375625 0.901234
v 0.927082 0.618545 1.100108
v 0.927082 0.375625 1.100108
vt 0.250000 0.593750
vt 0.492920 0.593750
vt 0.250000 0.875000
vt 0.492920 0.875000
vt 0.250000 0.562500
vt 0.492920 0.562500
vt 0.250000 0.843750
vt 0.492920 0.843750
vt 0.750000 1.000000
vt 0.750000 0.718750
vt 1.000000 1.000000
vt 1.000000 0.718750
vt 1.000000 0.718750
vt 1.000000 1.000000
vt 0.750000 0.718750
vt 0.750000 1.000000
vt 0.750000 0.444580
vt 0.750000 0.687500
vt 0.500000 0.444580
vt 0.500000 0.687500
vt 1.000000 0.225830
vt 1.000000 0.468750
vt 0.750000 0.225830
vt 0.750000 0.468750
vn 0.7071 0.0000 -0.7071
vn -0.7071 -0.0000 0.7071
vn 0.0000 1.0000 0.0000
vn 0.0000 -1.0000 -0.0000
vn 0.7071 0.0000 0.7071
vn -0.7071 0.0000 -0.7071
usemtl m_2_7_1
s 1
f 17/49/13 18/50/13 19/51/13
f 18/50/13 20/52/13 19/51/13
f 21/53/14 22/54/14 23/55/14
f 22/54/14 24/56/14 23/55/14
f 21/57/15 23/58/15 19/59/15
f 23/58/15 17/60/15 19/59/15
f 24/61/16 22/62/16 18/63/16
f 22/62/16 20/64/16 18/63/16
f 23/65/17 24/66/17 17/67/17
f 24/66/17 18/68/17 17/67/17
f 19/69/18 20/70/18 21/71/18
f 20/70/18 22/72/18 21/71/18
o halfbeam.002
v 0.254665 0.922852 1.072290
v 0.667165 0.339489 0.659790
v 0.188374 0.922852 1.005999
v 0.600874 0.339489 0.593499
v 0.141499 0.856561 1.052874
v 0.553999 0.273198 0.640374
v 0.207790 0.856561 1.119165
v 0.620290 0.273198 0.706665
vt 0.343750 0.050000
vt 0.343750 0.875000
vt 0.250000 0.050000
vt 0.250000 0.875000
vt 0.250000 0.843750
vt 0.250000 0.018750
vt 0.343750 0.843750
vt 0.343750 0.018750
vt 0.593750 0.593750
vt 0.593750 0.687500
vt 0.500000 0.593750
vt 0.500000 0.687500
vt 0.750000 0.468750
vt 0.750000 0.375000
vt 0.843750 0.468750
vt 0.843750 0.375000
vt 0.843750 0.175000
vt 0.843750 1.000000
vt 0.750000 0.175000
vt 0.750000 1.000000
vt 0.843750 0.175000
vt 0.843750 1.000000
vt 0.750000 0.175000
vt 0.750000 1.000000
vn 0.5000 0.7071 -0.5000
vn -0.5000 -0.7071 0.5000
vn -0.5000 0.7071 0.5000
vn 0.5000 -0.7071 -0.5000
vn 0.7071 -0.0000 0.7071
vn -0.7071 0.0000 -0.7071
usemtl m_2_7_1
s 1
f 25/73/19 26/74/19 27/75/19
f 26/74/19 28/76/19 27/75/19
f 29/77/20 30/78/20 31/79/20
f 30/78/20 32/80/20 31/79/20
f 29/81/21 31/82/21 27/83/21
f 31/82/21 25/84/21 27/83/21
f 32/85/22 30/86/22 26/87/22
f 30/86/22 28/88/22 26/87/22
f 31/89/23 32/90/23 25/91/23
f 32/90/23 26/92/23 25/91/23
f 27/93/24 28/94/24 29/95/24
f 28/94/24 30/96/24 29/95/24
o halfbeam.003
v 0.288077 1.035790 0.772534
v 0.401390 0.648915 0.885847
v 0.247247 1.011872 0.731704
v 0.360560 0.624997 0.845017
v 0.203053 1.011872 0.775898
v 0.316366 0.624997 0.889211
v 0.243883 1.035790 0.816728
v 0.357196 0.648915 0.930041
vt 0.312500 0.456250
vt 0.312500 0.875000
vt 0.250000 0.456250
vt 0.250000 0.875000
vt 0.250000 0.843750
vt 0.250000 0.425000
vt 0.312500 0.843750
vt 0.312500 0.425000
vt 0.562500 0.625000
vt 0.562500 0.687500
vt 0.500000 0.625000
vt 0.500000 0.687500
vt 0.750000 0.468750
vt 0.750000 0.406250
vt 0.812500 0.468750
vt 0.812500 0.406250
vt 0.812500 0.581250
vt 0.812500 1.000000
vt 0.750000 0.581250
vt 0.750000 1.000000
vt 0.812500 0.581250
vt 0.812500 1.000000
vt 0.750000 0.581250
vt 0.750000 1.000000
vn 0.7071 0.0000 -0.7071
vn -0.7071 0.0000 0.7071
vn -0.2706 0.9239 -0.2706
vn 0.2706 -0.9239 0.2706
vn 0.6533 0.3827 0.6533
vn -0.6533 -0.3827 -0.6533
usemtl m_2_7_1
s 1
f 33/97/25 34/98/25 35/99/25
f 34/98/25 36/100/25 35/99/25
f 37/101/26 38/102/26 39/103/26
f 38/102/26 40/104/26 39/103/26
f 37/105/27 39/106/27 35/107/27
f 39/106/27 33/108/27 35/107/27
f 40/109/28 38/110/28 34/111/28
f 38/110/28 36/112/28 34/111/28
f 39/113/29 40/114/29 33/115/29
f 40/114/29 34/116/29 33/115/29
f 35/117/30 36/118/30 37/119/30
f 36/118/30 38/120/30 37/119/30
o halfbeam.004
v 0.444823 1.163514 1.242091
v 0.235448 0.867413 1.032716
v 0.413573 1.207708 1.210841
v 0.204198 0.911607 1.001466
v 0.369379 1.207708 1.255036
v 0.160004 0.911607 1.045660
v 0.400629 1.163514 1.286286
v 0.191254 0.867413 1.076910
vt 0.312500 0.456250
vt 0.312500 0.875000
vt 0.250000 0.456250
vt 0.250000 0.875000
vt 0.250000 0.843750
vt 0.250000 0.425000
vt 0.312500 0.843750
vt 0.312500 0.425000
vt 0.562500 0.625000
vt 0.562500 0.687500
vt 0.500000 0.625000
vt 0.500000 0.687500
vt 0.750000 0.468750
vt 0.750000 0.406250
vt 0.812500 0.468750
vt 0.812500 0.406250
vt 0.812500 0.581250
vt 0.812500 1.000000
vt 0.750000 0.581250
vt 0.750000 1.000000
vt 1.000000 0.187500
vt 1.000000 1.000000
vt 0.750000 0.187500
vt 0.750000 1.000000
vn 0.7071 0.0000 -0.7071
vn -0.7071 0.0000 0.7071
vn 0.5000 0.7071 0.5000
vn -0.5000 -0.7071 -0.5000
vn 0.5000 -0.7071 0.5000
vn -0.5000 0.7071 -0.5000
usemtl m_2_7_1
s 1
f 41/121/31 42/122/31 43/123/31
f 42/122/31 44/124/31 43/123/31
f 45/125/32 46/126/32 47/127/32
f 46/126/32 48/128/32 47/127/32
f 45/129/33 47/130/33 43/131/33
f 47/130/33 41/132/33 43/131/33
f 48/133/34 46/134/34 42/135/34
f 46/134/34 44/136/34 42/135/34
f 47/137/35 48/138/35 41/139/35
f 48/138/35 42/140/35 41/139/35
f 43/141/36 44/142/36 45/143/36
f 44/142/36 46/144/36 45/143/36
o halfbeam.005
v 0.391208 2.000000 2.224167
v 0.391208 1.151675 2.224167
v 0.391208 2.000000 1.224167
v 0.391208 1.151675 1.224167
v 0.391145 2.000000 1.224167
v 0.391145 1.151675 1.224167
v 0.391145 2.000000 2.224167
v 0.391145 1.151675 2.224167
vt 0.000000 0.843750
vt 0.000000 0.000000
vt 1.000000 0.843750
vt 1.000000 0.000000
vt 1.000000 0.843750
vt 1.000000 0.000000
vt 0.000000 0.843750
vt 0.000000 0.000000
vt 0.562500 0.625000
vt 0.562500 0.687500
vt 0.500000 0.625000
vt 0.500000 0.687500
vt 0.750000 0.468750
vt 0.750000 0.406250
vt 0.812500 0.468750
vt 0.812500 0.406250
vt 0.812500 0.581250
vt 0.812500 1.000000
vt 0.750000 0.581250
vt 0.750000 1.000000
vt 1.000000 0.187500
vt 1.000000 1.000000
vt 0.750000 0.187500
vt 0.750000 1.000000
vn 1.0000 0.0000 0.0000
vn -1.0000 0.0000 0.0000
vn 0.0000 1.0000 0.0000
vn 0.0000 -1.0000 0.0000
vn 0.0000 0.0000 1.0000
vn 0.0000 0.0000 -1.0000
usemtl m_2_1
s 1
f 49/145/37 50/146/37 51/147/37
f 50/146/37 52/148/37 51/147/37
f 53/149/38 54/150/38 55/151/38
f 54/150/38 56/152/38 55/151/38
usemtl m_2_7_1
f 53/153/39 55/154/39 51/155/39
f 55/154/39 49/156/39 51/155/39
f 56/157/40 54/158/40 50/159/40
f 54/158/40 52/160/40 50/159/40
f 55/161/41 56/162/41 49/163/41
f 56/162/41 50/164/41 49/163/41
f 51/165/42 52/166/42 53/167/42
f 52/166/42 54/168/42 53/167/42
o halfbeam.006
v 0.231038 1.993717 0.779004
v 0.231038 0.993717 0.779004
v 0.231015 1.993717 0.778947
v 0.231015 0.993717 0.778946
v -0.692865 1.993717 1.161630
v -0.692865 0.993717 1.161630
v -0.692841 1.993717 1.161688
v -0.692841 0.993717 1.161688
vt 1.000000 0.187500
vt 1.000000 1.000000
vt 0.750000 0.187500
vt 0.750000 1.000000
vt 0.812500 0.581250
vt 0.812500 1.000000
vt 0.750000 0.581250
vt 0.750000 1.000000
vt 0.562500 0.687500
vt 0.500000 0.687500
vt 0.562500 0.625000
vt 0.500000 0.625000
vt 0.812500 0.468750
vt 0.750000 0.468750
vt 0.812500 0.406250
vt 0.750000 0.406250
vt 0.000000 1.000000
vt 0.000000 0.000000
vt 1.000000 1.000000
vt 1.000000 0.000000
vt 1.000000 1.000000
vt 1.000000 0.000000
vt 0.000000 1.000000
vt 0.000000 0.000000
vn 0.9241 0.0000 -0.3822
vn 0.9238 0.0000 -0.3829
vn -0.9238 -0.0000 0.3829
vn -0.9241 -0.0000 0.3822
vn -0.9238 -0.0000 0.3828
vn -0.9240 -0.0000 0.3825
vn -0.0000 1.0000 0.0000
vn 0.0000 -1.0000 -0.0000
vn 0.3827 -0.0000 0.9239
vn -0.3827 0.0000 -0.9239
usemtl m_2_7_1
s 1
f 57/169/43 58/170/44 59/171/43
f 58/170/44 60/172/44 59/171/43
f 61/173/45 62/174/46 63/175/47
f 62/174/46 64/176/48 63/175/47
f 61/177/49 63/178/49 59/179/49
f 63/178/49 57/180/49 59/179/49
f 64/181/50 62/182/50 58/183/50
f 62/182/50 60/184/50 58/183/50
usemtl m_2_3
f 63/185/51 64/186/51 57/187/51
f 64/186/51 58/188/51 57/187/51
f 59/189/52 60/190/52 61/191/52
f 60/190/52 62/192/52 61/191/52
o halfbeam.007
v 1.631234 1.761539 0.012681
v 1.631234 0.761539 0.012681
v 1.631210 1.761539 0.012624
v 1.631210 0.761539 0.012624
v 0.707330 1.761539 0.395307
v 0.707330 0.761539 0.395307
v 0.707354 1.761539 0.395365
v 0.707354 0.761539 0.395365
vt 0.812500 0.581250
vt 0.812500 1.000000
vt 0.750000 0.581250
vt 0.750000 1.000000
vt 1.000000 0.187500
vt 1.000000 1.000000
vt 0.750000 0.187500
vt 0.750000 1.000000
vt 0.500000 0.625000
vt 0.562500 0.625000
vt 0.500000 0.687500
vt 0.562500 0.687500
vt 0.750000 0.406250
vt 0.812500 0.406250
vt 0.750000 0.468750
vt 0.812500 0.468750
vt 1.000000 1.000000
vt 1.000000 0.000000
vt 0.000000 1.000000
vt 0.000000 0.000000
vt 0.000000 1.000000
vt 0.000000 0.000000
vt 1.000000 1.000000
vt 1.000000 0.000000
vn 0.9238 -0.0000 -0.3828
vn 0.9238 0.0000 -0.3830
vn 0.9236 0.0000 -0.3833
vn -0.9239 -0.0000 0.3827
vn -0.9240 -0.0000 0.3824
vn -0.0000 1.0000 0.0000
vn -0.0000 1.0000 -0.0001
vn -0.0000 1.0000 -0.0002
vn 0.0000 -1.0000 0.0000
vn 0.0000 -1.0000 0.0001
vn 0.0000 -1.0000 0.0002
vn 0.3827 -0.0000 0.9239
vn -0.3827 0.0000 -0.9239
usemtl m_2_7_1
s 1
f 65/193/53 66/194/54 67/195/53
f 66/194/54 68/196/55 67/195/53
f 69/197/56 70/198/57 71/199/57
f 70/198/57 72/200/57 71/199/57
f 69/201/58 71/202/58 67/203/59
f 71/202/58 65/204/60 67/203/59
f 72/205/61 70/206/61 66/207/62
f 70/206/61 68/208/63 66/207/62
usemtl m_2_2
f 71/209/64 72/210/64 65/211/64
f 72/210/64 66/212/64 65/211/64
f 67/213/65 68/214/65 69/215/65
f 68/214/65 70/216/65 69/215/65
o halfbeam.008
v 0.749294 0.773021 0.345296
v 0.635981 0.386146 0.458609
v 0.705100 0.773021 0.301102
v 0.591787 0.386146 0.414415
v 0.664270 0.796939 0.341932
v 0.550957 0.410064 0.455245
v 0.708464 0.796939 0.386126
v 0.595151 0.410064 0.499439
vt 0.312500 0.456250
vt 0.312500 0.875000
vt 0.250000 0.456250
vt 0.250000 0.875000
vt 0.250000 0.843750
vt 0.250000 0.425000
vt 0.312500 0.843750
vt 0.312500 0.425000
vt 0.562500 0.625000
vt 0.562500 0.687500
vt 0.500000 0.625000
vt 0.500000 0.687500
vt 0.750000 0.468750
vt 0.750000 0.406250
vt 0.812500 0.468750
vt 0.812500 0.406250
vt 0.812500 0.581250
vt 0.812500 1.000000
vt 0.750000 0.581250
vt 0.750000 1.000000
vt 0.812500 0.581250
vt 0.812500 1.000000
vt 0.750000 0.581250
vt 0.750000 1.000000
vn 0.6533 -0.3827 -0.6533
vn -0.6533 0.3827 0.6533
vn 0.2706 0.9239 -0.2706
vn -0.2706 -0.9239 0.2706
vn 0.7071 0.0000 0.7071
vn -0.7071 0.0000 -0.7071
usemtl m_2_7_1
s 1
f 73/217/66 74/218/66 75/219/66
f 74/218/66 76/220/66 75/219/66
f 77/221/67 78/222/67 79/223/67
f 78/222/67 80/224/67 79/223/67
f 77/225/68 79/226/68 75/227/68
f 79/226/68 73/228/68 75/227/68
f 80/229/69 78/230/69 74/231/69
f 78/230/69 76/232/69 74/231/69
f 79/233/70 80/234/70 73/235/70
f 80/234/70 74/236/70 73/235/70
f 75/237/71 76/238/71 77/239/71
f 76/238/71 78/240/71 77/239/71
