# Blender v2.83.0 OBJ File: ''
# www.blender.org
mtllib diagonal_oak_branch_22_45.mtl
o halfbeam
v 0.905638 0.613328 0.727182
v 0.973287 0.382358 0.794831
v 0.252356 0.230645 0.073900
v 0.320006 -0.000325 0.141549
v 0.075579 0.230645 0.250677
v 0.143229 -0.000325 0.318326
v 0.728861 0.613328 0.903958
v 0.796510 0.382358 0.971608
vt 0.250000 0.062500
vt 0.500000 0.062500
vt 0.250000 0.875000
vt 0.500000 0.875000
vt 0.250000 0.031250
vt 0.500000 0.031250
vt 0.250000 0.843750
vt 0.500000 0.843750
vt 0.750000 1.000000
vt 0.750000 0.187500
vt 1.000000 1.000000
vt 1.000000 0.187500
vt 1.000000 0.187500
vt 1.000000 1.000000
vt 0.750000 0.187500
vt 0.750000 1.000000
vt 0.750000 0.437500
vt 0.750000 0.687500
vt 0.500000 0.437500
vt 0.500000 0.687500
vt 1.000000 0.218750
vt 1.000000 0.468750
vt 0.750000 0.218750
vt 0.750000 0.468750
vn 0.7071 -0.0000 -0.7071
vn -0.7071 -0.0000 0.7071
vn -0.2706 0.9239 -0.2706
vn 0.2706 -0.9239 0.2706
vn 0.6533 0.3827 0.6533
vn -0.6533 -0.3827 -0.6533
usemtl m_2_7_1
s 1
f 1/1/1 2/2/1 3/3/1
f 2/2/1 4/4/1 3/3/1
f 5/5/2 6/6/2 7/7/2
f 6/6/2 8/8/2 7/7/2
f 5/9/3 7/10/3 3/11/3
f 7/10/3 1/12/3 3/11/3
f 8/13/4 6/14/4 2/15/4
f 6/14/4 4/16/4 2/15/4
f 7/17/5 8/18/5 1/19/5
f 8/18/5 2/20/5 1/19/5
f 3/21/6 4/22/6 5/23/6
f 4/22/6 6/24/6 5/23/6
o halfbeam.000
v 0.252356 0.230645 0.073900
v 0.320006 -0.000325 0.141549
v 0.027791 0.099097 -0.150666
v 0.095440 -0.131873 -0.083016
v -0.148986 0.099097 0.026111
v -0.081337 -0.131873 0.093761
v 0.075579 0.230645 0.250677
v 0.143229 -0.000325 0.318326
vt 0.250000 0.531250
vt 0.500000 0.531250
vt 0.250000 0.875000
vt 0.500000 0.875000
vt 0.250000 0.500000
vt 0.500000 0.500000
vt 0.250000 0.843750
vt 0.500000 0.843750
vt 0.750000 0.343750
vt 0.750000 0.000000
vt 1.000000 0.343750
vt 1.000000 0.000000
vt 1.000000 0.656250
vt 1.000000 1.000000
vt 0.750000 0.656250
vt 0.750000 1.000000
vt 0.750000 0.437500
vt 0.750000 0.687500
vt 0.500000 0.437500
vt 0.500000 0.687500
vt 1.000000 0.218750
vt 1.000000 0.468750
vt 0.750000 0.218750
vt 0.750000 0.468750
vn 0.7071 0.0000 -0.7071
vn -0.7071 0.0000 0.7071
vn -0.2706 0.9239 -0.2706
vn 0.2706 -0.9239 0.2706
vn 0.6533 0.3827 0.6533
vn -0.6533 -0.3827 -0.6533
usemtl m_2_7_1
s 1
f 9/25/7 10/26/7 11/27/7
f 10/26/7 12/28/7 11/27/7
f 13/29/8 14/30/8 15/31/8
f 14/30/8 16/32/8 15/31/8
f 13/33/9 15/34/9 11/35/9
f 15/34/9 9/36/9 11/35/9
f 16/37/10 14/38/10 10/39/10
f 14/38/10 12/40/10 10/39/10
f 15/41/11 16/42/11 9/43/11
f 16/42/11 10/44/11 9/43/11
f 11/45/12 12/46/12 13/47/12
f 12/46/12 14/48/12 13/47/12
o halfbeam.001
v 1.103859 0.618545 0.923331
v 1.103859 0.375625 0.923331
v 0.904985 0.618545 0.724457
v 0.904985 0.375625 0.724457
v 0.728208 0.618545 0.901234
v 0.728208 0.375625 0.901234
v 0.927082 0.618545 1.100108
v 0.927082 0.375625 1.100108
vt 0.250000 0.593750
vt 0.492920 0.593750
vt 0.250000 0.875000
vt 0.492920 0.875000
vt 0.250000 0.562500
vt 0.492920 0.562500
vt 0.250000 0.843750
vt 0.492920 0.843750
vt 0.750000 1.000000
vt 0.750000 0.718750
vt 1.000000 1.000000
vt 1.000000 0.718750
vt 1.000000 0.718750
vt 1.000000 1.000000
vt 0.750000 0.718750
vt 0.750000 1.000000
vt 0.750000 0.444580
vt 0.750000 0.687500
vt 0.500000 0.444580
vt 0.500000 0.687500
vt 1.000000 0.225830
vt 1.000000 0.468750
vt 0.750000 0.225830
vt 0.750000 0.468750
vn 0.7071 0.0000 -0.7071
vn -0.7071 0.0000 0.7071
vn 0.0000 1.0000 0.0000
vn 0.0000 -1.0000 -0.0000
vn 0.7071 0.0000 0.7071
vn -0.7071 0.0000 -0.7071
usemtl m_2_7_1
s 1
f 17/49/13 18/50/13 19/51/13
f 18/50/13 20/52/13 19/51/13
f 21/53/14 22/54/14 23/55/14
f 22/54/14 24/56/14 23/55/14
f 21/57/15 23/58/15 19/59/15
f 23/58/15 17/60/15 19/59/15
f 24/61/16 22/62/16 18/63/16
f 22/62/16 20/64/16 18/63/16
f 23/65/17 24/66/17 17/67/17
f 24/66/17 18/68/17 17/67/17
f 19/69/18 20/70/18 21/71/18
f 20/70/18 22/72/18 21/71/18
