# Blender v2.83.0 OBJ File: ''
# www.blender.org
mtllib diagonal_oak_branch_67_45_a.mtl
o halfbeam
v 1.056038 0.761446 0.877582
v 0.742597 0.065648 0.564141
v 0.906946 0.895771 0.728490
v 0.593505 0.199973 0.415049
v 0.730169 0.895771 0.905266
v 0.416728 0.199973 0.591825
v 0.879261 0.761446 1.054358
v 0.565820 0.065648 0.740917
vt 0.500000 0.062500
vt 0.500000 0.875000
vt 0.250000 0.062500
vt 0.250000 0.875000
vt 0.250000 0.843750
vt 0.250000 0.018750
vt 0.500000 0.843750
vt 0.500000 0.018750
vt 0.750000 0.437500
vt 0.750000 0.687500
vt 0.500000 0.437500
vt 0.500000 0.687500
vt 0.750000 0.468750
vt 0.750000 0.218750
vt 1.000000 0.468750
vt 1.000000 0.218750
vt 1.000000 0.187500
vt 1.000000 1.000000
vt 0.750000 0.187500
vt 0.750000 1.000000
vt 1.000000 0.187500
vt 1.000000 1.000000
vt 0.750000 0.187500
vt 0.750000 1.000000
vn 0.7071 0.0000 -0.7071
vn -0.7071 -0.0000 0.7071
vn 0.3799 0.8434 0.3799
vn -0.3799 -0.8434 -0.3799
vn 0.5964 -0.5373 0.5964
vn -0.5964 0.5373 -0.5964
usemtl m_7_1
s 1
f 1/1/1 2/2/1 3/3/1
f 2/2/1 4/4/1 3/3/1
f 5/5/2 6/6/2 7/7/2
f 6/6/2 8/8/2 7/7/2
f 5/9/3 7/10/3 3/11/3
f 7/10/3 1/12/3 3/11/3
f 8/13/4 6/14/4 2/15/4
f 6/14/4 4/16/4 2/15/4
f 7/17/5 8/18/5 1/19/5
f 8/18/5 2/20/5 1/19/5
f 3/21/6 4/22/6 5/23/6
f 4/22/6 6/24/6 5/23/6
o halfbeam.000
v 1.163221 1.290073 0.988218
v 1.255804 1.103084 1.080800
v 1.024071 1.152281 0.849068
v 1.116654 0.965292 0.941650
v 0.850057 1.152281 1.023082
v 0.942639 0.965292 1.115665
v 0.989207 1.290073 1.162233
v 1.081789 1.103084 1.254815
vt 0.250000 0.875000
vt 0.250000 0.646729
vt 0.490234 0.875000
vt 0.490234 0.646729
vt 0.490234 0.615479
vt 0.490234 0.843750
vt 0.250000 0.615479
vt 0.250000 0.843750
vt 0.750000 1.000000
vt 0.750000 0.759766
vt 0.996094 1.000000
vt 0.996094 0.759766
vt 0.996094 0.759766
vt 0.996094 1.000000
vt 0.750000 0.759766
vt 0.750000 1.000000
vt 0.746094 0.459229
vt 0.746094 0.687500
vt 0.500000 0.459229
vt 0.500000 0.687500
vt 0.996094 0.240479
vt 0.996094 0.468750
vt 0.750000 0.240479
vt 0.750000 0.468750
vn 0.7071 -0.0000 -0.7071
vn -0.7071 -0.0000 0.7071
vn -0.4056 0.8192 -0.4056
vn 0.4056 -0.8192 0.4056
vn 0.5792 0.5736 0.5792
vn -0.5792 -0.5736 -0.5792
usemtl m_7_1
s 1
f 9/25/7 10/26/7 11/27/7
f 10/26/7 12/28/7 11/27/7
f 13/29/8 14/30/8 15/31/8
f 14/30/8 16/32/8 15/31/8
f 13/33/9 15/34/9 11/35/9
f 15/34/9 9/36/9 11/35/9
f 16/37/10 14/38/10 10/39/10
f 14/38/10 12/40/10 10/39/10
f 15/41/11 16/42/11 9/43/11
f 16/42/11 10/44/11 9/43/11
f 11/45/12 12/46/12 13/47/12
f 12/46/12 14/48/12 13/47/12
o halfbeam.001
v 0.648847 0.256368 0.472117
v 0.741429 0.069379 0.564699
v 0.509696 0.118575 0.332966
v 0.602278 -0.068414 0.425548
v 0.335336 0.118575 0.507326
v 0.427918 -0.068414 0.599908
v 0.474487 0.256368 0.646476
v 0.567069 0.069379 0.739059
vt 0.250000 0.875000
vt 0.250000 0.646729
vt 0.490234 0.875000
vt 0.490234 0.646729
vt 0.490234 0.615479
vt 0.490234 0.843750
vt 0.250000 0.615479
vt 0.250000 0.843750
vt 0.750000 1.000000
vt 0.750000 0.759766
vt 0.996582 1.000000
vt 0.996582 0.759766
vt 0.996582 0.759766
vt 0.996582 1.000000
vt 0.750000 0.759766
vt 0.750000 1.000000
vt 0.746582 0.459229
vt 0.746582 0.687500
vt 0.500000 0.459229
vt 0.500000 0.687500
vt 0.996582 0.240479
vt 0.996582 0.468750
vt 0.750000 0.240479
vt 0.750000 0.468750
vn 0.7071 -0.0000 -0.7071
vn -0.7071 0.0000 0.7071
vn -0.4056 0.8192 -0.4056
vn 0.4056 -0.8192 0.4056
vn 0.5792 0.5736 0.5792
vn -0.5792 -0.5736 -0.5792
usemtl m_7_1
s 1
f 17/49/13 18/50/13 19/51/13
f 18/50/13 20/52/13 19/51/13
f 21/53/14 22/54/14 23/55/14
f 22/54/14 24/56/14 23/55/14
f 21/57/15 23/58/15 19/59/15
f 23/58/15 17/60/15 19/59/15
f 24/61/16 22/62/16 18/63/16
f 22/62/16 20/64/16 18/63/16
f 23/65/17 24/66/17 17/67/17
f 24/66/17 18/68/17 17/67/17
f 19/69/18 20/70/18 21/71/18
f 20/70/18 22/72/18 21/71/18
o halfbeam.002
v 1.174159 1.017346 0.993847
v 1.055432 0.753786 0.875120
v 1.025067 1.151671 0.844755
v 0.906340 0.888111 0.726028
v 0.848291 1.151671 1.021532
v 0.729563 0.888111 0.902804
v 0.997383 1.017346 1.170624
v 0.878655 0.753786 1.051896
vt 0.500000 0.687500
vt 0.500000 1.000000
vt 0.250000 0.687500
vt 0.250000 1.000000
vt 0.250000 1.000000
vt 0.250000 0.687500
vt 0.500000 1.000000
vt 0.500000 0.687500
vt 1.000000 0.031250
vt 1.000000 0.281250
vt 0.750000 0.031250
vt 0.750000 0.281250
vt 0.750000 0.218750
vt 0.750000 0.468750
vt 0.500000 0.218750
vt 0.500000 0.468750
vt 0.750000 1.000000
vt 0.750000 0.687500
vt 0.500000 1.000000
vt 0.500000 0.687500
vt 0.750000 0.687500
vt 0.750000 1.000000
vt 0.500000 0.687500
vt 0.500000 1.000000
vn 0.7071 0.0000 -0.7071
vn -0.7071 -0.0000 0.7071
vn 0.3799 0.8434 0.3799
vn -0.3799 -0.8434 -0.3799
vn 0.5964 -0.5373 0.5964
vn -0.5964 0.5373 -0.5964
usemtl m_7_1
s 1
f 25/73/19 26/74/19 27/75/19
f 26/74/19 28/76/19 27/75/19
f 29/77/20 30/78/20 31/79/20
f 30/78/20 32/80/20 31/79/20
f 29/81/21 31/82/21 27/83/21
f 31/82/21 25/84/21 27/83/21
f 32/85/22 30/86/22 26/87/22
f 30/86/22 28/88/22 26/87/22
f 31/89/23 32/90/23 25/91/23
f 32/90/23 26/92/23 25/91/23
f 27/93/24 28/94/24 29/95/24
f 28/94/24 30/96/24 29/95/24
