# Blender v2.91.0 OBJ File: ''
# www.blender.org
mtllib diagonal_oak_branch_45_45_branches.mtl
o halfbeam
v 0.669381 0.601501 0.485020
v 0.567356 0.397341 0.382995
v 0.091929 1.178646 -0.092432
v -0.010097 0.974486 -0.194458
v -0.084848 1.178646 0.084344
v -0.186874 0.974486 -0.017681
v 0.492605 0.601501 0.661797
v 0.390579 0.397341 0.559771
vt 0.250000 1.000000
vt 0.500000 1.000000
vt 0.250000 0.000000
vt 0.500000 0.000000
vt 0.250000 1.000000
vt 0.500000 1.000000
vt 0.250000 0.000000
vt 0.500000 0.000000
vt 0.500000 0.000000
vt 0.500000 1.000000
vt 0.750000 0.000000
vt 0.750000 1.000000
vt 0.750000 0.000000
vt 0.750000 1.000000
vt 0.500000 0.000000
vt 0.500000 1.000000
vt 0.750000 0.468750
vt 0.750000 0.218750
vt 0.500000 0.468750
vt 0.500000 0.218750
vt 0.750000 0.031250
vt 0.750000 0.281250
vt 1.000000 0.031250
vt 1.000000 0.281250
vn 0.7071 0.0000 -0.7071
vn -0.7071 -0.0000 0.7071
vn 0.4081 0.8166 0.4081
vn -0.4081 -0.8166 -0.4081
vn 0.5775 -0.5771 0.5775
vn -0.5775 0.5771 -0.5775
usemtl m_0
s 1
f 1/1/1 2/2/1 3/3/1
f 2/2/1 4/4/1 3/3/1
f 5/5/2 6/6/2 7/7/2
f 6/6/2 8/8/2 7/7/2
f 5/9/3 7/10/3 3/11/3
f 7/10/3 1/12/3 3/11/3
f 8/13/4 6/14/4 2/15/4
f 6/14/4 4/16/4 2/15/4
f 7/17/5 8/18/5 1/19/5
f 8/18/5 2/20/5 1/19/5
f 3/21/6 4/22/6 5/23/6
f 4/22/6 6/24/6 5/23/6
o halfbeam.000
v 1.235589 0.036198 1.053084
v 1.133563 -0.167962 0.951058
v 0.668964 0.602522 0.486459
v 0.566938 0.398361 0.384433
v 0.492187 0.602522 0.663235
v 0.390161 0.398361 0.561209
v 1.058812 0.036198 1.229861
v 0.956787 -0.167962 1.127835
vt 0.250000 1.000000
vt 0.500000 1.000000
vt 0.250000 0.031250
vt 0.500000 0.031250
vt 0.250000 1.000000
vt 0.500000 1.000000
vt 0.250000 0.031250
vt 0.500000 0.031250
vt 0.750000 0.018750
vt 0.750000 1.000000
vt 1.000000 0.018750
vt 1.000000 1.000000
vt 1.000000 1.000000
vt 1.000000 0.018750
vt 0.750000 1.000000
vt 0.750000 0.018750
vt 0.750000 0.218750
vt 0.750000 0.468750
vt 1.000000 0.218750
vt 1.000000 0.468750
vt 0.250000 0.750000
vt 0.250000 1.000000
vt 0.000000 0.750000
vt 0.000000 1.000000
vn 0.7071 0.0000 -0.7071
vn -0.7071 -0.0000 0.7071
vn 0.4081 0.8166 0.4081
vn -0.4081 -0.8166 -0.4081
vn 0.5775 -0.5771 0.5775
vn -0.5775 0.5771 -0.5775
usemtl m_0
s 1
f 9/25/7 10/26/7 11/27/7
f 10/26/7 12/28/7 11/27/7
f 13/29/8 14/30/8 15/31/8
f 14/30/8 16/32/8 15/31/8
f 13/33/9 15/34/9 11/35/9
f 15/34/9 9/36/9 11/35/9
f 16/37/10 14/38/10 10/39/10
f 14/38/10 12/40/10 10/39/10
f 15/41/11 16/42/11 9/43/11
f 16/42/11 10/44/11 9/43/11
f 11/45/12 12/46/12 13/47/12
f 12/46/12 14/48/12 13/47/12
o halfbeam.001
v 0.387476 0.624421 0.428850
v 0.336463 0.522341 0.479863
v -0.135841 1.147459 0.952167
v -0.186854 1.045378 1.003179
v -0.047452 1.147459 1.040555
v -0.098465 1.045378 1.091568
v 0.475864 0.624421 0.517238
v 0.424851 0.522341 0.568251
vt 0.250000 1.000000
vt 0.343750 1.000000
vt 0.250000 0.093750
vt 0.343750 0.093750
vt 0.250000 1.000000
vt 0.343750 1.000000
vt 0.250000 0.093750
vt 0.343750 0.093750
vt 0.500000 0.093750
vt 0.500000 1.000000
vt 0.593750 0.093750
vt 0.593750 1.000000
vt 0.593750 0.093750
vt 0.593750 1.000000
vt 0.500000 0.093750
vt 0.500000 1.000000
vt 0.593750 0.468750
vt 0.593750 0.375000
vt 0.500000 0.468750
vt 0.500000 0.375000
vt 0.750000 0.187500
vt 0.750000 0.281250
vt 0.843750 0.187500
vt 0.843750 0.281250
vn -0.7071 0.0000 -0.7071
vn 0.7071 -0.0000 0.7071
vn 0.4081 0.8166 -0.4081
vn -0.4081 -0.8166 0.4081
vn 0.5775 -0.5771 -0.5775
vn -0.5775 0.5771 0.5775
usemtl m_0
s 1
f 17/49/13 18/50/13 19/51/13
f 18/50/13 20/52/13 19/51/13
f 21/53/14 22/54/14 23/55/14
f 22/54/14 24/56/14 23/55/14
f 21/57/15 23/58/15 19/59/15
f 23/58/15 17/60/15 19/59/15
f 24/61/16 22/62/16 18/63/16
f 22/62/16 20/64/16 18/63/16
f 23/65/17 24/66/17 17/67/17
f 24/66/17 18/68/17 17/67/17
f 19/69/18 20/70/18 21/71/18
f 20/70/18 22/72/18 21/71/18
o halfbeam.002
v -0.069847 1.092101 0.985627
v -0.129536 1.073567 0.985627
v -0.255186 1.688988 0.985627
v -0.314875 1.670455 0.985627
v -0.255186 1.688988 1.048127
v -0.314875 1.670455 1.048127
v -0.069847 1.092101 1.048127
v -0.129536 1.073567 1.048127
vt 0.250000 1.000000
vt 0.312500 1.000000
vt 0.250000 0.375000
vt 0.312500 0.375000
vt 0.250000 1.000000
vt 0.312500 1.000000
vt 0.250000 0.375000
vt 0.312500 0.375000
vt 0.500000 0.375000
vt 0.500000 1.000000
vt 0.562500 0.375000
vt 0.562500 1.000000
vt 0.562500 0.375000
vt 0.562500 1.000000
vt 0.500000 0.375000
vt 0.500000 1.000000
vt 0.562500 0.468750
vt 0.562500 0.406250
vt 0.500000 0.468750
vt 0.500000 0.406250
vt 0.750000 0.218750
vt 0.750000 0.281250
vt 0.812500 0.218750
vt 0.812500 0.281250
vn 0.0000 0.0000 -1.0000
vn 0.0000 -0.0000 1.0000
vn 0.9550 0.2965 0.0000
vn -0.9550 -0.2965 0.0000
vn 0.2965 -0.9550 0.0000
vn -0.2965 0.9550 0.0000
usemtl m_0
s 1
f 25/73/19 26/74/19 27/75/19
f 26/74/19 28/76/19 27/75/19
f 29/77/20 30/78/20 31/79/20
f 30/78/20 32/80/20 31/79/20
f 29/81/21 31/82/21 27/83/21
f 31/82/21 25/84/21 27/83/21
f 32/85/22 30/86/22 26/87/22
f 30/86/22 28/88/22 26/87/22
f 31/89/23 32/90/23 25/91/23
f 32/90/23 26/92/23 25/91/23
f 27/93/24 28/94/24 29/95/24
f 28/94/24 30/96/24 29/95/24
o halfbeam.003
v 0.961157 0.218171 0.941851
v 0.967445 0.116091 0.869982
v 1.025659 0.741209 0.204586
v 1.031947 0.639128 0.132717
v 0.901135 0.741209 0.193691
v 0.907423 0.639128 0.121823
v 0.836633 0.218171 0.930957
v 0.842920 0.116091 0.859088
vt 0.250000 1.000000
vt 0.343750 1.000000
vt 0.250000 0.093750
vt 0.343750 0.093750
vt 0.250000 1.000000
vt 0.343750 1.000000
vt 0.250000 0.093750
vt 0.343750 0.093750
vt 0.500000 0.093750
vt 0.500000 1.000000
vt 0.593750 0.093750
vt 0.593750 1.000000
vt 0.593750 0.093750
vt 0.593750 1.000000
vt 0.500000 0.093750
vt 0.500000 1.000000
vt 0.593750 0.468750
vt 0.593750 0.375000
vt 0.500000 0.468750
vt 0.500000 0.375000
vt 0.750000 0.187500
vt 0.750000 0.281250
vt 0.843750 0.187500
vt 0.843750 0.281250
vn 0.9962 -0.0000 0.0872
vn -0.9962 0.0000 -0.0872
vn -0.0503 0.8166 0.5749
vn 0.0503 -0.8166 -0.5749
vn -0.0712 -0.5771 0.8135
vn 0.0712 0.5771 -0.8135
usemtl m_0
s 1
f 33/97/25 34/98/25 35/99/25
f 34/98/25 36/100/25 35/99/25
f 37/101/26 38/102/26 39/103/26
f 38/102/26 40/104/26 39/103/26
f 37/105/27 39/106/27 35/107/27
f 39/106/27 33/108/27 35/107/27
f 40/109/28 38/110/28 34/111/28
f 38/110/28 36/112/28 34/111/28
f 39/113/29 40/114/29 33/115/29
f 40/114/29 34/116/29 33/115/29
f 35/117/30 36/118/30 37/119/30
f 36/118/30 38/120/30 37/119/30
o halfbeam.004
v 0.946936 0.685851 0.248528
v 0.992660 0.667317 0.210160
v 1.088914 1.282738 0.129394
v 1.134638 1.264205 0.091027
v 1.048740 1.282738 0.081517
v 1.094464 1.264205 0.043149
v 0.906762 0.685851 0.200650
v 0.952486 0.667317 0.162283
vt 0.250000 1.000000
vt 0.312500 1.000000
vt 0.250000 0.375000
vt 0.312500 0.375000
vt 0.250000 1.000000
vt 0.312500 1.000000
vt 0.250000 0.375000
vt 0.312500 0.375000
vt 0.500000 0.375000
vt 0.500000 1.000000
vt 0.562500 0.375000
vt 0.562500 1.000000
vt 0.562500 0.375000
vt 0.562500 1.000000
vt 0.500000 0.375000
vt 0.500000 1.000000
vt 0.562500 0.468750
vt 0.562500 0.406250
vt 0.500000 0.468750
vt 0.500000 0.406250
vt 0.750000 0.218750
vt 0.750000 0.281250
vt 0.812500 0.218750
vt 0.812500 0.281250
vn 0.6428 -0.0000 0.7660
vn -0.6428 -0.0000 -0.7660
vn -0.7316 0.2965 0.6139
vn 0.7316 -0.2965 -0.6139
vn -0.2272 -0.9550 0.1906
vn 0.2272 0.9550 -0.1906
usemtl m_0
s 1
f 41/121/31 42/122/31 43/123/31
f 42/122/31 44/124/31 43/123/31
f 45/125/32 46/126/32 47/127/32
f 46/126/32 48/128/32 47/127/32
f 45/129/33 47/130/33 43/131/33
f 47/130/33 41/132/33 43/131/33
f 48/133/34 46/134/34 42/135/34
f 46/134/34 44/136/34 42/135/34
f 47/137/35 48/138/35 41/139/35
f 48/138/35 42/140/35 41/139/35
f 43/141/36 44/142/36 45/143/36
f 44/142/36 46/144/36 45/143/36
o halfbeam.005
v 1.034257 0.862729 0.166104
v 1.003523 0.811983 0.146444
v 0.683185 1.220131 -0.207577
v 0.652451 1.169385 -0.227237
v 0.641602 1.227463 -0.161497
v 0.610868 1.176717 -0.181157
v 0.992674 0.870061 0.212184
v 0.961940 0.819315 0.192523
vt 0.250000 1.000000
vt 0.312500 1.000000
vt 0.250000 0.375000
vt 0.312500 0.375000
vt 0.250000 1.000000
vt 0.312500 1.000000
vt 0.250000 0.375000
vt 0.312500 0.375000
vt 0.500000 0.375000
vt 0.500000 1.000000
vt 0.562500 0.375000
vt 0.562500 1.000000
vt 0.562500 0.375000
vt 0.562500 1.000000
vt 0.500000 0.375000
vt 0.500000 1.000000
vt 0.562500 0.468750
vt 0.562500 0.406250
vt 0.500000 0.468750
vt 0.500000 0.406250
vt 0.750000 0.218750
vt 0.750000 0.281250
vt 0.812500 0.218750
vt 0.812500 0.281250
vn 0.6653 -0.1173 -0.7373
vn -0.6653 0.1173 0.7373
vn 0.4917 0.8119 0.3146
vn -0.4917 -0.8119 -0.3146
vn 0.5617 -0.5718 0.5979
vn -0.5617 0.5718 -0.5979
usemtl m_0
s 1
f 49/145/37 50/146/37 51/147/37
f 50/146/37 52/148/37 51/147/37
f 53/149/38 54/150/38 55/151/38
f 54/150/38 56/152/38 55/151/38
f 53/153/39 55/154/39 51/155/39
f 55/154/39 49/156/39 51/155/39
f 56/157/40 54/158/40 50/159/40
f 54/158/40 52/160/40 50/159/40
f 55/161/41 56/162/41 49/163/41
f 56/162/41 50/164/41 49/163/41
f 51/165/42 52/166/42 53/167/42
f 52/166/42 54/168/42 53/167/42
o halfbeam.006
v 1.810935 1.235709 -0.630905
v 1.103828 1.235709 0.076202
v 1.810935 2.235709 -0.630905
v 1.103828 2.235709 0.076202
v 1.810979 2.235709 -0.630861
v 1.103872 2.235709 0.076246
v 1.810979 1.235709 -0.630861
v 1.103872 1.235709 0.076246
vt 0.000000 0.000000
vt 1.000000 0.000000
vt 0.000000 1.000000
vt 1.000000 1.000000
vt 0.000000 1.000000
vt 1.000000 1.000000
vt 0.000000 0.000000
vt 1.000000 0.000000
vn -0.7071 0.0000 -0.7071
vn 0.7071 -0.0000 0.7071
usemtl m_3
s 1
f 57/169/43 58/170/43 59/171/43
f 58/170/43 60/172/43 59/171/43
f 61/173/44 62/174/44 63/175/44
f 62/174/44 64/176/44 63/175/44
o halfbeam.007
v 0.533635 1.141959 -1.159223
v 0.664161 1.141959 -0.167778
v 0.533635 2.141959 -1.159223
v 0.664161 2.141959 -0.167778
v 0.533697 2.141959 -1.159231
v 0.664223 2.141959 -0.167786
v 0.533697 1.141959 -1.159231
v 0.664223 1.141959 -0.167786
vt 0.000000 0.000000
vt 1.000000 0.000000
vt 0.000000 1.000000
vt 1.000000 1.000000
vt 0.000000 1.000000
vt 1.000000 1.000000
vt 0.000000 0.000000
vt 1.000000 0.000000
vn -0.9914 0.0000 0.1305
vn 0.9914 0.0000 -0.1305
usemtl m_2
s 1
f 65/177/45 66/178/45 67/179/45
f 66/178/45 68/180/45 67/179/45
f 69/181/46 70/182/46 71/183/46
f 70/182/46 72/184/46 71/183/46
o halfbeam.008
v -1.239830 1.596646 1.038815
v -0.239830 1.596646 1.038815
v -1.239830 2.596646 1.038815
v -0.239830 2.596646 1.038815
v -1.239830 2.596646 1.038752
v -0.239830 2.596646 1.038752
v -1.239830 1.596646 1.038752
v -0.239830 1.596646 1.038752
vt 0.000000 0.000000
vt 1.000000 0.000000
vt 0.000000 1.000000
vt 1.000000 1.000000
vt 0.000000 1.000000
vt 1.000000 1.000000
vt 0.000000 0.000000
vt 1.000000 0.000000
vn 0.0000 -0.0000 1.0000
vn 0.0000 0.0000 -1.0000
usemtl m_1
s 1
f 73/185/47 74/186/47 75/187/47
f 74/186/47 76/188/47 75/187/47
f 77/189/48 78/190/48 79/191/48
f 78/190/48 80/192/48 79/191/48
