# Blender v2.91.0 OBJ File: ''
# www.blender.org
mtllib leaf_tips.mtl
o cube.000
v 1.757739 2.063355 0.532884
v 1.638957 0.093739 0.206532
v 1.757718 2.063365 0.532826
v 1.638936 0.093750 0.206474
v -0.121667 2.063365 1.216866
v -0.240450 0.093750 0.890514
v -0.121646 2.063355 1.216924
v -0.240429 0.093739 0.890572
vt 0.000000 1.000000
vt 0.000000 1.000000
vt 0.000000 1.000000
vt 0.000000 1.000000
vt 0.000000 1.000000
vt 0.000000 0.000000
vt 1.000000 1.000000
vt 1.000000 0.000000
vt 0.000000 1.000000
vt 0.000000 1.000000
vt 0.000000 1.000000
vt 0.000000 0.000000
vt 0.000000 0.000000
vt 1.000000 1.000000
vt 1.000000 0.000000
vn 0.9400 -0.0010 -0.3412
vn 0.9390 0.0005 -0.3440
vn 0.9399 -0.0010 -0.3413
vn -0.9397 0.0003 0.3420
vn -0.9395 0.0001 0.3426
vn -0.9394 0.0001 0.3428
vn 0.0593 0.9842 0.1667
vn 0.0593 0.9848 0.1631
vn -0.0594 -0.9848 -0.1634
vn -0.0594 -0.9848 -0.1631
vn -0.0593 -0.9848 -0.1630
vn 0.3368 -0.1736 0.9254
vn -0.3368 0.1736 -0.9254
usemtl m_2
s 1
f 1/1/1 2/2/2 3/3/3
f 2/2/2 4/4/2 3/3/3
f 5/5/4 6/6/5 7/7/4
f 6/6/5 8/8/6 7/7/4
f 5/5/7 7/9/7 3/3/8
f 7/9/7 1/1/8 3/3/8
f 8/10/9 6/11/10 2/2/11
f 6/11/10 4/4/11 2/2/11
f 7/7/12 8/8/12 1/1/12
f 8/8/12 2/12/12 1/1/12
f 3/3/13 4/13/13 5/14/13
f 4/13/13 6/15/13 5/14/13
o cube.001
v 0.353797 1.532105 -0.362703
v 0.129322 -0.129758 -0.174346
v 0.353750 1.532116 -0.362663
v 0.129275 -0.129747 -0.174306
v 1.639325 1.532115 1.169426
v 1.414850 -0.129748 1.357782
v 1.639372 1.532104 1.169386
v 1.414897 -0.129759 1.357743
vt 0.000000 1.000000
vt 0.000000 1.000000
vt 0.000000 1.000000
vt 0.000000 1.000000
vt 0.000000 1.000000
vt 0.000000 0.000000
vt 1.000000 1.000000
vt 1.000000 0.000000
vt 0.000000 1.000000
vt 0.000000 1.000000
vt 0.000000 1.000000
vt 0.000000 0.000000
vt 0.000000 0.000000
vt 1.000000 1.000000
vt 1.000000 0.000000
vn -0.6435 0.0000 -0.7654
vn -0.6414 -0.0001 -0.7672
vn -0.6434 0.0000 -0.7655
vn 0.6465 0.0000 0.7629
vn 0.6425 0.0000 0.7663
vn 0.6464 0.0004 0.7630
vn 0.6424 0.0000 0.7664
vn 0.1332 0.9845 -0.1139
vn 0.1332 0.9845 -0.1137
vn 0.1334 0.9851 -0.1082
vn 0.1334 0.9852 -0.1081
vn -0.1328 -0.9849 0.1114
vn -0.1330 -0.9848 0.1115
vn 0.7544 -0.1736 -0.6330
vn -0.7544 0.1736 0.6330
usemtl m_2
s 1
f 9/16/14 10/17/15 11/18/16
f 10/17/15 12/19/15 11/18/16
f 13/20/17 14/21/18 15/22/19
f 14/21/18 16/23/20 15/22/19
f 13/20/21 15/24/22 11/18/23
f 15/24/22 9/16/24 11/18/23
f 16/25/25 14/26/25 10/17/26
f 14/26/25 12/19/26 10/17/26
f 15/22/27 16/23/27 9/16/27
f 16/23/27 10/27/27 9/16/27
f 11/18/28 12/28/28 13/29/28
f 12/28/28 14/30/28 13/29/28
o cube.002
v 0.259708 0.999946 2.105368
v 1.484453 -0.000054 0.880623
v 0.259730 1.000000 2.105346
v 1.484475 -0.000000 0.880601
v -1.154484 1.000000 0.691132
v 0.070261 0.000000 -0.533613
v -1.154506 0.999946 0.691154
v 0.070239 -0.000054 -0.533591
vt 0.000000 1.000000
vt 0.000000 1.000000
vt 0.000000 1.000000
vt 0.000000 1.000000
vt 0.000000 1.000000
vt 0.000000 0.000000
vt 1.000000 1.000000
vt 1.000000 0.000000
vt 0.000000 1.000000
vt 0.000000 1.000000
vt 0.000000 1.000000
vt 0.000000 0.000000
vt 0.000000 0.000000
vt 1.000000 1.000000
vt 1.000000 0.000000
vn 0.7052 0.0010 0.7090
vn 0.7084 0.0000 0.7058
vn -0.7069 0.0019 -0.7073
vn -0.7066 0.0000 -0.7076
vn -0.7067 -0.0000 -0.7075
vn -0.6127 0.4993 0.6127
vn -0.6126 0.4998 0.6123
vn -0.6126 0.4997 0.6124
vn 0.6122 -0.5004 -0.6122
vn 0.6127 -0.4993 -0.6127
vn -0.3536 -0.8660 0.3536
vn 0.3536 0.8660 -0.3536
usemtl m_2
s 1
f 17/31/29 18/32/30 19/33/29
f 18/32/30 20/34/30 19/33/29
f 21/35/31 22/36/32 23/37/31
f 22/36/32 24/38/33 23/37/31
f 21/35/34 23/39/34 19/33/35
f 23/39/34 17/31/36 19/33/35
f 24/40/37 22/41/37 18/32/38
f 22/41/37 20/34/38 18/32/38
f 23/37/39 24/38/39 17/31/39
f 24/38/39 18/42/39 17/31/39
f 19/33/40 20/43/40 21/44/40
f 20/43/40 22/45/40 21/44/40
o cube.003
v 1.339778 1.421187 -0.032120
v 1.127041 0.059835 1.192983
v 1.339800 1.421146 -0.032162
v 1.127063 0.059795 1.192942
v -0.511033 1.094795 -0.716202
v -0.723770 -0.266557 0.508901
v -0.511056 1.094836 -0.716161
v -0.723793 -0.266516 0.508943
vt 0.000000 1.000000
vt 0.000000 1.000000
vt 0.000000 1.000000
vt 0.000000 1.000000
vt 0.000000 1.000000
vt 0.000000 0.000000
vt 1.000000 1.000000
vt 1.000000 0.000000
vt 0.000000 1.000000
vt 0.000000 1.000000
vt 0.000000 1.000000
vt 0.000000 0.000000
vt 0.000000 0.000000
vt 1.000000 1.000000
vt 1.000000 0.000000
vn 0.9259 0.1614 0.3416
vn 0.9259 0.1620 0.3412
vn 0.9259 0.1621 0.3412
vn -0.9253 -0.1641 -0.3419
vn -0.9252 -0.1651 -0.3418
vn 0.1158 0.7401 -0.6624
vn 0.1151 0.7349 -0.6683
vn -0.1151 -0.7386 0.6643
vn -0.1154 -0.7388 0.6639
vn -0.3610 0.6544 0.6645
vn 0.3610 -0.6544 -0.6645
usemtl m_2
s 1
f 25/46/41 26/47/42 27/48/41
f 26/47/42 28/49/43 27/48/41
f 29/50/44 30/51/45 31/52/44
f 30/51/45 32/53/45 31/52/44
f 29/50/46 31/54/46 27/48/47
f 31/54/46 25/46/47 27/48/47
f 32/55/48 30/56/48 26/47/49
f 30/56/48 28/49/49 26/47/49
f 31/52/50 32/53/50 25/46/50
f 32/53/50 26/57/50 25/46/50
f 27/48/51 28/58/51 29/59/51
f 28/58/51 30/60/51 29/59/51
o cube.004
v 2.088375 1.226910 0.030045
v 1.315953 0.016865 1.187011
v 2.088406 1.226863 0.030018
v 1.315984 0.016818 1.186984
v 0.579593 0.960819 -1.255557
v -0.192829 -0.249226 -0.098592
v 0.579562 0.960865 -1.255530
v -0.192861 -0.249180 -0.098564
vt 0.000000 1.000000
vt 0.000000 1.000000
vt 0.000000 1.000000
vt 0.000000 1.000000
vt 0.000000 1.000000
vt 0.000000 0.000000
vt 1.000000 1.000000
vt 1.000000 0.000000
vt 0.000000 1.000000
vt 0.000000 1.000000
vt 0.000000 1.000000
vt 0.000000 0.000000
vt 0.000000 0.000000
vt 1.000000 1.000000
vt 1.000000 0.000000
vn 0.7548 0.1311 0.6427
vn 0.7545 0.1352 0.6422
vn 0.7544 0.1353 0.6423
vn -0.7545 -0.1334 -0.6426
vn -0.7541 -0.1335 -0.6430
vn -0.7544 -0.1335 -0.6427
vn -0.7541 -0.1335 -0.6431
vn 0.4198 0.6542 -0.6291
vn 0.4197 0.6564 -0.6268
vn -0.4188 -0.6569 0.6270
vn -0.4194 -0.6555 0.6281
vn -0.5053 0.7427 0.4394
vn 0.5053 -0.7427 -0.4394
usemtl m_2
s 1
f 33/61/52 34/62/53 35/63/52
f 34/62/53 36/64/54 35/63/52
f 37/65/55 38/66/56 39/67/57
f 38/66/56 40/68/58 39/67/57
f 37/65/59 39/69/59 35/63/60
f 39/69/59 33/61/60 35/63/60
f 40/70/61 38/71/61 34/62/62
f 38/71/61 36/64/62 34/62/62
f 39/67/63 40/68/63 33/61/63
f 40/68/63 34/72/63 33/61/63
f 35/63/64 36/73/64 37/74/64
f 36/73/64 38/75/64 37/74/64
o cube.005
v -0.477207 1.804032 -0.084394
v -0.611658 -0.016010 -0.346657
v -0.477244 1.804028 -0.084344
v -0.611695 -0.016015 -0.346607
v 1.136171 1.519539 1.062809
v 1.001719 -0.300503 0.800546
v 1.136207 1.519544 1.062759
v 1.001756 -0.300499 0.800496
vt 0.000000 1.000000
vt 0.000000 1.000000
vt 0.000000 1.000000
vt 0.000000 1.000000
vt 0.000000 1.000000
vt 0.000000 0.000000
vt 1.000000 1.000000
vt 1.000000 0.000000
vt 0.000000 1.000000
vt 0.000000 1.000000
vt 0.000000 1.000000
vt 0.000000 0.000000
vt 0.000000 0.000000
vt 1.000000 1.000000
vt 1.000000 0.000000
vn -0.8079 0.1423 -0.5719
vn -0.8061 0.1427 -0.5744
vn -0.8078 0.1423 -0.5720
vn -0.8060 0.1428 -0.5745
vn 0.8065 -0.1420 0.5739
vn 0.8073 -0.1418 0.5728
vn 0.0729 0.9866 0.1461
vn 0.0730 0.9866 0.1461
vn 0.0730 0.9871 0.1422
vn -0.0729 -0.9873 -0.1415
vn -0.0729 -0.9872 -0.1416
vn -0.0728 -0.9871 -0.1426
vn 0.5864 0.0729 -0.8067
vn -0.5864 -0.0729 0.8067
usemtl m_2
s 1
f 41/76/65 42/77/66 43/78/67
f 42/77/66 44/79/68 43/78/67
f 45/80/69 46/81/70 47/82/69
f 46/81/70 48/83/70 47/82/69
f 45/80/71 47/84/72 43/78/73
f 47/84/72 41/76/73 43/78/73
f 48/85/74 46/86/75 42/77/76
f 46/86/75 44/79/76 42/77/76
f 47/82/77 48/83/77 41/76/77
f 48/83/77 42/87/77 41/76/77
f 43/78/78 44/88/78 45/89/78
f 44/88/78 46/90/78 45/89/78
o cube.006
v 0.252575 1.824262 -0.701537
v 0.572739 0.008523 -0.701537
v 0.252519 1.824253 -0.701564
v 0.572683 0.008513 -0.701564
v -0.579876 1.677479 1.111052
v -0.259712 -0.138261 1.111052
v -0.579820 1.677488 1.111078
v -0.259656 -0.138251 1.111078
vt 0.000000 1.000000
vt 0.000000 1.000000
vt 0.000000 1.000000
vt 0.000000 1.000000
vt 0.000000 1.000000
vt 0.000000 0.000000
vt 1.000000 1.000000
vt 1.000000 0.000000
vt 0.000000 1.000000
vt 0.000000 1.000000
vt 0.000000 1.000000
vt 0.000000 0.000000
vt 0.000000 0.000000
vt 1.000000 1.000000
vt 1.000000 0.000000
vn 0.4181 0.0734 -0.9054
vn 0.4145 0.0734 -0.9071
vn -0.4164 -0.0732 0.9062
vn -0.4140 -0.0736 0.9073
vn -0.4163 -0.0732 0.9063
vn -0.4145 -0.0736 0.9071
vn -0.1735 0.9848 0.0019
vn -0.1735 0.9848 -0.0023
vn 0.1735 -0.9848 -0.0001
vn 0.1737 -0.9848 -0.0000
vn 0.8925 0.1574 0.4226
vn -0.8925 -0.1574 -0.4226
usemtl m_2
s 1
f 49/91/79 50/92/80 51/93/79
f 50/92/80 52/94/80 51/93/79
f 53/95/81 54/96/82 55/97/83
f 54/96/82 56/98/84 55/97/83
f 53/95/85 55/99/85 51/93/86
f 55/99/85 49/91/86 51/93/86
f 56/100/87 54/101/87 50/92/88
f 54/101/87 52/94/88 50/92/88
f 55/97/89 56/98/89 49/91/89
f 56/98/89 50/102/89 49/91/89
f 51/93/90 52/103/90 53/104/90
f 52/103/90 54/105/90 53/104/90
