# Blender v2.83.0 OBJ File: ''
# www.blender.org
mtllib lime_mortar_orange_clay_brick_facade_segmental_arch_3_middle.mtl
o brick.021
v 0.184379 0.977660 0.028871
v 0.030502 0.950527 0.028871
v 0.184379 0.977660 -0.034383
v 0.030502 0.950527 -0.034383
v 0.102599 1.441452 -0.034383
v -0.051277 1.414320 -0.034383
v 0.102599 1.441452 0.028872
v -0.051277 1.414320 0.028872
vt 0.059031 0.218750
vt 0.059031 0.062500
vt 0.000000 0.218750
vt 0.000000 0.062500
vt 0.059031 1.000000
vt 0.059031 0.843750
vt 0.000000 1.000000
vt 0.000000 0.843750
vt 0.993438 1.000000
vt 0.993438 0.000000
vt 0.625000 1.000000
vt 0.625000 0.000000
vt 0.993438 1.000000
vt 0.993438 0.000000
vt 0.625000 1.000000
vt 0.625000 0.000000
vt 0.000000 0.687500
vt 0.000000 0.531250
vt 0.468750 0.687500
vt 0.468750 0.531250
vt 1.000000 0.843750
vt 1.000000 0.687500
vt 0.531250 0.843750
vt 0.531250 0.687500
vn 0.1737 -0.9848 -0.0000
vn -0.1736 0.9848 0.0000
vn 0.9848 0.1737 0.0000
vn -0.9848 -0.1736 0.0000
vn 0.0000 -0.0000 1.0000
vn 0.0000 0.0000 -1.0000
usemtl 3.001
s 1
f 1/1/1 2/2/1 3/3/1
f 2/2/1 4/4/1 3/3/1
usemtl 5.001
f 5/5/2 6/6/2 7/7/2
f 6/6/2 8/8/2 7/7/2
f 5/9/3 7/10/3 3/11/3
f 7/10/3 1/12/3 3/11/3
f 8/13/4 6/14/4 2/15/4
f 6/14/4 4/16/4 2/15/4
f 7/17/5 8/18/5 1/19/5
f 8/18/5 2/20/5 1/19/5
f 3/21/6 4/22/6 5/23/6
f 4/22/6 6/24/6 5/23/6
o brick.022
v 0.340034 0.991278 0.028871
v 0.184379 0.977660 0.028871
v 0.340034 0.991278 -0.034383
v 0.184379 0.977660 -0.034383
v 0.298988 1.460433 -0.034383
v 0.143333 1.446815 -0.034383
v 0.298988 1.460433 0.028872
v 0.143333 1.446815 0.028872
vt 0.059031 1.000000
vt 0.059031 0.843750
vt 0.000000 1.000000
vt 0.000000 0.843750
vt 0.059031 1.000000
vt 0.059031 0.843750
vt 0.000000 1.000000
vt 0.000000 0.843750
vt 0.993438 1.000000
vt 0.993438 0.000000
vt 0.625000 1.000000
vt 0.625000 0.000000
vt 0.993438 1.000000
vt 0.993438 0.000000
vt 0.625000 1.000000
vt 0.625000 0.000000
vt 0.531250 0.218750
vt 0.531250 0.062500
vt 1.000000 0.218750
vt 1.000000 0.062500
vt 1.000000 0.218750
vt 1.000000 0.062500
vt 0.531250 0.218750
vt 0.531250 0.062500
vn 0.0872 -0.9962 -0.0000
vn -0.0872 0.9962 0.0000
vn 0.9962 0.0872 0.0000
vn -0.9962 -0.0872 0.0000
vn 0.0000 -0.0000 1.0000
vn -0.0000 0.0000 -1.0000
usemtl 3.001
s 1
f 9/25/7 10/26/7 11/27/7
f 10/26/7 12/28/7 11/27/7
usemtl 5.001
f 13/29/8 14/30/8 15/31/8
f 14/30/8 16/32/8 15/31/8
f 13/33/9 15/34/9 11/35/9
f 15/34/9 9/36/9 11/35/9
f 16/37/10 14/38/10 10/39/10
f 14/38/10 12/40/10 10/39/10
f 15/41/11 16/42/11 9/43/11
f 16/42/11 10/44/11 9/43/11
f 11/45/12 12/46/12 13/47/12
f 12/46/12 14/48/12 13/47/12
o brick.023
v 0.497409 0.996773 0.028871
v 0.340034 0.991278 0.028871
v 0.497409 0.996774 -0.034383
v 0.340034 0.991278 -0.034383
v 0.480973 1.467434 -0.034383
v 0.323598 1.461938 -0.034383
v 0.480973 1.467434 0.028872
v 0.323598 1.461938 0.028872
vt 0.059031 0.156250
vt 0.059031 0.000000
vt 0.000000 0.156250
vt 0.000000 0.000000
vt 0.059031 0.843750
vt 0.059031 1.000000
vt 0.000000 0.843750
vt 0.000000 1.000000
vt 0.993438 1.000000
vt 0.993438 0.000000
vt 0.625000 1.000000
vt 0.625000 0.000000
vt 0.993438 1.000000
vt 0.993438 0.000000
vt 0.625000 1.000000
vt 0.625000 0.000000
vt 0.000000 0.375000
vt 0.000000 0.531250
vt 0.468750 0.375000
vt 0.468750 0.531250
vt 0.468750 0.843750
vt 0.468750 1.000000
vt 0.000000 0.843750
vt 0.000000 1.000000
vn 0.0349 -0.9994 -0.0000
vn -0.0349 0.9994 0.0000
vn 0.9994 0.0349 0.0000
vn -0.9994 -0.0349 -0.0000
vn 0.0000 -0.0000 1.0000
vn 0.0000 0.0000 -1.0000
usemtl 3.001
s 1
f 17/49/13 18/50/13 19/51/13
f 18/50/13 20/52/13 19/51/13
usemtl 5.001
f 21/53/14 22/54/14 23/55/14
f 22/54/14 24/56/14 23/55/14
f 21/57/15 23/58/15 19/59/15
f 23/58/15 17/60/15 19/59/15
f 24/61/16 22/62/16 18/63/16
f 22/62/16 20/64/16 18/63/16
f 23/65/17 24/66/17 17/67/17
f 24/66/17 18/68/17 17/67/17
f 19/69/18 20/70/18 21/71/18
f 20/70/18 22/72/18 21/71/18
o cube.131
v 0.553549 1.041390 0.002570
v 0.446469 1.041390 0.002570
v 0.553549 1.041390 -0.000931
v 0.446469 1.041390 -0.000931
v 0.553549 1.504524 -0.000930
v 0.446469 1.504524 -0.000930
v 0.553549 1.504524 0.002571
v 0.446469 1.504524 0.002571
vt 1.000000 1.000000
vt 1.000000 0.924658
vt 0.000000 1.000000
vt 0.000000 0.924658
vt 0.021826 0.687500
vt 0.021826 0.612158
vt 0.000000 0.687500
vt 0.000000 0.612158
vt 0.000000 0.843750
vt 0.000000 0.736670
vt 0.463135 0.843750
vt 0.463135 0.736670
vt 0.494385 0.375000
vt 0.494385 0.150000
vt 0.000000 0.375000
vt 0.000000 0.150000
vn 0.0000 -1.0000 -0.0001
vn 0.0000 -1.0000 -0.0000
vn 0.0000 1.0000 0.0000
vn 0.0000 -0.0000 1.0000
vn 0.0000 0.0000 -1.0000
usemtl 6.001
s 1
f 25/73/19 26/74/20 27/75/19
f 26/74/20 28/76/20 27/75/19
f 29/77/21 30/78/21 31/79/21
f 30/78/21 32/80/21 31/79/21
f 31/81/22 32/82/22 25/83/22
f 32/82/22 26/84/22 25/83/22
f 27/85/23 28/86/23 29/87/23
f 28/86/23 30/88/23 29/87/23
o cube.132
v 0.466671 1.041586 0.001878
v 0.273105 1.033135 0.001878
v 0.466671 1.041586 -0.001622
v 0.273105 1.033135 -0.001622
v 0.446469 1.504280 -0.001622
v 0.252904 1.495829 -0.001622
v 0.446469 1.504280 0.001878
v 0.252904 1.495829 0.001878
vt 0.281250 1.000000
vt 0.281250 0.765625
vt 0.000000 1.000000
vt 0.000000 0.765625
vt 0.021826 0.687500
vt 0.021826 0.493750
vt 0.000000 0.687500
vt 0.000000 0.493750
vt 0.000000 0.843750
vt 0.000000 0.618750
vt 0.494385 0.843750
vt 0.494385 0.618750
vt 0.494385 0.375000
vt 0.494385 0.150000
vt 0.000000 0.375000
vt 0.000000 0.150000
vn 0.0436 -0.9990 0.0000
vn -0.0436 0.9990 0.0001
vn -0.0436 0.9990 0.0000
vn -0.0000 -0.0000 1.0000
vn 0.0000 0.0000 -1.0000
usemtl 6.001
s 1
f 33/89/24 34/90/24 35/91/24
f 34/90/24 36/92/24 35/91/24
f 37/93/25 38/94/26 39/95/25
f 38/94/26 40/96/26 39/95/25
f 39/97/27 40/98/27 33/99/27
f 40/98/27 34/100/27 33/99/27
f 35/101/28 36/102/28 37/103/28
f 36/102/28 38/104/28 37/103/28
o cube.133
v 0.311351 1.036397 0.002801
v 0.119150 1.011946 0.002801
v 0.311351 1.036397 -0.000699
v 0.119150 1.011946 -0.000699
v 0.252904 1.495829 -0.000699
v 0.060703 1.471378 -0.000699
v 0.252904 1.495829 0.002801
v 0.060703 1.471378 0.002801
vt 0.281250 1.000000
vt 0.281250 0.765625
vt 0.000000 1.000000
vt 0.000000 0.765625
vt 0.021826 0.687500
vt 0.021826 0.493750
vt 0.000000 0.687500
vt 0.000000 0.493750
vt 0.000000 0.843750
vt 0.000000 0.618750
vt 0.494385 0.843750
vt 0.494385 0.618750
vt 0.494385 0.375000
vt 0.494385 0.150000
vt 0.000000 0.375000
vt 0.000000 0.150000
vn 0.1262 -0.9920 0.0000
vn -0.1262 0.9920 0.0000
vn -0.1262 0.9920 0.0001
vn 0.0000 -0.0000 1.0000
vn 0.0000 0.0000 -1.0000
usemtl 6.001
s 1
f 41/105/29 42/106/29 43/107/29
f 42/106/29 44/108/29 43/107/29
f 45/109/30 46/110/31 47/111/30
f 46/110/31 48/112/31 47/111/30
f 47/113/32 48/114/32 41/115/32
f 48/114/32 42/116/32 41/115/32
f 43/117/33 44/118/33 45/119/33
f 44/118/33 46/120/33 45/119/33
o cube.134
v 0.156994 1.018364 0.001878
v -0.032522 0.978081 0.001878
v 0.156994 1.018364 -0.001622
v -0.032522 0.978081 -0.001622
v 0.060703 1.471378 -0.001622
v -0.128813 1.431095 -0.001622
v 0.060703 1.471378 0.001878
v -0.128813 1.431095 0.001878
vt 0.020817 1.000000
vt 0.020817 0.765625
vt 0.000000 1.000000
vt 0.000000 0.765625
vt 0.021826 0.687500
vt 0.021826 0.493750
vt 0.000000 0.687500
vt 0.000000 0.493750
vt 0.463135 1.000000
vt 0.463135 0.000000
vt 0.000000 1.000000
vt 0.000000 0.000000
vt 0.000000 0.843750
vt 0.000000 0.618750
vt 0.494385 0.843750
vt 0.494385 0.618750
vt 0.494385 0.375000
vt 0.494385 0.150000
vt 0.000000 0.375000
vt 0.000000 0.150000
vn 0.2079 -0.9781 0.0000
vn 0.2079 -0.9781 -0.0001
vn -0.2079 0.9781 0.0000
vn -0.2079 0.9781 0.0001
vn -0.9781 -0.2079 -0.0000
vn 0.0000 -0.0000 1.0000
vn 0.0000 0.0000 -1.0000
usemtl 6.001
s 1
f 49/121/34 50/122/35 51/123/34
f 50/122/35 52/124/35 51/123/34
f 53/125/36 54/126/37 55/127/36
f 54/126/37 56/128/37 55/127/36
f 56/129/38 54/130/38 50/131/38
f 54/130/38 52/132/38 50/131/38
f 55/133/39 56/134/39 49/135/39
f 56/134/39 50/136/39 49/135/39
f 51/137/40 52/138/40 53/139/40
f 52/138/40 54/140/40 53/139/40
o brick.024
v 0.897401 1.441452 0.028872
v 1.051277 1.414320 0.028872
v 0.897401 1.441452 -0.034383
v 1.051277 1.414320 -0.034383
v 0.815621 0.977660 -0.034383
v 0.815621 0.977660 0.028871
v 0.969498 0.950527 0.028871
v 0.969498 0.950527 -0.034383
vt 0.000000 1.000000
vt 0.000000 0.843750
vt 0.059031 1.000000
vt 0.059031 0.843750
vt 0.625000 1.000000
vt 0.625000 0.000000
vt 0.993438 1.000000
vt 0.993438 0.000000
vt 0.625000 1.000000
vt 0.625000 0.000000
vt 0.993438 1.000000
vt 0.993438 0.000000
vt 0.468750 0.687500
vt 0.468750 0.531250
vt 0.000000 0.687500
vt 0.000000 0.531250
vt 0.531250 0.687500
vt 0.531250 0.531250
vt 1.000000 0.687500
vt 1.000000 0.531250
vt 0.000000 0.218750
vt 0.000000 0.062500
vt 0.059031 0.218750
vt 0.059031 0.062500
vn 0.1736 0.9848 0.0000
vn -0.9848 0.1737 0.0000
vn -0.9848 0.1736 0.0000
vn 0.9848 -0.1736 -0.0000
vn -0.0000 -0.0000 1.0000
vn -0.0000 0.0000 -1.0000
vn -0.1737 -0.9848 0.0000
usemtl 5.001
s 1
f 57/141/41 58/142/41 59/143/41
f 58/142/41 60/144/41 59/143/41
f 61/145/42 62/146/42 59/147/43
f 62/146/42 57/148/43 59/147/43
f 63/149/44 64/150/44 58/151/44
f 64/150/44 60/152/44 58/151/44
f 62/153/45 63/154/45 57/155/45
f 63/154/45 58/156/45 57/155/45
f 59/157/46 60/158/46 61/159/46
f 60/158/46 64/160/46 61/159/46
usemtl 3.001
f 61/161/47 64/162/47 62/163/47
f 64/162/47 63/164/47 62/163/47
o brick.025
v 0.701012 1.460433 0.028872
v 0.856667 1.446815 0.028872
v 0.701012 1.460433 -0.034383
v 0.856667 1.446815 -0.034383
v 0.659966 0.991278 -0.034383
v 0.659966 0.991278 0.028871
v 0.815621 0.977660 0.028871
v 0.815621 0.977660 -0.034383
vt 0.000000 1.000000
vt 0.000000 0.843750
vt 0.059031 1.000000
vt 0.059031 0.843750
vt 0.625000 1.000000
vt 0.625000 0.000000
vt 0.993438 1.000000
vt 0.993438 0.000000
vt 0.625000 1.000000
vt 0.625000 0.000000
vt 0.993438 1.000000
vt 0.993438 0.000000
vt 1.000000 0.218750
vt 1.000000 0.062500
vt 0.531250 0.218750
vt 0.531250 0.062500
vt 0.531250 0.375000
vt 0.531250 0.218750
vt 1.000000 0.375000
vt 1.000000 0.218750
vt 0.000000 1.000000
vt 0.000000 0.843750
vt 0.059031 1.000000
vt 0.059031 0.843750
vn 0.0872 0.9962 0.0000
vn -0.9962 0.0872 0.0000
vn 0.9962 -0.0872 -0.0000
vn -0.0000 -0.0000 1.0000
vn 0.0000 0.0000 -1.0000
vn -0.0872 -0.9962 -0.0000
usemtl 5.001
s 1
f 65/165/48 66/166/48 67/167/48
f 66/166/48 68/168/48 67/167/48
f 69/169/49 70/170/49 67/171/49
f 70/170/49 65/172/49 67/171/49
f 71/173/50 72/174/50 66/175/50
f 72/174/50 68/176/50 66/175/50
f 70/177/51 71/178/51 65/179/51
f 71/178/51 66/180/51 65/179/51
f 67/181/52 68/182/52 69/183/52
f 68/182/52 72/184/52 69/183/52
usemtl 3.001
f 69/185/53 72/186/53 70/187/53
f 72/186/53 71/188/53 70/187/53
o brick.026
v 0.513415 1.467630 0.028872
v 0.676402 1.461938 0.028872
v 0.513415 1.467630 -0.034383
v 0.676402 1.461938 -0.034383
v 0.496979 0.996970 -0.034383
v 0.496979 0.996969 0.028871
v 0.659966 0.991278 0.028871
v 0.659966 0.991278 -0.034383
vt 0.000000 0.843750
vt 0.000000 1.000000
vt 0.059031 0.843750
vt 0.059031 1.000000
vt 0.625000 1.000000
vt 0.625000 0.000000
vt 0.993438 1.000000
vt 0.993438 0.000000
vt 0.625000 1.000000
vt 0.625000 0.000000
vt 0.993438 1.000000
vt 0.993438 0.000000
vt 1.000000 0.531250
vt 1.000000 0.375000
vt 0.531250 0.531250
vt 0.531250 0.375000
vt 0.531250 0.843750
vt 0.531250 0.687500
vt 1.000000 0.843750
vt 1.000000 0.687500
vt 0.000000 0.187500
vt 0.000000 0.031250
vt 0.059031 0.187500
vt 0.059031 0.031250
vn 0.0349 0.9994 0.0000
vn -0.9994 0.0349 0.0000
vn 0.9994 -0.0349 -0.0000
vn -0.0000 -0.0000 1.0000
vn 0.0000 0.0000 -1.0000
vn -0.0349 -0.9994 -0.0000
usemtl 5.001
s 1
f 73/189/54 74/190/54 75/191/54
f 74/190/54 76/192/54 75/191/54
f 77/193/55 78/194/55 75/195/55
f 78/194/55 73/196/55 75/195/55
f 79/197/56 80/198/56 74/199/56
f 80/198/56 76/200/56 74/199/56
f 78/201/57 79/202/57 73/203/57
f 79/202/57 74/204/57 73/203/57
f 75/205/58 76/206/58 77/207/58
f 76/206/58 80/208/58 77/207/58
usemtl 3.001
f 77/209/59 80/210/59 78/211/59
f 80/210/59 79/212/59 78/211/59
o cube.135
v 0.553531 1.504280 0.001878
v 0.747096 1.495829 0.001878
v 0.553531 1.504280 -0.001622
v 0.747096 1.495829 -0.001622
v 0.533329 1.041586 -0.001622
v 0.726894 1.033135 -0.001622
v 0.533329 1.041586 0.001878
v 0.726894 1.033135 0.001878
vt 0.000000 0.687500
vt 0.000000 0.493750
vt 0.021826 0.687500
vt 0.021826 0.493750
vt 0.000000 1.000000
vt 0.000000 0.765625
vt 0.281250 1.000000
vt 0.281250 0.765625
vt 0.494385 0.843750
vt 0.494385 0.618750
vt 0.000000 0.843750
vt 0.000000 0.618750
vt 0.000000 0.375000
vt 0.000000 0.150000
vt 0.494385 0.375000
vt 0.494385 0.150000
vn 0.0436 0.9990 0.0000
vn 0.0436 0.9990 0.0001
vn -0.0436 -0.9990 -0.0001
vn -0.0436 -0.9990 -0.0000
vn 0.0000 -0.0000 1.0000
vn -0.0000 0.0000 -1.0000
usemtl 6.001
s 1
f 81/213/60 82/214/61 83/215/60
f 82/214/61 84/216/61 83/215/60
f 85/217/62 86/218/63 87/219/62
f 86/218/63 88/220/63 87/219/62
f 87/221/64 88/222/64 81/223/64
f 88/222/64 82/224/64 81/223/64
f 83/225/65 84/226/65 85/227/65
f 84/226/65 86/228/65 85/227/65
o cube.136
v 0.747096 1.495829 0.002339
v 0.939297 1.471378 0.002339
v 0.747096 1.495829 -0.001161
v 0.939297 1.471378 -0.001161
v 0.688649 1.036397 -0.001161
v 0.880850 1.011946 -0.001161
v 0.688649 1.036397 0.002339
v 0.880850 1.011946 0.002339
vt 0.000000 0.687500
vt 0.000000 0.493750
vt 0.021826 0.687500
vt 0.021826 0.493750
vt 0.000000 1.000000
vt 0.000000 0.765625
vt 0.281250 1.000000
vt 0.281250 0.765625
vt 0.494385 0.843750
vt 0.494385 0.618750
vt 0.000000 0.843750
vt 0.000000 0.618750
vt 0.000000 0.375000
vt 0.000000 0.150000
vt 0.494385 0.375000
vt 0.494385 0.150000
vn 0.1262 0.9920 0.0001
vn 0.1262 0.9920 0.0000
vn -0.1262 -0.9920 -0.0000
vn 0.0000 -0.0000 1.0000
vn 0.0000 0.0000 -1.0000
usemtl 6.001
s 1
f 89/229/66 90/230/67 91/231/66
f 90/230/67 92/232/67 91/231/66
f 93/233/68 94/234/68 95/235/68
f 94/234/68 96/236/68 95/235/68
f 95/237/69 96/238/69 89/239/69
f 96/238/69 90/240/69 89/239/69
f 91/241/70 92/242/70 93/243/70
f 92/242/70 94/244/70 93/243/70
o cube.137
v 0.939297 1.471378 0.001878
v 1.128813 1.431095 0.001878
v 0.939297 1.471378 -0.001622
v 1.128813 1.431095 -0.001622
v 0.843006 1.018364 -0.001622
v 1.032522 0.978081 -0.001622
v 0.843006 1.018364 0.001878
v 1.032522 0.978081 0.001878
vt 0.000000 0.687500
vt 0.000000 0.493750
vt 0.021826 0.687500
vt 0.021826 0.493750
vt 0.000000 1.000000
vt 0.000000 0.765625
vt 0.281250 1.000000
vt 0.281250 0.765625
vt 0.000000 1.000000
vt 0.000000 0.000000
vt 0.463135 1.000000
vt 0.463135 0.000000
vt 0.494385 0.843750
vt 0.494385 0.618750
vt 0.000000 0.843750
vt 0.000000 0.618750
vt 0.000000 0.375000
vt 0.000000 0.150000
vt 0.494385 0.375000
vt 0.494385 0.150000
vn 0.2079 0.9781 0.0001
vn 0.2079 0.9781 0.0000
vn -0.2079 -0.9781 -0.0000
vn 0.9781 -0.2079 -0.0000
vn 0.0000 -0.0000 1.0000
vn 0.0000 0.0000 -1.0000
usemtl 6.001
s 1
f 97/245/71 98/246/72 99/247/71
f 98/246/72 100/248/72 99/247/71
f 101/249/73 102/250/73 103/251/73
f 102/250/73 104/252/73 103/251/73
f 104/253/74 102/254/74 98/255/74
f 102/254/74 100/256/74 98/255/74
f 103/257/75 104/258/75 97/259/75
f 104/258/75 98/260/75 97/259/75
f 99/261/76 100/262/76 101/263/76
f 100/262/76 102/264/76 101/263/76
