# Blender v2.83.0 OBJ File: ''
# www.blender.org
mtllib lime_mortar_orange_clay_brick_segmental_arch_3.mtl
o brick.013
v 1.263116 0.714664 1.029418
v 1.366063 0.591977 1.029418
v 1.263116 0.714664 -0.034383
v 1.366063 0.591977 -0.034383
v 1.005296 0.289258 1.029417
v 1.005296 0.289258 -0.034383
v 0.902350 0.411945 1.029418
v 0.902350 0.411945 -0.034383
vt 0.000000 1.000000
vt 0.000000 0.843750
vt 1.000000 1.000000
vt 1.000000 0.843750
vt 0.625000 1.000000
vt 0.625000 0.000000
vt 0.993438 1.000000
vt 0.993438 0.000000
vt 0.468750 0.531250
vt 0.468750 0.375000
vt 0.000000 0.531250
vt 0.000000 0.375000
vt 0.531250 0.531250
vt 0.531250 0.375000
vt 1.000000 0.531250
vt 1.000000 0.375000
vt 0.000000 0.437500
vt 0.000000 0.281250
vt 1.000000 0.437500
vt 1.000000 0.281250
vt 0.500000 1.000000
vt 0.500000 0.000000
vt 0.993375 1.000000
vt 0.993375 0.000000
vn 0.7660 0.6428 0.0000
vn 0.6428 -0.7660 -0.0000
vn 0.0000 -0.0000 1.0000
vn 0.0000 0.0000 -1.0000
vn -0.7660 -0.6428 -0.0000
vn -0.6428 0.7660 0.0000
usemtl 5
s 1
f 1/1/1 2/2/1 3/3/1
f 2/2/1 4/4/1 3/3/1
f 5/5/2 6/6/2 2/7/2
f 6/6/2 4/8/2 2/7/2
f 7/9/3 5/10/3 1/11/3
f 5/10/3 2/12/3 1/11/3
f 3/13/4 4/14/4 8/15/4
f 4/14/4 6/16/4 8/15/4
usemtl 3
f 8/17/5 6/18/5 7/19/5
f 6/18/5 5/20/5 7/19/5
usemtl 1
f 8/21/6 7/22/6 3/23/6
f 7/22/6 1/24/6 3/23/6
o brick.014
v 1.124875 0.855440 1.029418
v 1.235360 0.744955 1.029418
v 1.124875 0.855440 -0.034383
v 1.235360 0.744955 -0.034383
v 0.902350 0.411945 1.029418
v 0.902350 0.411945 -0.034383
v 0.791865 0.522430 1.029418
v 0.791865 0.522430 -0.034383
vt 0.000000 1.000000
vt 0.000000 0.843750
vt 1.000000 1.000000
vt 1.000000 0.843750
vt 0.625000 1.000000
vt 0.625000 0.000000
vt 0.993438 1.000000
vt 0.993438 0.000000
vt 1.000000 0.218750
vt 1.000000 0.062500
vt 0.531250 0.218750
vt 0.531250 0.062500
vt 0.531250 0.687500
vt 0.531250 0.531250
vt 1.000000 0.687500
vt 1.000000 0.531250
vt 0.000000 0.562500
vt 0.000000 0.406250
vt 1.000000 0.562500
vt 1.000000 0.406250
vt 0.500000 1.000000
vt 0.500000 0.000000
vt 0.993375 1.000000
vt 0.993375 0.000000
vn 0.7071 0.7071 0.0000
vn 0.7071 -0.7071 -0.0000
vn 0.0000 0.0000 1.0000
vn -0.0000 0.0000 -1.0000
vn -0.7071 -0.7071 -0.0000
vn -0.7071 0.7071 0.0000
usemtl 5
s 1
f 9/25/7 10/26/7 11/27/7
f 10/26/7 12/28/7 11/27/7
f 13/29/8 14/30/8 10/31/8
f 14/30/8 12/32/8 10/31/8
f 15/33/9 13/34/9 9/35/9
f 13/34/9 10/36/9 9/35/9
f 11/37/10 12/38/10 16/39/10
f 12/38/10 14/40/10 16/39/10
usemtl 1
f 16/41/11 14/42/11 15/43/11
f 14/42/11 13/44/11 15/43/11
f 16/45/12 15/46/12 11/47/12
f 15/46/12 9/48/12 11/47/12
o brick.015
v 0.974889 0.983632 1.029418
v 1.094584 0.883197 1.029418
v 0.974889 0.983632 -0.034383
v 1.094584 0.883197 -0.034383
v 0.672170 0.622866 -0.034383
v 0.672170 0.622866 1.029418
v 0.791865 0.522430 1.029418
v 0.791865 0.522430 -0.034383
vt 0.000000 1.000000
vt 0.000000 0.843750
vt 1.000000 1.000000
vt 1.000000 0.843750
vt 0.625000 1.000000
vt 0.625000 0.000000
vt 0.993438 1.000000
vt 0.993438 0.000000
vt 0.625000 1.000000
vt 0.625000 0.000000
vt 0.993438 1.000000
vt 0.993438 0.000000
vt 0.468750 0.687500
vt 0.468750 0.531250
vt 0.000000 0.687500
vt 0.000000 0.531250
vt 0.000000 1.000000
vt 0.000000 0.843750
vt 0.468750 1.000000
vt 0.468750 0.843750
vt 0.000000 0.593750
vt 0.000000 0.437500
vt 1.000000 0.593750
vt 1.000000 0.437500
vn 0.6428 0.7660 0.0000
vn -0.7660 0.6428 0.0000
vn 0.7660 -0.6428 -0.0000
vn 0.0000 0.0000 1.0000
vn -0.0000 0.0000 -1.0000
vn -0.6428 -0.7660 -0.0000
usemtl 5
s 1
f 17/49/13 18/50/13 19/51/13
f 18/50/13 20/52/13 19/51/13
f 21/53/14 22/54/14 19/55/14
f 22/54/14 17/56/14 19/55/14
f 23/57/15 24/58/15 18/59/15
f 24/58/15 20/60/15 18/59/15
f 22/61/16 23/62/16 17/63/16
f 23/62/16 18/64/16 17/63/16
f 19/65/17 20/66/17 21/67/17
f 20/66/17 24/68/17 21/67/17
usemtl 3
f 21/69/18 24/70/18 22/71/18
f 24/70/18 23/72/18 22/71/18
o brick.016
v 0.814302 1.098264 1.029419
v 0.942294 1.008643 1.029418
v 0.814302 1.098265 -0.034383
v 0.942294 1.008643 -0.034383
v 0.544178 0.712487 -0.034383
v 0.544178 0.712487 1.029418
v 0.672170 0.622866 1.029418
v 0.672170 0.622866 -0.034383
vt 0.000000 1.000000
vt 0.000000 0.843750
vt 1.000000 1.000000
vt 1.000000 0.843750
vt 0.625000 1.000000
vt 0.625000 0.000000
vt 0.993438 1.000000
vt 0.993438 0.000000
vt 0.625000 1.000000
vt 0.625000 0.000000
vt 0.993438 1.000000
vt 0.993438 0.000000
vt 1.000000 0.218750
vt 1.000000 0.062500
vt 0.531250 0.218750
vt 0.531250 0.062500
vt 0.000000 0.843750
vt 0.000000 0.687500
vt 0.468750 0.843750
vt 0.468750 0.687500
vt 0.000000 0.593750
vt 0.000000 0.437500
vt 1.000000 0.593750
vt 1.000000 0.437500
vn 0.5736 0.8192 0.0000
vn 0.5736 0.8191 0.0000
vn -0.8192 0.5736 0.0000
vn 0.8192 -0.5736 -0.0000
vn -0.0000 -0.0000 1.0000
vn 0.0000 0.0000 -1.0000
vn -0.5736 -0.8192 -0.0000
usemtl 5
s 1
f 25/73/19 26/74/19 27/75/20
f 26/74/19 28/76/20 27/75/20
f 29/77/21 30/78/21 27/79/21
f 30/78/21 25/80/21 27/79/21
f 31/81/22 32/82/22 26/83/22
f 32/82/22 28/84/22 26/83/22
f 30/85/23 31/86/23 25/87/23
f 31/86/23 26/88/23 25/87/23
f 27/89/24 28/90/24 29/91/24
f 28/90/24 32/92/24 29/91/24
usemtl 3
f 29/93/25 32/94/25 30/95/25
f 32/94/25 31/96/25 30/95/25
o brick.017
v 0.644335 1.198464 1.029419
v 0.779651 1.120339 1.029419
v 0.644335 1.198464 -0.034383
v 0.779651 1.120339 -0.034383
v 0.408861 0.790612 -0.034383
v 0.408861 0.790612 1.029418
v 0.544178 0.712487 1.029418
v 0.544178 0.712487 -0.034383
vt 0.000000 1.000000
vt 0.000000 0.843750
vt 1.000000 1.000000
vt 1.000000 0.843750
vt 0.625000 1.000000
vt 0.625000 0.000000
vt 0.993438 1.000000
vt 0.993438 0.000000
vt 0.625000 1.000000
vt 0.625000 0.000000
vt 0.993438 1.000000
vt 0.993438 0.000000
vt 1.000000 0.375000
vt 1.000000 0.218750
vt 0.531250 0.375000
vt 0.531250 0.218750
vt 0.531250 1.000000
vt 0.531250 0.843750
vt 1.000000 1.000000
vt 1.000000 0.843750
vt 0.000000 1.000000
vt 0.000000 0.843750
vt 1.000000 1.000000
vt 1.000000 0.843750
vn 0.5000 0.8660 0.0000
vn -0.8660 0.5000 0.0000
vn 0.8660 -0.5000 -0.0000
vn -0.0000 -0.0000 1.0000
vn 0.0000 0.0000 -1.0000
vn -0.5000 -0.8660 -0.0000
usemtl 5
s 1
f 33/97/26 34/98/26 35/99/26
f 34/98/26 36/100/26 35/99/26
f 37/101/27 38/102/27 35/103/27
f 38/102/27 33/104/27 35/103/27
f 39/105/28 40/106/28 34/107/28
f 40/106/28 36/108/28 34/107/28
f 38/109/29 39/110/29 33/111/29
f 39/110/29 34/112/29 33/111/29
f 35/113/30 36/114/30 37/115/30
f 36/114/30 40/116/30 37/115/30
usemtl 3
f 37/117/31 40/118/31 38/119/31
f 40/118/31 39/120/31 38/119/31
o brick.018
v 0.466281 1.283469 1.029419
v 0.607892 1.217435 1.029419
v 0.466281 1.283469 -0.034383
v 0.607892 1.217435 -0.034383
v 0.267251 0.856646 -0.034383
v 0.267251 0.856646 1.029418
v 0.408861 0.790612 1.029418
v 0.408861 0.790612 -0.034383
vt 0.000000 1.000000
vt 0.000000 0.843750
vt 1.000000 1.000000
vt 1.000000 0.843750
vt 0.625000 1.000000
vt 0.625000 0.000000
vt 0.993438 1.000000
vt 0.993438 0.000000
vt 0.625000 1.000000
vt 0.625000 0.000000
vt 0.993438 1.000000
vt 0.993438 0.000000
vt 0.468750 0.218750
vt 0.468750 0.062500
vt 0.000000 0.218750
vt 0.000000 0.062500
vt 0.531250 0.843750
vt 0.531250 0.687500
vt 1.000000 0.843750
vt 1.000000 0.687500
vt 0.000000 0.406250
vt 0.000000 0.250000
vt 1.000000 0.406250
vt 1.000000 0.250000
vn 0.4226 0.9063 0.0000
vn -0.9063 0.4226 0.0000
vn 0.9063 -0.4226 -0.0000
vn -0.0000 -0.0000 1.0000
vn 0.0000 0.0000 -1.0000
vn -0.4226 -0.9063 -0.0000
usemtl 5
s 1
f 41/121/32 42/122/32 43/123/32
f 42/122/32 44/124/32 43/123/32
f 45/125/33 46/126/33 43/127/33
f 46/126/33 41/128/33 43/127/33
f 47/129/34 48/130/34 42/131/34
f 48/130/34 44/132/34 42/131/34
f 46/133/35 47/134/35 41/135/35
f 47/134/35 42/136/35 41/135/35
f 43/137/36 44/138/36 45/139/36
f 44/138/36 48/140/36 45/139/36
usemtl 3
f 45/141/37 48/142/37 46/143/37
f 48/142/37 47/144/37 46/143/37
o brick.019
v 0.281497 1.352632 1.029419
v 0.428324 1.299192 1.029419
v 0.281497 1.352633 -0.034383
v 0.428324 1.299192 -0.034383
v 0.120424 0.910087 -0.034383
v 0.120424 0.910087 1.029418
v 0.267251 0.856646 1.029418
v 0.267251 0.856646 -0.034383
vt 0.000000 1.000000
vt 0.000000 0.843750
vt 1.000000 1.000000
vt 1.000000 0.843750
vt 0.625000 1.000000
vt 0.625000 0.000000
vt 0.993438 1.000000
vt 0.993438 0.000000
vt 0.625000 1.000000
vt 0.625000 0.000000
vt 0.993438 1.000000
vt 0.993438 0.000000
vt 1.000000 0.218750
vt 1.000000 0.062500
vt 0.531250 0.218750
vt 0.531250 0.062500
vt 0.531250 0.218750
vt 0.531250 0.062500
vt 1.000000 0.218750
vt 1.000000 0.062500
vt 0.000000 0.562500
vt 0.000000 0.406250
vt 1.000000 0.562500
vt 1.000000 0.406250
vn 0.3420 0.9397 0.0000
vn -0.9397 0.3420 0.0000
vn 0.9397 -0.3420 -0.0000
vn -0.0000 -0.0000 1.0000
vn -0.0000 0.0000 -1.0000
vn -0.3420 -0.9397 -0.0000
usemtl 5
s 1
f 49/145/38 50/146/38 51/147/38
f 50/146/38 52/148/38 51/147/38
f 53/149/39 54/150/39 51/151/39
f 54/150/39 49/152/39 51/151/39
f 55/153/40 56/154/40 50/155/40
f 56/154/40 52/156/40 50/155/40
f 54/157/41 55/158/41 49/159/41
f 55/158/41 50/160/41 49/159/41
f 51/161/42 52/162/42 53/163/42
f 52/162/42 56/164/42 53/163/42
usemtl 3
f 53/165/43 56/166/43 54/167/43
f 56/166/43 55/168/43 54/167/43
o brick.020
v 0.091388 1.405427 1.029419
v 0.242314 1.364987 1.029419
v 0.091388 1.405427 -0.034383
v 0.242314 1.364987 -0.034383
v -0.030502 0.950527 -0.034383
v 0.120424 0.910087 -0.034383
v -0.030502 0.950527 1.029418
v 0.120424 0.910087 1.029418
vt 0.000000 0.843750
vt 0.000000 0.687500
vt 1.000000 0.843750
vt 1.000000 0.687500
vt 0.000000 0.656250
vt 0.000000 0.500000
vt 1.000000 0.656250
vt 1.000000 0.500000
vt 0.625000 1.000000
vt 0.625000 0.000000
vt 0.993438 1.000000
vt 0.993438 0.000000
vt 0.625000 1.000000
vt 0.625000 0.000000
vt 0.993438 1.000000
vt 0.993438 0.000000
vt 0.468750 1.000000
vt 0.468750 0.843750
vt 0.000000 1.000000
vt 0.000000 0.843750
vt 0.000000 0.687500
vt 0.000000 0.531250
vt 0.468750 0.687500
vt 0.468750 0.531250
vn 0.2588 0.9659 0.0000
vn -0.2588 -0.9659 -0.0000
vn -0.9659 0.2588 0.0000
vn 0.9659 -0.2588 -0.0000
vn 0.0000 -0.0000 1.0000
vn -0.0000 0.0000 -1.0000
usemtl 3
s 1
f 57/169/44 58/170/44 59/171/44
f 58/170/44 60/172/44 59/171/44
f 61/173/45 62/174/45 63/175/45
f 62/174/45 64/176/45 63/175/45
usemtl 5
f 61/177/46 63/178/46 59/179/46
f 63/178/46 57/180/46 59/179/46
f 64/181/47 62/182/47 58/183/47
f 62/182/47 60/184/47 58/183/47
f 63/185/48 64/186/48 57/187/48
f 64/186/48 58/188/48 57/187/48
f 59/189/49 60/190/49 61/191/49
f 60/190/49 62/192/49 61/191/49
o cube.123
v 0.128813 1.431095 1.003348
v 0.314343 1.375257 1.003348
v 0.128813 1.431095 -0.000699
v 0.314343 1.375257 -0.000699
v -0.004660 0.987611 -0.000699
v 0.180869 0.931772 -0.000699
v -0.004660 0.987610 1.003348
v 0.180869 0.931772 1.003348
vt 0.000000 0.687500
vt 0.000000 0.462500
vt 1.000000 0.687500
vt 1.000000 0.462500
vt 0.000000 1.000000
vt 0.000000 0.765625
vt 0.281250 1.000000
vt 0.281250 0.765625
vt 0.000000 0.000000
vt 0.463135 1.000000
vt 0.463135 0.000000
vt 0.494385 0.843750
vt 0.494385 0.618750
vt 0.000000 0.843750
vt 0.000000 0.618750
vt 0.000000 0.375000
vt 0.000000 0.150000
vt 0.494385 0.375000
vt 0.494385 0.150000
vn 0.2882 0.9576 0.0000
vn -0.2882 -0.9576 -0.0000
vn -0.9576 0.2882 0.0000
vn 0.0000 0.0000 1.0000
vn -0.0000 0.0000 -1.0000
usemtl 6
s 1
f 65/193/50 66/194/50 67/195/50
f 66/194/50 68/196/50 67/195/50
f 69/197/51 70/198/51 71/199/51
f 70/198/51 72/200/51 71/199/51
f 69/197/52 71/201/52 67/202/52
f 71/201/52 65/203/52 67/202/52
f 71/204/53 72/205/53 65/206/53
f 72/205/53 66/207/53 65/206/53
f 67/208/54 68/209/54 69/210/54
f 68/209/54 70/211/54 69/210/54
o cube.124
v 0.314343 1.375257 1.002425
v 0.494611 1.304247 1.002425
v 0.314343 1.375257 -0.001622
v 0.494611 1.304247 -0.001622
v 0.144603 0.944348 -0.001622
v 0.324872 0.873339 -0.001622
v 0.144603 0.944348 1.002425
v 0.324872 0.873339 1.002425
vt 0.000000 0.687500
vt 0.000000 0.493750
vt 1.000000 0.687500
vt 1.000000 0.493750
vt 0.000000 1.000000
vt 0.000000 0.765625
vt 0.281250 1.000000
vt 0.281250 0.765625
vt 0.468750 0.343750
vt 0.468750 0.156250
vt 0.000000 0.343750
vt 0.000000 0.156250
vt 0.000000 0.375000
vt 0.000000 0.150000
vt 0.494385 0.375000
vt 0.494385 0.150000
vn 0.3665 0.9304 0.0000
vn -0.3665 -0.9304 -0.0000
vn 0.0000 -0.0000 1.0000
vn 0.0000 0.0000 -1.0000
usemtl 6
s 1
f 73/212/55 74/213/55 75/214/55
f 74/213/55 76/215/55 75/214/55
f 77/216/56 78/217/56 79/218/56
f 78/217/56 80/219/56 79/218/56
f 79/220/57 80/221/57 73/222/57
f 80/221/57 74/223/57 73/222/57
f 75/224/58 76/225/58 77/226/58
f 76/225/58 78/227/58 77/226/58
o cube.125
v 0.494611 1.304247 1.003118
v 0.668380 1.218554 1.003118
v 0.494611 1.304247 -0.000930
v 0.668380 1.218554 -0.000930
v 0.289772 0.888875 -0.000931
v 0.463541 0.803181 -0.000931
v 0.289772 0.888874 1.003117
v 0.463541 0.803181 1.003117
vt 0.000000 0.687500
vt 0.000000 0.493750
vt 1.000000 0.687500
vt 1.000000 0.493750
vt 0.000000 1.000000
vt 0.000000 0.765625
vt 0.281250 1.000000
vt 0.281250 0.765625
vt 0.468750 0.593750
vt 0.468750 0.406250
vt 0.000000 0.593750
vt 0.000000 0.406250
vt 0.000000 0.375000
vt 0.000000 0.150000
vt 0.494385 0.375000
vt 0.494385 0.150000
vn 0.4423 0.8969 0.0000
vn -0.4423 -0.8969 -0.0000
vn -0.0000 -0.0000 1.0000
vn 0.0000 0.0000 -1.0000
usemtl 6
s 1
f 81/228/59 82/229/59 83/230/59
f 82/229/59 84/231/59 83/230/59
f 85/232/60 86/233/60 87/234/60
f 86/233/60 88/235/60 87/234/60
f 87/236/61 88/237/61 81/238/61
f 88/237/61 82/239/61 81/238/61
f 83/240/62 84/241/62 85/242/62
f 84/241/62 86/243/62 85/242/62
o cube.126
v 0.668380 1.218554 1.002425
v 0.834456 1.118765 1.002425
v 0.668380 1.218554 -0.001622
v 0.834456 1.118765 -0.001622
v 0.429848 0.821570 -0.001622
v 0.595924 0.721781 -0.001622
v 0.429848 0.821570 1.002425
v 0.595924 0.721781 1.002425
vt 0.000000 0.687500
vt 0.000000 0.493750
vt 1.000000 0.687500
vt 1.000000 0.493750
vt 0.000000 1.000000
vt 0.000000 0.765625
vt 0.281250 1.000000
vt 0.281250 0.765625
vt 1.000000 0.500000
vt 1.000000 0.312500
vt 0.531250 0.500000
vt 0.531250 0.312500
vt 0.000000 0.375000
vt 0.000000 0.150000
vt 0.494385 0.375000
vt 0.494385 0.150000
vn 0.5150 0.8572 0.0000
vn -0.5150 -0.8572 0.0000
vn 0.0000 0.0000 1.0000
vn -0.0000 0.0000 -1.0000
usemtl 6
s 1
f 89/244/63 90/245/63 91/246/63
f 90/245/63 92/247/63 91/246/63
f 93/248/64 94/249/64 95/250/64
f 94/249/64 96/251/64 95/250/64
f 95/252/65 96/253/65 89/254/65
f 96/253/65 90/255/65 89/254/65
f 91/256/66 92/257/66 93/258/66
f 92/257/66 94/259/66 93/258/66
o cube.127
v 0.834456 1.118765 1.003348
v 0.991699 1.005567 1.003348
v 0.834456 1.118765 -0.000699
v 0.991699 1.005567 -0.000699
v 0.563870 0.742897 -0.000699
v 0.721112 0.629699 -0.000699
v 0.563870 0.742897 1.003348
v 0.721112 0.629699 1.003348
vt 0.000000 0.687500
vt 0.000000 0.493750
vt 1.000000 0.687500
vt 1.000000 0.493750
vt 0.000000 1.000000
vt 0.000000 0.765625
vt 0.281250 1.000000
vt 0.281250 0.765625
vt 0.468750 1.000000
vt 0.468750 0.812500
vt 0.000000 1.000000
vt 0.000000 0.812500
vt 0.000000 0.375000
vt 0.000000 0.150000
vt 0.494385 0.375000
vt 0.494385 0.150000
vn 0.5842 0.8116 0.0000
vn -0.5842 -0.8116 -0.0000
vn 0.0000 -0.0000 1.0000
vn -0.0000 0.0000 -1.0000
usemtl 6
s 1
f 97/260/67 98/261/67 99/262/67
f 98/261/67 100/263/67 99/262/67
f 101/264/68 102/265/68 103/266/68
f 102/265/68 104/267/68 103/266/68
f 103/268/69 104/269/69 97/270/69
f 104/269/69 98/271/69 97/270/69
f 99/272/70 100/273/70 101/274/70
f 100/273/70 102/275/70 101/274/70
o cube.128
v 0.991699 1.005567 1.002425
v 1.139027 0.879736 1.002425
v 0.991699 1.005567 -0.001622
v 1.139027 0.879736 -0.001622
v 0.690917 0.653397 -0.001622
v 0.838246 0.527566 -0.001622
v 0.690917 0.653396 1.002425
v 0.838246 0.527566 1.002425
vt 0.000000 0.687500
vt 0.000000 0.493750
vt 1.000000 0.687500
vt 1.000000 0.493750
vt 0.000000 1.000000
vt 0.000000 0.765625
vt 0.281250 1.000000
vt 0.281250 0.765625
vt 0.468750 0.187500
vt 0.468750 0.000000
vt 0.000000 0.187500
vt 0.000000 0.000000
vt 0.000000 0.375000
vt 0.000000 0.150000
vt 0.494385 0.375000
vt 0.494385 0.150000
vn 0.6495 0.7604 0.0000
vn -0.6494 -0.7604 -0.0000
vn 0.0000 -0.0000 1.0000
vn 0.0000 0.0000 -1.0000
usemtl 6
s 1
f 105/276/71 106/277/71 107/278/71
f 106/277/71 108/279/71 107/278/71
f 109/280/72 110/281/72 111/282/72
f 110/281/72 112/283/72 111/282/72
f 111/284/73 112/285/73 105/286/73
f 112/285/73 106/287/73 105/286/73
f 107/288/74 108/289/74 109/290/74
f 108/289/74 110/291/74 109/290/74
o cube.129
v 1.139027 0.879736 1.002655
v 1.275430 0.742138 1.002655
v 1.139027 0.879736 -0.001392
v 1.275430 0.742138 -0.001392
v 0.810116 0.553683 -0.001392
v 0.946519 0.416084 -0.001392
v 0.810116 0.553683 1.002655
v 0.946519 0.416084 1.002655
vt 0.000000 0.687500
vt 0.000000 0.493750
vt 1.000000 0.687500
vt 1.000000 0.493750
vt 0.000000 1.000000
vt 0.000000 0.765625
vt 0.281250 1.000000
vt 0.281250 0.765625
vt 0.468750 0.625000
vt 0.468750 0.437500
vt 0.000000 0.625000
vt 0.000000 0.437500
vt 0.000000 0.375000
vt 0.000000 0.150000
vt 0.494385 0.375000
vt 0.494385 0.150000
vn 0.7102 0.7040 0.0000
vn -0.7102 -0.7040 -0.0000
vn 0.0000 0.0000 1.0000
vn 0.0000 0.0000 -1.0000
usemtl 6
s 1
f 113/292/75 114/293/75 115/294/75
f 114/293/75 116/295/75 115/294/75
f 117/296/76 118/297/76 119/298/76
f 118/297/76 120/299/76 119/298/76
f 119/300/77 120/301/77 113/302/77
f 120/301/77 114/303/77 113/302/77
f 115/304/78 116/305/78 117/306/78
f 116/305/78 118/307/78 117/306/78
o cube.130
v 1.275430 0.742138 1.002425
v 1.399970 0.593717 1.002425
v 1.275430 0.742138 -0.001622
v 1.399970 0.593717 -0.001622
v 0.920649 0.444441 -0.001622
v 1.045189 0.296020 -0.001622
v 0.920649 0.444441 1.002425
v 1.045189 0.296019 1.002425
vt 0.000000 0.687500
vt 0.000000 0.493750
vt 1.000000 0.687500
vt 1.000000 0.493750
vt 0.000000 1.000000
vt 0.000000 0.765625
vt 0.281250 1.000000
vt 0.281250 0.765625
vt 0.000000 1.000000
vt 0.000000 0.000000
vt 0.463135 1.000000
vt 0.463135 0.000000
vt 0.468750 0.843750
vt 0.468750 0.656250
vt 0.000000 0.843750
vt 0.000000 0.656250
vt 0.000000 0.375000
vt 0.000000 0.150000
vt 0.494385 0.375000
vt 0.494385 0.150000
vn 0.7660 0.6428 0.0000
vn -0.7660 -0.6428 -0.0000
vn 0.6428 -0.7660 -0.0000
vn 0.0000 -0.0000 1.0000
vn 0.0000 0.0000 -1.0000
usemtl 6
s 1
f 121/308/79 122/309/79 123/310/79
f 122/309/79 124/311/79 123/310/79
f 125/312/80 126/313/80 127/314/80
f 126/313/80 128/315/80 127/314/80
f 128/316/81 126/317/81 122/318/81
f 126/317/81 124/319/81 122/318/81
f 127/320/82 128/321/82 121/322/82
f 128/321/82 122/323/82 121/322/82
f 123/324/83 124/325/83 125/326/83
f 124/325/83 126/327/83 125/326/83
