# Blender v2.83.0 OBJ File: ''
# www.blender.org
mtllib lime_mortar_orange_clay_brick_gothic_arch_3_middle.mtl
o cube
v 0.885485 1.334027 1.032681
v 1.041489 1.277246 1.032681
v 0.885485 1.334027 -0.037174
v 1.041489 1.277246 -0.037174
v 0.706041 0.841009 -0.037174
v 0.706041 0.841009 1.032681
v 0.862045 0.784229 1.032681
v 0.862045 0.784229 -0.037174
vt 0.000000 0.843750
vt 0.000000 0.687500
vt 1.000000 0.843750
vt 1.000000 0.687500
vt 0.000000 1.000000
vt 0.000000 0.000000
vt 0.468750 1.000000
vt 0.468750 0.000000
vt 0.500000 1.000000
vt 0.500000 0.000000
vt 0.993375 1.000000
vt 0.993375 0.000000
vt 1.000000 0.687500
vt 1.000000 0.531250
vt 0.531250 0.687500
vt 0.531250 0.531250
vt 0.000000 0.375000
vt 0.000000 0.218750
vt 0.468750 0.375000
vt 0.468750 0.218750
vt 0.000000 0.812500
vt 0.000000 0.656250
vt 1.000000 0.812500
vt 1.000000 0.656250
vn 0.3420 0.9397 0.0000
vn -0.9397 0.3420 0.0000
vn 0.9397 -0.3420 0.0000
vn 0.0000 -0.0000 1.0000
vn 0.0000 0.0000 -1.0000
vn -0.3420 -0.9397 -0.0000
usemtl 0
s 1
f 1/1/1 2/2/1 3/3/1
f 2/2/1 4/4/1 3/3/1
f 5/5/2 6/6/2 3/7/2
f 6/6/2 1/8/2 3/7/2
f 7/9/3 8/10/3 2/11/3
f 8/10/3 4/12/3 2/11/3
f 6/13/4 7/14/4 1/15/4
f 7/14/4 2/16/4 1/15/4
f 3/17/5 4/18/5 5/19/5
f 4/18/5 8/20/5 5/19/5
usemtl 3
f 5/21/6 8/22/6 6/23/6
f 8/22/6 7/24/6 6/23/6
o cube.000
v 0.681474 1.390758 1.032681
v 0.841833 1.347790 1.032681
v 0.681474 1.390758 -0.037174
v 0.841833 1.347790 -0.037174
v 0.545683 0.883977 -0.037174
v 0.545683 0.883977 1.032681
v 0.706041 0.841009 1.032681
v 0.706041 0.841009 -0.037174
vt 0.000000 0.843750
vt 0.000000 0.687500
vt 1.000000 0.843750
vt 1.000000 0.687500
vt 0.000000 1.000000
vt 0.000000 0.000000
vt 0.468750 1.000000
vt 0.468750 0.000000
vt 0.500000 1.000000
vt 0.500000 0.000000
vt 0.993375 1.000000
vt 0.993375 0.000000
vt 1.000000 0.375000
vt 1.000000 0.218750
vt 0.531250 0.375000
vt 0.531250 0.218750
vt 0.531250 0.843750
vt 0.531250 0.687500
vt 1.000000 0.843750
vt 1.000000 0.687500
vt 0.000000 0.750000
vt 0.000000 0.593750
vt 1.000000 0.750000
vt 1.000000 0.593750
vn 0.2588 0.9659 0.0000
vn -0.9659 0.2588 0.0000
vn 0.9659 -0.2588 -0.0000
vn 0.0000 -0.0000 1.0000
vn 0.0000 0.0000 -1.0000
vn -0.2588 -0.9659 -0.0000
usemtl 0
s 1
f 9/25/7 10/26/7 11/27/7
f 10/26/7 12/28/7 11/27/7
f 13/29/8 14/30/8 11/31/8
f 14/30/8 9/32/8 11/31/8
f 15/33/9 16/34/9 10/35/9
f 16/34/9 12/36/9 10/35/9
f 14/37/10 15/38/10 9/39/10
f 15/38/10 10/40/10 9/39/10
f 11/41/11 12/42/11 13/43/11
f 12/42/11 16/44/11 13/43/11
usemtl 2
f 13/45/12 16/46/12 14/47/12
f 16/46/12 15/48/12 14/47/12
o cube.001
v 0.502147 1.424406 1.028509
v 0.636788 1.400665 1.028509
v 0.502147 1.424406 -0.036014
v 0.636788 1.400665 -0.036014
v 0.411041 0.907718 -0.036014
v 0.411041 0.907718 1.028508
v 0.545683 0.883977 1.028508
v 0.545683 0.883977 -0.036014
vt 0.000000 0.843750
vt 0.000000 0.687500
vt 1.000000 0.843750
vt 1.000000 0.687500
vt 0.000000 1.000000
vt 0.000000 0.000000
vt 0.468750 1.000000
vt 0.468750 0.000000
vt 0.500000 1.000000
vt 0.500000 0.000000
vt 0.993375 1.000000
vt 0.993375 0.000000
vt 1.000000 0.093750
vt 1.000000 0.218750
vt 0.531250 0.093750
vt 0.531250 0.218750
vt 0.000000 0.812500
vt 0.000000 0.687500
vt 0.468750 0.812500
vt 0.468750 0.687500
vt 0.000000 0.843750
vt 1.000000 1.000000
vt 1.000000 0.843750
vn 0.1736 0.9848 0.0000
vn -0.9848 0.1736 0.0000
vn 0.9848 -0.1736 -0.0000
vn 0.0000 -0.0000 1.0000
vn 0.0000 0.0000 -1.0000
vn -0.1736 -0.9848 -0.0000
usemtl 0
s 1
f 17/49/13 18/50/13 19/51/13
f 18/50/13 20/52/13 19/51/13
f 21/53/14 22/54/14 19/55/14
f 22/54/14 17/56/14 19/55/14
f 23/57/15 24/58/15 18/59/15
f 24/58/15 20/60/15 18/59/15
f 22/61/16 23/62/16 17/63/16
f 23/62/16 18/64/16 17/63/16
f 19/65/17 20/66/17 21/67/17
f 20/66/17 24/68/17 21/67/17
usemtl 1
f 21/53/18 24/69/18 22/70/18
f 24/69/18 23/71/18 22/70/18
o cube.002
v 0.794053 1.399055 1.004631
v 1.015713 1.331287 1.004631
v 0.794053 1.399055 -0.004255
v 1.015713 1.331287 -0.004255
v 0.635376 0.880045 -0.004255
v 0.857035 0.812277 -0.004255
v 0.635376 0.880045 1.004630
v 0.857035 0.812277 1.004630
vt 0.000000 1.000000
vt 0.000000 0.768188
vt 1.000000 1.000000
vt 1.000000 0.768188
vt 0.000000 1.000000
vt 0.000000 0.768213
vt 1.000000 1.000000
vt 1.000000 0.768213
vt 0.000000 1.000000
vt 0.000000 0.000000
vt 0.500000 1.000000
vt 0.500000 0.000000
vt 0.500000 0.375000
vt 0.500000 0.187500
vt 1.000000 0.375000
vt 1.000000 0.187500
vt 0.500000 0.375000
vt 0.500000 0.187500
vt 1.000000 0.375000
vt 1.000000 0.187500
vn 0.2924 0.9563 0.0000
vn -0.2924 -0.9563 -0.0000
vn 0.9563 -0.2924 -0.0000
vn 0.0000 -0.0000 1.0000
vn -0.0000 0.0000 -1.0000
usemtl 6
s 1
f 25/72/19 26/73/19 27/74/19
f 26/73/19 28/75/19 27/74/19
f 29/76/20 30/77/20 31/78/20
f 30/77/20 32/79/20 31/78/20
f 32/80/21 30/81/21 26/82/21
f 30/81/21 28/83/21 26/82/21
f 31/84/22 32/85/22 25/86/22
f 32/85/22 26/87/22 25/86/22
f 27/88/23 28/89/23 29/90/23
f 28/89/23 30/91/23 29/90/23
o cube.003
v 0.499422 1.456325 1.004631
v 0.794053 1.399055 1.004631
v 0.499422 1.456326 -0.004255
v 0.794053 1.399055 -0.004255
v 0.395865 0.923572 -0.004255
v 0.690497 0.866302 -0.004255
v 0.395865 0.923572 1.004630
v 0.690497 0.866302 1.004630
vt 0.000000 1.000000
vt 0.000000 0.768188
vt 1.000000 1.000000
vt 1.000000 0.768188
vt 0.000000 1.000000
vt 0.000000 0.768213
vt 1.000000 1.000000
vt 1.000000 0.768213
vt 0.000000 1.000000
vt 0.000000 0.000000
vt 0.500000 1.000000
vt 0.500000 0.000000
vt 0.000000 0.375000
vt 0.000000 0.187500
vt 0.500000 0.375000
vt 0.500000 0.187500
vt 0.500000 0.406250
vt 0.500000 0.093750
vt 1.000000 0.406250
vt 1.000000 0.093750
vn 0.1908 0.9816 0.0000
vn -0.1908 -0.9816 -0.0000
vn 0.9816 -0.1908 -0.0000
vn 0.0000 -0.0000 1.0000
vn 0.0000 0.0000 -1.0000
usemtl 6
s 1
f 33/92/24 34/93/24 35/94/24
f 34/93/24 36/95/24 35/94/24
f 37/96/25 38/97/25 39/98/25
f 38/97/25 40/99/25 39/98/25
f 40/100/26 38/101/26 34/102/26
f 38/101/26 36/103/26 34/102/26
f 39/104/27 40/105/27 33/106/27
f 40/105/27 34/107/27 33/106/27
f 35/108/28 36/109/28 37/110/28
f 36/109/28 38/111/28 37/110/28
o cube.004
v 0.603416 0.923432 1.004630
v 0.309503 0.866302 1.004630
v 0.603416 0.923433 -0.004255
v 0.309503 0.866302 -0.004255
v 0.499860 1.456186 -0.004255
v 0.205947 1.399055 -0.004255
v 0.499860 1.456186 1.004631
v 0.205947 1.399055 1.004631
vt 1.000000 1.000000
vt 1.000000 0.768213
vt 0.000000 1.000000
vt 0.000000 0.768213
vt 1.000000 1.000000
vt 1.000000 0.768188
vt 0.000000 1.000000
vt 0.000000 0.768188
vt 0.500000 1.000000
vt 0.500000 0.000000
vt 0.000000 1.000000
vt 0.000000 0.000000
vt 0.500000 0.187500
vt 0.500000 0.000000
vt 0.000000 0.187500
vt 0.000000 0.000000
vt 1.000000 0.625000
vt 1.000000 0.312500
vt 0.500000 0.625000
vt 0.500000 0.312500
vn 0.1908 -0.9816 -0.0000
vn -0.1908 0.9816 0.0000
vn -0.9816 -0.1908 0.0000
vn -0.0000 -0.0000 1.0000
vn 0.0000 0.0000 -1.0000
usemtl 6
s 1
f 41/112/29 42/113/29 43/114/29
f 42/113/29 44/115/29 43/114/29
f 45/116/30 46/117/30 47/118/30
f 46/117/30 48/119/30 47/118/30
f 48/120/31 46/121/31 42/122/31
f 46/121/31 44/123/31 42/122/31
f 47/124/32 48/125/32 41/126/32
f 48/125/32 42/127/32 41/126/32
f 43/128/33 44/129/33 45/130/33
f 44/129/33 46/131/33 45/130/33
o cube.005
v 0.293959 0.841009 1.032681
v 0.137955 0.784229 1.032681
v 0.293959 0.841009 -0.037174
v 0.137955 0.784229 -0.037174
v 0.114515 1.334027 -0.037174
v -0.041489 1.277246 -0.037174
v 0.114515 1.334027 1.032681
v -0.041489 1.277246 1.032681
vt 1.000000 0.750000
vt 1.000000 0.593750
vt 0.000000 0.750000
vt 0.000000 0.593750
vt 1.000000 0.843750
vt 1.000000 0.687500
vt 0.000000 0.843750
vt 0.000000 0.687500
vt 0.468750 1.000000
vt 0.468750 0.000000
vt 0.000000 1.000000
vt 0.000000 0.000000
vt 0.993375 1.000000
vt 0.993375 0.000000
vt 0.500000 1.000000
vt 0.500000 0.000000
vt 0.531250 0.531250
vt 0.531250 0.375000
vt 1.000000 0.531250
vt 1.000000 0.375000
vt 0.468750 0.687500
vt 0.468750 0.531250
vt 0.000000 0.687500
vt 0.000000 0.531250
vn 0.3420 -0.9397 0.0000
vn -0.3420 0.9397 0.0000
vn 0.9397 0.3420 0.0000
vn -0.9397 -0.3420 0.0000
vn 0.0000 -0.0000 1.0000
vn -0.0000 0.0000 -1.0000
usemtl 2
s 1
f 49/132/34 50/133/34 51/134/34
f 50/133/34 52/135/34 51/134/34
usemtl 0
f 53/136/35 54/137/35 55/138/35
f 54/137/35 56/139/35 55/138/35
f 53/140/36 55/141/36 51/142/36
f 55/141/36 49/143/36 51/142/36
f 56/144/37 54/145/37 50/146/37
f 54/145/37 52/147/37 50/146/37
f 55/148/38 56/149/38 49/150/38
f 56/149/38 50/151/38 49/150/38
f 51/152/39 52/153/39 53/154/39
f 52/153/39 54/155/39 53/154/39
o cube.006
v 0.454317 0.883977 1.032681
v 0.293959 0.841009 1.032681
v 0.454317 0.883977 -0.037174
v 0.293959 0.841009 -0.037174
v 0.318526 1.390758 -0.037174
v 0.158167 1.347790 -0.037174
v 0.318526 1.390758 1.032681
v 0.158167 1.347790 1.032681
vt 1.000000 0.218750
vt 1.000000 0.062500
vt 0.000000 0.218750
vt 0.000000 0.062500
vt 1.000000 0.843750
vt 1.000000 0.687500
vt 0.000000 0.843750
vt 0.000000 0.687500
vt 0.468750 1.000000
vt 0.468750 0.000000
vt 0.000000 1.000000
vt 0.000000 0.000000
vt 0.993375 1.000000
vt 0.993375 0.000000
vt 0.500000 1.000000
vt 0.500000 0.000000
vt 0.531250 0.218750
vt 0.531250 0.062500
vt 1.000000 0.218750
vt 1.000000 0.062500
vt 0.531250 0.218750
vt 0.531250 0.062500
vn 0.2588 -0.9659 -0.0000
vn -0.2588 0.9659 0.0000
vn 0.9659 0.2588 0.0000
vn -0.9659 -0.2588 -0.0000
vn 0.0000 -0.0000 1.0000
vn 0.0000 0.0000 -1.0000
usemtl 3
s 1
f 57/156/40 58/157/40 59/158/40
f 58/157/40 60/159/40 59/158/40
usemtl 0
f 61/160/41 62/161/41 63/162/41
f 62/161/41 64/163/41 63/162/41
f 61/164/42 63/165/42 59/166/42
f 63/165/42 57/167/42 59/166/42
f 64/168/43 62/169/43 58/170/43
f 62/169/43 60/171/43 58/170/43
f 63/172/44 64/173/44 57/156/44
f 64/173/44 58/157/44 57/156/44
f 59/174/45 60/175/45 61/176/45
f 60/175/45 62/177/45 61/176/45
o cube.007
v 0.593527 0.908524 1.029204
v 0.454317 0.883977 1.029204
v 0.593527 0.908524 -0.035087
v 0.454317 0.883977 -0.035087
v 0.502421 1.425211 -0.035087
v 0.363212 1.400665 -0.035087
v 0.502421 1.425211 1.029204
v 0.363212 1.400665 1.029204
vt 1.000000 1.000000
vt 1.000000 0.843750
vt 0.000000 1.000000
vt 0.000000 0.843750
vt 1.000000 0.843750
vt 1.000000 0.687500
vt 0.000000 0.843750
vt 0.000000 0.687500
vt 0.468750 1.000000
vt 0.468750 0.000000
vt 0.000000 0.000000
vt 0.993375 1.000000
vt 0.993375 0.000000
vt 0.500000 1.000000
vt 0.500000 0.000000
vt 0.531250 0.187500
vt 0.531250 0.062500
vt 1.000000 0.187500
vt 1.000000 0.062500
vt 0.468750 0.843750
vt 0.468750 0.718750
vt 0.000000 0.843750
vt 0.000000 0.718750
vn 0.1737 -0.9848 -0.0000
vn -0.1736 0.9848 0.0000
vn 0.9848 0.1736 0.0000
vn -0.9848 -0.1736 0.0000
vn -0.0000 -0.0000 1.0000
vn -0.0000 0.0000 -1.0000
usemtl 1
s 1
f 65/178/46 66/179/46 67/180/46
f 66/179/46 68/181/46 67/180/46
usemtl 0
f 69/182/47 70/183/47 71/184/47
f 70/183/47 72/185/47 71/184/47
f 69/186/48 71/187/48 67/180/48
f 71/187/48 65/188/48 67/180/48
f 72/189/49 70/190/49 66/191/49
f 70/190/49 68/192/49 66/191/49
f 71/193/50 72/194/50 65/195/50
f 72/194/50 66/196/50 65/195/50
f 67/197/51 68/198/51 69/199/51
f 68/198/51 70/200/51 69/199/51
o cube.008
v 0.364624 0.880045 1.004630
v 0.142965 0.812277 1.004630
v 0.364624 0.880045 -0.004255
v 0.142965 0.812277 -0.004255
v 0.205947 1.399055 -0.004255
v -0.015713 1.331287 -0.004255
v 0.205947 1.399055 1.004631
v -0.015713 1.331287 1.004631
vt 1.000000 1.000000
vt 1.000000 0.768213
vt 0.000000 1.000000
vt 0.000000 0.768213
vt 1.000000 1.000000
vt 1.000000 0.768188
vt 0.000000 1.000000
vt 0.000000 0.768188
vt 0.500000 1.000000
vt 0.500000 0.000000
vt 0.000000 1.000000
vt 0.000000 0.000000
vt 0.500000 0.937500
vt 0.500000 0.750000
vt 0.000000 0.937500
vt 0.000000 0.750000
vt 1.000000 0.375000
vt 1.000000 0.187500
vt 0.500000 0.375000
vt 0.500000 0.187500
vn 0.2924 -0.9563 -0.0000
vn -0.2924 0.9563 0.0000
vn -0.9563 -0.2924 0.0000
vn 0.0000 -0.0000 1.0000
vn 0.0000 0.0000 -1.0000
usemtl 6
s 1
f 73/201/52 74/202/52 75/203/52
f 74/202/52 76/204/52 75/203/52
f 77/205/53 78/206/53 79/207/53
f 78/206/53 80/208/53 79/207/53
f 80/209/54 78/210/54 74/211/54
f 78/210/54 76/212/54 74/211/54
f 79/213/55 80/214/55 73/215/55
f 80/214/55 74/216/55 73/215/55
f 75/217/56 76/218/56 77/219/56
f 76/218/56 78/220/56 77/219/56
