# Blender v2.83.0 OBJ File: ''
# www.blender.org
mtllib lime_mortar_orange_clay_brick_segmental_arch_3_middle.mtl
o brick.021
v 0.184379 0.977660 1.029418
v 0.030502 0.950527 1.029418
v 0.184379 0.977660 -0.034383
v 0.030502 0.950527 -0.034383
v 0.102599 1.441452 -0.034383
v -0.051277 1.414320 -0.034383
v 0.102599 1.441452 1.029419
v -0.051277 1.414320 1.029419
vt 1.000000 0.218750
vt 1.000000 0.062500
vt 0.000000 0.218750
vt 0.000000 0.062500
vt 1.000000 1.000000
vt 1.000000 0.843750
vt 0.000000 1.000000
vt 0.000000 0.843750
vt 0.993438 1.000000
vt 0.993438 0.000000
vt 0.625000 1.000000
vt 0.625000 0.000000
vt 0.993438 1.000000
vt 0.993438 0.000000
vt 0.625000 1.000000
vt 0.625000 0.000000
vt 0.000000 0.687500
vt 0.000000 0.531250
vt 0.468750 0.687500
vt 0.468750 0.531250
vt 1.000000 0.843750
vt 1.000000 0.687500
vt 0.531250 0.843750
vt 0.531250 0.687500
vn 0.1737 -0.9848 -0.0000
vn -0.1736 0.9848 0.0000
vn 0.9848 0.1737 0.0000
vn -0.9848 -0.1736 0.0000
vn 0.0000 -0.0000 1.0000
vn 0.0000 0.0000 -1.0000
usemtl 3
s 1
f 1/1/1 2/2/1 3/3/1
f 2/2/1 4/4/1 3/3/1
usemtl 5
f 5/5/2 6/6/2 7/7/2
f 6/6/2 8/8/2 7/7/2
f 5/9/3 7/10/3 3/11/3
f 7/10/3 1/12/3 3/11/3
f 8/13/4 6/14/4 2/15/4
f 6/14/4 4/16/4 2/15/4
f 7/17/5 8/18/5 1/19/5
f 8/18/5 2/20/5 1/19/5
f 3/21/6 4/22/6 5/23/6
f 4/22/6 6/24/6 5/23/6
o brick.022
v 0.340034 0.991278 1.029418
v 0.184379 0.977660 1.029418
v 0.340034 0.991278 -0.034383
v 0.184379 0.977660 -0.034383
v 0.298988 1.460433 -0.034383
v 0.143333 1.446815 -0.034383
v 0.298988 1.460433 1.029419
v 0.143333 1.446815 1.029419
vt 1.000000 1.000000
vt 1.000000 0.843750
vt 0.000000 1.000000
vt 0.000000 0.843750
vt 1.000000 1.000000
vt 1.000000 0.843750
vt 0.000000 1.000000
vt 0.000000 0.843750
vt 0.993438 1.000000
vt 0.993438 0.000000
vt 0.625000 1.000000
vt 0.625000 0.000000
vt 0.993438 1.000000
vt 0.993438 0.000000
vt 0.625000 1.000000
vt 0.625000 0.000000
vt 0.531250 0.218750
vt 0.531250 0.062500
vt 1.000000 0.218750
vt 1.000000 0.062500
vt 1.000000 0.218750
vt 1.000000 0.062500
vt 0.531250 0.218750
vt 0.531250 0.062500
vn 0.0872 -0.9962 -0.0000
vn -0.0872 0.9962 0.0000
vn 0.9962 0.0872 0.0000
vn -0.9962 -0.0872 0.0000
vn 0.0000 -0.0000 1.0000
vn 0.0000 0.0000 -1.0000
usemtl 3
s 1
f 9/25/7 10/26/7 11/27/7
f 10/26/7 12/28/7 11/27/7
usemtl 5
f 13/29/8 14/30/8 15/31/8
f 14/30/8 16/32/8 15/31/8
f 13/33/9 15/34/9 11/35/9
f 15/34/9 9/36/9 11/35/9
f 16/37/10 14/38/10 10/39/10
f 14/38/10 12/40/10 10/39/10
f 15/41/11 16/42/11 9/43/11
f 16/42/11 10/44/11 9/43/11
f 11/45/12 12/46/12 13/47/12
f 12/46/12 14/48/12 13/47/12
o brick.023
v 0.497409 0.996773 1.029418
v 0.340034 0.991278 1.029418
v 0.497409 0.996774 -0.034383
v 0.340034 0.991278 -0.034383
v 0.480973 1.467434 -0.034383
v 0.323598 1.461938 -0.034383
v 0.480973 1.467434 1.029419
v 0.323598 1.461938 1.029419
vt 1.000000 0.156250
vt 1.000000 0.000000
vt 0.000000 0.156250
vt 0.000000 0.000000
vt 1.000000 0.843750
vt 1.000000 1.000000
vt 0.000000 0.843750
vt 0.000000 1.000000
vt 0.993438 1.000000
vt 0.993438 0.000000
vt 0.625000 1.000000
vt 0.625000 0.000000
vt 0.993438 1.000000
vt 0.993438 0.000000
vt 0.625000 1.000000
vt 0.625000 0.000000
vt 0.000000 0.375000
vt 0.000000 0.531250
vt 0.468750 0.375000
vt 0.468750 0.531250
vt 0.468750 0.843750
vt 0.468750 1.000000
vt 0.000000 0.843750
vt 0.000000 1.000000
vn 0.0349 -0.9994 -0.0000
vn -0.0349 0.9994 0.0000
vn 0.9994 0.0349 0.0000
vn -0.9994 -0.0349 -0.0000
vn 0.0000 -0.0000 1.0000
vn 0.0000 0.0000 -1.0000
usemtl 3
s 1
f 17/49/13 18/50/13 19/51/13
f 18/50/13 20/52/13 19/51/13
usemtl 5
f 21/53/14 22/54/14 23/55/14
f 22/54/14 24/56/14 23/55/14
f 21/57/15 23/58/15 19/59/15
f 23/58/15 17/60/15 19/59/15
f 24/61/16 22/62/16 18/63/16
f 22/62/16 20/64/16 18/63/16
f 23/65/17 24/66/17 17/67/17
f 24/66/17 18/68/17 17/67/17
f 19/69/18 20/70/18 21/71/18
f 20/70/18 22/72/18 21/71/18
o cube.131
v 0.553549 1.041390 1.003117
v 0.446469 1.041390 1.003117
v 0.553549 1.041390 -0.000931
v 0.446469 1.041390 -0.000931
v 0.553549 1.504524 -0.000930
v 0.446469 1.504524 -0.000930
v 0.553549 1.504524 1.003118
v 0.446469 1.504524 1.003118
vt 1.000000 1.000000
vt 1.000000 0.924658
vt 0.000000 1.000000
vt 0.000000 0.924658
vt 1.000000 0.687500
vt 1.000000 0.612158
vt 0.000000 0.687500
vt 0.000000 0.612158
vt 0.000000 0.843750
vt 0.000000 0.736670
vt 0.463135 0.843750
vt 0.463135 0.736670
vt 0.494385 0.375000
vt 0.494385 0.150000
vt 0.000000 0.375000
vt 0.000000 0.150000
vn 0.0000 -1.0000 -0.0000
vn 0.0000 1.0000 0.0000
vn 0.0000 -0.0000 1.0000
vn 0.0000 0.0000 -1.0000
usemtl 6
s 1
f 25/73/19 26/74/19 27/75/19
f 26/74/19 28/76/19 27/75/19
f 29/77/20 30/78/20 31/79/20
f 30/78/20 32/80/20 31/79/20
f 31/81/21 32/82/21 25/83/21
f 32/82/21 26/84/21 25/83/21
f 27/85/22 28/86/22 29/87/22
f 28/86/22 30/88/22 29/87/22
o cube.132
v 0.466671 1.041586 1.002425
v 0.273105 1.033135 1.002425
v 0.466671 1.041586 -0.001622
v 0.273105 1.033135 -0.001622
v 0.446469 1.504280 -0.001622
v 0.252904 1.495829 -0.001622
v 0.446469 1.504280 1.002425
v 0.252904 1.495829 1.002425
vt 0.281250 1.000000
vt 0.281250 0.765625
vt 0.000000 1.000000
vt 0.000000 0.765625
vt 1.000000 0.687500
vt 1.000000 0.493750
vt 0.000000 0.687500
vt 0.000000 0.493750
vt 0.000000 0.843750
vt 0.000000 0.618750
vt 0.494385 0.843750
vt 0.494385 0.618750
vt 0.494385 0.375000
vt 0.494385 0.150000
vt 0.000000 0.375000
vt 0.000000 0.150000
vn 0.0436 -0.9990 0.0000
vn -0.0436 0.9990 0.0000
vn 0.0000 -0.0000 1.0000
vn 0.0000 0.0000 -1.0000
usemtl 6
s 1
f 33/89/23 34/90/23 35/91/23
f 34/90/23 36/92/23 35/91/23
f 37/93/24 38/94/24 39/95/24
f 38/94/24 40/96/24 39/95/24
f 39/97/25 40/98/25 33/99/25
f 40/98/25 34/100/25 33/99/25
f 35/101/26 36/102/26 37/103/26
f 36/102/26 38/104/26 37/103/26
o cube.133
v 0.311351 1.036397 1.003348
v 0.119150 1.011946 1.003348
v 0.311351 1.036397 -0.000699
v 0.119150 1.011946 -0.000699
v 0.252904 1.495829 -0.000699
v 0.060703 1.471378 -0.000699
v 0.252904 1.495829 1.003348
v 0.060703 1.471378 1.003348
vt 0.281250 1.000000
vt 0.281250 0.765625
vt 0.000000 1.000000
vt 0.000000 0.765625
vt 1.000000 0.687500
vt 1.000000 0.493750
vt 0.000000 0.687500
vt 0.000000 0.493750
vt 0.000000 0.843750
vt 0.000000 0.618750
vt 0.494385 0.843750
vt 0.494385 0.618750
vt 0.494385 0.375000
vt 0.494385 0.150000
vt 0.000000 0.375000
vt 0.000000 0.150000
vn 0.1262 -0.9920 0.0000
vn -0.1262 0.9920 0.0000
vn 0.0000 0.0000 1.0000
vn -0.0000 0.0000 -1.0000
usemtl 6
s 1
f 41/105/27 42/106/27 43/107/27
f 42/106/27 44/108/27 43/107/27
f 45/109/28 46/110/28 47/111/28
f 46/110/28 48/112/28 47/111/28
f 47/113/29 48/114/29 41/115/29
f 48/114/29 42/116/29 41/115/29
f 43/117/30 44/118/30 45/119/30
f 44/118/30 46/120/30 45/119/30
o cube.134
v 0.156994 1.018364 1.002425
v -0.032522 0.978081 1.002425
v 0.156994 1.018364 -0.001622
v -0.032522 0.978081 -0.001622
v 0.060703 1.471378 -0.001622
v -0.128813 1.431095 -0.001622
v 0.060703 1.471378 1.002425
v -0.128813 1.431095 1.002425
vt 0.281250 1.000000
vt 0.281250 0.765625
vt 0.000000 1.000000
vt 0.000000 0.765625
vt 1.000000 0.687500
vt 1.000000 0.493750
vt 0.000000 0.687500
vt 0.000000 0.493750
vt 0.463135 1.000000
vt 0.463135 0.000000
vt 0.000000 1.000000
vt 0.000000 0.000000
vt 0.000000 0.843750
vt 0.000000 0.618750
vt 0.494385 0.843750
vt 0.494385 0.618750
vt 0.494385 0.375000
vt 0.494385 0.150000
vt 0.000000 0.375000
vt 0.000000 0.150000
vn 0.2079 -0.9781 0.0000
vn -0.2079 0.9781 0.0000
vn -0.9781 -0.2079 -0.0000
vn 0.0000 -0.0000 1.0000
vn -0.0000 0.0000 -1.0000
usemtl 6
s 1
f 49/121/31 50/122/31 51/123/31
f 50/122/31 52/124/31 51/123/31
f 53/125/32 54/126/32 55/127/32
f 54/126/32 56/128/32 55/127/32
f 56/129/33 54/130/33 50/131/33
f 54/130/33 52/132/33 50/131/33
f 55/133/34 56/134/34 49/135/34
f 56/134/34 50/136/34 49/135/34
f 51/137/35 52/138/35 53/139/35
f 52/138/35 54/140/35 53/139/35
o brick.024
v 0.897401 1.441452 1.029419
v 1.051277 1.414320 1.029419
v 0.897401 1.441452 -0.034383
v 1.051277 1.414320 -0.034383
v 0.815621 0.977660 -0.034383
v 0.815621 0.977660 1.029418
v 0.969498 0.950527 1.029418
v 0.969498 0.950527 -0.034383
vt 0.000000 1.000000
vt 0.000000 0.843750
vt 1.000000 1.000000
vt 1.000000 0.843750
vt 0.625000 1.000000
vt 0.625000 0.000000
vt 0.993438 1.000000
vt 0.993438 0.000000
vt 0.625000 1.000000
vt 0.625000 0.000000
vt 0.993438 1.000000
vt 0.993438 0.000000
vt 0.468750 0.687500
vt 0.468750 0.531250
vt 0.000000 0.687500
vt 0.000000 0.531250
vt 0.531250 0.687500
vt 0.531250 0.531250
vt 1.000000 0.687500
vt 1.000000 0.531250
vt 0.000000 0.218750
vt 0.000000 0.062500
vt 1.000000 0.218750
vt 1.000000 0.062500
vn 0.1736 0.9848 0.0000
vn -0.9848 0.1736 0.0000
vn -0.9848 0.1737 0.0000
vn 0.9848 -0.1736 -0.0000
vn 0.0000 -0.0000 1.0000
vn -0.0000 0.0000 -1.0000
vn -0.1737 -0.9848 0.0000
usemtl 5
s 1
f 57/141/36 58/142/36 59/143/36
f 58/142/36 60/144/36 59/143/36
f 61/145/37 62/146/38 59/147/38
f 62/146/38 57/148/38 59/147/38
f 63/149/39 64/150/39 58/151/39
f 64/150/39 60/152/39 58/151/39
f 62/153/40 63/154/40 57/155/40
f 63/154/40 58/156/40 57/155/40
f 59/157/41 60/158/41 61/159/41
f 60/158/41 64/160/41 61/159/41
usemtl 3
f 61/161/42 64/162/42 62/163/42
f 64/162/42 63/164/42 62/163/42
o brick.025
v 0.701012 1.460433 1.029419
v 0.856667 1.446815 1.029419
v 0.701012 1.460433 -0.034383
v 0.856667 1.446815 -0.034383
v 0.659966 0.991278 -0.034383
v 0.659966 0.991278 1.029418
v 0.815621 0.977660 1.029418
v 0.815621 0.977660 -0.034383
vt 0.000000 1.000000
vt 0.000000 0.843750
vt 1.000000 1.000000
vt 1.000000 0.843750
vt 0.625000 1.000000
vt 0.625000 0.000000
vt 0.993438 1.000000
vt 0.993438 0.000000
vt 0.625000 1.000000
vt 0.625000 0.000000
vt 0.993438 1.000000
vt 0.993438 0.000000
vt 1.000000 0.218750
vt 1.000000 0.062500
vt 0.531250 0.218750
vt 0.531250 0.062500
vt 0.531250 0.375000
vt 0.531250 0.218750
vt 1.000000 0.375000
vt 1.000000 0.218750
vt 0.000000 1.000000
vt 0.000000 0.843750
vt 1.000000 1.000000
vt 1.000000 0.843750
vn 0.0872 0.9962 0.0000
vn -0.9962 0.0872 0.0000
vn 0.9962 -0.0872 -0.0000
vn 0.0000 -0.0000 1.0000
vn 0.0000 0.0000 -1.0000
vn -0.0872 -0.9962 -0.0000
usemtl 5
s 1
f 65/165/43 66/166/43 67/167/43
f 66/166/43 68/168/43 67/167/43
f 69/169/44 70/170/44 67/171/44
f 70/170/44 65/172/44 67/171/44
f 71/173/45 72/174/45 66/175/45
f 72/174/45 68/176/45 66/175/45
f 70/177/46 71/178/46 65/179/46
f 71/178/46 66/180/46 65/179/46
f 67/181/47 68/182/47 69/183/47
f 68/182/47 72/184/47 69/183/47
usemtl 3
f 69/185/48 72/186/48 70/187/48
f 72/186/48 71/188/48 70/187/48
o brick.026
v 0.513415 1.467630 1.029419
v 0.676402 1.461938 1.029419
v 0.513415 1.467630 -0.034383
v 0.676402 1.461938 -0.034383
v 0.496979 0.996970 -0.034383
v 0.496979 0.996969 1.029418
v 0.659966 0.991278 1.029418
v 0.659966 0.991278 -0.034383
vt 0.000000 0.843750
vt 0.000000 1.000000
vt 1.000000 0.843750
vt 1.000000 1.000000
vt 0.625000 1.000000
vt 0.625000 0.000000
vt 0.993438 1.000000
vt 0.993438 0.000000
vt 0.625000 1.000000
vt 0.625000 0.000000
vt 0.993438 1.000000
vt 0.993438 0.000000
vt 1.000000 0.531250
vt 1.000000 0.375000
vt 0.531250 0.531250
vt 0.531250 0.375000
vt 0.531250 0.843750
vt 0.531250 0.687500
vt 1.000000 0.843750
vt 1.000000 0.687500
vt 0.000000 0.187500
vt 0.000000 0.031250
vt 1.000000 0.187500
vt 1.000000 0.031250
vn 0.0349 0.9994 0.0000
vn -0.9994 0.0349 0.0000
vn 0.9994 -0.0349 -0.0000
vn 0.0000 -0.0000 1.0000
vn 0.0000 0.0000 -1.0000
vn -0.0349 -0.9994 -0.0000
usemtl 5
s 1
f 73/189/49 74/190/49 75/191/49
f 74/190/49 76/192/49 75/191/49
f 77/193/50 78/194/50 75/195/50
f 78/194/50 73/196/50 75/195/50
f 79/197/51 80/198/51 74/199/51
f 80/198/51 76/200/51 74/199/51
f 78/201/52 79/202/52 73/203/52
f 79/202/52 74/204/52 73/203/52
f 75/205/53 76/206/53 77/207/53
f 76/206/53 80/208/53 77/207/53
usemtl 3
f 77/209/54 80/210/54 78/211/54
f 80/210/54 79/212/54 78/211/54
o cube.135
v 0.553531 1.504280 1.002425
v 0.747096 1.495829 1.002425
v 0.553531 1.504280 -0.001622
v 0.747096 1.495829 -0.001622
v 0.533329 1.041586 -0.001622
v 0.726894 1.033135 -0.001622
v 0.533329 1.041586 1.002425
v 0.726894 1.033135 1.002425
vt 0.000000 0.687500
vt 0.000000 0.493750
vt 1.000000 0.687500
vt 1.000000 0.493750
vt 0.000000 1.000000
vt 0.000000 0.765625
vt 0.281250 1.000000
vt 0.281250 0.765625
vt 0.494385 0.843750
vt 0.494385 0.618750
vt 0.000000 0.843750
vt 0.000000 0.618750
vt 0.000000 0.375000
vt 0.000000 0.150000
vt 0.494385 0.375000
vt 0.494385 0.150000
vn 0.0436 0.9990 0.0000
vn -0.0436 -0.9990 -0.0000
vn 0.0000 -0.0000 1.0000
vn -0.0000 0.0000 -1.0000
usemtl 6
s 1
f 81/213/55 82/214/55 83/215/55
f 82/214/55 84/216/55 83/215/55
f 85/217/56 86/218/56 87/219/56
f 86/218/56 88/220/56 87/219/56
f 87/221/57 88/222/57 81/223/57
f 88/222/57 82/224/57 81/223/57
f 83/225/58 84/226/58 85/227/58
f 84/226/58 86/228/58 85/227/58
o cube.136
v 0.747096 1.495829 1.002886
v 0.939297 1.471378 1.002886
v 0.747096 1.495829 -0.001161
v 0.939297 1.471378 -0.001161
v 0.688649 1.036397 -0.001161
v 0.880850 1.011946 -0.001161
v 0.688649 1.036397 1.002886
v 0.880850 1.011946 1.002886
vt 0.000000 0.687500
vt 0.000000 0.493750
vt 1.000000 0.687500
vt 1.000000 0.493750
vt 0.000000 1.000000
vt 0.000000 0.765625
vt 0.281250 1.000000
vt 0.281250 0.765625
vt 0.494385 0.843750
vt 0.494385 0.618750
vt 0.000000 0.843750
vt 0.000000 0.618750
vt 0.000000 0.375000
vt 0.000000 0.150000
vt 0.494385 0.375000
vt 0.494385 0.150000
vn 0.1262 0.9920 0.0000
vn -0.1262 -0.9920 -0.0000
vn 0.0000 -0.0000 1.0000
vn 0.0000 0.0000 -1.0000
usemtl 6
s 1
f 89/229/59 90/230/59 91/231/59
f 90/230/59 92/232/59 91/231/59
f 93/233/60 94/234/60 95/235/60
f 94/234/60 96/236/60 95/235/60
f 95/237/61 96/238/61 89/239/61
f 96/238/61 90/240/61 89/239/61
f 91/241/62 92/242/62 93/243/62
f 92/242/62 94/244/62 93/243/62
o cube.137
v 0.939297 1.471378 1.002425
v 1.128813 1.431095 1.002425
v 0.939297 1.471378 -0.001622
v 1.128813 1.431095 -0.001622
v 0.843006 1.018364 -0.001622
v 1.032522 0.978081 -0.001622
v 0.843006 1.018364 1.002425
v 1.032522 0.978081 1.002425
vt 0.000000 0.687500
vt 0.000000 0.493750
vt 1.000000 0.687500
vt 1.000000 0.493750
vt 0.000000 1.000000
vt 0.000000 0.765625
vt 0.281250 1.000000
vt 0.281250 0.765625
vt 0.000000 1.000000
vt 0.000000 0.000000
vt 0.463135 1.000000
vt 0.463135 0.000000
vt 0.494385 0.843750
vt 0.494385 0.618750
vt 0.000000 0.843750
vt 0.000000 0.618750
vt 0.000000 0.375000
vt 0.000000 0.150000
vt 0.494385 0.375000
vt 0.494385 0.150000
vn 0.2079 0.9781 0.0000
vn -0.2079 -0.9781 -0.0000
vn 0.9781 -0.2079 -0.0000
vn 0.0000 -0.0000 1.0000
vn -0.0000 0.0000 -1.0000
usemtl 6
s 1
f 97/245/63 98/246/63 99/247/63
f 98/246/63 100/248/63 99/247/63
f 101/249/64 102/250/64 103/251/64
f 102/250/64 104/252/64 103/251/64
f 104/253/65 102/254/65 98/255/65
f 102/254/65 100/256/65 98/255/65
f 103/257/66 104/258/66 97/259/66
f 104/258/66 98/260/66 97/259/66
f 99/261/67 100/262/67 101/263/67
f 100/262/67 102/264/67 101/263/67
