# Blender v2.83.0 OBJ File: ''
# www.blender.org
mtllib lime_mortar_orange_clay_brick_facade_segmental_arch_3_left.mtl
o brick.013
v -0.263116 0.714664 -0.028871
v -0.366063 0.591977 -0.028871
v -0.263116 0.714664 0.034383
v -0.366063 0.591977 0.034383
v -0.005296 0.289258 -0.028870
v -0.005296 0.289258 0.034383
v 0.097650 0.411945 -0.028871
v 0.097650 0.411945 0.034383
vt 0.000000 1.000000
vt 0.000000 0.843750
vt 0.059031 1.000000
vt 0.059031 0.843750
vt 0.625000 1.000000
vt 0.625000 0.000000
vt 0.993438 1.000000
vt 0.993438 0.000000
vt 0.468750 0.531250
vt 0.468750 0.375000
vt 0.000000 0.531250
vt 0.000000 0.375000
vt 0.531250 0.531250
vt 0.531250 0.375000
vt 1.000000 0.531250
vt 1.000000 0.375000
vt 0.000000 0.437500
vt 0.000000 0.281250
vt 0.059031 0.437500
vt 0.059031 0.281250
vt 0.500000 1.000000
vt 0.500000 0.000000
vt 0.993375 1.000000
vt 0.993375 0.000000
vn -0.7660 0.6428 -0.0000
vn -0.6428 -0.7660 0.0000
vn -0.0000 -0.0000 -1.0000
vn -0.0000 0.0000 1.0000
vn 0.7660 -0.6428 0.0000
vn 0.6428 0.7660 -0.0000
usemtl 5
s 1
f 1/1/1 2/2/1 3/3/1
f 2/2/1 4/4/1 3/3/1
f 5/5/2 6/6/2 2/7/2
f 6/6/2 4/8/2 2/7/2
f 7/9/3 5/10/3 1/11/3
f 5/10/3 2/12/3 1/11/3
f 3/13/4 4/14/4 8/15/4
f 4/14/4 6/16/4 8/15/4
usemtl 3
f 8/17/5 6/18/5 7/19/5
f 6/18/5 5/20/5 7/19/5
usemtl 1
f 8/21/6 7/22/6 3/23/6
f 7/22/6 1/24/6 3/23/6
o brick.014
v -0.124875 0.855440 -0.028871
v -0.235360 0.744955 -0.028871
v -0.124875 0.855440 0.034383
v -0.235360 0.744955 0.034383
v 0.097650 0.411945 -0.028871
v 0.097650 0.411945 0.034383
v 0.208135 0.522430 -0.028871
v 0.208135 0.522430 0.034383
vt 0.000000 1.000000
vt 0.000000 0.843750
vt 0.059031 1.000000
vt 0.059031 0.843750
vt 0.625000 1.000000
vt 0.625000 0.000000
vt 0.993438 1.000000
vt 0.993438 0.000000
vt 1.000000 0.218750
vt 1.000000 0.062500
vt 0.531250 0.218750
vt 0.531250 0.062500
vt 0.531250 0.687500
vt 0.531250 0.531250
vt 1.000000 0.687500
vt 1.000000 0.531250
vt 0.000000 0.562500
vt 0.000000 0.406250
vt 0.059031 0.562500
vt 0.059031 0.406250
vt 0.500000 1.000000
vt 0.500000 0.000000
vt 0.993375 1.000000
vt 0.993375 0.000000
vn -0.7071 0.7071 0.0000
vn -0.7071 -0.7071 0.0000
vn 0.0000 -0.0000 -1.0000
vn -0.0000 0.0000 1.0000
vn 0.7071 -0.7071 0.0000
vn 0.7071 0.7071 -0.0000
usemtl 5
s 1
f 9/25/7 10/26/7 11/27/7
f 10/26/7 12/28/7 11/27/7
f 13/29/8 14/30/8 10/31/8
f 14/30/8 12/32/8 10/31/8
f 15/33/9 13/34/9 9/35/9
f 13/34/9 10/36/9 9/35/9
f 11/37/10 12/38/10 16/39/10
f 12/38/10 14/40/10 16/39/10
usemtl 1
f 16/41/11 14/42/11 15/43/11
f 14/42/11 13/44/11 15/43/11
f 16/45/12 15/46/12 11/47/12
f 15/46/12 9/48/12 11/47/12
o brick.015
v 0.025111 0.983632 -0.028871
v -0.094584 0.883197 -0.028871
v 0.025111 0.983632 0.034383
v -0.094584 0.883197 0.034383
v 0.327830 0.622866 0.034383
v 0.327830 0.622866 -0.028871
v 0.208135 0.522430 -0.028871
v 0.208135 0.522430 0.034383
vt 0.000000 1.000000
vt 0.000000 0.843750
vt 0.059031 1.000000
vt 0.059031 0.843750
vt 0.625000 1.000000
vt 0.625000 0.000000
vt 0.993438 1.000000
vt 0.993438 0.000000
vt 0.625000 1.000000
vt 0.625000 0.000000
vt 0.993438 1.000000
vt 0.993438 0.000000
vt 0.468750 0.687500
vt 0.468750 0.531250
vt 0.000000 0.687500
vt 0.000000 0.531250
vt 0.000000 1.000000
vt 0.000000 0.843750
vt 0.468750 1.000000
vt 0.468750 0.843750
vt 0.000000 0.593750
vt 0.000000 0.437500
vt 0.059031 0.593750
vt 0.059031 0.437500
vn -0.6428 0.7660 -0.0000
vn 0.7660 0.6428 -0.0000
vn -0.7660 -0.6428 0.0000
vn 0.0000 -0.0000 -1.0000
vn -0.0000 0.0000 1.0000
vn 0.6428 -0.7660 0.0000
usemtl 5
s 1
f 17/49/13 18/50/13 19/51/13
f 18/50/13 20/52/13 19/51/13
f 21/53/14 22/54/14 19/55/14
f 22/54/14 17/56/14 19/55/14
f 23/57/15 24/58/15 18/59/15
f 24/58/15 20/60/15 18/59/15
f 22/61/16 23/62/16 17/63/16
f 23/62/16 18/64/16 17/63/16
f 19/65/17 20/66/17 21/67/17
f 20/66/17 24/68/17 21/67/17
usemtl 3
f 21/69/18 24/70/18 22/71/18
f 24/70/18 23/72/18 22/71/18
o brick.016
v 0.185698 1.098264 -0.028872
v 0.057706 1.008643 -0.028871
v 0.185698 1.098265 0.034383
v 0.057706 1.008643 0.034383
v 0.455822 0.712487 0.034383
v 0.455822 0.712487 -0.028871
v 0.327830 0.622866 -0.028871
v 0.327830 0.622866 0.034383
vt 0.000000 1.000000
vt 0.000000 0.843750
vt 0.059031 1.000000
vt 0.059031 0.843750
vt 0.625000 1.000000
vt 0.625000 0.000000
vt 0.993438 1.000000
vt 0.993438 0.000000
vt 0.625000 1.000000
vt 0.625000 0.000000
vt 0.993438 1.000000
vt 0.993438 0.000000
vt 1.000000 0.218750
vt 1.000000 0.062500
vt 0.531250 0.218750
vt 0.531250 0.062500
vt 0.000000 0.843750
vt 0.000000 0.687500
vt 0.468750 0.843750
vt 0.468750 0.687500
vt 0.000000 0.593750
vt 0.000000 0.437500
vt 0.059031 0.593750
vt 0.059031 0.437500
vn -0.5736 0.8192 -0.0000
vn -0.5736 0.8191 -0.0000
vn 0.8192 0.5736 -0.0000
vn -0.8192 -0.5736 0.0000
vn 0.0000 -0.0000 -1.0000
vn -0.0000 0.0000 1.0000
vn 0.5736 -0.8192 0.0000
usemtl 5
s 1
f 25/73/19 26/74/20 27/75/19
f 26/74/20 28/76/20 27/75/19
f 29/77/21 30/78/21 27/79/21
f 30/78/21 25/80/21 27/79/21
f 31/81/22 32/82/22 26/83/22
f 32/82/22 28/84/22 26/83/22
f 30/85/23 31/86/23 25/87/23
f 31/86/23 26/88/23 25/87/23
f 27/89/24 28/90/24 29/91/24
f 28/90/24 32/92/24 29/91/24
usemtl 3
f 29/93/25 32/94/25 30/95/25
f 32/94/25 31/96/25 30/95/25
o brick.017
v 0.355665 1.198464 -0.028872
v 0.220349 1.120339 -0.028872
v 0.355665 1.198464 0.034383
v 0.220349 1.120339 0.034383
v 0.591139 0.790612 0.034383
v 0.591139 0.790612 -0.028871
v 0.455822 0.712487 -0.028871
v 0.455822 0.712487 0.034383
vt 0.000000 1.000000
vt 0.000000 0.843750
vt 0.059031 1.000000
vt 0.059031 0.843750
vt 0.625000 1.000000
vt 0.625000 0.000000
vt 0.993438 1.000000
vt 0.993438 0.000000
vt 0.625000 1.000000
vt 0.625000 0.000000
vt 0.993438 1.000000
vt 0.993438 0.000000
vt 1.000000 0.375000
vt 1.000000 0.218750
vt 0.531250 0.375000
vt 0.531250 0.218750
vt 0.531250 1.000000
vt 0.531250 0.843750
vt 1.000000 1.000000
vt 1.000000 0.843750
vt 0.000000 1.000000
vt 0.000000 0.843750
vt 0.059031 1.000000
vt 0.059031 0.843750
vn -0.5000 0.8660 0.0000
vn 0.8660 0.5000 -0.0000
vn -0.8660 -0.5000 0.0000
vn 0.0000 -0.0000 -1.0000
vn -0.0000 0.0000 1.0000
vn 0.5000 -0.8660 0.0000
usemtl 5
s 1
f 33/97/26 34/98/26 35/99/26
f 34/98/26 36/100/26 35/99/26
f 37/101/27 38/102/27 35/103/27
f 38/102/27 33/104/27 35/103/27
f 39/105/28 40/106/28 34/107/28
f 40/106/28 36/108/28 34/107/28
f 38/109/29 39/110/29 33/111/29
f 39/110/29 34/112/29 33/111/29
f 35/113/30 36/114/30 37/115/30
f 36/114/30 40/116/30 37/115/30
usemtl 3
f 37/117/31 40/118/31 38/119/31
f 40/118/31 39/120/31 38/119/31
o brick.018
v 0.533719 1.283469 -0.028872
v 0.392108 1.217435 -0.028872
v 0.533719 1.283469 0.034383
v 0.392108 1.217435 0.034383
v 0.732749 0.856646 0.034383
v 0.732749 0.856646 -0.028871
v 0.591139 0.790612 -0.028871
v 0.591139 0.790612 0.034383
vt 0.000000 1.000000
vt 0.000000 0.843750
vt 0.059031 1.000000
vt 0.059031 0.843750
vt 0.625000 1.000000
vt 0.625000 0.000000
vt 0.993438 1.000000
vt 0.993438 0.000000
vt 0.625000 1.000000
vt 0.625000 0.000000
vt 0.993438 1.000000
vt 0.993438 0.000000
vt 0.468750 0.218750
vt 0.468750 0.062500
vt 0.000000 0.218750
vt 0.000000 0.062500
vt 0.531250 0.843750
vt 0.531250 0.687500
vt 1.000000 0.843750
vt 1.000000 0.687500
vt 0.000000 0.406250
vt 0.000000 0.250000
vt 0.059031 0.406250
vt 0.059031 0.250000
vn -0.4226 0.9063 -0.0000
vn 0.9063 0.4226 -0.0000
vn -0.9063 -0.4226 0.0000
vn 0.0000 -0.0000 -1.0000
vn -0.0000 0.0000 1.0000
vn 0.4226 -0.9063 0.0000
usemtl 5
s 1
f 41/121/32 42/122/32 43/123/32
f 42/122/32 44/124/32 43/123/32
f 45/125/33 46/126/33 43/127/33
f 46/126/33 41/128/33 43/127/33
f 47/129/34 48/130/34 42/131/34
f 48/130/34 44/132/34 42/131/34
f 46/133/35 47/134/35 41/135/35
f 47/134/35 42/136/35 41/135/35
f 43/137/36 44/138/36 45/139/36
f 44/138/36 48/140/36 45/139/36
usemtl 3
f 45/141/37 48/142/37 46/143/37
f 48/142/37 47/144/37 46/143/37
o brick.019
v 0.718503 1.352632 -0.028872
v 0.571676 1.299192 -0.028872
v 0.718503 1.352633 0.034383
v 0.571676 1.299192 0.034383
v 0.879576 0.910087 0.034383
v 0.879576 0.910087 -0.028871
v 0.732749 0.856646 -0.028871
v 0.732749 0.856646 0.034383
vt 0.000000 1.000000
vt 0.000000 0.843750
vt 0.059031 1.000000
vt 0.059031 0.843750
vt 0.625000 1.000000
vt 0.625000 0.000000
vt 0.993438 1.000000
vt 0.993438 0.000000
vt 0.625000 1.000000
vt 0.625000 0.000000
vt 0.993438 1.000000
vt 0.993438 0.000000
vt 1.000000 0.218750
vt 1.000000 0.062500
vt 0.531250 0.218750
vt 0.531250 0.062500
vt 0.531250 0.218750
vt 0.531250 0.062500
vt 1.000000 0.218750
vt 1.000000 0.062500
vt 0.000000 0.562500
vt 0.000000 0.406250
vt 0.059031 0.562500
vt 0.059031 0.406250
vn -0.3420 0.9397 -0.0000
vn 0.9397 0.3420 -0.0000
vn -0.9397 -0.3420 0.0000
vn 0.0000 -0.0000 -1.0000
vn -0.0000 0.0000 1.0000
vn 0.3420 -0.9397 0.0000
usemtl 5
s 1
f 49/145/38 50/146/38 51/147/38
f 50/146/38 52/148/38 51/147/38
f 53/149/39 54/150/39 51/151/39
f 54/150/39 49/152/39 51/151/39
f 55/153/40 56/154/40 50/155/40
f 56/154/40 52/156/40 50/155/40
f 54/157/41 55/158/41 49/159/41
f 55/158/41 50/160/41 49/159/41
f 51/161/42 52/162/42 53/163/42
f 52/162/42 56/164/42 53/163/42
usemtl 3
f 53/165/43 56/166/43 54/167/43
f 56/166/43 55/168/43 54/167/43
o brick.020
v 0.908612 1.405427 -0.028872
v 0.757686 1.364987 -0.028872
v 0.908612 1.405427 0.034383
v 0.757686 1.364987 0.034383
v 1.030502 0.950527 0.034383
v 0.879576 0.910087 0.034383
v 1.030502 0.950527 -0.028871
v 0.879576 0.910087 -0.028871
vt 0.000000 0.843750
vt 0.000000 0.687500
vt 0.059031 0.843750
vt 0.059031 0.687500
vt 0.000000 0.656250
vt 0.000000 0.500000
vt 0.059031 0.656250
vt 0.059031 0.500000
vt 0.625000 1.000000
vt 0.625000 0.000000
vt 0.993438 1.000000
vt 0.993438 0.000000
vt 0.625000 1.000000
vt 0.625000 0.000000
vt 0.993438 1.000000
vt 0.993438 0.000000
vt 0.468750 1.000000
vt 0.468750 0.843750
vt 0.000000 1.000000
vt 0.000000 0.843750
vt 0.000000 0.687500
vt 0.000000 0.531250
vt 0.468750 0.687500
vt 0.468750 0.531250
vn -0.2588 0.9659 0.0000
vn 0.2588 -0.9659 0.0000
vn 0.9659 0.2588 -0.0000
vn -0.9659 -0.2588 0.0000
vn 0.0000 -0.0000 -1.0000
vn -0.0000 0.0000 1.0000
usemtl 3
s 1
f 57/169/44 58/170/44 59/171/44
f 58/170/44 60/172/44 59/171/44
f 61/173/45 62/174/45 63/175/45
f 62/174/45 64/176/45 63/175/45
usemtl 5
f 61/177/46 63/178/46 59/179/46
f 63/178/46 57/180/46 59/179/46
f 64/181/47 62/182/47 58/183/47
f 62/182/47 60/184/47 58/183/47
f 63/185/48 64/186/48 57/187/48
f 64/186/48 58/188/48 57/187/48
f 59/189/49 60/190/49 61/191/49
f 60/190/49 62/192/49 61/191/49
o cube.123
v 0.871187 1.431095 -0.002801
v 0.685657 1.375257 -0.002801
v 0.871187 1.431095 0.000699
v 0.685657 1.375257 0.000699
v 1.004660 0.987611 0.000699
v 0.819131 0.931772 0.000699
v 1.004660 0.987610 -0.002801
v 0.819131 0.931772 -0.002801
vt 0.000000 0.687500
vt 0.000000 0.462500
vt 0.021826 0.687500
vt 0.021826 0.462500
vt 0.000000 1.000000
vt 0.000000 0.765625
vt 0.281250 1.000000
vt 0.281250 0.765625
vt 0.000000 0.000000
vt 0.463135 1.000000
vt 0.463135 0.000000
vt 0.494385 0.843750
vt 0.494385 0.618750
vt 0.000000 0.843750
vt 0.000000 0.618750
vt 0.000000 0.375000
vt 0.000000 0.150000
vt 0.494385 0.375000
vt 0.494385 0.150000
vn -0.2882 0.9576 -0.0001
vn 0.2882 -0.9576 0.0004
vn 0.2882 -0.9576 0.0000
vn 0.2882 -0.9576 0.0003
vn 0.9576 0.2882 -0.0001
vn 0.9576 0.2882 -0.0000
vn 0.0000 -0.0000 -1.0000
vn -0.0000 0.0000 1.0000
usemtl 6
s 1
f 65/193/50 66/194/50 67/195/50
f 66/194/50 68/196/50 67/195/50
f 69/197/51 70/198/52 71/199/53
f 70/198/52 72/200/52 71/199/53
f 69/197/54 71/201/54 67/202/55
f 71/201/54 65/203/55 67/202/55
f 71/204/56 72/205/56 65/206/56
f 72/205/56 66/207/56 65/206/56
f 67/208/57 68/209/57 69/210/57
f 68/209/57 70/211/57 69/210/57
o cube.124
v 0.685657 1.375257 -0.001878
v 0.505389 1.304247 -0.001878
v 0.685657 1.375257 0.001622
v 0.505389 1.304247 0.001622
v 0.855397 0.944348 0.001622
v 0.675128 0.873339 0.001622
v 0.855397 0.944348 -0.001878
v 0.675128 0.873339 -0.001878
vt 0.000000 0.687500
vt 0.000000 0.493750
vt 0.021826 0.687500
vt 0.021826 0.493750
vt 0.000000 1.000000
vt 0.000000 0.765625
vt 0.281250 1.000000
vt 0.281250 0.765625
vt 0.468750 0.343750
vt 0.468750 0.156250
vt 0.000000 0.343750
vt 0.000000 0.156250
vt 0.000000 0.375000
vt 0.000000 0.150000
vt 0.494385 0.375000
vt 0.494385 0.150000
vn -0.3665 0.9304 0.0000
vn 0.3665 -0.9304 0.0000
vn 0.3665 -0.9304 0.0001
vn 0.0000 -0.0000 -1.0000
vn -0.0000 0.0000 1.0000
usemtl 6
s 1
f 73/212/58 74/213/58 75/214/58
f 74/213/58 76/215/58 75/214/58
f 77/216/59 78/217/60 79/218/59
f 78/217/60 80/219/60 79/218/59
f 79/220/61 80/221/61 73/222/61
f 80/221/61 74/223/61 73/222/61
f 75/224/62 76/225/62 77/226/62
f 76/225/62 78/227/62 77/226/62
o cube.125
v 0.505389 1.304247 -0.002571
v 0.331620 1.218554 -0.002571
v 0.505389 1.304247 0.000930
v 0.331620 1.218554 0.000930
v 0.710228 0.888875 0.000931
v 0.536459 0.803181 0.000931
v 0.710228 0.888874 -0.002570
v 0.536459 0.803181 -0.002570
vt 0.000000 0.687500
vt 0.000000 0.493750
vt 0.021826 0.687500
vt 0.021826 0.493750
vt 0.000000 1.000000
vt 0.000000 0.765625
vt 0.281250 1.000000
vt 0.281250 0.765625
vt 0.468750 0.593750
vt 0.468750 0.406250
vt 0.000000 0.593750
vt 0.000000 0.406250
vt 0.000000 0.375000
vt 0.000000 0.150000
vt 0.494385 0.375000
vt 0.494385 0.150000
vn -0.4423 0.8969 0.0000
vn 0.4423 -0.8969 0.0003
vn 0.4423 -0.8969 0.0000
vn 0.0000 -0.0000 -1.0000
vn -0.0000 0.0000 1.0000
usemtl 6
s 1
f 81/228/63 82/229/63 83/230/63
f 82/229/63 84/231/63 83/230/63
f 85/232/64 86/233/65 87/234/64
f 86/233/65 88/235/65 87/234/64
f 87/236/66 88/237/66 81/238/66
f 88/237/66 82/239/66 81/238/66
f 83/240/67 84/241/67 85/242/67
f 84/241/67 86/243/67 85/242/67
o cube.126
v 0.331620 1.218554 -0.001878
v 0.165544 1.118765 -0.001878
v 0.331620 1.218554 0.001622
v 0.165544 1.118765 0.001622
v 0.570152 0.821570 0.001622
v 0.404076 0.721781 0.001622
v 0.570152 0.821570 -0.001878
v 0.404076 0.721781 -0.001878
vt 0.000000 0.687500
vt 0.000000 0.493750
vt 0.021826 0.687500
vt 0.021826 0.493750
vt 0.000000 1.000000
vt 0.000000 0.765625
vt 0.281250 1.000000
vt 0.281250 0.765625
vt 1.000000 0.500000
vt 1.000000 0.312500
vt 0.531250 0.500000
vt 0.531250 0.312500
vt 0.000000 0.375000
vt 0.000000 0.150000
vt 0.494385 0.375000
vt 0.494385 0.150000
vn -0.5150 0.8572 0.0000
vn 0.5150 -0.8572 0.0000
vn 0.0000 -0.0000 -1.0000
vn -0.0000 0.0000 1.0000
usemtl 6
s 1
f 89/244/68 90/245/68 91/246/68
f 90/245/68 92/247/68 91/246/68
f 93/248/69 94/249/69 95/250/69
f 94/249/69 96/251/69 95/250/69
f 95/252/70 96/253/70 89/254/70
f 96/253/70 90/255/70 89/254/70
f 91/256/71 92/257/71 93/258/71
f 92/257/71 94/259/71 93/258/71
o cube.127
v 0.165544 1.118765 -0.002801
v 0.008301 1.005567 -0.002801
v 0.165544 1.118765 0.000699
v 0.008301 1.005567 0.000699
v 0.436130 0.742897 0.000699
v 0.278888 0.629699 0.000699
v 0.436130 0.742897 -0.002801
v 0.278888 0.629699 -0.002801
vt 0.000000 0.687500
vt 0.000000 0.493750
vt 0.021826 0.687500
vt 0.021826 0.493750
vt 0.000000 1.000000
vt 0.000000 0.765625
vt 0.281250 1.000000
vt 0.281250 0.765625
vt 0.468750 1.000000
vt 0.468750 0.812500
vt 0.000000 1.000000
vt 0.000000 0.812500
vt 0.000000 0.375000
vt 0.000000 0.150000
vt 0.494385 0.375000
vt 0.494385 0.150000
vn -0.5842 0.8116 -0.0000
vn 0.5842 -0.8116 0.0001
vn 0.5842 -0.8116 0.0000
vn 0.0000 -0.0000 -1.0000
vn -0.0000 0.0000 1.0000
usemtl 6
s 1
f 97/260/72 98/261/72 99/262/72
f 98/261/72 100/263/72 99/262/72
f 101/264/73 102/265/74 103/266/73
f 102/265/74 104/267/74 103/266/73
f 103/268/75 104/269/75 97/270/75
f 104/269/75 98/271/75 97/270/75
f 99/272/76 100/273/76 101/274/76
f 100/273/76 102/275/76 101/274/76
o cube.128
v 0.008301 1.005567 -0.001878
v -0.139027 0.879736 -0.001878
v 0.008301 1.005567 0.001622
v -0.139027 0.879736 0.001622
v 0.309083 0.653397 0.001622
v 0.161754 0.527566 0.001622
v 0.309083 0.653396 -0.001878
v 0.161754 0.527566 -0.001878
vt 0.000000 0.687500
vt 0.000000 0.493750
vt 0.021826 0.687500
vt 0.021826 0.493750
vt 0.000000 1.000000
vt 0.000000 0.765625
vt 0.281250 1.000000
vt 0.281250 0.765625
vt 0.468750 0.187500
vt 0.468750 0.000000
vt 0.000000 0.187500
vt 0.000000 0.000000
vt 0.000000 0.375000
vt 0.000000 0.150000
vt 0.494385 0.375000
vt 0.494385 0.150000
vn -0.6495 0.7604 0.0000
vn -0.6495 0.7604 -0.0001
vn 0.6494 -0.7604 0.0003
vn 0.6494 -0.7604 0.0000
vn 0.0000 -0.0000 -1.0000
vn -0.0000 0.0000 1.0000
usemtl 6
s 1
f 105/276/77 106/277/78 107/278/77
f 106/277/78 108/279/78 107/278/77
f 109/280/79 110/281/80 111/282/79
f 110/281/80 112/283/80 111/282/79
f 111/284/81 112/285/81 105/286/81
f 112/285/81 106/287/81 105/286/81
f 107/288/82 108/289/82 109/290/82
f 108/289/82 110/291/82 109/290/82
o cube.129
v -0.139027 0.879736 -0.002108
v -0.275430 0.742138 -0.002108
v -0.139027 0.879736 0.001392
v -0.275430 0.742138 0.001392
v 0.189884 0.553683 0.001392
v 0.053481 0.416084 0.001392
v 0.189884 0.553683 -0.002108
v 0.053481 0.416084 -0.002108
vt 0.000000 0.687500
vt 0.000000 0.493750
vt 0.021826 0.687500
vt 0.021826 0.493750
vt 0.000000 1.000000
vt 0.000000 0.765625
vt 0.281250 1.000000
vt 0.281250 0.765625
vt 0.468750 0.625000
vt 0.468750 0.437500
vt 0.000000 0.625000
vt 0.000000 0.437500
vt 0.000000 0.375000
vt 0.000000 0.150000
vt 0.494385 0.375000
vt 0.494385 0.150000
vn -0.7102 0.7040 -0.0000
vn 0.7102 -0.7040 0.0000
vn 0.0000 -0.0000 -1.0000
vn -0.0000 0.0000 1.0000
usemtl 6
s 1
f 113/292/83 114/293/83 115/294/83
f 114/293/83 116/295/83 115/294/83
f 117/296/84 118/297/84 119/298/84
f 118/297/84 120/299/84 119/298/84
f 119/300/85 120/301/85 113/302/85
f 120/301/85 114/303/85 113/302/85
f 115/304/86 116/305/86 117/306/86
f 116/305/86 118/307/86 117/306/86
o cube.130
v -0.275430 0.742138 -0.001878
v -0.399970 0.593717 -0.001878
v -0.275430 0.742138 0.001622
v -0.399970 0.593717 0.001622
v 0.079351 0.444441 0.001622
v -0.045189 0.296020 0.001622
v 0.079351 0.444441 -0.001878
v -0.045189 0.296019 -0.001878
vt 0.000000 0.687500
vt 0.000000 0.493750
vt 0.021826 0.687500
vt 0.021826 0.493750
vt 0.000000 1.000000
vt 0.000000 0.765625
vt 0.281250 1.000000
vt 0.281250 0.765625
vt 0.000000 1.000000
vt 0.000000 0.000000
vt 0.463135 1.000000
vt 0.463135 0.000000
vt 0.468750 0.843750
vt 0.468750 0.656250
vt 0.000000 0.843750
vt 0.000000 0.656250
vt 0.000000 0.375000
vt 0.000000 0.150000
vt 0.494385 0.375000
vt 0.494385 0.150000
vn -0.7660 0.6428 -0.0000
vn 0.7660 -0.6428 0.0000
vn 0.7660 -0.6428 0.0002
vn -0.6428 -0.7660 0.0002
vn -0.6428 -0.7660 0.0001
vn 0.0000 -0.0000 -1.0000
vn -0.0000 0.0000 1.0000
usemtl 6
s 1
f 121/308/87 122/309/87 123/310/87
f 122/309/87 124/311/87 123/310/87
f 125/312/88 126/313/89 127/314/88
f 126/313/89 128/315/89 127/314/88
f 128/316/90 126/317/90 122/318/91
f 126/317/90 124/319/91 122/318/91
f 127/320/92 128/321/92 121/322/92
f 128/321/92 122/323/92 121/322/92
f 123/324/93 124/325/93 125/326/93
f 124/325/93 126/327/93 125/326/93
