# Blender v2.83.0 OBJ File: ''
# www.blender.org
mtllib lime_mortar_orange_clay_brick_facade_segmental_arch_1.mtl
o brick
v 1.096545 1.076608 0.031945
v 1.223606 0.979111 0.031945
v 1.096545 1.076608 -0.037506
v 1.223606 0.979111 -0.037506
v 0.999333 0.686833 0.031945
v 0.999333 0.686833 -0.037506
v 0.872272 0.784330 0.031945
v 0.872272 0.784330 -0.037506
vt 0.000000 1.000000
vt 0.000000 0.843750
vt 0.065232 1.000000
vt 0.065232 0.843750
vt 0.625000 1.000000
vt 0.625000 0.000000
vt 0.993438 1.000000
vt 0.993438 0.000000
vt 0.468750 0.843750
vt 0.468750 0.687500
vt 0.000000 0.843750
vt 0.000000 0.687500
vt 0.000000 0.843750
vt 0.000000 0.687500
vt 0.468750 0.843750
vt 0.468750 0.687500
vt 0.000000 0.437500
vt 0.000000 0.281250
vt 0.063681 0.437500
vt 0.063681 0.281250
vt 0.500000 1.000000
vt 0.500000 0.000000
vt 0.993375 1.000000
vt 0.993375 0.000000
vn 0.6088 0.7934 0.0000
vn 0.7934 -0.6088 -0.0000
vn -0.0000 -0.0000 1.0000
vn 0.0000 0.0000 -1.0000
vn -0.6088 -0.7934 -0.0000
vn -0.7934 0.6088 0.0000
usemtl 5
s 1
f 1/1/1 2/2/1 3/3/1
f 2/2/1 4/4/1 3/3/1
f 5/5/2 6/6/2 2/7/2
f 6/6/2 4/8/2 2/7/2
f 7/9/3 5/10/3 1/11/3
f 5/10/3 2/12/3 1/11/3
f 3/13/4 4/14/4 8/15/4
f 4/14/4 6/16/4 8/15/4
usemtl 3
f 8/17/5 6/18/5 7/19/5
f 6/18/5 5/20/5 7/19/5
usemtl 1
f 8/21/6 7/22/6 3/23/6
f 7/22/6 1/24/6 3/23/6
o brick.000
v 0.886358 1.184255 0.031946
v 1.027969 1.118221 0.031946
v 0.886358 1.184255 -0.037506
v 1.027969 1.118221 -0.037506
v 0.872272 0.784330 0.031945
v 0.872272 0.784330 -0.037506
v 0.730662 0.850364 0.031945
v 0.730662 0.850364 -0.037506
vt 0.000000 1.000000
vt 0.000000 0.843750
vt 0.065232 1.000000
vt 0.065232 0.843750
vt 0.625000 1.000000
vt 0.625000 0.000000
vt 0.993438 1.000000
vt 0.993438 0.000000
vt 1.000000 0.843750
vt 1.000000 0.687500
vt 0.531250 0.843750
vt 0.531250 0.687500
vt 0.531250 0.843750
vt 0.531250 0.687500
vt 1.000000 0.843750
vt 1.000000 0.687500
vt 0.000000 0.562500
vt 0.000000 0.406250
vt 0.063681 0.562500
vt 0.063681 0.406250
vt 0.500000 1.000000
vt 0.500000 0.000000
vt 0.993375 1.000000
vt 0.993375 0.000000
vn 0.4226 0.9063 0.0000
vn 0.9063 -0.4226 -0.0000
vn -0.0000 -0.0000 1.0000
vn 0.0000 0.0000 -1.0000
vn -0.4226 -0.9063 -0.0000
vn -0.9063 0.4226 0.0000
usemtl 5
s 1
f 9/25/7 10/26/7 11/27/7
f 10/26/7 12/28/7 11/27/7
f 13/29/8 14/30/8 10/31/8
f 14/30/8 12/32/8 10/31/8
f 15/33/9 13/34/9 9/35/9
f 13/34/9 10/36/9 9/35/9
f 11/37/10 12/38/10 16/39/10
f 12/38/10 14/40/10 16/39/10
usemtl 1
f 16/41/11 14/42/11 15/43/11
f 14/42/11 13/44/11 15/43/11
f 16/45/12 15/46/12 11/47/12
f 15/46/12 9/48/12 11/47/12
o brick.001
v 0.421866 1.252591 0.031946
v 0.578116 1.252591 0.031946
v 0.421866 1.252591 -0.037506
v 0.578116 1.252591 -0.037506
v 0.421866 0.884183 -0.037506
v 0.421866 0.884183 0.031945
v 0.578116 0.884183 0.031945
v 0.578116 0.884183 -0.037506
vt 0.000000 1.000000
vt 0.000000 0.843750
vt 0.065232 1.000000
vt 0.065232 0.843750
vt 0.625000 1.000000
vt 0.625000 0.000000
vt 0.993438 1.000000
vt 0.993438 0.000000
vt 0.625000 1.000000
vt 0.625000 0.000000
vt 0.993438 1.000000
vt 0.993438 0.000000
vt 1.000000 0.218750
vt 1.000000 0.062500
vt 0.531250 0.218750
vt 0.531250 0.062500
vt 0.531250 0.218750
vt 0.531250 0.062500
vt 1.000000 0.218750
vt 1.000000 0.062500
vt 0.000000 0.812500
vt 0.000000 0.656250
vt 0.063681 0.812500
vt 0.063681 0.656250
vn 0.0000 1.0000 0.0000
vn -1.0000 -0.0000 0.0000
vn 1.0000 0.0000 0.0000
vn 0.0000 -0.0000 1.0000
vn 0.0000 0.0000 -1.0000
vn 0.0000 -1.0000 -0.0000
usemtl 5
s 1
f 17/49/13 18/50/13 19/51/13
f 18/50/13 20/52/13 19/51/13
f 21/53/14 22/54/14 19/55/14
f 22/54/14 17/56/14 19/55/14
f 23/57/15 24/58/15 18/59/15
f 24/58/15 20/60/15 18/59/15
f 22/61/16 23/62/16 17/63/16
f 23/62/16 18/64/16 17/63/16
f 19/65/17 20/66/17 21/67/17
f 20/66/17 24/68/17 21/67/17
usemtl 3
f 21/69/18 24/70/18 22/71/18
f 24/70/18 23/72/18 22/71/18
o cube
v 1.093413 1.136076 0.004816
v 1.271918 0.999105 0.004816
v 1.093413 1.136076 -0.004579
v 1.271918 0.999105 -0.004579
v 0.842537 0.809128 -0.004579
v 1.021041 0.672157 -0.004579
v 0.842537 0.809128 0.004816
v 1.021041 0.672157 0.004816
vt 0.000000 0.937500
vt 0.000000 0.743750
vt 0.026477 0.937500
vt 0.026477 0.743750
vt 0.000000 1.000000
vt 0.000000 0.765625
vt 0.281250 1.000000
vt 0.281250 0.765625
vt 0.000000 1.000000
vt 0.000000 0.000000
vt 0.026110 1.000000
vt 0.026110 0.000000
vt 0.412125 0.843750
vt 0.412125 0.618750
vt 0.000000 0.843750
vt 0.000000 0.618750
vt 0.000000 0.375000
vt 0.000000 0.150000
vt 0.412109 0.375000
vt 0.412109 0.150000
vn 0.6088 0.7934 0.0000
vn -0.6088 -0.7934 0.0000
vn 0.7934 -0.6088 -0.0000
vn 0.0000 -0.0000 1.0000
vn 0.0000 0.0000 -1.0000
usemtl 6
s 1
f 25/73/19 26/74/19 27/75/19
f 26/74/19 28/76/19 27/75/19
f 29/77/20 30/78/20 31/79/20
f 30/78/20 32/80/20 31/79/20
f 32/81/21 30/82/21 26/83/21
f 30/82/21 28/84/21 26/83/21
f 31/85/22 32/86/22 25/87/22
f 32/86/22 26/88/22 25/87/22
f 27/89/23 28/90/23 29/91/23
f 28/90/23 30/92/23 29/91/23
o brick.002
v 0.657854 1.243858 0.031946
v 0.810400 1.210039 0.031946
v 0.657854 1.243858 -0.037506
v 0.810400 1.210039 -0.037506
v 0.578116 0.884183 -0.037506
v 0.578116 0.884183 0.031945
v 0.730662 0.850364 0.031945
v 0.730662 0.850364 -0.037506
vt 0.000000 1.000000
vt 0.000000 0.843750
vt 0.065232 1.000000
vt 0.065232 0.843750
vt 0.625000 1.000000
vt 0.625000 0.000000
vt 0.993438 1.000000
vt 0.993438 0.000000
vt 0.625000 1.000000
vt 0.625000 0.000000
vt 0.993438 1.000000
vt 0.993438 0.000000
vt 0.468750 0.375000
vt 0.468750 0.218750
vt 0.000000 0.375000
vt 0.000000 0.218750
vt 0.000000 0.375000
vt 0.000000 0.218750
vt 0.468750 0.375000
vt 0.468750 0.218750
vt 0.000000 0.593750
vt 0.000000 0.437500
vt 0.063681 0.593750
vt 0.063681 0.437500
vn 0.2164 0.9763 0.0000
vn -0.9763 0.2164 0.0000
vn 0.9763 -0.2164 0.0000
vn -0.0000 -0.0000 1.0000
vn 0.0000 0.0000 -1.0000
vn -0.2164 -0.9763 -0.0000
usemtl 5
s 1
f 33/93/24 34/94/24 35/95/24
f 34/94/24 36/96/24 35/95/24
f 37/97/25 38/98/25 35/99/25
f 38/98/25 33/100/25 35/99/25
f 39/101/26 40/102/26 34/103/26
f 40/102/26 36/104/26 34/103/26
f 38/105/27 39/106/27 33/107/27
f 39/106/27 34/108/27 33/107/27
f 35/109/28 36/110/28 37/111/28
f 36/110/28 40/112/28 37/111/28
usemtl 3
f 37/113/29 40/114/29 38/115/29
f 40/114/29 39/116/29 38/115/29
o brick.003
v 0.421866 0.884183 0.031945
v 0.269319 0.850364 0.031945
v 0.421866 0.884183 -0.037506
v 0.269319 0.850364 -0.037506
v 0.342128 1.243858 -0.037506
v 0.189581 1.210039 -0.037506
v 0.342128 1.243858 0.031946
v 0.189581 1.210039 0.031946
vt 0.063681 0.562500
vt 0.063681 0.406250
vt 0.000000 0.562500
vt 0.000000 0.406250
vt 0.065232 1.000000
vt 0.065232 0.843750
vt 0.000000 1.000000
vt 0.000000 0.843750
vt 0.368437 1.000000
vt 0.368437 0.000000
vt 0.000000 1.000000
vt 0.000000 0.000000
vt 0.993438 1.000000
vt 0.993438 0.000000
vt 0.625000 1.000000
vt 0.625000 0.000000
vt 0.000000 0.531250
vt 0.000000 0.375000
vt 0.468750 0.531250
vt 0.468750 0.375000
vt 0.468750 0.531250
vt 0.468750 0.375000
vt 0.000000 0.531250
vt 0.000000 0.375000
vn 0.2164 -0.9763 -0.0000
vn -0.2164 0.9763 0.0000
vn 0.9763 0.2164 0.0000
vn -0.9763 -0.2164 0.0000
vn 0.0000 -0.0000 1.0000
vn -0.0000 0.0000 -1.0000
usemtl 2
s 1
f 41/117/30 42/118/30 43/119/30
f 42/118/30 44/120/30 43/119/30
usemtl 5
f 45/121/31 46/122/31 47/123/31
f 46/122/31 48/124/31 47/123/31
f 45/125/32 47/126/32 43/127/32
f 47/126/32 41/128/32 43/127/32
f 48/129/33 46/130/33 42/131/33
f 46/130/33 44/132/33 42/131/33
f 47/133/34 48/134/34 41/135/34
f 48/134/34 42/136/34 41/135/34
f 43/137/35 44/138/35 45/139/35
f 44/138/35 46/140/35 45/139/35
o brick.004
v 0.269319 0.850364 0.031945
v 0.127709 0.784330 0.031945
v 0.269319 0.850364 -0.037506
v 0.127709 0.784330 -0.037506
v 0.113623 1.184255 -0.037506
v -0.027987 1.118221 -0.037506
v 0.113623 1.184255 0.031946
v -0.027987 1.118221 0.031946
vt 0.063681 0.812500
vt 0.063681 0.656250
vt 0.000000 0.812500
vt 0.000000 0.656250
vt 0.065232 1.000000
vt 0.065232 0.843750
vt 0.000000 1.000000
vt 0.000000 0.843750
vt 0.993438 1.000000
vt 0.993438 0.000000
vt 0.625000 1.000000
vt 0.625000 0.000000
vt 0.531250 0.687500
vt 0.531250 0.531250
vt 1.000000 0.687500
vt 1.000000 0.531250
vt 1.000000 0.687500
vt 1.000000 0.531250
vt 0.531250 0.687500
vt 0.531250 0.531250
vt 0.993375 1.000000
vt 0.993375 0.000000
vt 0.500000 1.000000
vt 0.500000 0.000000
vn 0.4226 -0.9063 -0.0000
vn -0.4226 0.9063 0.0000
vn -0.9063 -0.4226 -0.0000
vn 0.0000 -0.0000 1.0000
vn 0.0000 0.0000 -1.0000
vn 0.9063 0.4226 0.0000
usemtl 3
s 1
f 49/141/36 50/142/36 51/143/36
f 50/142/36 52/144/36 51/143/36
usemtl 5
f 53/145/37 54/146/37 55/147/37
f 54/146/37 56/148/37 55/147/37
f 56/149/38 54/150/38 50/151/38
f 54/150/38 52/152/38 50/151/38
f 55/153/39 56/154/39 49/155/39
f 56/154/39 50/156/39 49/155/39
f 51/157/40 52/158/40 53/159/40
f 52/158/40 54/160/40 53/159/40
usemtl 1
f 53/161/41 55/162/41 51/163/41
f 55/162/41 49/164/41 51/163/41
o brick.005
v 0.127709 0.784330 0.031945
v -0.000126 0.686238 0.031945
v 0.127709 0.784330 -0.037506
v -0.000126 0.686239 -0.037506
v -0.096564 1.076608 -0.037506
v -0.224399 0.978516 -0.037506
v -0.096564 1.076608 0.031945
v -0.224399 0.978516 0.031945
vt 0.063681 0.625000
vt 0.063681 0.468750
vt 0.000000 0.625000
vt 0.000000 0.468750
vt 0.065232 1.000000
vt 0.065232 0.843750
vt 0.000000 1.000000
vt 0.000000 0.843750
vt 0.993438 1.000000
vt 0.993438 0.000000
vt 0.625000 1.000000
vt 0.625000 0.000000
vt 0.531250 0.843750
vt 0.531250 0.687500
vt 1.000000 0.843750
vt 1.000000 0.687500
vt 1.000000 0.375000
vt 1.000000 0.218750
vt 0.531250 0.375000
vt 0.531250 0.218750
vt 0.993375 1.000000
vt 0.993375 0.000000
vt 0.500000 1.000000
vt 0.500000 0.000000
vn 0.6088 -0.7934 -0.0000
vn -0.6088 0.7934 0.0000
vn -0.7934 -0.6088 -0.0000
vn 0.0000 -0.0000 1.0000
vn 0.0000 0.0000 -1.0000
vn 0.7934 0.6088 0.0000
usemtl 3
s 1
f 57/165/42 58/166/42 59/167/42
f 58/166/42 60/168/42 59/167/42
usemtl 5
f 61/169/43 62/170/43 63/171/43
f 62/170/43 64/172/43 63/171/43
f 64/173/44 62/174/44 58/175/44
f 62/174/44 60/176/44 58/175/44
f 63/177/45 64/178/45 57/179/45
f 64/178/45 58/180/45 57/179/45
f 59/181/46 60/182/46 61/183/46
f 60/182/46 62/184/46 61/183/46
usemtl 1
f 61/185/47 63/186/47 59/187/47
f 63/186/47 57/188/47 59/187/47
o cube.000
v 0.889494 1.231165 0.005506
v 1.093413 1.136076 0.005506
v 0.889494 1.231165 -0.003889
v 1.093413 1.136076 -0.003889
v 0.721623 0.871165 -0.003889
v 0.925542 0.776076 -0.003889
v 0.721623 0.871165 0.005505
v 0.925542 0.776075 0.005505
vt 0.000000 0.312500
vt 0.000000 0.118750
vt 0.026477 0.312500
vt 0.026477 0.118750
vt 0.000000 1.000000
vt 0.000000 0.765625
vt 0.281250 1.000000
vt 0.281250 0.765625
vt 0.397250 0.875000
vt 0.397250 0.650000
vt 0.000000 0.875000
vt 0.000000 0.650000
vt 0.000000 0.843750
vt 0.000000 0.618750
vt 0.397250 0.843750
vt 0.397250 0.618750
vn 0.4226 0.9063 0.0000
vn -0.4226 -0.9063 -0.0000
vn -0.4226 -0.9063 -0.0001
vn -0.0000 -0.0000 1.0000
vn -0.0000 0.0000 -1.0000
usemtl 6
s 1
f 65/189/48 66/190/48 67/191/48
f 66/190/48 68/192/48 67/191/48
f 69/193/49 70/194/50 71/195/49
f 70/194/50 72/196/50 71/195/49
f 71/197/51 72/198/51 65/199/51
f 72/198/51 66/200/51 65/199/51
f 67/201/52 68/202/52 69/203/52
f 68/202/52 70/204/52 69/203/52
o cube.001
v 0.669827 1.279864 0.005354
v 0.889494 1.231165 0.005354
v 0.669827 1.279864 -0.004041
v 0.889494 1.231165 -0.004041
v 0.583854 0.892063 -0.004041
v 0.803520 0.843364 -0.004041
v 0.583854 0.892063 0.005353
v 0.803520 0.843364 0.005353
vt 0.000000 1.000000
vt 0.000000 0.806250
vt 0.026477 1.000000
vt 0.026477 0.806250
vt 0.000000 1.000000
vt 0.000000 0.765625
vt 0.281250 1.000000
vt 0.281250 0.765625
vt 0.397250 0.781250
vt 0.397250 0.556250
vt 0.000000 0.781250
vt 0.000000 0.556250
vt 0.000000 0.656250
vt 0.000000 0.431250
vt 0.397250 0.656250
vt 0.397250 0.431250
vn 0.2164 0.9763 0.0000
vn -0.2164 -0.9763 -0.0000
vn -0.0000 -0.0000 1.0000
vn -0.0000 0.0000 -1.0000
usemtl 6
s 1
f 73/205/53 74/206/53 75/207/53
f 74/206/53 76/208/53 75/207/53
f 77/209/54 78/210/54 79/211/54
f 78/210/54 80/212/54 79/211/54
f 79/213/55 80/214/55 73/215/55
f 80/214/55 74/216/55 73/215/55
f 75/217/56 76/218/56 77/219/56
f 76/218/56 78/220/56 77/219/56
o cube.002
v 0.332767 1.279864 0.004816
v 0.669827 1.279864 0.004816
v 0.332767 1.279864 -0.004579
v 0.669827 1.279864 -0.004579
v 0.332767 0.885333 -0.004579
v 0.669827 0.885333 -0.004579
v 0.332767 0.885333 0.004816
v 0.669827 0.885333 0.004816
vt 0.000000 0.687500
vt 0.000000 0.350439
vt 0.026477 0.687500
vt 0.026477 0.350439
vt 0.000000 1.000000
vt 0.000000 0.765625
vt 0.281250 1.000000
vt 0.281250 0.765625
vt 0.394563 0.750000
vt 0.394563 0.412937
vt 0.000000 0.750000
vt 0.000000 0.412937
vt 0.000000 0.375000
vt 0.000000 0.037939
vt 0.394531 0.375000
vt 0.394531 0.037939
vn 0.0000 1.0000 0.0000
vn 0.0000 -1.0000 -0.0000
vn 0.0000 -0.0000 1.0000
vn 0.0000 0.0000 -1.0000
usemtl 6
s 1
f 81/221/57 82/222/57 83/223/57
f 82/222/57 84/224/57 83/223/57
f 85/225/58 86/226/58 87/227/58
f 86/226/58 88/228/58 87/227/58
f 87/229/59 88/230/59 81/231/59
f 88/230/59 82/232/59 81/231/59
f 83/233/60 84/234/60 85/235/60
f 84/234/60 86/236/60 85/235/60
o cube.003
v 0.418740 0.892063 0.006207
v 0.199074 0.843364 0.006207
v 0.418740 0.892063 -0.003188
v 0.199074 0.843364 -0.003188
v 0.332767 1.279864 -0.003187
v 0.113100 1.231165 -0.003187
v 0.332767 1.279864 0.006207
v 0.113100 1.231165 0.006207
vt 0.281250 1.000000
vt 0.281250 0.765625
vt 0.000000 1.000000
vt 0.000000 0.765625
vt 0.026477 0.500000
vt 0.026477 0.306250
vt 0.000000 0.500000
vt 0.000000 0.306250
vt 0.000000 0.593750
vt 0.000000 0.368750
vt 0.397250 0.593750
vt 0.397250 0.368750
vt 0.397250 0.843750
vt 0.397250 0.618750
vt 0.000000 0.843750
vt 0.000000 0.618750
vn 0.2164 -0.9763 -0.0000
vn -0.2164 0.9763 0.0000
vn 0.0000 -0.0000 1.0000
vn -0.0000 0.0000 -1.0000
usemtl 6
s 1
f 89/237/61 90/238/61 91/239/61
f 90/238/61 92/240/61 91/239/61
f 93/241/62 94/242/62 95/243/62
f 94/242/62 96/244/62 95/243/62
f 95/245/63 96/246/63 89/247/63
f 96/246/63 90/248/63 89/247/63
f 91/249/64 92/250/64 93/251/64
f 92/250/64 94/252/64 93/251/64
o cube.004
v 0.280971 0.871165 0.005226
v 0.077052 0.776075 0.005226
v 0.280971 0.871165 -0.004169
v 0.077052 0.776076 -0.004169
v 0.113100 1.231165 -0.004169
v -0.090819 1.136076 -0.004169
v 0.113100 1.231165 0.005226
v -0.090819 1.136076 0.005226
vt 0.281250 1.000000
vt 0.281250 0.765625
vt 0.000000 1.000000
vt 0.000000 0.765625
vt 0.026477 0.312500
vt 0.026477 0.118750
vt 0.000000 0.312500
vt 0.000000 0.118750
vt 0.000000 0.375000
vt 0.000000 0.150000
vt 0.397217 0.375000
vt 0.397217 0.150000
vt 0.397217 0.375000
vt 0.397217 0.150000
vt 0.000000 0.375000
vt 0.000000 0.150000
vn 0.4226 -0.9063 -0.0000
vn 0.4226 -0.9063 -0.0001
vn -0.4226 0.9063 0.0000
vn -0.0000 -0.0000 1.0000
vn 0.0000 0.0000 -1.0000
usemtl 6
s 1
f 97/253/65 98/254/66 99/255/65
f 98/254/66 100/256/66 99/255/65
f 101/257/67 102/258/67 103/259/67
f 102/258/67 104/260/67 103/259/67
f 103/261/68 104/262/68 97/263/68
f 104/262/68 98/264/68 97/263/68
f 99/265/69 100/266/69 101/267/69
f 100/266/69 102/268/69 101/267/69
o cube.005
v 0.158348 0.809128 0.006207
v -0.024224 0.669035 0.006207
v 0.158348 0.809128 -0.003188
v -0.024224 0.669036 -0.003188
v -0.092528 1.136076 -0.003187
v -0.275100 0.995984 -0.003188
v -0.092528 1.136076 0.006207
v -0.275100 0.995984 0.006207
vt 0.281250 1.000000
vt 0.281250 0.765625
vt 0.000000 1.000000
vt 0.000000 0.765625
vt 0.026477 1.000000
vt 0.026477 0.806250
vt 0.000000 1.000000
vt 0.000000 0.806250
vt 0.030761 1.000000
vt 0.030761 0.000000
vt 0.000000 1.000000
vt 0.000000 0.000000
vt 0.000000 0.500000
vt 0.000000 0.269875
vt 0.412125 0.500000
vt 0.412125 0.269875
vt 0.412125 0.656250
vt 0.412125 0.426125
vt 0.000000 0.656250
vt 0.000000 0.426125
vn 0.6088 -0.7934 -0.0000
vn 0.6088 -0.7934 -0.0001
vn -0.6088 0.7934 0.0000
vn -0.7934 -0.6088 -0.0000
vn -0.7934 -0.6088 -0.0001
vn 0.0000 -0.0000 1.0000
vn -0.0000 0.0000 -1.0000
usemtl 6
s 1
f 105/269/70 106/270/71 107/271/70
f 106/270/71 108/272/71 107/271/70
f 109/273/72 110/274/72 111/275/72
f 110/274/72 112/276/72 111/275/72
f 112/277/73 110/278/73 106/279/74
f 110/278/73 108/280/74 106/279/74
f 111/281/75 112/282/75 105/283/75
f 112/282/75 106/284/75 105/283/75
f 107/285/76 108/286/76 109/287/76
f 108/286/76 110/288/76 109/287/76
