# Blender v2.83.0 OBJ File: ''
# www.blender.org
mtllib lime_mortar_orange_clay_brick_facade_segmental_arch_2_right_bottom.mtl
o brick.006
v 1.115400 -0.361480 0.035257
v 1.241605 -0.460082 0.035257
v 1.115400 -0.361480 -0.038889
v 1.241605 -0.460082 -0.038889
v 1.014791 -0.750392 0.035257
v 1.014791 -0.750392 -0.038889
v 0.888586 -0.651790 0.035257
v 0.888586 -0.651790 -0.038889
vt 0.000000 1.000000
vt 0.000000 0.843750
vt 0.064902 1.000000
vt 0.064902 0.843750
vt 0.625000 1.000000
vt 0.625000 0.000000
vt 0.993438 1.000000
vt 0.993438 0.000000
vt 0.468750 0.843750
vt 0.468750 0.687500
vt 0.000000 0.843750
vt 0.000000 0.687500
vt 0.000000 0.843750
vt 0.000000 0.687500
vt 0.468750 0.843750
vt 0.468750 0.687500
vt 0.000000 0.437500
vt 0.000000 0.281250
vt 0.059981 0.437500
vt 0.059981 0.281250
vt 0.500000 1.000000
vt 0.500000 0.000000
vt 0.993375 1.000000
vt 0.993375 0.000000
vn 0.6157 0.7880 0.0000
vn 0.7880 -0.6157 0.0000
vn -0.0000 -0.0000 1.0000
vn 0.0000 0.0000 -1.0000
vn -0.6157 -0.7880 0.0000
vn -0.7880 0.6157 0.0000
usemtl 5
s 1
f 1/1/1 2/2/1 3/3/1
f 2/2/1 4/4/1 3/3/1
f 5/5/2 6/6/2 2/7/2
f 6/6/2 4/8/2 2/7/2
f 7/9/3 5/10/3 1/11/3
f 5/10/3 2/12/3 1/11/3
f 3/13/4 4/14/4 8/15/4
f 4/14/4 6/16/4 8/15/4
usemtl 3
f 8/17/5 6/18/5 7/19/5
f 6/18/5 5/20/5 7/19/5
usemtl 1
f 8/21/6 7/22/6 3/23/6
f 7/22/6 1/24/6 3/23/6
o brick.007
v 0.951434 -0.256680 0.035258
v 1.083942 -0.339480 0.035257
v 0.951434 -0.256680 -0.038889
v 1.083942 -0.339480 -0.038889
v 0.888715 -0.651908 0.035257
v 0.888715 -0.651908 -0.038889
v 0.756207 -0.569108 0.035257
v 0.756207 -0.569108 -0.038889
vt 0.000000 1.000000
vt 0.000000 0.843750
vt 0.064902 1.000000
vt 0.064902 0.843750
vt 0.625000 1.000000
vt 0.625000 0.000000
vt 0.993438 1.000000
vt 0.993438 0.000000
vt 1.000000 0.843750
vt 1.000000 0.687500
vt 0.531250 0.843750
vt 0.531250 0.687500
vt 0.531250 0.843750
vt 0.531250 0.687500
vt 1.000000 0.843750
vt 1.000000 0.687500
vt 0.000000 0.562500
vt 0.000000 0.406250
vt 0.059981 0.562500
vt 0.059981 0.406250
vt 0.500000 1.000000
vt 0.500000 0.000000
vt 0.993375 1.000000
vt 0.993375 0.000000
vn 0.5299 0.8480 0.0000
vn 0.8480 -0.5299 0.0000
vn -0.0000 -0.0000 1.0000
vn 0.0000 0.0000 -1.0000
vn -0.5299 -0.8480 0.0000
vn -0.8480 0.5299 0.0000
usemtl 5
s 1
f 9/25/7 10/26/7 11/27/7
f 10/26/7 12/28/7 11/27/7
f 13/29/8 14/30/8 10/31/8
f 14/30/8 12/32/8 10/31/8
f 15/33/9 13/34/9 9/35/9
f 13/34/9 10/36/9 9/35/9
f 11/37/10 12/38/10 16/39/10
f 12/38/10 14/40/10 16/39/10
usemtl 1
f 16/41/11 14/42/11 15/43/11
f 14/42/11 13/44/11 15/43/11
f 16/45/12 15/46/12 11/47/12
f 15/46/12 9/48/12 11/47/12
o brick.008
v 0.592922 -0.102308 0.035258
v 0.739749 -0.155748 0.035258
v 0.592922 -0.102308 -0.038889
v 0.739749 -0.155748 -0.038889
v 0.466919 -0.448498 -0.038889
v 0.466919 -0.448498 0.035257
v 0.613746 -0.501939 0.035257
v 0.613746 -0.501939 -0.038889
vt 0.000000 1.000000
vt 0.000000 0.843750
vt 0.064902 1.000000
vt 0.064902 0.843750
vt 0.625000 1.000000
vt 0.625000 0.000000
vt 0.993438 1.000000
vt 0.993438 0.000000
vt 0.625000 1.000000
vt 0.625000 0.000000
vt 0.993438 1.000000
vt 0.993438 0.000000
vt 1.000000 0.218750
vt 1.000000 0.062500
vt 0.531250 0.218750
vt 0.531250 0.062500
vt 0.531250 0.218750
vt 0.531250 0.062500
vt 1.000000 0.218750
vt 1.000000 0.062500
vt 0.000000 0.593750
vt 0.000000 0.437500
vt 0.059981 0.593750
vt 0.059981 0.437500
vn 0.3420 0.9397 0.0000
vn -0.9397 0.3420 0.0000
vn 0.9397 -0.3420 0.0000
vn -0.0000 -0.0000 1.0000
vn 0.0000 0.0000 -1.0000
vn -0.3420 -0.9397 0.0000
usemtl 5
s 1
f 17/49/13 18/50/13 19/51/13
f 18/50/13 20/52/13 19/51/13
f 21/53/14 22/54/14 19/55/14
f 22/54/14 17/56/14 19/55/14
f 23/57/15 24/58/15 18/59/15
f 24/58/15 20/60/15 18/59/15
f 22/61/16 23/62/16 17/63/16
f 23/62/16 18/64/16 17/63/16
f 19/65/17 20/66/17 21/67/17
f 20/66/17 24/68/17 21/67/17
usemtl 3
f 21/69/18 24/70/18 22/71/18
f 24/70/18 23/72/18 22/71/18
o cube.116
v 1.113005 -0.301823 0.008086
v 1.290307 -0.440347 0.008086
v 1.113005 -0.301823 -0.005912
v 1.290307 -0.440347 -0.005912
v 0.859285 -0.626570 -0.005912
v 1.036587 -0.765093 -0.005912
v 0.859285 -0.626570 0.008086
v 1.036587 -0.765094 0.008086
vt 0.000000 0.687500
vt 0.000000 0.493750
vt 0.023069 0.687500
vt 0.023069 0.493750
vt 0.000000 1.000000
vt 0.000000 0.765625
vt 0.020407 1.000000
vt 0.020407 0.765625
vt 0.000000 1.000000
vt 0.000000 0.000000
vt 0.020844 1.000000
vt 0.020844 0.000000
vt 0.412125 0.843750
vt 0.412125 0.618750
vt 0.000000 0.843750
vt 0.000000 0.618750
vt 0.000000 0.375000
vt 0.000000 0.150000
vt 0.412109 0.375000
vt 0.412109 0.150000
vn 0.6157 0.7880 0.0000
vn -0.6157 -0.7880 0.0000
vn -0.6157 -0.7880 -0.0001
vn 0.7880 -0.6157 -0.0000
vn 0.0000 -0.0000 1.0000
vn -0.0000 0.0000 -1.0000
usemtl 6
s 1
f 25/73/19 26/74/19 27/75/19
f 26/74/19 28/76/19 27/75/19
f 29/77/20 30/78/20 31/79/20
f 30/78/20 32/80/21 31/79/20
f 32/81/22 30/82/22 26/83/22
f 30/82/22 28/84/22 26/83/22
f 31/85/23 32/86/23 25/87/23
f 32/86/23 26/88/23 25/87/23
f 27/89/24 28/90/24 29/91/24
f 28/90/24 30/92/24 29/91/24
o brick.009
v 0.777296 -0.168143 0.035258
v 0.917732 -0.236639 0.035258
v 0.777296 -0.168143 -0.038889
v 0.917732 -0.236639 -0.038889
v 0.615796 -0.499266 -0.038889
v 0.615796 -0.499267 0.035257
v 0.756233 -0.567762 0.035257
v 0.756233 -0.567762 -0.038889
vt 0.000000 1.000000
vt 0.000000 0.843750
vt 0.064902 1.000000
vt 0.064902 0.843750
vt 0.625000 1.000000
vt 0.625000 0.000000
vt 0.993438 1.000000
vt 0.993438 0.000000
vt 0.625000 1.000000
vt 0.625000 0.000000
vt 0.993438 1.000000
vt 0.993438 0.000000
vt 0.468750 0.375000
vt 0.468750 0.218750
vt 0.000000 0.375000
vt 0.000000 0.218750
vt 0.000000 0.375000
vt 0.000000 0.218750
vt 0.468750 0.375000
vt 0.468750 0.218750
vt 0.000000 0.593750
vt 0.000000 0.437500
vt 0.059981 0.593750
vt 0.059981 0.437500
vn 0.4384 0.8988 0.0000
vn -0.8988 0.4384 0.0000
vn 0.8988 -0.4384 0.0000
vn -0.0000 -0.0000 1.0000
vn -0.0000 0.0000 -1.0000
vn -0.4384 -0.8988 -0.0000
usemtl 5
s 1
f 33/93/25 34/94/25 35/95/25
f 34/94/25 36/96/25 35/95/25
f 37/97/26 38/98/26 35/99/26
f 38/98/26 33/100/26 35/99/26
f 39/101/27 40/102/27 34/103/27
f 40/102/27 36/104/27 34/103/27
f 38/105/28 39/106/28 33/107/28
f 39/106/28 34/108/28 33/107/28
f 35/109/29 36/110/29 37/111/29
f 36/110/29 40/112/29 37/111/29
usemtl 3
f 37/113/30 40/114/30 38/115/30
f 40/114/30 39/116/30 38/115/30
o cube.117
v 0.920142 -0.185939 0.008086
v 1.113005 -0.301823 0.008086
v 0.920142 -0.185939 -0.005912
v 1.113005 -0.301823 -0.005912
v 0.715560 -0.526421 -0.005912
v 0.908423 -0.642304 -0.005912
v 0.715560 -0.526421 0.008086
v 0.908423 -0.642304 0.008086
vt 0.000000 0.687500
vt 0.000000 0.493750
vt 0.023069 0.687500
vt 0.023069 0.493750
vt 0.000000 1.000000
vt 0.000000 0.765625
vt 0.281250 1.000000
vt 0.281250 0.765625
vt 0.397250 0.875000
vt 0.397250 0.650000
vt 0.000000 0.875000
vt 0.000000 0.650000
vt 0.000000 0.843750
vt 0.000000 0.618750
vt 0.397250 0.843750
vt 0.397250 0.618750
vn 0.5150 0.8572 0.0000
vn -0.5150 -0.8572 0.0000
vn 0.0000 -0.0000 1.0000
vn -0.0000 0.0000 -1.0000
usemtl 6
s 1
f 41/117/31 42/118/31 43/119/31
f 42/118/31 44/120/31 43/119/31
f 45/121/32 46/122/32 47/123/32
f 46/122/32 48/124/32 47/123/32
f 47/125/33 48/126/33 41/127/33
f 48/126/33 42/128/33 41/127/33
f 43/129/34 44/130/34 45/131/34
f 44/130/34 46/132/34 45/131/34
o cube.118
v 0.714594 -0.094424 0.008086
v 0.920142 -0.185939 0.008086
v 0.714594 -0.094424 -0.005912
v 0.920142 -0.185939 -0.005912
v 0.553032 -0.457299 -0.005912
v 0.758579 -0.548815 -0.005912
v 0.553032 -0.457299 0.008086
v 0.758579 -0.548815 0.008086
vt 0.000000 0.687500
vt 0.000000 0.493750
vt 0.023069 0.687500
vt 0.023069 0.493750
vt 0.000000 1.000000
vt 0.000000 0.765625
vt 0.281250 1.000000
vt 0.281250 0.765625
vt 0.397250 0.781250
vt 0.397250 0.556250
vt 0.000000 0.781250
vt 0.000000 0.556250
vt 0.000000 0.656250
vt 0.000000 0.431250
vt 0.397250 0.656250
vt 0.397250 0.431250
vn 0.4067 0.9135 0.0000
vn -0.4067 -0.9135 0.0000
vn 0.0000 -0.0000 1.0000
vn -0.0000 0.0000 -1.0000
usemtl 6
s 1
f 49/133/35 50/134/35 51/135/35
f 50/134/35 52/136/35 51/135/35
f 53/137/36 54/138/36 55/139/36
f 54/138/36 56/140/36 55/139/36
f 55/141/37 56/142/37 49/143/37
f 56/142/37 50/144/37 49/143/37
f 51/145/38 52/146/38 53/147/38
f 52/146/38 54/148/38 53/147/38
o brick.010
v 0.404436 -0.053233 0.035258
v 0.556045 -0.091033 0.035258
v 0.404436 -0.053233 -0.038889
v 0.556045 -0.091033 -0.038889
v 0.315310 -0.410698 -0.038889
v 0.315310 -0.410698 0.035257
v 0.466919 -0.448498 0.035257
v 0.466919 -0.448498 -0.038889
vt 0.000000 1.000000
vt 0.000000 0.843750
vt 0.064902 1.000000
vt 0.064902 0.843750
vt 0.625000 1.000000
vt 0.625000 0.000000
vt 0.993438 1.000000
vt 0.993438 0.000000
vt 0.625000 1.000000
vt 0.625000 0.000000
vt 0.993438 1.000000
vt 0.993438 0.000000
vt 1.000000 0.375000
vt 1.000000 0.218750
vt 0.531250 0.375000
vt 0.531250 0.218750
vt 0.531250 0.843750
vt 0.531250 0.687500
vt 1.000000 0.843750
vt 1.000000 0.687500
vt 0.000000 1.000000
vt 0.000000 0.843750
vt 0.059981 1.000000
vt 0.059981 0.843750
vn 0.2419 0.9703 0.0000
vn -0.9703 0.2419 0.0000
vn 0.9703 -0.2419 0.0000
vn -0.0000 -0.0000 1.0000
vn 0.0000 0.0000 -1.0000
vn -0.2419 -0.9703 0.0000
usemtl 5
s 1
f 57/149/39 58/150/39 59/151/39
f 58/150/39 60/152/39 59/151/39
f 61/153/40 62/154/40 59/155/40
f 62/154/40 57/156/40 59/155/40
f 63/157/41 64/158/41 58/159/41
f 64/158/41 60/160/41 58/159/41
f 62/161/42 63/162/42 57/163/42
f 63/162/42 58/164/42 57/163/42
f 59/165/43 60/166/43 61/167/43
f 60/166/43 64/168/43 61/167/43
usemtl 3
f 61/169/44 64/170/44 62/171/44
f 64/170/44 63/172/44 62/171/44
o brick.011
v 0.211853 -0.024129 0.035258
v 0.366583 -0.045875 0.035258
v 0.211853 -0.024129 -0.038889
v 0.366583 -0.045875 -0.038889
v 0.160581 -0.388952 -0.038889
v 0.160581 -0.388952 0.035257
v 0.315310 -0.410698 0.035257
v 0.315310 -0.410698 -0.038889
vt 0.000000 1.000000
vt 0.000000 0.843750
vt 0.064902 1.000000
vt 0.064902 0.843750
vt 0.625000 1.000000
vt 0.625000 0.000000
vt 0.993438 1.000000
vt 0.993438 0.000000
vt 0.625000 1.000000
vt 0.625000 0.000000
vt 0.993438 1.000000
vt 0.993438 0.000000
vt 0.468750 0.218750
vt 0.468750 0.062500
vt 0.000000 0.218750
vt 0.000000 0.062500
vt 0.000000 0.218750
vt 0.000000 0.062500
vt 0.468750 0.218750
vt 0.468750 0.062500
vt 0.000000 0.406250
vt 0.000000 0.250000
vt 0.059981 0.406250
vt 0.059981 0.250000
vn 0.1392 0.9903 0.0000
vn -0.9903 0.1392 0.0000
vn 0.9903 -0.1392 0.0000
vn -0.0000 -0.0000 1.0000
vn -0.0000 0.0000 -1.0000
vn -0.1392 -0.9903 0.0000
usemtl 5
s 1
f 65/173/45 66/174/45 67/175/45
f 66/174/45 68/176/45 67/175/45
f 69/177/46 70/178/46 67/179/46
f 70/178/46 65/180/46 67/179/46
f 71/181/47 72/182/47 66/183/47
f 72/182/47 68/184/47 66/183/47
f 70/185/48 71/186/48 65/187/48
f 71/186/48 66/188/48 65/187/48
f 67/189/49 68/190/49 69/191/49
f 68/190/49 72/192/49 69/191/49
usemtl 3
f 69/193/50 72/194/50 70/195/50
f 72/194/50 71/196/50 70/195/50
o cube.119
v 0.499426 -0.028640 0.008086
v 0.714594 -0.094424 0.008086
v 0.499426 -0.028640 -0.005912
v 0.714594 -0.094424 -0.005912
v 0.383291 -0.408500 -0.005912
v 0.598459 -0.474284 -0.005912
v 0.383291 -0.408500 0.008086
v 0.598459 -0.474284 0.008086
vt 0.000000 0.687500
vt 0.000000 0.493750
vt 0.023069 0.687500
vt 0.023069 0.493750
vt 0.000000 1.000000
vt 0.000000 0.765625
vt 0.281250 1.000000
vt 0.281250 0.765625
vt 0.397250 0.781250
vt 0.397250 0.556250
vt 0.000000 0.781250
vt 0.000000 0.556250
vt 0.000000 0.656250
vt 0.000000 0.431250
vt 0.397250 0.656250
vt 0.397250 0.431250
vn 0.2924 0.9563 0.0000
vn -0.2924 -0.9563 0.0000
vn 0.0000 -0.0000 1.0000
vn -0.0000 0.0000 -1.0000
usemtl 6
s 1
f 73/197/51 74/198/51 75/199/51
f 74/198/51 76/200/51 75/199/51
f 77/201/52 78/202/52 79/203/52
f 78/202/52 80/204/52 79/203/52
f 79/205/53 80/206/53 73/207/53
f 80/206/53 74/208/53 73/207/53
f 75/209/54 76/210/54 77/211/54
f 76/210/54 78/212/54 77/211/54
o cube.120
v 0.277844 0.010431 0.008086
v 0.499426 -0.028640 0.008086
v 0.277844 0.010431 -0.005912
v 0.499426 -0.028640 -0.005912
v 0.208868 -0.380751 -0.005912
v 0.430450 -0.419822 -0.005912
v 0.208868 -0.380751 0.008086
v 0.430450 -0.419822 0.008086
vt 0.000000 0.687500
vt 0.000000 0.493750
vt 0.023069 0.687500
vt 0.023069 0.493750
vt 0.000000 1.000000
vt 0.000000 0.765625
vt 0.281250 1.000000
vt 0.281250 0.765625
vt 0.397250 0.781250
vt 0.397250 0.556250
vt 0.000000 0.781250
vt 0.000000 0.556250
vt 0.000000 0.656250
vt 0.000000 0.431250
vt 0.397250 0.656250
vt 0.397250 0.431250
vn 0.1736 0.9848 0.0000
vn -0.1736 -0.9848 0.0000
vn 0.0000 -0.0000 1.0000
vn 0.0000 0.0000 -1.0000
usemtl 6
s 1
f 81/213/55 82/214/55 83/215/55
f 82/214/55 84/216/55 83/215/55
f 85/217/56 86/218/56 87/219/56
f 86/218/56 88/220/56 87/219/56
f 87/221/57 88/222/57 81/223/57
f 88/222/57 82/224/57 81/223/57
f 83/225/58 84/226/58 85/227/58
f 84/226/58 86/228/58 85/227/58
o cube.121
v 0.000271 0.022206 0.008086
v 0.053152 0.022206 0.008086
v 0.000271 0.022206 -0.005912
v 0.053152 0.022206 -0.005912
v 0.000271 -0.375010 -0.005912
v 0.053152 -0.375010 -0.005912
v 0.000271 -0.375011 0.008086
v 0.053152 -0.375011 0.008086
vt 0.000000 0.687500
vt 0.000000 0.650000
vt 0.023069 0.687500
vt 0.023069 0.650000
vt 0.000000 1.000000
vt 0.000000 0.962500
vt 1.000000 1.000000
vt 1.000000 0.962500
vt 0.000000 0.000000
vt 0.026869 1.000000
vt 0.026869 0.000000
vt 0.397217 0.781250
vt 0.397217 0.743750
vt 0.000000 0.781250
vt 0.000000 0.743750
vt 0.000000 0.656250
vt 0.000000 0.618750
vt 0.397217 0.656250
vt 0.397217 0.618750
vn 0.0000 1.0000 0.0000
vn 0.0000 -1.0000 -0.0001
vn -1.0000 0.0000 0.0000
vn 0.0000 -0.0000 1.0000
vn 0.0000 0.0000 -1.0000
usemtl 6
s 1
f 89/229/59 90/230/59 91/231/59
f 90/230/59 92/232/59 91/231/59
f 93/233/60 94/234/60 95/235/60
f 94/234/60 96/236/60 95/235/60
f 93/233/61 95/237/61 91/238/61
f 95/237/61 89/239/61 91/238/61
f 95/240/62 96/241/62 89/242/62
f 96/241/62 90/243/62 89/242/62
f 91/244/63 92/245/63 93/246/63
f 92/245/63 94/247/63 93/246/63
o cube.122
v 0.053152 0.022206 0.008086
v 0.277844 0.010431 0.008086
v 0.053152 0.022206 -0.005912
v 0.277844 0.010431 -0.005912
v 0.032363 -0.374466 -0.005912
v 0.257055 -0.386242 -0.005912
v 0.032363 -0.374466 0.008086
v 0.257055 -0.386242 0.008086
vt 0.000000 0.687500
vt 0.000000 0.493750
vt 0.023069 0.687500
vt 0.023069 0.493750
vt 0.000000 1.000000
vt 0.000000 0.765625
vt 0.281250 1.000000
vt 0.281250 0.765625
vt 0.397250 0.781250
vt 0.397250 0.556250
vt 0.000000 0.781250
vt 0.000000 0.556250
vt 0.000000 0.656250
vt 0.000000 0.431250
vt 0.397250 0.656250
vt 0.397250 0.431250
vn 0.0523 0.9986 0.0000
vn -0.0523 -0.9986 0.0000
vn 0.0000 -0.0000 1.0000
vn 0.0000 0.0000 -1.0000
usemtl 6
s 1
f 97/248/64 98/249/64 99/250/64
f 98/249/64 100/251/64 99/250/64
f 101/252/65 102/253/65 103/254/65
f 102/253/65 104/255/65 103/254/65
f 103/256/66 104/257/66 97/258/66
f 104/257/66 98/259/66 97/258/66
f 99/260/67 100/261/67 101/262/67
f 100/261/67 102/263/67 101/262/67
o brick.012
v 0.017283 -0.015315 0.035258
v 0.173438 -0.020768 0.035258
v 0.017283 -0.015315 -0.038889
v 0.173438 -0.020768 -0.038889
v 0.004426 -0.383499 -0.038889
v 0.004426 -0.383499 0.035257
v 0.160581 -0.388952 0.035257
v 0.160581 -0.388952 -0.038889
vt 0.000000 1.000000
vt 0.000000 0.843750
vt 0.064902 1.000000
vt 0.064902 0.843750
vt 0.625000 1.000000
vt 0.625000 0.000000
vt 0.993438 1.000000
vt 0.993438 0.000000
vt 0.625000 1.000000
vt 0.625000 0.000000
vt 0.993438 1.000000
vt 0.993438 0.000000
vt 0.468750 0.531250
vt 0.468750 0.375000
vt 0.000000 0.531250
vt 0.000000 0.375000
vt 0.000000 1.000000
vt 0.000000 0.843750
vt 0.468750 1.000000
vt 0.468750 0.843750
vt 0.000000 0.187500
vt 0.000000 0.031250
vt 0.059981 0.187500
vt 0.059981 0.031250
vn 0.0349 0.9994 0.0000
vn -0.9994 0.0349 0.0000
vn 0.9994 -0.0349 0.0000
vn -0.0000 -0.0000 1.0000
vn 0.0000 0.0000 -1.0000
vn -0.0349 -0.9994 0.0000
usemtl 5
s 1
f 105/264/68 106/265/68 107/266/68
f 106/265/68 108/267/68 107/266/68
f 109/268/69 110/269/69 107/270/69
f 110/269/69 105/271/69 107/270/69
f 111/272/70 112/273/70 106/274/70
f 112/273/70 108/275/70 106/274/70
f 110/276/71 111/277/71 105/278/71
f 111/277/71 106/279/71 105/278/71
f 107/280/72 108/281/72 109/282/72
f 108/281/72 112/283/72 109/282/72
usemtl 3
f 109/284/73 112/285/73 110/286/73
f 112/285/73 111/287/73 110/286/73
