# Blender v2.83.0 OBJ File: ''
# www.blender.org
mtllib lime_mortar_orange_clay_brick_round_arch_3_middle.mtl
o cube.071
v 0.858821 1.568841 1.033989
v 1.011657 1.536355 1.033989
v 0.858821 1.568841 -0.036266
v 1.011657 1.536355 -0.036266
v 0.734105 0.982096 -0.036266
v 0.734105 0.982096 1.033989
v 0.886940 0.949610 1.033989
v 0.886940 0.949610 -0.036266
vt 0.000000 0.843750
vt 0.000000 0.687500
vt 1.000000 0.843750
vt 1.000000 0.687500
vt 0.000000 1.000000
vt 0.000000 0.000000
vt 0.468750 1.000000
vt 0.468750 0.000000
vt 0.500000 1.000000
vt 0.500000 0.000000
vt 0.993375 1.000000
vt 0.993375 0.000000
vt 1.000000 0.843750
vt 1.000000 0.687500
vt 0.531250 0.843750
vt 0.531250 0.687500
vt 0.000000 0.375000
vt 0.000000 0.218750
vt 0.468750 0.375000
vt 0.468750 0.218750
vt 0.000000 0.218750
vt 0.000000 0.062500
vt 1.000000 0.218750
vt 1.000000 0.062500
vn 0.2079 0.9781 0.0000
vn -0.9781 0.2079 0.0000
vn 0.9781 -0.2079 0.0000
vn 0.0000 -0.0000 1.0000
vn 0.0000 0.0000 -1.0000
vn -0.2079 -0.9781 0.0000
usemtl 0
s 1
f 1/1/1 2/2/1 3/3/1
f 2/2/1 4/4/1 3/3/1
f 5/5/2 6/6/2 3/7/2
f 6/6/2 1/8/2 3/7/2
f 7/9/3 8/10/3 2/11/3
f 8/10/3 4/12/3 2/11/3
f 6/13/4 7/14/4 1/15/4
f 7/14/4 2/16/4 1/15/4
f 3/17/5 4/18/5 5/19/5
f 4/18/5 8/20/5 5/19/5
usemtl 2
f 5/21/6 8/22/6 6/23/6
f 8/22/6 7/24/6 6/23/6
o cube.072
v 0.641413 1.594996 1.033989
v 0.796807 1.578663 1.033989
v 0.641413 1.594996 -0.036266
v 0.796807 1.578664 -0.036266
v 0.578711 0.998429 -0.036266
v 0.578711 0.998428 1.033989
v 0.734105 0.982096 1.033989
v 0.734105 0.982096 -0.036266
vt 0.000000 0.843750
vt 0.000000 0.687500
vt 1.000000 0.843750
vt 1.000000 0.687500
vt 0.000000 1.000000
vt 0.000000 0.000000
vt 0.468750 1.000000
vt 0.468750 0.000000
vt 0.500000 1.000000
vt 0.500000 0.000000
vt 0.993375 1.000000
vt 0.993375 0.000000
vt 1.000000 0.687500
vt 1.000000 0.531250
vt 0.531250 0.687500
vt 0.531250 0.531250
vt 0.531250 0.218750
vt 0.531250 0.062500
vt 1.000000 0.218750
vt 1.000000 0.062500
vt 0.000000 0.750000
vt 0.000000 0.593750
vt 1.000000 0.750000
vt 1.000000 0.593750
vn 0.1045 0.9945 0.0000
vn -0.9945 0.1045 0.0000
vn 0.9945 -0.1045 -0.0000
vn -0.0000 -0.0000 1.0000
vn 0.0000 0.0000 -1.0000
vn -0.1045 -0.9945 -0.0000
usemtl 0
s 1
f 9/25/7 10/26/7 11/27/7
f 10/26/7 12/28/7 11/27/7
f 13/29/8 14/30/8 11/31/8
f 14/30/8 9/32/8 11/31/8
f 15/33/9 16/34/9 10/35/9
f 16/34/9 12/36/9 10/35/9
f 14/37/10 15/38/10 9/39/10
f 15/38/10 10/40/10 9/39/10
f 11/41/11 12/42/11 13/43/11
f 12/42/11 16/44/11 13/43/11
usemtl 2
f 13/45/12 16/46/12 14/47/12
f 16/46/12 15/48/12 14/47/12
o cube.073
v 0.797608 1.621703 1.005001
v 0.994292 1.582580 1.005001
v 0.797608 1.621703 -0.004262
v 0.994292 1.582580 -0.004262
v 0.673819 0.999374 -0.004264
v 0.870503 0.960251 -0.004264
v 0.673819 0.999374 1.005000
v 0.870503 0.960251 1.005000
vt 0.000000 1.000000
vt 0.000000 0.768188
vt 1.000000 1.000000
vt 1.000000 0.768188
vt 0.000000 1.000000
vt 0.000000 0.768213
vt 1.000000 1.000000
vt 1.000000 0.768213
vt 0.000000 0.906250
vt 0.000000 0.718750
vt 0.500000 0.906250
vt 0.500000 0.718750
vt 0.000000 0.906250
vt 0.000000 0.718750
vt 0.562500 0.906250
vt 0.562500 0.718750
vn 0.1951 0.9808 0.0000
vn -0.1951 -0.9808 -0.0000
vn -0.0000 -0.0000 1.0000
vn 0.0000 0.0000 -1.0000
usemtl 6
s 1
f 17/49/13 18/50/13 19/51/13
f 18/50/13 20/52/13 19/51/13
f 21/53/14 22/54/14 23/55/14
f 22/54/14 24/56/14 23/55/14
f 23/57/15 24/58/15 17/59/15
f 24/58/15 18/60/15 17/59/15
f 19/61/16 20/62/16 21/63/16
f 20/62/16 22/64/16 21/63/16
o cube.074
v 0.598169 1.642665 1.005928
v 0.797608 1.621703 1.005928
v 0.598169 1.642665 -0.003335
v 0.797608 1.621703 -0.003335
v 0.531844 1.011619 -0.003335
v 0.731282 0.990658 -0.003335
v 0.531844 1.011619 1.005928
v 0.731282 0.990657 1.005928
vt 0.000000 1.000000
vt 0.000000 0.768188
vt 1.000000 1.000000
vt 1.000000 0.768188
vt 0.000000 1.000000
vt 0.000000 0.768213
vt 1.000000 1.000000
vt 1.000000 0.768213
vt 0.500000 0.218750
vt 0.500000 0.031250
vt 1.000000 0.218750
vt 1.000000 0.031250
vt 0.000000 1.000000
vt 0.000000 0.812500
vt 0.562500 1.000000
vt 0.562500 0.812500
vn 0.1045 0.9945 0.0000
vn -0.1045 -0.9945 0.0000
vn 0.0000 0.0000 1.0000
vn -0.0000 0.0000 -1.0000
usemtl 6
s 1
f 25/65/17 26/66/17 27/67/17
f 26/66/17 28/68/17 27/67/17
f 29/69/18 30/70/18 31/71/18
f 30/70/18 32/72/18 31/71/18
f 31/73/19 32/74/19 25/75/19
f 32/74/19 26/76/19 25/75/19
f 27/77/20 28/78/20 29/79/20
f 28/78/20 30/80/20 29/79/20
o cube.075
v 0.397632 1.642665 1.003610
v 0.598169 1.642665 1.003610
v 0.397632 1.642665 -0.005654
v 0.598169 1.642665 -0.005654
v 0.397632 1.008144 -0.005654
v 0.598169 1.008144 -0.005654
v 0.397632 1.008143 1.003610
v 0.598169 1.008143 1.003610
vt 0.000000 1.000000
vt 0.000000 0.768188
vt 1.000000 1.000000
vt 1.000000 0.768188
vt 0.000000 1.000000
vt 0.000000 0.768213
vt 1.000000 1.000000
vt 1.000000 0.768213
vt 0.500000 0.187500
vt 0.500000 0.000000
vt 1.000000 0.187500
vt 1.000000 0.000000
vt 0.000000 0.187500
vt 0.000000 0.000000
vt 0.562500 0.187500
vt 0.562500 0.000000
vn 0.0000 1.0000 0.0000
vn 0.0000 -1.0000 -0.0000
vn 0.0000 0.0000 1.0000
vn 0.0000 0.0000 -1.0000
usemtl 6
s 1
f 33/81/21 34/82/21 35/83/21
f 34/82/21 36/84/21 35/83/21
f 37/85/22 38/86/22 39/87/22
f 38/86/22 40/88/22 39/87/22
f 39/89/23 40/90/23 33/91/23
f 40/90/23 34/92/23 33/91/23
f 35/93/24 36/94/24 37/95/24
f 36/94/24 38/96/24 37/95/24
o cube.076
v 0.265895 0.982096 1.033294
v 0.113060 0.949610 1.033294
v 0.265895 0.982096 -0.036962
v 0.113060 0.949610 -0.036962
v 0.141179 1.568841 -0.036962
v -0.011657 1.536355 -0.036962
v 0.141179 1.568841 1.033294
v -0.011657 1.536355 1.033294
vt 1.000000 0.218750
vt 1.000000 0.062500
vt 0.000000 0.218750
vt 0.000000 0.062500
vt 1.000000 0.843750
vt 1.000000 0.687500
vt 0.000000 0.843750
vt 0.000000 0.687500
vt 0.468750 1.000000
vt 0.468750 0.000000
vt 0.000000 1.000000
vt 0.000000 0.000000
vt 0.993375 1.000000
vt 0.993375 0.000000
vt 0.500000 1.000000
vt 0.500000 0.000000
vt 0.000000 0.531250
vt 0.000000 0.375000
vt 0.468750 0.531250
vt 0.468750 0.375000
vt 1.000000 0.375000
vt 1.000000 0.218750
vt 0.531250 0.375000
vt 0.531250 0.218750
vn 0.2079 -0.9781 -0.0000
vn -0.2079 0.9781 0.0000
vn 0.9781 0.2079 0.0000
vn -0.9781 -0.2079 0.0000
vn 0.0000 -0.0000 1.0000
vn -0.0000 0.0000 -1.0000
usemtl 2
s 1
f 41/97/25 42/98/25 43/99/25
f 42/98/25 44/100/25 43/99/25
usemtl 0
f 45/101/26 46/102/26 47/103/26
f 46/102/26 48/104/26 47/103/26
f 45/105/27 47/106/27 43/107/27
f 47/106/27 41/108/27 43/107/27
f 48/109/28 46/110/28 42/111/28
f 46/110/28 44/112/28 42/111/28
f 47/113/29 48/114/29 41/115/29
f 48/114/29 42/116/29 41/115/29
f 43/117/30 44/118/30 45/119/30
f 44/118/30 46/120/30 45/119/30
o cube.077
v 0.421289 0.998428 1.033294
v 0.265895 0.982096 1.033294
v 0.421289 0.998429 -0.036962
v 0.265895 0.982096 -0.036962
v 0.358587 1.594996 -0.036962
v 0.203193 1.578664 -0.036962
v 0.358587 1.594996 1.033294
v 0.203193 1.578663 1.033294
vt 1.000000 0.218750
vt 1.000000 0.062500
vt 0.000000 0.218750
vt 0.000000 0.062500
vt 1.000000 0.843750
vt 1.000000 0.687500
vt 0.000000 0.843750
vt 0.000000 0.687500
vt 0.468750 1.000000
vt 0.468750 0.000000
vt 0.000000 1.000000
vt 0.000000 0.000000
vt 0.993375 1.000000
vt 0.993375 0.000000
vt 0.500000 1.000000
vt 0.500000 0.000000
vt 0.000000 0.687500
vt 0.000000 0.531250
vt 0.468750 0.687500
vt 0.468750 0.531250
vt 1.000000 0.218750
vt 1.000000 0.062500
vt 0.531250 0.218750
vt 0.531250 0.062500
vn 0.1045 -0.9945 -0.0000
vn -0.1045 0.9945 0.0000
vn 0.9945 0.1045 0.0000
vn -0.9945 -0.1045 -0.0000
vn -0.0000 -0.0000 1.0000
vn 0.0000 0.0000 -1.0000
usemtl 2
s 1
f 49/121/31 50/122/31 51/123/31
f 50/122/31 52/124/31 51/123/31
usemtl 0
f 53/125/32 54/126/32 55/127/32
f 54/126/32 56/128/32 55/127/32
f 53/129/33 55/130/33 51/131/33
f 55/130/33 49/132/33 51/131/33
f 56/133/34 54/134/34 50/135/34
f 54/134/34 52/136/34 50/135/34
f 55/137/35 56/138/35 49/139/35
f 56/138/35 50/140/35 49/139/35
f 51/141/36 52/142/36 53/143/36
f 52/142/36 54/144/36 53/143/36
o cube.078
v 0.577539 0.998428 1.033294
v 0.421289 0.998428 1.033294
v 0.577539 0.998429 -0.036962
v 0.421289 0.998429 -0.036962
v 0.577539 1.598282 -0.036962
v 0.421289 1.598282 -0.036962
v 0.577539 1.598282 1.033294
v 0.421289 1.598282 1.033294
vt 1.000000 0.406250
vt 1.000000 0.250000
vt 0.000000 0.406250
vt 0.000000 0.250000
vt 1.000000 0.843750
vt 1.000000 0.687500
vt 0.000000 0.843750
vt 0.000000 0.687500
vt 0.468750 1.000000
vt 0.468750 0.000000
vt 0.000000 1.000000
vt 0.000000 0.000000
vt 0.993375 1.000000
vt 0.993375 0.000000
vt 0.500000 1.000000
vt 0.500000 0.000000
vt 0.531250 0.218750
vt 0.531250 0.062500
vt 1.000000 0.218750
vt 1.000000 0.062500
vt 1.000000 0.843750
vt 1.000000 0.687500
vt 0.531250 0.843750
vt 0.531250 0.687500
vn 0.0000 -1.0000 -0.0000
vn 0.0000 1.0000 0.0000
vn 1.0000 0.0000 0.0000
vn -1.0000 0.0000 0.0000
vn 0.0000 -0.0000 1.0000
vn 0.0000 0.0000 -1.0000
usemtl 2
s 1
f 57/145/37 58/146/37 59/147/37
f 58/146/37 60/148/37 59/147/37
usemtl 0
f 61/149/38 62/150/38 63/151/38
f 62/150/38 64/152/38 63/151/38
f 61/153/39 63/154/39 59/155/39
f 63/154/39 57/156/39 59/155/39
f 64/157/40 62/158/40 58/159/40
f 62/158/40 60/160/40 58/159/40
f 63/161/41 64/162/41 57/163/41
f 64/162/41 58/164/41 57/163/41
f 59/165/42 60/166/42 61/167/42
f 60/166/42 62/168/42 61/167/42
o cube.079
v 0.326181 0.999374 1.004305
v 0.129497 0.960251 1.004305
v 0.326181 0.999374 -0.004959
v 0.129497 0.960251 -0.004959
v 0.202392 1.621703 -0.004959
v 0.005708 1.582580 -0.004959
v 0.202392 1.621703 1.004305
v 0.005708 1.582580 1.004305
vt 1.000000 1.000000
vt 1.000000 0.768213
vt 0.000000 1.000000
vt 0.000000 0.768213
vt 1.000000 1.000000
vt 1.000000 0.768188
vt 0.000000 1.000000
vt 0.000000 0.768188
vt 0.500000 0.187500
vt 0.500000 0.000000
vt 0.000000 0.187500
vt 0.000000 0.000000
vt 0.562500 0.906250
vt 0.562500 0.718750
vt 0.000000 0.906250
vt 0.000000 0.718750
vn 0.1951 -0.9808 -0.0000
vn -0.1951 0.9808 0.0000
vn 0.0000 -0.0000 1.0000
vn 0.0000 0.0000 -1.0000
usemtl 6
s 1
f 65/169/43 66/170/43 67/171/43
f 66/170/43 68/172/43 67/171/43
f 69/173/44 70/174/44 71/175/44
f 70/174/44 72/176/44 71/175/44
f 71/177/45 72/178/45 65/179/45
f 72/178/45 66/180/45 65/179/45
f 67/181/46 68/182/46 69/183/46
f 68/182/46 70/184/46 69/183/46
o cube.080
v 0.468156 1.011619 1.005233
v 0.268718 0.990657 1.005233
v 0.468156 1.011619 -0.004031
v 0.268718 0.990658 -0.004031
v 0.401831 1.642665 -0.004031
v 0.202392 1.621703 -0.004031
v 0.401831 1.642665 1.005233
v 0.202392 1.621703 1.005233
vt 1.000000 1.000000
vt 1.000000 0.768213
vt 0.000000 1.000000
vt 0.000000 0.768213
vt 1.000000 1.000000
vt 1.000000 0.768188
vt 0.000000 1.000000
vt 0.000000 0.768188
vt 0.500000 0.187500
vt 0.500000 0.000000
vt 0.000000 0.187500
vt 0.000000 0.000000
vt 0.562500 1.000000
vt 0.562500 0.812500
vt 0.000000 1.000000
vt 0.000000 0.812500
vn 0.1045 -0.9945 0.0000
vn -0.1045 0.9945 0.0000
vn 0.0000 -0.0000 1.0000
vn -0.0000 0.0000 -1.0000
usemtl 6
s 1
f 73/185/47 74/186/47 75/187/47
f 74/186/47 76/188/47 75/187/47
f 77/189/48 78/190/48 79/191/48
f 78/190/48 80/192/48 79/191/48
f 79/193/49 80/194/49 73/195/49
f 80/194/49 74/196/49 73/195/49
f 75/197/50 76/198/50 77/199/50
f 76/198/50 78/200/50 77/199/50
