# Blender v2.90.1 OBJ File: ''
# www.blender.org
mtllib scythe.mtl
o cube
v 0.962342 0.903137 0.816526
v 0.962342 0.041430 0.664583
v 0.962342 0.913990 0.754975
v 0.962342 0.052283 0.603033
v 0.899842 0.913990 0.754975
v 0.899842 0.052283 0.603033
v 0.899842 0.903137 0.816526
v 0.899842 0.041430 0.664583
vt 0.656250 0.875000
vt 0.656250 0.000000
vt 0.593750 0.875000
vt 0.593750 0.000000
vt 0.593750 0.875000
vt 0.593750 0.000000
vt 0.656250 0.875000
vt 0.656250 0.000000
vt 0.750000 0.625000
vt 0.687500 0.625000
vt 0.750000 0.562500
vt 0.687500 0.562500
vt 0.593750 0.875000
vt 0.593750 0.000000
vt 0.656250 0.875000
vt 0.656250 0.000000
vn 1.0000 0.0000 0.0000
vn -1.0000 0.0000 0.0000
vn 0.0000 -0.9848 -0.1736
vn 0.0000 -0.1736 0.9848
vn 0.0000 0.1736 -0.9848
usemtl m_3
s 1
f 1/1/1 2/2/1 3/3/1
f 2/2/1 4/4/1 3/3/1
f 5/5/2 6/6/2 7/7/2
f 6/6/2 8/8/2 7/7/2
f 8/9/3 6/10/3 2/11/3
f 6/10/3 4/12/3 2/11/3
f 7/13/4 8/14/4 1/1/4
f 8/14/4 2/2/4 1/1/4
f 3/3/5 4/4/5 5/15/5
f 4/4/5 6/16/5 5/15/5
o cube.000
v 0.962342 1.826394 0.979322
v 0.962342 0.903137 0.816526
v 0.962342 1.837247 0.917771
v 0.962342 0.913990 0.754975
v 0.899842 1.837247 0.917771
v 0.899842 0.913990 0.754975
v 0.899842 1.826394 0.979322
v 0.899842 0.903137 0.816526
vt 0.843750 0.000000
vt 0.843750 0.937500
vt 0.906250 0.000000
vt 0.906250 0.937500
vt 0.875000 0.000000
vt 0.875000 0.937500
vt 0.937500 0.000000
vt 0.937500 0.937500
vt 0.593750 0.500000
vt 0.593750 0.437500
vt 0.656250 0.500000
vt 0.656250 0.437500
vt 1.000000 0.000000
vt 1.000000 0.937500
vt 1.000000 0.000000
vt 1.000000 0.937500
vt 0.937500 0.000000
vt 0.937500 0.937500
vn 1.0000 0.0000 0.0000
vn -1.0000 0.0000 0.0000
vn 0.0000 0.9848 0.1736
vn 0.0000 -0.1736 0.9848
vn 0.0000 0.1736 -0.9848
usemtl m_3
s 1
f 9/17/6 10/18/6 11/19/6
f 10/18/6 12/20/6 11/19/6
f 13/21/7 14/22/7 15/23/7
f 14/22/7 16/24/7 15/23/7
f 13/25/8 15/26/8 11/27/8
f 15/26/8 9/28/8 11/27/8
f 15/23/9 16/24/9 9/29/9
f 16/24/9 10/30/9 9/29/9
f 11/31/10 12/32/10 13/33/10
f 12/32/10 14/34/10 13/33/10
o cube.001
v 0.087494 1.731061 0.967908
v 0.125179 1.425720 0.913108
v 0.924026 1.838582 0.944071
v 0.961710 1.533241 0.889271
v 0.924023 1.838593 0.944009
v 0.961707 1.533252 0.889210
v 0.087491 1.731072 0.967846
v 0.125176 1.425731 0.913047
vt 0.031250 0.906250
vt 0.343750 0.906250
vt 0.031250 0.062500
vt 0.343750 0.062500
vt 0.031250 0.062500
vt 0.343750 0.062500
vt 0.031250 0.906250
vt 0.343750 0.906250
vn 0.0500 -0.1705 0.9841
vn -0.0500 0.1705 -0.9841
usemtl m_3
s 1
f 17/35/11 18/36/11 19/37/11
f 18/36/11 20/38/11 19/37/11
f 21/39/12 22/40/12 23/41/12
f 22/40/12 24/42/12 23/41/12
o cube.002
v 0.625893 0.938632 0.646705
v 0.625893 0.892557 0.656920
v 0.607579 0.949234 0.694528
v 0.607579 0.903159 0.704744
v 0.947874 0.964688 0.764237
v 0.929560 0.975290 0.812059
v 0.929560 0.929215 0.822273
v 0.947874 0.918613 0.774450
vt 0.687500 0.656250
vt 0.750000 0.656250
vt 0.687500 0.593750
vt 0.750000 0.593750
vt 0.500000 0.843750
vt 0.562500 0.843750
vt 0.500000 0.500000
vt 0.562500 0.500000
vt 0.656250 0.875000
vt 0.593750 0.875000
vt 0.656250 0.531250
vt 0.593750 0.531250
vt 0.656250 0.437500
vt 0.593750 0.437500
vt 0.656250 0.093750
vt 0.593750 0.093750
vt 0.687500 0.593750
vt 0.750000 0.593750
vt 0.687500 0.937500
vt 0.750000 0.937500
vn -0.9367 -0.0758 -0.3419
vn -0.0000 0.9763 -0.2164
vn 0.0000 -0.9763 0.2164
vn -0.3502 0.2027 0.9145
vn 0.3502 -0.2027 -0.9145
usemtl m_3
s 1
f 25/43/13 26/44/13 27/45/13
f 26/44/13 28/46/13 27/45/13
f 25/47/14 27/48/14 29/49/14
f 27/48/14 30/50/14 29/49/14
f 28/51/15 26/52/15 31/53/15
f 26/52/15 32/54/15 31/53/15
f 27/55/16 28/56/16 30/57/16
f 28/56/16 31/58/16 30/57/16
f 29/59/17 32/60/17 25/61/17
f 32/60/17 26/62/17 25/61/17
