# Blender v2.91.0 OBJ File: ''
# www.blender.org
mtllib ship_lantern.mtl
o corner1
v 0.236136 0.644572 0.236481
v 0.345689 0.023264 0.347725
v 0.237380 0.637518 0.195858
v 0.346933 0.016210 0.307101
v 0.196756 0.630355 0.195858
v 0.306310 0.009047 0.307101
v 0.195513 0.637409 0.236481
v 0.305066 0.016101 0.347725
vt 0.968750 0.656250
vt 0.968750 0.343750
vt 1.000000 0.656250
vt 1.000000 0.343750
vt 1.000000 0.984375
vt 1.000000 0.671875
vt 0.968750 0.984375
vt 0.968750 0.671875
vt 1.000000 0.656250
vt 1.000000 0.343750
vt 0.687500 0.984375
vt 0.687500 0.671875
vt 0.656250 0.984375
vt 0.656250 0.671875
vn 0.9848 0.1736 0.0000
vn -0.9848 -0.1736 0.0000
vn -0.0302 0.1710 0.9848
vn 0.0302 -0.1710 -0.9848
usemtl m_0
s 1
f 1/1/1 2/2/1 3/3/1
f 2/2/1 4/4/1 3/3/1
f 5/5/2 6/6/2 7/7/2
f 6/6/2 8/8/2 7/7/2
f 7/9/3 8/10/3 1/1/3
f 8/10/3 2/2/3 1/1/3
f 3/11/4 4/12/4 5/13/4
f 4/12/4 6/14/4 5/13/4
o corner2
v 0.804488 0.637412 0.236495
v 0.694935 0.016104 0.347739
v 0.803244 0.630357 0.195872
v 0.693691 0.009050 0.307115
v 0.762621 0.637520 0.195872
v 0.653067 0.016213 0.307115
v 0.763865 0.644575 0.236495
v 0.654311 0.023267 0.347739
vt 0.687500 0.984375
vt 0.687500 0.671875
vt 0.656250 0.984375
vt 0.656250 0.671875
vt 1.000000 0.656250
vt 1.000000 0.343750
vt 0.968750 0.656250
vt 0.968750 0.343750
vt 1.000000 0.656250
vt 1.000000 0.343750
vt 1.000000 0.984375
vt 1.000000 0.671875
vt 0.968750 0.984375
vt 0.968750 0.671875
vn 0.9848 -0.1736 -0.0000
vn -0.9848 0.1736 0.0000
vn 0.0302 0.1710 0.9848
vn -0.0302 -0.1710 -0.9848
usemtl m_0
s 1
f 9/15/5 10/16/5 11/17/5
f 10/16/5 12/18/5 11/17/5
f 13/19/6 14/20/6 15/21/6
f 14/20/6 16/22/6 15/21/6
f 15/21/7 16/22/7 9/23/7
f 16/22/7 10/24/7 9/23/7
f 11/25/8 12/26/8 13/27/8
f 12/26/8 14/28/8 13/27/8
o corner3
v 0.803244 0.630355 0.804142
v 0.693690 0.009047 0.692899
v 0.804488 0.637409 0.763519
v 0.694934 0.016101 0.652276
v 0.763864 0.644572 0.763519
v 0.654311 0.023264 0.652276
v 0.762620 0.637518 0.804142
v 0.653067 0.016210 0.692899
vt 1.000000 0.984375
vt 1.000000 0.671875
vt 0.968750 0.984375
vt 0.968750 0.671875
vt 0.968750 0.656250
vt 0.968750 0.343750
vt 1.000000 0.656250
vt 1.000000 0.343750
vt 0.687500 0.984375
vt 0.687500 0.671875
vt 0.656250 0.984375
vt 0.656250 0.671875
vt 1.000000 0.656250
vt 1.000000 0.343750
vn 0.9848 -0.1737 0.0000
vn -0.9848 0.1736 -0.0000
vn -0.0302 -0.1710 0.9848
vn 0.0302 0.1710 -0.9848
usemtl m_0
s 1
f 17/29/9 18/30/9 19/31/9
f 18/30/9 20/32/9 19/31/9
f 21/33/10 22/34/10 23/35/10
f 22/34/10 24/36/10 23/35/10
f 23/37/11 24/38/11 17/39/11
f 24/38/11 18/40/11 17/39/11
f 19/41/12 20/42/12 21/33/12
f 20/42/12 22/34/12 21/33/12
o corner4
v 0.237380 0.637518 0.804142
v 0.346933 0.016210 0.692899
v 0.236136 0.644572 0.763519
v 0.345689 0.023264 0.652276
v 0.195513 0.637409 0.763519
v 0.305066 0.016101 0.652276
v 0.196756 0.630355 0.804142
v 0.306310 0.009047 0.692899
vt 1.000000 0.656250
vt 1.000000 0.343750
vt 0.968750 0.656250
vt 0.968750 0.343750
vt 0.687500 0.984375
vt 0.687500 0.671875
vt 0.656250 0.984375
vt 0.656250 0.671875
vt 1.000000 0.984375
vt 1.000000 0.671875
vt 0.968750 0.984375
vt 0.968750 0.671875
vt 1.000000 0.656250
vt 1.000000 0.343750
vn 0.9848 0.1736 -0.0000
vn -0.9848 -0.1736 -0.0000
vn -0.9848 -0.1737 0.0000
vn 0.0302 -0.1710 0.9848
vn -0.0302 0.1710 -0.9848
usemtl m_0
s 1
f 25/43/13 26/44/13 27/45/13
f 26/44/13 28/46/13 27/45/13
f 29/47/14 30/48/14 31/49/14
f 30/48/14 32/50/15 31/49/14
f 31/51/16 32/52/16 25/53/16
f 32/52/16 26/54/16 25/53/16
f 27/45/17 28/46/17 29/55/17
f 28/46/17 30/56/17 29/55/17
o bottom
v 0.726562 0.062500 0.726562
v 0.726562 -0.000000 0.726562
v 0.726562 0.062500 0.273438
v 0.726562 -0.000000 0.273438
v 0.273438 0.062500 0.273438
v 0.273438 -0.000000 0.273438
v 0.273438 0.062500 0.726562
v 0.273438 -0.000000 0.726562
vt 0.718750 0.968750
vt 0.718750 0.937500
vt 0.937500 0.968750
vt 0.937500 0.937500
vt 0.718750 0.968750
vt 0.718750 0.937500
vt 0.937500 0.968750
vt 0.937500 0.937500
vt 0.718750 0.937500
vt 0.718750 0.718750
vt 0.937500 0.937500
vt 0.937500 0.718750
vt 0.718750 0.937500
vt 0.718750 0.718750
vt 0.937500 0.937500
vt 0.937500 0.718750
vt 0.718750 0.687500
vt 0.718750 0.718750
vt 0.937500 0.687500
vt 0.937500 0.718750
vt 0.718750 0.687500
vt 0.718750 0.718750
vt 0.937500 0.687500
vt 0.937500 0.718750
vn 1.0000 0.0000 0.0000
vn -1.0000 0.0000 0.0000
vn 0.0000 1.0000 0.0000
vn 0.0000 -1.0000 -0.0000
vn 0.0000 0.0000 1.0000
vn 0.0000 0.0000 -1.0000
usemtl m_0
s 1
f 33/57/18 34/58/18 35/59/18
f 34/58/18 36/60/18 35/59/18
f 37/61/19 38/62/19 39/63/19
f 38/62/19 40/64/19 39/63/19
f 37/65/20 39/66/20 35/67/20
f 39/66/20 33/68/20 35/67/20
f 40/69/21 38/70/21 34/71/21
f 38/70/21 36/72/21 34/71/21
f 39/73/22 40/74/22 33/75/22
f 40/74/22 34/76/22 33/75/22
f 35/77/23 36/78/23 37/79/23
f 36/78/23 38/80/23 37/79/23
o side
v 0.775000 0.629775 0.238332
v 0.775000 0.014270 0.346862
v 0.225000 0.629775 0.238332
v 0.225000 0.014270 0.346862
vt 0.000000 1.000000
vt 0.000000 0.687500
vt 0.312500 1.000000
vt 0.312500 0.687500
vn 0.0000 -0.1736 -0.9848
usemtl m_0
s 1
f 41/81/24 42/82/24 43/83/24
f 42/82/24 44/84/24 43/83/24
o side.000
v 0.231457 0.629775 0.225000
v 0.339987 0.014270 0.225000
v 0.231457 0.629775 0.775000
v 0.339987 0.014270 0.775000
vt 0.000000 1.000000
vt 0.000000 0.687500
vt 0.312500 1.000000
vt 0.312500 0.687500
vn -0.9848 -0.1736 -0.0000
usemtl m_0
s 1
f 45/85/25 46/86/25 47/87/25
f 46/86/25 48/88/25 47/87/25
o side.001
v 0.225000 0.629764 0.768604
v 0.225000 0.014260 0.660074
v 0.775000 0.629764 0.768604
v 0.775000 0.014260 0.660074
vt 0.000000 1.000000
vt 0.000000 0.687500
vt 0.312500 1.000000
vt 0.312500 0.687500
vn 0.0000 -0.1736 0.9848
usemtl m_0
s 1
f 49/89/26 50/90/26 51/91/26
f 50/90/26 52/92/26 51/91/26
o side.002
v 0.768604 0.629764 0.775000
v 0.660074 0.014259 0.775000
v 0.768604 0.629764 0.225000
v 0.660074 0.014260 0.225000
vt 0.000000 1.000000
vt 0.000000 0.687500
vt 0.312500 1.000000
vt 0.312500 0.687500
vn 0.9848 -0.1736 -0.0000
usemtl m_0
s 1
f 53/93/27 54/94/27 55/95/27
f 54/94/27 56/96/27 55/95/27
o north
v 0.843750 0.876562 0.312500
v 0.843750 0.706630 0.233259
v 0.156250 0.876562 0.312500
v 0.156250 0.706630 0.233259
vt 0.312500 1.000000
vt 0.312500 0.906250
vt 0.656250 1.000000
vt 0.656250 0.906250
vn 0.0000 0.4226 -0.9063
usemtl m_0
s 1
f 57/97/28 58/98/28 59/99/28
f 58/98/28 60/100/28 59/99/28
o north.000
v 0.833984 0.710591 0.238783
v 0.833984 0.616679 0.144871
v 0.163086 0.710591 0.238783
v 0.163086 0.616679 0.144871
vt 0.312500 0.906250
vt 0.312500 0.847656
vt 0.656250 0.906250
vt 0.656250 0.847656
vn 0.0000 0.7071 -0.7071
usemtl m_0
s 1
f 61/101/29 62/102/29 63/103/29
f 62/102/29 64/104/29 63/103/29
o east
v 0.687557 0.871901 0.843750
v 0.766798 0.701969 0.843750
v 0.687557 0.871901 0.156250
v 0.766798 0.701969 0.156250
vt 0.312500 1.000000
vt 0.312500 0.906250
vt 0.656250 1.000000
vt 0.656250 0.906250
vn 0.9063 0.4226 0.0000
usemtl m_0
s 1
f 65/105/30 66/106/30 67/107/30
f 66/106/30 68/108/30 67/107/30
o east.000
v 0.766785 0.705111 0.843750
v 0.855173 0.616723 0.843750
v 0.766785 0.705112 0.164063
v 0.855173 0.616723 0.164063
vt 0.312500 0.906250
vt 0.312500 0.843750
vt 0.656250 0.906250
vt 0.656250 0.843750
vn 0.7071 0.7071 0.0000
usemtl m_0
s 1
f 69/109/31 70/110/31 71/111/31
f 70/110/31 72/112/31 71/111/31
o south
v 0.156250 0.871901 0.687557
v 0.156250 0.701969 0.766798
v 0.843750 0.871901 0.687557
v 0.843750 0.701969 0.766798
vt 0.312500 1.000000
vt 0.312500 0.906250
vt 0.656250 1.000000
vt 0.656250 0.906250
vn 0.0000 0.4226 0.9063
usemtl m_0
s 1
f 73/113/32 74/114/32 75/115/32
f 74/114/32 76/116/32 75/115/32
o south.000
v 0.156250 0.705111 0.766785
v 0.156250 0.616723 0.855174
v 0.843750 0.705111 0.766785
v 0.843750 0.616723 0.855174
vt 0.312500 0.906250
vt 0.312500 0.843750
vt 0.656250 0.906250
vt 0.656250 0.843750
vn 0.0000 0.7071 0.7071
usemtl m_0
s 1
f 77/117/33 78/118/33 79/119/33
f 78/118/33 80/120/33 79/119/33
o west
v 0.312500 0.873438 0.156250
v 0.233259 0.703505 0.156250
v 0.312500 0.873437 0.843750
v 0.233259 0.703505 0.843750
vt 0.312500 1.000000
vt 0.312500 0.906250
vt 0.656250 1.000000
vt 0.656250 0.906250
vn -0.9063 0.4226 0.0000
usemtl m_0
s 1
f 81/121/34 82/122/34 83/123/34
f 82/122/34 84/124/34 83/123/34
o west.000
v 0.233259 0.705067 0.156250
v 0.144871 0.616679 0.156250
v 0.233259 0.705067 0.843750
v 0.144871 0.616679 0.843750
vt 0.312500 0.906250
vt 0.312500 0.843750
vt 0.656250 0.906250
vt 0.656250 0.843750
vn -0.7071 0.7071 0.0000
usemtl m_0
s 1
f 85/125/35 86/126/35 87/127/35
f 86/126/35 88/128/35 87/127/35
o top_corner_tip1
v 0.222210 0.566061 0.126537
v 0.144479 0.615493 0.143959
v 0.356168 0.729727 0.259836
v 0.278438 0.779159 0.277258
v 0.129528 0.564712 0.221334
v 0.263487 0.728378 0.354633
vt 0.312500 0.812500
vt 0.312500 0.765625
vt 0.437500 0.812500
vt 0.437500 0.765625
vt 0.312500 0.812500
vt 0.437500 0.812500
vn 0.1595 0.5417 -0.8253
vn -0.8291 0.5273 0.1858
usemtl m_0
s 1
f 89/129/36 90/130/36 91/131/36
f 90/130/36 92/132/36 91/131/36
f 90/130/37 93/133/37 92/132/37
f 93/133/37 94/134/37 92/132/37
o top_corner1
v 0.266652 0.644863 0.203175
v 0.209803 0.670212 0.208827
v 0.368047 0.849651 0.304570
v 0.311198 0.875000 0.310222
v 0.204152 0.644863 0.265675
v 0.305547 0.849651 0.367070
vt 0.312500 0.812500
vt 0.312500 0.843750
vt 0.437500 0.812500
vt 0.437500 0.843750
vt 0.312500 0.812500
vt 0.437500 0.812500
vn 0.0904 0.4056 -0.9096
vn -0.9096 0.4056 0.0904
usemtl m_0
s 1
f 95/135/38 96/136/38 97/137/38
f 96/136/38 98/138/38 97/137/38
f 96/136/39 99/139/39 98/138/39
f 99/139/39 100/140/39 98/138/39
o top_corner_tip2
v 0.739460 0.731620 0.644163
v 0.722038 0.781052 0.721894
v 0.872759 0.567954 0.778122
v 0.855337 0.617385 0.855852
v 0.644663 0.730271 0.736845
v 0.777962 0.566604 0.870803
vt 0.437500 0.812500
vt 0.437500 0.765625
vt 0.312500 0.812500
vt 0.312500 0.765625
vt 0.437500 0.812500
vt 0.312500 0.812500
vn 0.8253 0.5417 -0.1595
vn -0.1858 0.5273 0.8291
usemtl m_0
s 1
f 101/141/40 102/142/40 103/143/40
f 102/142/40 104/144/40 103/143/40
f 102/142/41 105/145/41 104/144/41
f 105/145/41 106/146/41 104/144/41
o top_corner2
v 0.693565 0.848083 0.631651
v 0.687914 0.873432 0.688500
v 0.794960 0.643295 0.733046
v 0.789308 0.668644 0.789895
v 0.631065 0.848083 0.694151
v 0.732460 0.643295 0.795546
vt 0.437500 0.812500
vt 0.437500 0.843750
vt 0.312500 0.812500
vt 0.312500 0.843750
vt 0.437500 0.812500
vt 0.312500 0.812500
vn 0.9096 0.4056 -0.0904
vn -0.0904 0.4056 0.9096
usemtl m_0
s 1
f 107/147/42 108/148/42 109/149/42
f 108/148/42 110/150/42 109/149/42
f 108/148/43 111/151/43 110/150/43
f 111/151/43 112/152/43 110/150/43
o top_corner_tip2.000
v 0.127241 0.567368 0.778122
v 0.144663 0.616799 0.855852
v 0.260540 0.731034 0.644163
v 0.277962 0.780466 0.721894
v 0.222038 0.566018 0.870803
v 0.355337 0.729685 0.736845
vt 0.312500 0.812500
vt 0.312500 0.765625
vt 0.437500 0.812500
vt 0.437500 0.765625
vt 0.312500 0.812500
vt 0.437500 0.812500
vn -0.8253 0.5417 -0.1595
vn 0.1858 0.5273 0.8291
usemtl m_0
s 1
f 113/153/44 114/154/44 115/155/44
f 114/154/44 116/156/44 115/155/44
f 114/154/45 117/157/45 116/156/45
f 117/157/45 118/158/45 116/156/45
o top_corner2.000
v 0.205040 0.644272 0.733046
v 0.210692 0.669620 0.789895
v 0.306435 0.849060 0.631651
v 0.312086 0.874408 0.688500
v 0.267540 0.644272 0.795546
v 0.368935 0.849060 0.694151
vt 0.312500 0.812500
vt 0.312500 0.843750
vt 0.437500 0.812500
vt 0.437500 0.843750
vt 0.312500 0.812500
vt 0.437500 0.812500
vn -0.9096 0.4056 -0.0904
vn 0.0904 0.4056 0.9096
usemtl m_0
s 1
f 119/159/46 120/160/46 121/161/46
f 120/160/46 122/162/46 121/161/46
f 120/160/47 123/163/47 122/162/47
f 123/163/47 124/164/47 122/162/47
o top_corner_tip3
v 0.645794 0.728758 0.258939
v 0.723524 0.778189 0.276361
v 0.779752 0.565091 0.125640
v 0.857482 0.614523 0.143062
v 0.738475 0.727408 0.353736
v 0.872434 0.563742 0.220437
vt 0.437500 0.812500
vt 0.437500 0.765625
vt 0.312500 0.812500
vt 0.312500 0.765625
vt 0.437500 0.812500
vt 0.312500 0.812500
vn -0.1595 0.5417 -0.8253
vn 0.8291 0.5273 0.1858
usemtl m_0
s 1
f 125/165/48 126/166/48 127/167/48
f 126/166/48 128/168/48 127/167/48
f 126/166/49 129/169/49 128/168/49
f 129/169/49 130/170/49 128/168/49
o top_corner3
v 0.631953 0.847307 0.305547
v 0.688802 0.872656 0.311198
v 0.733348 0.642519 0.204152
v 0.790197 0.667868 0.209803
v 0.694453 0.847307 0.368047
v 0.795848 0.642519 0.266652
vt 0.437500 0.812500
vt 0.437500 0.843750
vt 0.312500 0.812500
vt 0.312500 0.843750
vt 0.437500 0.812500
vt 0.312500 0.812500
vn -0.0904 0.4056 -0.9096
vn 0.9096 0.4056 0.0904
usemtl m_0
s 1
f 131/171/50 132/172/50 133/173/50
f 132/172/50 134/174/50 133/173/50
f 132/172/51 135/175/51 134/174/51
f 135/175/51 136/176/51 134/174/51
o top
v 0.851562 0.617187 0.851563
v 0.851562 0.585937 0.851563
v 0.851562 0.617188 0.148438
v 0.851562 0.585938 0.148438
v 0.148438 0.617188 0.148438
v 0.148438 0.585938 0.148438
v 0.148438 0.617187 0.851563
v 0.148438 0.585937 0.851563
vt 0.656250 0.671875
vt 0.656250 0.656250
vt 1.000000 0.671875
vt 1.000000 0.656250
vt 0.656250 0.671875
vt 0.656250 0.656250
vt 1.000000 0.671875
vt 1.000000 0.656250
vt 0.656250 1.000000
vt 0.656250 0.656250
vt 1.000000 1.000000
vt 1.000000 0.656250
vt 0.656250 1.000000
vt 1.000000 1.000000
vt 0.656250 0.671875
vt 0.656250 0.656250
vt 1.000000 0.671875
vt 1.000000 0.656250
vt 0.656250 0.671875
vt 0.656250 0.656250
vt 1.000000 0.671875
vt 1.000000 0.656250
vn 1.0000 0.0000 0.0000
vn -1.0000 0.0000 0.0000
vn 0.0000 1.0000 0.0000
vn 0.0000 -1.0000 -0.0000
vn 0.0000 0.0000 1.0000
vn 0.0000 0.0000 -1.0000
usemtl m_0
s 1
f 137/177/52 138/178/52 139/179/52
f 138/178/52 140/180/52 139/179/52
f 141/181/53 142/182/53 143/183/53
f 142/182/53 144/184/53 143/183/53
f 141/185/54 143/186/54 139/187/54
f 143/186/54 137/188/54 139/187/54
f 144/189/55 142/182/55 138/190/55
f 142/182/55 140/180/55 138/190/55
f 143/191/56 144/192/56 137/193/56
f 144/192/56 138/194/56 137/193/56
f 139/195/57 140/196/57 141/197/57
f 140/196/57 142/198/57 141/197/57
o top.000
v 0.312500 0.871937 0.312500
v 0.312500 0.871937 0.687500
v 0.687500 0.871937 0.312500
v 0.687500 0.871937 0.687500
vt 0.656250 0.656250
vt 0.656250 0.468750
vt 0.843750 0.656250
vt 0.843750 0.468750
vn 0.0000 1.0000 0.0000
usemtl m_0
s 1
f 145/199/58 146/200/58 147/201/58
f 146/200/58 148/202/58 147/201/58
o top.001
v 0.562500 0.903125 0.562500
v 0.562500 0.871875 0.562500
v 0.562500 0.903125 0.437500
v 0.562500 0.871875 0.437500
v 0.437500 0.903125 0.437500
v 0.437500 0.871875 0.437500
v 0.437500 0.903125 0.562500
v 0.437500 0.871875 0.562500
vt 0.843750 0.609375
vt 0.843750 0.593750
vt 0.906250 0.609375
vt 0.906250 0.593750
vt 0.843750 0.609375
vt 0.843750 0.593750
vt 0.906250 0.609375
vt 0.906250 0.593750
vt 0.718750 0.593750
vt 0.718750 0.531250
vt 0.781250 0.593750
vt 0.781250 0.531250
vt 0.843750 0.609375
vt 0.843750 0.593750
vt 0.906250 0.609375
vt 0.906250 0.593750
vt 0.843750 0.609375
vt 0.843750 0.593750
vt 0.906250 0.609375
vt 0.906250 0.593750
vn 1.0000 0.0000 0.0000
vn -1.0000 0.0000 0.0000
vn 0.0000 1.0000 0.0000
vn 0.0000 0.0000 1.0000
vn 0.0000 0.0000 -1.0000
usemtl m_0
s 1
f 149/203/59 150/204/59 151/205/59
f 150/204/59 152/206/59 151/205/59
f 153/207/60 154/208/60 155/209/60
f 154/208/60 156/210/60 155/209/60
f 153/211/61 155/212/61 151/213/61
f 155/212/61 149/214/61 151/213/61
f 155/215/62 156/216/62 149/217/62
f 156/216/62 150/218/62 149/217/62
f 151/219/63 152/220/63 153/221/63
f 152/220/63 154/222/63 153/221/63
o top.002
v 0.531250 0.965625 0.531250
v 0.531250 0.903125 0.531250
v 0.531250 0.965625 0.468750
v 0.531250 0.903125 0.468750
v 0.468750 0.965625 0.468750
v 0.468750 0.903125 0.468750
v 0.468750 0.965625 0.531250
v 0.468750 0.903125 0.531250
vt 0.843750 0.640625
vt 0.843750 0.609375
vt 0.875000 0.640625
vt 0.875000 0.609375
vt 0.843750 0.640625
vt 0.843750 0.609375
vt 0.875000 0.640625
vt 0.875000 0.609375
vt 0.843750 0.640625
vt 0.843750 0.609375
vt 0.875000 0.640625
vt 0.875000 0.609375
vt 0.843750 0.640625
vt 0.843750 0.609375
vt 0.875000 0.640625
vt 0.875000 0.609375
vn 1.0000 0.0000 0.0000
vn -1.0000 0.0000 0.0000
vn 0.0000 -0.0000 1.0000
vn 0.0000 0.0000 -1.0000
usemtl m_0
s 1
f 157/223/64 158/224/64 159/225/64
f 158/224/64 160/226/64 159/225/64
f 161/227/65 162/228/65 163/229/65
f 162/228/65 164/230/65 163/229/65
f 163/231/66 164/232/66 157/233/66
f 164/232/66 158/234/66 157/233/66
f 159/235/67 160/236/67 161/237/67
f 160/236/67 162/238/67 161/237/67
o top.003
v 0.546875 0.996875 0.546875
v 0.546875 0.965625 0.546875
v 0.546875 0.996875 0.453125
v 0.546875 0.965625 0.453125
v 0.453125 0.996875 0.453125
v 0.453125 0.965625 0.453125
v 0.453125 0.996875 0.546875
v 0.453125 0.965625 0.546875
vt 0.843750 0.656250
vt 0.843750 0.640625
vt 0.890625 0.656250
vt 0.890625 0.640625
vt 0.843750 0.656250
vt 0.843750 0.640625
vt 0.890625 0.656250
vt 0.890625 0.640625
vt 0.726562 0.585938
vt 0.726562 0.539062
vt 0.773438 0.585938
vt 0.773438 0.539062
vt 0.796875 0.875000
vt 0.796875 0.812500
vt 0.859375 0.875000
vt 0.859375 0.812500
vt 0.843750 0.656250
vt 0.843750 0.640625
vt 0.890625 0.656250
vt 0.890625 0.640625
vt 0.843750 0.656250
vt 0.843750 0.640625
vt 0.890625 0.656250
vt 0.890625 0.640625
vn 1.0000 0.0000 0.0000
vn -1.0000 0.0000 0.0000
vn 0.0000 1.0000 0.0000
vn 0.0000 -1.0000 0.0000
vn 0.0000 0.0000 1.0000
vn 0.0000 0.0000 -1.0000
usemtl m_0
s 1
f 165/239/68 166/240/68 167/241/68
f 166/240/68 168/242/68 167/241/68
f 169/243/69 170/244/69 171/245/69
f 170/244/69 172/246/69 171/245/69
f 169/247/70 171/248/70 167/249/70
f 171/248/70 165/250/70 167/249/70
f 172/251/71 170/252/71 166/253/71
f 170/252/71 168/254/71 166/253/71
f 171/255/72 172/256/72 165/257/72
f 172/256/72 166/258/72 165/257/72
f 167/259/73 168/260/73 169/261/73
f 168/260/73 170/262/73 169/261/73
o top.004
v 0.853598 1.120117 0.853509
v 0.853598 0.625000 0.853509
v 0.146491 1.120117 0.146403
v 0.146491 0.625000 0.146403
v 0.146447 1.120117 0.146447
v 0.146447 0.625000 0.146447
v 0.853553 1.120117 0.853554
v 0.853553 0.625000 0.853554
vt 0.000000 0.687500
vt 0.000000 0.437500
vt 0.500000 0.687500
vt 0.500000 0.437500
vt 0.000000 0.687500
vt 0.000000 0.437500
vt 0.500000 0.687500
vt 0.500000 0.437500
vn 0.7071 0.0000 -0.7071
vn -0.7071 -0.0000 0.7071
usemtl m_0
s 1
f 173/263/74 174/264/74 175/265/74
f 174/264/74 176/266/74 175/265/74
f 177/267/75 178/268/75 179/269/75
f 178/268/75 180/270/75 179/269/75
o top.005
v 0.146491 1.120117 0.853598
v 0.146491 0.625000 0.853598
v 0.853598 1.120117 0.146491
v 0.853598 0.625000 0.146491
v 0.853553 1.120117 0.146447
v 0.853553 0.625000 0.146447
v 0.146447 1.120117 0.853554
v 0.146447 0.625000 0.853554
vt 0.000000 0.687500
vt 0.000000 0.437500
vt 0.500000 0.687500
vt 0.500000 0.437500
vt 0.000000 0.687500
vt 0.000000 0.437500
vt 0.500000 0.687500
vt 0.500000 0.437500
vn 0.7071 -0.0000 0.7071
vn -0.7071 0.0000 -0.7071
usemtl m_0
s 1
f 181/271/76 182/272/76 183/273/76
f 182/272/76 184/274/76 183/273/76
f 185/275/77 186/276/77 187/277/77
f 186/276/77 188/278/77 187/277/77
