# Blender v2.91.2 OBJ File: ''
# www.blender.org
mtllib smooth_segmental_arch_3.mtl
o cube.006
v 0.030247 1.403790 1.003329
v 0.088746 1.391622 1.003329
v 0.088746 1.391622 -0.004519
v 0.030247 1.403790 -0.004519
v 0.787304 1.139414 1.003329
v 1.056563 0.980808 1.003329
v 0.787304 1.139414 -0.004519
v 1.056563 0.980808 -0.004519
v 1.105952 0.947180 1.003329
v 1.352206 0.754786 1.003329
v 1.105952 0.947180 -0.004519
v 1.352206 0.754786 -0.004519
v 1.070979 0.394833 1.003329
v 1.070979 0.394833 -0.004519
v 0.446290 1.288411 1.003329
v 0.733948 1.166307 1.003329
v 0.446290 1.288411 -0.004519
v 0.733948 1.166308 -0.004519
v 0.389880 1.308110 1.003329
v 0.389880 1.308110 -0.004519
v -0.033325 0.951448 1.003329
v -0.033325 0.951448 -0.004519
v 0.555467 0.745833 -0.004519
v 0.824726 0.587227 -0.004519
v 0.555467 0.745833 1.003329
v 0.824726 0.587227 1.003329
v 0.824726 0.587227 -0.004519
v 0.824726 0.587227 1.003329
v 0.267809 0.867936 -0.004519
v 0.555467 0.745833 -0.004519
v 0.267809 0.867936 1.003329
v 0.555467 0.745833 1.003329
v -0.033325 0.951448 -0.004519
v 0.267809 0.867936 -0.004519
v -0.033325 0.951448 1.003329
v 0.267809 0.867936 1.003329
vt 0.999977 0.000023
vt 0.999977 0.053098
vt 0.000023 0.053098
vt 0.000023 0.000024
vt 0.000000 1.000000
vt 0.000000 0.843750
vt 1.000000 1.000000
vt 1.000000 0.843750
vt 0.000000 1.000000
vt 0.000000 0.843750
vt 1.000000 1.000000
vt 1.000000 0.843750
vt -0.003313 0.003312
vt 0.996688 0.003312
vt -0.003312 0.496688
vt 0.996688 0.496687
vt 0.000000 1.000000
vt 0.000000 0.843750
vt 1.000000 1.000000
vt 1.000000 0.843750
vt 0.000000 1.000000
vt 0.000000 0.843750
vt 1.000000 1.000000
vt 1.000000 0.843750
vt -0.003313 0.503312
vt 0.996688 0.503312
vt -0.003312 0.996688
vt 0.996688 0.996687
vt 0.000023 0.000023
vt 0.053098 0.000023
vt 0.053098 0.999977
vt 0.000023 0.000023
vt 0.053098 0.000023
vt 0.053098 0.999977
vt 0.000023 0.000024
vt 0.999977 0.000023
vt 0.999977 0.053098
vt 0.000023 0.053098
vt 0.000000 0.625000
vt 0.000000 0.312500
vt 1.000000 0.625000
vt 1.000000 0.312500
vt 0.000000 0.312500
vt 0.000000 0.000000
vt 1.000000 0.312500
vt 1.000000 0.000000
vt 0.000000 0.937500
vt 0.000000 0.625000
vt 1.000000 0.937500
vt 1.000000 0.625000
vt 0.000000 0.312500
vt 0.000000 0.000000
vt 1.000000 0.312500
vt 1.000000 0.000000
vt 0.437500 0.531250
vt 0.437500 0.218750
vt 0.000000 0.531250
vt 0.000000 0.218750
vt 0.000000 0.531250
vt 0.000000 0.218750
vt 0.437500 0.531250
vt 0.437500 0.218750
vt 0.437500 0.312500
vt 0.437500 0.000000
vt 0.000000 0.312500
vt 0.000000 0.000000
vt 0.000000 0.312500
vt 0.000000 0.000000
vt 0.437500 0.312500
vt 0.437500 0.000000
vt 0.437500 0.781250
vt 0.437500 0.468750
vt 0.000000 0.781250
vt 0.000000 0.468750
vt 0.000000 0.781250
vt 0.000000 0.468750
vt 0.437500 0.781250
vt 0.437500 0.468750
vt 0.437500 1.000000
vt 0.437500 0.687500
vt 0.000000 0.687500
vt 0.000000 1.000000
vt 0.000000 0.687500
vt 0.437500 1.000000
vt 0.437500 0.687500
vt 0.437815 0.953027
vt -0.000438 0.925744
vt -0.000266 0.982926
vt 0.437815 0.796776
vt -0.000266 0.826676
vt -0.000438 0.769494
vt 0.437439 0.515495
vt 0.000000 0.544216
vt 0.000000 0.486772
vt 0.000000 0.205522
vt 0.437439 0.234243
vt 0.000000 0.262966
vt 0.437815 0.265527
vt -0.000266 0.295426
vt -0.000438 0.238244
vt 0.000000 0.518022
vt 0.437439 0.546744
vt 0.000000 0.575466
vt -0.000438 0.738244
vt 0.437815 0.765526
vt -0.000266 0.795426
vt 0.000000 0.924272
vt 0.437439 0.952994
vt 0.000000 0.981716
vn 0.2036 0.9790 0.0000
vn 0.4791 0.8778 0.0000
vn 0.5355 0.8446 0.0000
vn 0.5895 0.8077 0.0000
vn 0.6157 0.7880 0.0000
vn 0.7880 -0.6157 -0.0000
vn 0.3604 0.9328 0.0000
vn 0.4206 0.9072 0.0000
vn 0.2672 0.9636 0.0000
vn 0.2986 0.9544 0.0000
vn 0.9903 -0.1392 -0.0000
vn -0.5075 -0.8616 -0.0000
vn -0.6157 -0.7880 -0.0000
vn -0.3907 -0.9205 -0.0000
vn -0.2672 -0.9636 -0.0000
vn 0.0000 -0.0000 1.0000
vn 0.0000 0.0000 -1.0000
usemtl 0.005
s off
f 1/1/1 2/2/1 3/3/1 4/4/1
s 1
f 5/5/2 6/6/3 7/7/2
f 6/6/3 8/8/3 7/7/2
f 9/9/4 10/10/5 11/11/4
f 10/10/5 12/12/5 11/11/4
f 13/13/6 14/14/6 10/15/6
f 14/14/6 12/16/6 10/15/6
f 15/17/7 16/18/8 17/19/7
f 16/18/8 18/20/8 17/19/7
f 2/21/9 19/22/10 3/23/9
f 19/22/10 20/24/10 3/23/9
f 21/25/11 22/26/11 1/27/11
f 22/26/11 4/28/11 1/27/11
f 17/29/7 20/30/10 19/31/10 15/17/7
f 7/32/2 18/33/8 16/34/8 5/5/2
f 8/35/3 6/36/3 9/37/4 11/38/4
f 23/39/12 24/40/12 25/41/12
f 24/40/12 26/42/12 25/41/12
f 27/43/13 14/44/13 28/45/13
f 14/44/13 13/46/13 28/45/13
f 29/47/14 30/48/14 31/49/14
f 30/48/14 32/50/14 31/49/14
f 33/51/15 34/52/15 35/53/15
f 34/52/15 36/54/15 35/53/15
f 25/55/16 26/56/16 5/57/16
f 26/56/16 6/58/16 5/57/16
f 7/59/17 8/60/17 23/61/17
f 8/60/17 24/62/17 23/61/17
f 28/63/16 13/64/16 9/65/16
f 13/64/16 10/66/16 9/65/16
f 11/67/17 12/68/17 27/69/17
f 12/68/17 14/70/17 27/69/17
f 31/71/16 32/72/16 15/73/16
f 32/72/16 16/74/16 15/73/16
f 17/75/17 18/76/17 29/77/17
f 18/76/17 30/78/17 29/77/17
f 35/79/16 36/80/16 2/21/16
f 36/80/16 19/81/16 2/21/16
f 3/82/17 20/83/17 33/84/17
f 20/83/17 34/85/17 33/84/17
f 21/86/16 2/87/16 1/88/16
f 36/89/16 15/90/16 19/91/16
f 32/92/16 5/93/16 16/94/16
f 6/95/16 28/96/16 9/97/16
f 27/98/17 8/99/17 11/100/17
f 7/101/17 30/102/17 18/103/17
f 17/104/17 34/105/17 20/106/17
f 3/107/17 22/108/17 4/109/17
