# Blender v2.91.2 OBJ File: ''
# www.blender.org
mtllib smooth_gothic_arch_1.mtl
o cube.064
v 0.008700 0.295068 1.011174
v 0.008700 -0.002083 1.011174
v 0.008700 0.295068 -0.005938
v 0.008700 -0.002082 -0.005938
v 0.123947 0.649761 1.011174
v 0.047684 0.478471 1.011174
v 0.123947 0.649761 -0.005938
v 0.047684 0.478471 -0.005938
v 0.234157 0.801451 1.011174
v 0.123947 0.649761 1.011174
v 0.234157 0.801452 -0.005938
v 0.123947 0.649761 -0.005938
v 0.373496 0.926913 1.011174
v 0.234157 0.801451 1.011174
v 0.373496 0.926913 -0.005938
v 0.234157 0.801452 -0.005938
v 0.520442 1.011752 1.011174
v 0.373496 0.926913 1.011174
v 0.520442 1.011752 -0.006600
v 0.373496 0.926913 -0.006600
v 0.479136 1.011997 -0.007923
v 0.626504 0.926913 -0.007923
v 0.479136 1.011996 1.009189
v 0.626504 0.926913 1.009189
v 0.626504 0.926913 -0.007923
v 0.765843 0.801452 -0.007923
v 0.626504 0.926913 1.009189
v 0.765843 0.801451 1.009189
v 0.991300 0.295068 -0.007923
v 0.991300 -0.002082 -0.007923
v 0.991300 0.295068 1.009189
v 0.991300 -0.002083 1.009188
v 0.952316 0.478471 -0.007923
v 0.991300 0.295068 -0.007923
v 0.952316 0.478471 1.009189
v 0.991300 0.295068 1.009189
v 0.876053 0.649761 -0.007923
v 0.952316 0.478471 -0.007923
v 0.876053 0.649761 1.009189
v 0.952316 0.478471 1.009189
v 0.765843 0.801452 -0.007923
v 0.876053 0.649761 -0.007923
v 0.765843 0.801451 1.009189
v 0.876053 0.649761 1.009189
v 0.047684 0.478471 1.011174
v 0.008700 0.295068 1.011174
v 0.047684 0.478471 -0.005938
v 0.008700 0.295068 -0.005938
v -0.314298 0.295068 -0.005938
v -0.314298 -0.002082 -0.005938
v -0.314298 0.295068 1.011174
v -0.314298 -0.002083 1.011174
v -0.171126 0.781136 -0.005938
v -0.247390 0.609846 -0.005938
v -0.171126 0.781136 1.011174
v -0.247390 0.609846 1.011174
v -0.027154 0.991305 -0.005938
v -0.137364 0.839614 -0.005938
v -0.027154 0.991305 1.011174
v -0.137364 0.839614 1.011174
v 0.157368 1.166948 -0.005938
v 0.018029 1.041486 -0.005938
v 0.157368 1.166948 1.011174
v 0.018029 1.041486 1.011174
v 0.358943 1.291477 -0.006600
v 0.211997 1.206638 -0.006600
v 0.358943 1.291477 1.011174
v 0.211997 1.206638 1.011174
v 0.640635 1.291721 1.009189
v 0.788003 1.206638 1.009189
v 0.640635 1.291721 -0.007923
v 0.788003 1.206638 -0.007923
v 0.842632 1.166948 1.009189
v 0.981971 1.041486 1.009189
v 0.842632 1.166948 -0.007923
v 0.981971 1.041486 -0.007923
v 1.314298 0.295068 1.009189
v 1.314298 -0.002083 1.009188
v 1.314298 0.295068 -0.007923
v 1.314298 -0.002082 -0.007923
v 1.268256 0.545626 1.009189
v 1.307239 0.362223 1.009189
v 1.268256 0.545626 -0.007923
v 1.307239 0.362223 -0.007923
v 1.171126 0.781136 1.009189
v 1.247390 0.609846 1.009189
v 1.171126 0.781136 -0.007923
v 1.247390 0.609846 -0.007923
v 1.027154 0.991305 1.009189
v 1.137364 0.839614 1.009189
v 1.027154 0.991305 -0.007923
v 1.137364 0.839614 -0.007923
v -0.268256 0.545626 -0.005938
v -0.307239 0.362223 -0.005938
v -0.268256 0.545626 1.011174
v -0.307239 0.362223 1.011174
vt 1.000000 0.283221
vt 1.000000 0.000000
vt 0.000000 0.283221
vt 0.000000 0.000000
vt 1.000000 0.656250
vt 1.000000 0.468750
vt 0.000000 0.656250
vt 0.000000 0.468750
vt 1.000000 0.875000
vt 1.000000 0.687500
vt 0.000000 0.875000
vt 0.000000 0.687500
vt 1.000000 1.000000
vt 1.000000 0.812500
vt 0.000000 1.000000
vt 0.000000 0.812500
vt 1.000000 0.187500
vt 1.000000 0.000000
vt 0.000000 0.187500
vt 0.000000 0.000000
vt 0.000000 0.187500
vt 0.000000 0.000000
vt 1.000000 0.187500
vt 1.000000 0.000000
vt 0.000000 1.000000
vt 0.000000 0.812500
vt 1.000000 1.000000
vt 1.000000 0.812500
vt 0.000000 0.283221
vt 0.000000 0.000000
vt 1.000000 0.283221
vt 1.000000 0.000000
vt 0.000000 0.468750
vt 0.000000 0.281250
vt 1.000000 0.468750
vt 1.000000 0.281250
vt 0.000000 0.656250
vt 0.000000 0.468750
vt 1.000000 0.656250
vt 1.000000 0.468750
vt 0.000000 0.843750
vt 0.000000 0.656250
vt 1.000000 0.843750
vt 1.000000 0.656250
vt 1.000000 0.472656
vt 1.000000 0.285156
vt 0.000000 0.472656
vt 0.000000 0.285156
vt -0.001235 0.250000
vt -0.001235 -0.006892
vt 0.998764 0.250000
vt 0.998764 -0.006892
vt 0.993375 0.000000
vt 0.993375 1.000000
vt 0.500000 0.000000
vt 0.500000 1.000000
vt -0.001235 0.689453
vt -0.001235 0.533203
vt 0.998764 0.689453
vt 0.998764 0.533203
vt -0.001235 0.939453
vt -0.001235 0.783203
vt 0.998764 0.939453
vt 0.998764 0.783203
vt -0.001235 0.156250
vt -0.001235 0.000000
vt 0.998764 0.156250
vt 0.998764 0.000000
vt -0.001235 0.375000
vt -0.001235 0.218750
vt 0.998764 0.375000
vt 0.998764 0.218750
vt 0.998764 0.375000
vt 0.998764 0.218750
vt -0.001235 0.375000
vt -0.001235 0.218750
vt 0.998764 0.156250
vt 0.998764 0.000000
vt -0.001235 0.156250
vt -0.001235 0.000000
vt 0.998764 0.250000
vt 0.998764 -0.006892
vt -0.001235 0.250000
vt -0.001235 -0.006892
vt 0.500000 0.000000
vt 0.500000 1.000000
vt 0.993375 0.000000
vt 0.993375 1.000000
vt 0.998764 0.468750
vt 0.998764 0.312500
vt -0.001235 0.468750
vt -0.001235 0.312500
vt 0.998764 0.687500
vt 0.998764 0.531250
vt -0.001235 0.687500
vt -0.001235 0.531250
vt 0.998764 0.906250
vt 0.998764 0.750000
vt -0.001235 0.906250
vt -0.001235 0.750000
vt -0.001235 0.464844
vt -0.001235 0.308594
vt 0.998764 0.464844
vt 0.998764 0.308594
vt 0.000049 0.251260
vt 0.000049 0.311240
vt 1.000000 0.311239
vt 0.999999 0.251259
vt 0.000049 0.470010
vt 0.000049 0.529990
vt 1.000000 0.529989
vt 1.000000 0.470009
vt 0.999999 0.748740
vt 1.000000 0.688759
vt 0.000049 0.688760
vt 0.000024 0.748765
vt -0.001211 0.966255
vt 0.998740 0.966255
vt 0.998739 0.906274
vt -0.001211 0.906275
vt -0.001211 0.216255
vt 0.998740 0.216255
vt 0.998740 0.156274
vt -0.001211 0.156275
vt 1.000000 0.249306
vt 1.000000 0.309287
vt 0.000049 0.309286
vt 0.000050 0.249306
vt 1.000000 0.526083
vt 0.000049 0.526084
vt 0.000050 0.466103
vt 1.000000 0.466103
vt 0.999999 0.750694
vt 1.000000 0.690713
vt 0.000049 0.690713
vt 0.000049 0.750693
vt 0.998739 0.937524
vt 0.998740 0.997505
vt -0.001211 0.997505
vt -0.001211 0.937525
vt 0.999999 0.159502
vt 1.000000 0.219444
vt 0.000049 0.219444
vt 0.000699 0.159503
vt 0.997509 0.750197
vt -0.001092 0.750197
vt 0.000856 0.999915
vt 0.998808 0.999914
vt 0.031250 0.281250
vt 0.031250 0.004181
vt 0.343750 0.281250
vt 0.343750 0.004181
vt 0.343750 0.468750
vt 0.343750 0.184299
vt 0.031250 0.468750
vt 0.031250 0.184299
vt 0.031250 0.623047
vt 0.031250 0.435547
vt 0.343750 0.623047
vt 0.343750 0.435547
vt 0.343750 0.468750
vt 0.343750 0.281250
vt 0.031250 0.468750
vt 0.031250 0.281250
vt 0.031250 0.810547
vt 0.031250 0.623047
vt 0.343750 0.810547
vt 0.343750 0.623047
vt 0.343750 0.281250
vt 0.343750 0.093750
vt 0.031250 0.281250
vt 0.031250 0.093750
vt 0.031250 1.000000
vt 0.031250 0.812500
vt 0.343750 1.000000
vt 0.343750 0.812500
vt 0.343750 0.468750
vt 0.343750 0.281250
vt 0.031250 0.468750
vt 0.031250 0.281250
vt 0.031250 0.845703
vt 0.031250 0.658203
vt 0.343750 0.845703
vt 0.343750 0.658203
vt 0.343750 0.875000
vt 0.343750 0.687500
vt 0.031250 0.875000
vt 0.031250 0.687500
vt 0.343750 0.970703
vt 0.343750 0.783203
vt 0.031250 0.970703
vt 0.031250 0.783203
vt 0.031250 0.687500
vt 0.031250 0.500000
vt 0.343750 0.687500
vt 0.343750 0.500000
vt 0.343750 1.001953
vt 0.343750 0.814453
vt 0.031250 1.001953
vt 0.031250 0.814453
vt 0.031250 0.468750
vt 0.031250 0.281250
vt 0.343750 0.468750
vt 0.343750 0.281250
vt 0.343750 0.281250
vt 0.343750 0.004181
vt 0.031250 0.281250
vt 0.031250 0.004181
vt 0.031250 0.468750
vt 0.031250 0.184299
vt 0.343750 0.468750
vt 0.343750 0.184299
vt 0.343750 0.468750
vt 0.343750 0.281250
vt 0.031250 0.468750
vt 0.031250 0.281250
vt 0.031250 0.281250
vt 0.031250 0.093750
vt 0.343750 0.281250
vt 0.343750 0.093750
vt 0.343750 0.580078
vt 0.343750 0.392578
vt 0.031250 0.580078
vt 0.031250 0.392578
vt 0.031250 0.468750
vt 0.031250 0.281250
vt 0.343750 0.468750
vt 0.343750 0.281250
vt 0.343750 0.767578
vt 0.343750 0.580078
vt 0.031250 0.767578
vt 0.031250 0.580078
vt 0.031250 0.281250
vt 0.031250 0.093750
vt 0.343750 0.281250
vt 0.343750 0.093750
vt 0.031250 0.468750
vt 0.031250 0.281250
vt 0.343750 0.468750
vt 0.343750 0.281250
vt 0.343750 0.281250
vt 0.343750 0.093750
vt 0.031250 0.281250
vt 0.031250 0.093750
vt 0.031214 0.421593
vt 0.342035 0.454262
vt 0.031214 0.486930
vt 0.031214 0.421593
vt 0.342035 0.454262
vt 0.031214 0.486930
vt 0.030939 0.421224
vt 0.031087 0.355391
vt 0.344191 0.389012
vt 0.031214 0.421593
vt 0.342035 0.454262
vt 0.031214 0.486930
vt 0.031891 0.171817
vt 0.334079 0.203578
vt 0.031891 0.235339
vt 0.031247 0.320703
vt 0.341768 0.454337
vt 0.031247 0.633255
vt 0.338181 0.203875
vt 0.031898 0.236073
vt 0.031898 0.171686
vt 0.342035 0.454262
vt 0.031214 0.486930
vt 0.031214 0.421593
vt 0.342035 0.454262
vt 0.031214 0.486930
vt 0.031214 0.421594
vt 0.334131 0.449591
vt 0.032360 0.483267
vt 0.031953 0.419789
vt 0.344191 0.389012
vt 0.030939 0.421224
vt 0.031087 0.355391
vt 0.031214 0.251671
vt 0.342035 0.284340
vt 0.031214 0.317008
vt 0.031711 0.590365
vt 0.031642 0.276712
vt 0.342971 0.410214
vt 0.031214 0.775993
vt 0.031214 0.710655
vt 0.342035 0.743324
vt 0.032360 0.782095
vt 0.031953 0.718617
vt 0.334131 0.748419
vt 0.031953 0.718617
vt 0.334131 0.748419
vt 0.032360 0.782095
vt 0.031563 0.418245
vt 0.343696 0.452202
vt 0.031324 0.483884
vt 0.031953 0.419789
vt 0.334131 0.449591
vt 0.032360 0.483267
vt 0.031324 0.704587
vt 0.031563 0.638948
vt 0.343696 0.672905
vt 0.031214 0.828727
vt 0.031214 0.763390
vt 0.342035 0.796059
vt 0.031324 0.825681
vt 0.031563 0.760042
vt 0.343696 0.794000
vt 0.031953 0.419789
vt 0.334131 0.449591
vt 0.032360 0.483267
vn 1.0000 0.0000 0.0000
vn 0.9135 -0.4067 -0.0000
vn 0.8090 -0.5878 -0.0000
vn 0.6691 -0.7431 -0.0000
vn 0.5000 -0.8660 -0.0000
vn -0.5000 -0.8660 -0.0000
vn -0.6691 -0.7431 -0.0000
vn -1.0000 0.0000 0.0000
vn -0.9781 -0.2079 -0.0000
vn -0.9135 -0.4067 -0.0000
vn -0.8090 -0.5878 -0.0000
vn 0.9781 -0.2079 -0.0000
vn -0.9986 0.0523 0.0000
vn 0.0000 -1.0000 -0.0000
vn -0.8910 0.4540 0.0000
vn -0.9336 0.3584 0.0000
vn -0.7771 0.6293 0.0000
vn -0.8387 0.5446 0.0000
vn -0.6292 0.7772 0.0000
vn -0.7071 0.7071 0.0000
vn -0.6293 0.7771 0.0000
vn -0.2589 0.9659 0.0000
vn -0.5445 0.8388 0.0000
vn -0.2598 0.9657 0.0000
vn -0.5446 0.8387 0.0000
vn 0.2578 0.9662 0.0000
vn 0.5446 0.8387 0.0000
vn 0.2588 0.9659 0.0000
vn 0.6293 0.7771 0.0000
vn 0.7071 0.7071 0.0000
vn 0.9986 0.0523 0.0000
vn 0.9659 0.2588 0.0000
vn 0.9877 0.1564 0.0000
vn 0.8910 0.4540 0.0000
vn 0.9336 0.3584 0.0000
vn 0.7771 0.6293 0.0000
vn 0.8387 0.5446 0.0000
vn -0.9659 0.2588 0.0000
vn -0.9877 0.1564 0.0000
vn 0.0000 0.0000 1.0000
vn 0.0000 0.0000 -1.0000
vn -0.0017 -0.0010 -1.0000
vn -0.0010 -0.0006 -1.0000
vn -0.0019 -0.0011 -1.0000
vn -0.0041 -0.0024 -1.0000
vn 0.0026 -0.0015 1.0000
vn 0.0028 -0.0016 1.0000
vn -0.0047 -0.0027 -1.0000
vn -0.0085 -0.0049 -1.0000
vn 0.0071 -0.0041 1.0000
usemtl Material.001
s 1
f 1/1/1 2/2/1 3/3/1
f 2/2/1 4/4/1 3/3/1
f 5/5/2 6/6/2 7/7/2
f 6/6/2 8/8/2 7/7/2
f 9/9/3 10/10/3 11/11/3
f 10/10/3 12/12/3 11/11/3
f 13/13/4 14/14/4 15/15/4
f 14/14/4 16/16/4 15/15/4
f 17/17/5 18/18/5 19/19/5
f 18/18/5 20/20/5 19/19/5
f 21/21/6 22/22/6 23/23/6
f 22/22/6 24/24/6 23/23/6
f 25/25/7 26/26/7 27/27/7
f 26/26/7 28/28/7 27/27/7
f 29/29/8 30/30/8 31/31/8
f 30/30/8 32/32/8 31/31/8
f 33/33/9 34/34/9 35/35/9
f 34/34/9 36/36/9 35/35/9
f 37/37/10 38/38/10 39/39/10
f 38/38/10 40/40/10 39/39/10
f 41/41/11 42/42/11 43/43/11
f 42/42/11 44/44/11 43/43/11
f 45/45/12 46/46/12 47/47/12
f 46/46/12 48/48/12 47/47/12
f 49/49/13 50/50/8 51/51/13
f 50/50/8 52/52/8 51/51/13
f 52/53/14 50/54/14 2/55/14
f 50/54/14 4/56/14 2/55/14
f 53/57/15 54/58/16 55/59/15
f 54/58/16 56/60/16 55/59/15
f 57/61/17 58/62/18 59/63/17
f 58/62/18 60/64/18 59/63/17
f 61/65/19 62/66/20 63/67/21
f 62/66/20 64/68/20 63/67/21
f 65/69/22 66/70/23 67/71/24
f 66/70/23 68/72/25 67/71/24
f 69/73/26 70/74/27 71/75/28
f 70/74/27 72/76/27 71/75/28
f 73/77/29 74/78/30 75/79/29
f 74/78/30 76/80/30 75/79/29
f 77/81/31 78/82/1 79/83/31
f 78/82/1 80/84/1 79/83/31
f 32/85/14 30/86/14 78/87/14
f 30/86/14 80/88/14 78/87/14
f 81/89/32 82/90/33 83/91/32
f 82/90/33 84/92/33 83/91/32
f 85/93/34 86/94/35 87/95/34
f 86/94/35 88/96/35 87/95/34
f 89/97/36 90/98/37 91/99/36
f 90/98/37 92/100/37 91/99/36
f 93/101/38 94/102/39 95/103/38
f 94/102/39 96/104/39 95/103/38
f 79/105/31 84/106/33 82/107/33 77/108/31
f 83/109/32 88/110/35 86/111/35 81/112/32
f 87/113/34 92/114/37 90/115/37 85/116/34
f 76/117/30 74/118/30 89/119/36 91/120/36
f 72/121/27 70/122/27 73/123/29 75/124/29
f 51/125/13 96/126/39 94/127/39 49/128/13
f 56/129/16 54/130/16 93/131/38 95/132/38
f 55/133/15 60/134/18 58/135/18 53/136/15
f 59/137/17 64/138/20 62/139/20 57/140/17
f 63/141/21 68/142/25 66/143/23 61/144/19
f 65/145/22 67/146/24 69/147/26 71/148/28
f 51/149/40 52/150/40 1/151/40
f 52/150/40 2/152/40 1/151/40
f 3/153/41 4/154/41 49/155/41
f 4/154/41 50/156/41 49/155/41
f 55/157/40 56/158/40 5/159/40
f 56/158/40 6/160/40 5/159/40
f 7/161/41 8/162/41 53/163/41
f 8/162/41 54/164/41 53/163/41
f 59/165/40 60/166/40 9/167/40
f 60/166/40 10/168/40 9/167/40
f 11/169/41 12/170/41 57/171/41
f 12/170/41 58/172/41 57/171/41
f 63/173/40 64/174/40 13/175/40
f 64/174/40 14/176/40 13/175/40
f 15/177/41 16/178/41 61/179/41
f 16/178/41 62/180/41 61/179/41
f 67/181/40 68/182/40 17/183/40
f 68/182/40 18/184/40 17/183/40
f 19/185/42 20/186/43 65/187/44
f 20/186/43 66/188/45 65/187/44
f 23/189/46 24/190/40 69/191/47
f 24/190/40 70/192/40 69/191/47
f 71/193/41 72/194/41 21/195/41
f 72/194/41 22/196/41 21/195/41
f 27/197/40 28/198/40 73/199/40
f 28/198/40 74/200/40 73/199/40
f 75/201/41 76/202/41 25/203/41
f 76/202/41 26/204/41 25/203/41
f 31/205/40 32/206/40 77/207/40
f 32/206/40 78/208/40 77/207/40
f 79/209/41 80/210/41 29/211/41
f 80/210/41 30/212/41 29/211/41
f 35/213/40 36/214/40 81/215/40
f 36/214/40 82/216/40 81/215/40
f 83/217/41 84/218/41 33/219/41
f 84/218/41 34/220/41 33/219/41
f 39/221/40 40/222/40 85/223/40
f 40/222/40 86/224/40 85/223/40
f 87/225/41 88/226/41 37/227/41
f 88/226/41 38/228/41 37/227/41
f 43/229/40 44/230/40 89/231/40
f 44/230/40 90/232/40 89/231/40
f 91/233/41 92/234/41 41/235/41
f 92/234/41 42/236/41 41/235/41
f 95/237/40 96/238/40 45/239/40
f 96/238/40 46/240/40 45/239/40
f 47/241/41 48/242/41 93/243/41
f 48/242/41 94/244/41 93/243/41
f 79/245/41 34/246/41 84/247/41
f 83/248/41 38/249/41 88/250/41
f 92/251/41 87/252/41 42/253/41
f 91/254/41 41/255/41 76/256/41
f 75/257/41 25/258/41 72/259/41
f 71/260/48 19/261/42 65/262/44
f 20/263/43 61/264/49 66/265/45
f 16/266/41 57/267/41 62/268/41
f 12/269/41 53/270/41 58/271/41
f 47/272/41 93/273/41 54/274/41
f 48/275/41 49/276/41 94/277/41
f 51/278/40 46/279/40 96/280/40
f 69/281/47 67/282/50 23/283/46
f 73/284/40 70/285/40 27/286/40
f 89/287/40 74/288/40 43/289/40
f 90/290/40 44/291/40 85/292/40
f 86/293/40 40/294/40 81/295/40
f 82/296/40 36/297/40 77/298/40
f 68/299/40 63/300/40 18/301/40
f 64/302/40 59/303/40 14/304/40
f 60/305/40 55/306/40 10/307/40
f 95/308/40 45/309/40 56/310/40
