# Blender v2.91.2 OBJ File: ''
# www.blender.org
mtllib smooth_segmental_arch_3_middle.mtl
o cube.004
v 0.720788 1.447281 1.003329
v 1.030247 1.403790 1.003329
v 0.720788 1.447282 -0.004519
v 1.030247 1.403790 -0.004519
v 0.966675 0.951448 1.003329
v 0.966675 0.951448 -0.004519
v 0.341542 1.451727 1.003329
v 0.657216 1.451727 1.003329
v 0.341542 1.451727 -0.004519
v 0.657216 1.451727 -0.004519
v 0.279212 1.447282 -0.004519
v -0.030247 1.403790 -0.004519
v 0.279212 1.447281 1.003329
v -0.030247 1.403790 1.003329
v 0.033325 0.951448 1.003329
v 0.033325 0.951448 -0.004519
v 0.341542 0.994940 -0.004519
v 0.657216 0.994940 -0.004519
v 0.341542 0.994940 1.003329
v 0.657216 0.994940 1.003329
v 0.657216 0.994940 -0.004519
v 0.657216 0.994940 1.003329
v 0.342784 0.994940 1.003329
v 0.342784 0.994940 -0.004519
vt 0.000000 0.314453
vt 0.000000 0.001953
vt 1.000000 0.314453
vt 1.000000 0.001953
vt -0.003312 0.003313
vt 0.996688 0.003312
vt -0.003312 0.496688
vt 0.996688 0.496687
vt 0.000000 0.660156
vt 0.000000 0.347656
vt 1.000000 0.660156
vt 1.000000 0.347656
vt 1.000000 1.003906
vt 1.000000 0.691406
vt 0.000000 1.003906
vt 0.000000 0.691406
vt -0.003312 0.996687
vt 0.996688 0.996687
vt -0.003312 0.503312
vt 0.996688 0.503312
vt 0.997054 0.284197
vt 0.997054 0.340804
vt -0.002898 0.340803
vt -0.002898 0.284197
vt 0.000024 0.656274
vt 0.999976 0.656274
vt 0.999976 0.711780
vt 0.000024 0.711779
vt 0.000000 0.656250
vt 0.000000 0.343750
vt 1.000000 0.656250
vt 1.000000 0.343750
vt 0.000000 0.968750
vt 0.000000 0.656250
vt 1.000000 0.968750
vt 1.000000 0.656250
vt 0.000000 0.343750
vt 0.000000 0.031250
vt 1.000000 0.343750
vt 1.000000 0.031250
vt 0.437500 1.000000
vt 0.437500 0.687500
vt 0.000000 1.000000
vt 0.000000 0.687500
vt 0.000000 0.312500
vt 0.000000 0.000000
vt 0.437500 0.312500
vt 0.437500 0.000000
vt 0.437500 0.656250
vt 0.437500 0.343750
vt 0.000000 0.656250
vt 0.000000 0.343750
vt 0.000000 0.656250
vt 0.000000 0.343750
vt 0.437500 0.656250
vt 0.437500 0.343750
vt 0.000000 0.312500
vt 0.000000 0.000000
vt 0.437500 0.312500
vt 0.437500 0.000000
vt 0.437500 1.000000
vt 0.437500 0.687500
vt 0.000000 1.000000
vt 0.000000 0.687500
vt 0.437440 0.297405
vt 0.000000 0.326892
vt 0.000067 0.266967
vt 0.437522 0.671229
vt 0.000165 0.701904
vt 0.000149 0.640790
vt 0.000149 0.297040
vt 0.437522 0.327479
vt 0.000165 0.358154
vt 0.000066 0.641979
vt 0.437440 0.672417
vt 0.000165 0.701904
vn 0.1045 0.9945 0.0000
vn 0.1392 0.9903 0.0000
vn 0.9903 -0.1392 -0.0000
vn -0.0356 0.9994 0.0000
vn 0.0349 0.9994 0.0000
vn -0.1052 0.9944 0.0000
vn -0.1392 0.9903 0.0000
vn -0.9903 -0.1392 -0.0000
vn 0.0000 -1.0000 -0.0000
vn -0.1392 -0.9903 -0.0000
vn 0.1392 -0.9903 -0.0000
vn -0.0000 -0.0000 1.0000
vn 0.0000 0.0000 -1.0000
usemtl 0.006
s 1
f 1/1/1 2/2/2 3/3/1
f 2/2/2 4/4/2 3/3/1
f 5/5/3 6/6/3 2/7/3
f 6/6/3 4/8/3 2/7/3
f 7/9/4 8/10/5 9/11/4
f 8/10/5 10/12/5 9/11/4
f 11/13/6 12/14/7 13/15/6
f 12/14/7 14/16/7 13/15/6
f 14/17/8 12/18/8 15/19/8
f 12/18/8 16/20/8 15/19/8
f 3/21/1 10/22/5 8/23/5 1/24/1
f 7/25/4 9/26/4 11/27/6 13/28/6
f 17/29/9 18/30/9 19/31/9
f 18/30/9 20/32/9 19/31/9
f 21/33/10 6/34/10 22/35/10
f 6/34/10 5/36/10 22/35/10
f 23/37/11 15/38/11 24/39/11
f 15/38/11 16/40/11 24/39/11
f 22/41/12 5/42/12 1/43/12
f 5/42/12 2/44/12 1/43/12
f 3/45/13 4/46/13 21/47/13
f 4/46/13 6/48/13 21/47/13
f 19/49/12 20/50/12 7/51/12
f 20/50/12 8/52/12 7/51/12
f 9/53/13 10/54/13 17/55/13
f 10/54/13 18/56/13 17/55/13
f 13/57/12 14/58/12 23/59/12
f 14/58/12 15/60/12 23/59/12
f 24/61/13 16/62/13 11/63/13
f 16/62/13 12/64/13 11/63/13
f 23/65/12 7/66/12 13/67/12
f 20/68/12 1/69/12 8/70/12
f 3/71/13 18/72/13 10/73/13
f 9/74/13 17/75/13 11/76/13
