# Blender v2.91.0 OBJ File: ''
# www.blender.org
mtllib thick_diagonal_oak_branch_67_45_stem.mtl
o halfbeam
v 0.755627 0.983765 0.486926
v 0.636899 0.720205 0.368199
v 0.531989 1.185252 0.263288
v 0.413261 0.921693 0.144561
v 0.266824 1.185252 0.528453
v 0.148096 0.921693 0.409726
v 0.490461 0.983765 0.752091
v 0.371734 0.720205 0.633364
vt 0.500000 0.687500
vt 0.500000 1.000000
vt 0.250000 0.687500
vt 0.250000 1.000000
vt 0.250000 1.000000
vt 0.250000 0.687500
vt 0.500000 1.000000
vt 0.500000 0.687500
vt 1.000000 0.031250
vt 1.000000 0.281250
vt 0.750000 0.031250
vt 0.750000 0.281250
vt 0.750000 0.218750
vt 0.750000 0.468750
vt 0.500000 0.218750
vt 0.500000 0.468750
vt 0.750000 1.000000
vt 0.750000 0.687500
vt 0.500000 1.000000
vt 0.500000 0.687500
vt 0.750000 0.687500
vt 0.750000 1.000000
vt 0.500000 0.687500
vt 0.500000 1.000000
vn 0.7071 0.0000 -0.7071
vn -0.7071 0.0000 0.7071
vn 0.3799 0.8434 0.3799
vn -0.3799 -0.8434 -0.3799
vn 0.5964 -0.5373 0.5964
vn -0.5964 0.5373 -0.5964
usemtl m_7_1
s 1
f 1/1/1 2/2/1 3/3/1
f 2/2/1 4/4/1 3/3/1
f 5/5/2 6/6/2 7/7/2
f 6/6/2 8/8/2 7/7/2
f 5/9/3 7/10/3 3/11/3
f 7/10/3 1/12/3 3/11/3
f 8/13/4 6/14/4 2/15/4
f 6/14/4 4/16/4 2/15/4
f 7/17/5 8/18/5 1/19/5
f 8/18/5 2/20/5 1/19/5
f 3/21/6 4/22/6 5/23/6
f 4/22/6 6/24/6 5/23/6
o halfbeam.000
v 0.637505 0.727865 0.370660
v 0.324064 0.032067 0.057220
v 0.413867 0.929353 0.147022
v 0.100426 0.233555 -0.166418
v 0.148702 0.929353 0.412188
v -0.164739 0.233555 0.098747
v 0.372340 0.727865 0.635825
v 0.058899 0.032067 0.322385
vt 0.500000 0.062500
vt 0.500000 0.875000
vt 0.250000 0.062500
vt 0.250000 0.875000
vt 0.250000 0.843750
vt 0.250000 0.018750
vt 0.500000 0.843750
vt 0.500000 0.018750
vt 0.750000 0.437500
vt 0.750000 0.687500
vt 0.500000 0.437500
vt 0.500000 0.687500
vt 0.750000 0.468750
vt 0.750000 0.218750
vt 1.000000 0.468750
vt 1.000000 0.218750
vt 1.000000 0.187500
vt 1.000000 1.000000
vt 0.750000 0.187500
vt 0.750000 1.000000
vt 1.000000 0.187500
vt 1.000000 1.000000
vt 0.750000 0.187500
vt 0.750000 1.000000
vn 0.7071 0.0000 -0.7071
vn -0.7071 -0.0000 0.7071
vn 0.3799 0.8434 0.3799
vn -0.3799 -0.8434 -0.3799
vn 0.5964 -0.5373 0.5964
vn -0.5964 0.5373 -0.5964
usemtl m_7_1
s 1
f 9/25/7 10/26/7 11/27/7
f 10/26/7 12/28/7 11/27/7
f 13/29/8 14/30/8 15/31/8
f 14/30/8 16/32/8 15/31/8
f 13/33/9 15/34/9 11/35/9
f 15/34/9 9/36/9 11/35/9
f 16/37/10 14/38/10 10/39/10
f 14/38/10 12/40/10 10/39/10
f 15/41/11 16/42/11 9/43/11
f 16/42/11 10/44/11 9/43/11
f 11/45/12 12/46/12 13/47/12
f 12/46/12 14/48/12 13/47/12
o halfbeam.001
v 0.181268 0.321008 -0.083851
v 0.324547 0.031625 0.059429
v 0.028541 0.169772 -0.236577
v 0.171821 -0.119611 -0.093297
v -0.234207 0.169772 0.026171
v -0.090927 -0.119611 0.169451
v -0.081480 0.321008 0.178898
v 0.061799 0.031625 0.322177
vt 0.250000 0.875000
vt 0.250000 0.646729
vt 0.490234 0.875000
vt 0.490234 0.646729
vt 0.490234 0.615479
vt 0.490234 0.843750
vt 0.250000 0.615479
vt 0.250000 0.843750
vt 0.750000 1.000000
vt 0.750000 0.759766
vt 0.996582 1.000000
vt 0.996582 0.759766
vt 0.996582 0.759766
vt 0.996582 1.000000
vt 0.750000 0.759766
vt 0.750000 1.000000
vt 0.746582 0.459229
vt 0.746582 0.687500
vt 0.500000 0.459229
vt 0.500000 0.687500
vt 0.996582 0.240479
vt 0.996582 0.468750
vt 0.750000 0.240479
vt 0.750000 0.468750
vn 0.7071 0.0000 -0.7071
vn -0.7071 -0.0000 0.7071
vn -0.4056 0.8192 -0.4056
vn 0.4056 -0.8192 0.4056
vn 0.5792 0.5736 0.5792
vn -0.5792 -0.5736 -0.5792
usemtl m_7_1
s 1
f 17/49/13 18/50/13 19/51/13
f 18/50/13 20/52/13 19/51/13
f 21/53/14 22/54/14 23/55/14
f 22/54/14 24/56/14 23/55/14
f 21/57/15 23/58/15 19/59/15
f 23/58/15 17/60/15 19/59/15
f 24/61/16 22/62/16 18/63/16
f 22/62/16 20/64/16 18/63/16
f 23/65/17 24/66/17 17/67/17
f 24/66/17 18/68/17 17/67/17
f 19/69/18 20/70/18 21/71/18
f 20/70/18 22/72/18 21/71/18
o halfbeam.002
v 0.683334 1.338710 0.419943
v 0.825347 1.051887 0.561955
v 0.529703 1.186579 0.266312
v 0.671716 0.899756 0.408324
v 0.267301 1.186579 0.528715
v 0.409313 0.899756 0.670727
v 0.420931 1.338710 0.682346
v 0.562944 1.051887 0.824358
vt 0.250000 0.875000
vt 0.250000 0.646729
vt 0.490234 0.875000
vt 0.490234 0.646729
vt 0.490234 0.615479
vt 0.490234 0.843750
vt 0.250000 0.615479
vt 0.250000 0.843750
vt 0.750000 1.000000
vt 0.750000 0.759766
vt 0.996094 1.000000
vt 0.996094 0.759766
vt 0.996094 0.759766
vt 0.996094 1.000000
vt 0.750000 0.759766
vt 0.750000 1.000000
vt 0.746094 0.459229
vt 0.746094 0.687500
vt 0.500000 0.459229
vt 0.500000 0.687500
vt 0.996094 0.240479
vt 0.996094 0.468750
vt 0.750000 0.240479
vt 0.750000 0.468750
vn 0.7071 0.0000 -0.7071
vn -0.7071 -0.0000 0.7071
vn -0.4056 0.8192 -0.4056
vn 0.4056 -0.8192 0.4056
vn 0.5792 0.5736 0.5792
vn -0.5792 -0.5736 -0.5792
usemtl m_7_1
s 1
f 25/73/19 26/74/19 27/75/19
f 26/74/19 28/76/19 27/75/19
f 29/77/20 30/78/20 31/79/20
f 30/78/20 32/80/20 31/79/20
f 29/81/21 31/82/21 27/83/21
f 31/82/21 25/84/21 27/83/21
f 32/85/22 30/86/22 26/87/22
f 30/86/22 28/88/22 26/87/22
f 31/89/23 32/90/23 25/91/23
f 32/90/23 26/92/23 25/91/23
f 27/93/24 28/94/24 29/95/24
f 28/94/24 30/96/24 29/95/24
o halfbeam.003
v 0.079019 0.206801 -0.187662
v 0.174613 -0.119579 -0.092068
v -0.415791 -0.083052 -0.682472
v -0.320197 -0.409432 -0.586877
v -0.678539 -0.083052 -0.419724
v -0.582945 -0.409432 -0.324129
v -0.183730 0.206801 0.075086
v -0.088135 -0.119579 0.170680
vt 0.312500 0.117578
vt 0.665771 0.117578
vt 0.312500 0.875000
vt 0.665771 0.875000
vt 0.250000 0.086328
vt 0.603271 0.086328
vt 0.250000 0.843750
vt 0.603271 0.843750
vt 0.625000 1.000000
vt 0.625000 0.250000
vt 1.000000 1.000000
vt 1.000000 0.250000
vt 1.000000 0.250000
vt 1.000000 1.000000
vt 0.625000 0.250000
vt 0.625000 1.000000
vt 0.871582 0.334229
vt 0.871582 0.687500
vt 0.500000 0.334229
vt 0.500000 0.687500
vt 1.000000 0.125000
vt 1.000000 0.500000
vt 0.625000 0.125000
vt 0.625000 0.500000
vn 0.7071 0.0000 -0.7071
vn -0.7071 -0.0000 0.7071
vn -0.2706 0.9239 -0.2706
vn 0.2706 -0.9239 0.2706
vn 0.6533 0.3827 0.6533
vn -0.6533 -0.3827 -0.6533
usemtl m_7_1
s 1
f 33/97/25 34/98/25 35/99/25
f 34/98/25 36/100/25 35/99/25
f 37/101/26 38/102/26 39/103/26
f 38/102/26 40/104/26 39/103/26
f 37/105/27 39/106/27 35/107/27
f 39/106/27 33/108/27 35/107/27
f 40/109/28 38/110/28 34/111/28
f 38/110/28 36/112/28 34/111/28
f 39/113/29 40/114/29 33/115/29
f 40/114/29 34/116/29 33/115/29
f 35/117/30 36/118/30 37/119/30
f 36/118/30 38/120/30 37/119/30
