# Blender v2.91.0 OBJ File: ''
# www.blender.org
mtllib thick_diagonal_oak_branch_45_45.mtl
o halfbeam
v 0.739082 0.652541 0.466333
v 0.586043 0.346300 0.313294
v 0.161629 1.229686 -0.111120
v 0.008591 0.923446 -0.264159
v -0.103536 1.229686 0.154045
v -0.256574 0.923446 0.001006
v 0.473917 0.652541 0.731498
v 0.320878 0.346300 0.578459
vt 0.250000 1.000000
vt 0.625000 1.000000
vt 0.250000 0.000000
vt 0.625000 0.000000
vt 0.250000 1.000000
vt 0.625000 1.000000
vt 0.250000 0.000000
vt 0.625000 0.000000
vt 0.500000 0.000000
vt 0.500000 1.000000
vt 0.875000 0.000000
vt 0.875000 1.000000
vt 0.875000 0.000000
vt 0.875000 1.000000
vt 0.500000 0.000000
vt 0.500000 1.000000
vt 0.875000 0.468750
vt 0.875000 0.093750
vt 0.500000 0.468750
vt 0.500000 0.093750
vt 0.625000 0.000000
vt 0.625000 0.375000
vt 1.000000 0.000000
vt 1.000000 0.375000
vn 0.7071 0.0000 -0.7071
vn -0.7071 -0.0000 0.7071
vn 0.4081 0.8166 0.4081
vn -0.4081 -0.8166 -0.4081
vn 0.5775 -0.5771 0.5775
vn -0.5775 0.5771 -0.5775
usemtl m_0
s 1
f 1/1/1 2/2/1 3/3/1
f 2/2/1 4/4/1 3/3/1
f 5/5/2 6/6/2 7/7/2
f 6/6/2 8/8/2 7/7/2
f 5/9/3 7/10/3 3/11/3
f 7/10/3 1/12/3 3/11/3
f 8/13/4 6/14/4 2/15/4
f 6/14/4 4/16/4 2/15/4
f 7/17/5 8/18/5 1/19/5
f 8/18/5 2/20/5 1/19/5
f 3/21/6 4/22/6 5/23/6
f 4/22/6 6/24/6 5/23/6
o halfbeam.000
v 1.305290 0.087238 1.034396
v 1.152251 -0.219003 0.881358
v 0.738664 0.653562 0.467771
v 0.585625 0.347321 0.314732
v 0.473499 0.653562 0.732936
v 0.320460 0.347321 0.579897
v 1.040125 0.087238 1.299561
v 0.887086 -0.219003 1.146523
vt 0.250000 1.000000
vt 0.625000 1.000000
vt 0.250000 0.018750
vt 0.625000 0.018750
vt 0.250000 1.000000
vt 0.625000 1.000000
vt 0.250000 0.018750
vt 0.625000 0.018750
vt 0.562500 0.018750
vt 0.562500 1.000000
vt 0.937500 0.018750
vt 0.937500 1.000000
vt 0.937500 1.000000
vt 0.937500 0.018750
vt 0.562500 1.000000
vt 0.562500 0.018750
vt 0.625000 0.093750
vt 0.625000 0.468750
vt 1.000000 0.093750
vt 1.000000 0.468750
vt 0.625000 0.000000
vt 0.625000 0.375000
vt 1.000000 0.000000
vt 1.000000 0.375000
vn 0.7071 -0.0000 -0.7071
vn -0.7071 -0.0000 0.7071
vn 0.4081 0.8166 0.4081
vn -0.4081 -0.8166 -0.4081
vn 0.5775 -0.5771 0.5775
vn -0.5775 0.5771 -0.5775
usemtl m_0
s 1
f 9/25/7 10/26/7 11/27/7
f 10/26/7 12/28/7 11/27/7
f 13/29/8 14/30/8 15/31/8
f 14/30/8 16/32/8 15/31/8
f 13/33/9 15/34/9 11/35/9
f 15/34/9 9/36/9 11/35/9
f 16/37/10 14/38/10 10/39/10
f 14/38/10 12/40/10 10/39/10
f 15/41/11 16/42/11 9/43/11
f 16/42/11 10/44/11 9/43/11
usemtl m_7_1
f 11/45/12 12/46/12 13/47/12
f 12/46/12 14/48/12 13/47/12
