# Blender v2.91.0 OBJ File: ''
# www.blender.org
mtllib wooden_wheel_2.mtl
o medium_full_wheel
v -0.500000 1.463981 0.939222
v -0.500000 -0.536019 0.939221
v 1.500000 1.463981 0.939222
v 1.500000 -0.536019 0.939221
v 1.500000 1.463981 0.812972
v 1.500000 -0.536019 0.812971
v -0.500000 1.463981 0.812972
v -0.500000 -0.536019 0.812971
vt 1.000000 1.000000
vt 1.000000 0.000000
vt 0.000000 1.000000
vt 0.000000 0.000000
vt 0.000000 1.000000
vt 0.000000 0.000000
vt 1.000000 1.000000
vt 1.000000 0.000000
vn 0.0000 -0.0000 1.0000
vn 0.0000 0.0000 -1.0000
usemtl m_board
s 1
f 1/1/1 2/2/1 3/3/1
f 2/2/1 4/4/1 3/3/1
f 5/5/2 6/6/2 7/7/2
f 6/6/2 8/8/2 7/7/2
o medium_full_wheel.000
v 1.347759 1.030435 0.938597
v -0.066454 -0.383778 0.938596
v 1.347759 1.030435 0.813597
v -0.066454 -0.383778 0.813596
v 1.066454 1.311740 0.813597
v -0.347759 -0.102474 0.813596
v 1.066454 1.311740 0.938597
v -0.347759 -0.102474 0.938596
vt 0.000000 1.000000
vt 0.000000 0.984375
vt 0.015625 1.000000
vt 0.015625 0.984375
vt 0.000000 1.000000
vt 0.000000 0.984375
vt 0.015625 1.000000
vt 0.015625 0.984375
vt 0.421875 0.843750
vt 0.421875 0.781250
vt 0.625000 0.843750
vt 0.625000 0.781250
vt 0.609375 0.781250
vt 0.609375 0.843750
vt 0.406250 0.781250
vt 0.406250 0.843750
vt 0.000000 0.328125
vt 1.000000 0.328125
vt 0.000000 0.531250
vt 1.000000 0.531250
vt 0.000000 0.328125
vt 1.000000 0.328125
vt 0.000000 0.531250
vt 1.000000 0.531250
vn 0.7071 -0.7071 0.0000
vn -0.7071 0.7071 0.0000
vn 0.7071 0.7071 0.0000
vn -0.7071 -0.7071 0.0000
vn 0.0000 -0.0000 1.0000
vn 0.0000 0.0000 -1.0000
usemtl none
s 1
f 9/9/3 10/10/3 11/11/3
f 10/10/3 12/12/3 11/11/3
f 13/13/4 14/14/4 15/15/4
f 14/14/4 16/16/4 15/15/4
usemtl m_texture
f 13/17/5 15/18/5 11/19/5
f 15/18/5 9/20/5 11/19/5
f 16/21/6 14/22/6 10/23/6
f 14/22/6 12/24/6 10/23/6
f 15/25/7 16/26/7 9/27/7
f 16/26/7 10/28/7 9/27/7
f 11/29/8 12/30/8 13/31/8
f 12/30/8 14/32/8 13/31/8
o medium_full_wheel.001
v 1.066455 1.311740 0.938597
v 0.301088 -0.536019 0.938596
v 1.066455 1.311740 0.813597
v 0.301088 -0.536019 0.813596
v 0.698912 1.463981 0.813597
v -0.066455 -0.383778 0.813596
v 0.698912 1.463981 0.938597
v -0.066455 -0.383778 0.938596
vt 0.000000 1.000000
vt 0.000000 0.984375
vt 0.015625 1.000000
vt 0.015625 0.984375
vt 0.000000 1.000000
vt 0.000000 0.984375
vt 0.015625 1.000000
vt 0.015625 0.984375
vt 0.593750 0.843750
vt 0.593750 0.781250
vt 0.796875 0.843750
vt 0.796875 0.781250
vt 0.765625 0.781250
vt 0.765625 0.843750
vt 0.562500 0.781250
vt 0.562500 0.843750
vt 0.000000 0.328125
vt 1.000000 0.328125
vt 0.000000 0.531250
vt 1.000000 0.531250
vt 0.000000 0.328125
vt 1.000000 0.328125
vt 0.000000 0.531250
vt 1.000000 0.531250
vn 0.9239 -0.3827 0.0000
vn -0.9239 0.3827 0.0000
vn 0.3827 0.9239 0.0000
vn -0.3827 -0.9239 0.0000
vn 0.0000 -0.0000 1.0000
vn 0.0000 0.0000 -1.0000
usemtl none
s 1
f 17/33/9 18/34/9 19/35/9
f 18/34/9 20/36/9 19/35/9
f 21/37/10 22/38/10 23/39/10
f 22/38/10 24/40/10 23/39/10
usemtl m_texture
f 21/41/11 23/42/11 19/43/11
f 23/42/11 17/44/11 19/43/11
f 24/45/12 22/46/12 18/47/12
f 22/46/12 20/48/12 18/47/12
f 23/49/13 24/50/13 17/51/13
f 24/50/13 18/52/13 17/51/13
f 19/53/14 20/54/14 21/55/14
f 20/54/14 22/56/14 21/55/14
o medium_full_wheel.002
v 0.698913 1.463981 0.938597
v 0.698913 -0.536019 0.938596
v 0.698913 1.463981 0.813597
v 0.698913 -0.536019 0.813596
v 0.301087 1.463981 0.813597
v 0.301087 -0.536019 0.813596
v 0.301087 1.463981 0.938597
v 0.301087 -0.536019 0.938596
vt 0.000000 1.000000
vt 0.000000 0.984375
vt 0.015625 1.000000
vt 0.015625 0.984375
vt 0.000000 1.000000
vt 0.000000 0.984375
vt 0.015625 1.000000
vt 0.015625 0.984375
vt 0.000000 0.843750
vt 0.000000 0.781250
vt 0.203125 0.843750
vt 0.203125 0.781250
vt 0.203125 0.781250
vt 0.203125 0.843750
vt 0.000000 0.781250
vt 0.000000 0.843750
vt 0.000000 0.328125
vt 1.000000 0.328125
vt 0.000000 0.531250
vt 1.000000 0.531250
vt 0.000000 0.328125
vt 1.000000 0.328125
vt 0.000000 0.531250
vt 1.000000 0.531250
vn 1.0000 0.0000 0.0000
vn -1.0000 0.0000 0.0000
vn 0.0000 1.0000 0.0000
vn 0.0000 -1.0000 0.0000
vn 0.0000 -0.0000 1.0000
vn 0.0000 0.0000 -1.0000
usemtl none
s 1
f 25/57/15 26/58/15 27/59/15
f 26/58/15 28/60/15 27/59/15
f 29/61/16 30/62/16 31/63/16
f 30/62/16 32/64/16 31/63/16
usemtl m_texture
f 29/65/17 31/66/17 27/67/17
f 31/66/17 25/68/17 27/67/17
f 32/69/18 30/70/18 26/71/18
f 30/70/18 28/72/18 26/71/18
f 31/73/19 32/74/19 25/75/19
f 32/74/19 26/76/19 25/75/19
f 27/77/20 28/78/20 29/79/20
f 28/78/20 30/80/20 29/79/20
o medium_full_wheel.003
v 0.301088 1.463981 0.938597
v 1.066455 -0.383778 0.938596
v 0.301088 1.463981 0.813597
v 1.066455 -0.383778 0.813596
v -0.066455 1.311740 0.813597
v 0.698912 -0.536019 0.813596
v -0.066455 1.311740 0.938597
v 0.698912 -0.536019 0.938596
vt 0.000000 1.000000
vt 0.000000 0.984375
vt 0.015625 1.000000
vt 0.015625 0.984375
vt 0.000000 1.000000
vt 0.000000 0.984375
vt 0.015625 1.000000
vt 0.015625 0.984375
vt 0.203125 0.843750
vt 0.203125 0.781250
vt 0.406250 0.843750
vt 0.406250 0.781250
vt 0.406250 0.781250
vt 0.406250 0.843750
vt 0.203125 0.781250
vt 0.203125 0.843750
vt 0.000000 0.328125
vt 1.000000 0.328125
vt 0.000000 0.531250
vt 1.000000 0.531250
vt 0.000000 0.328125
vt 1.000000 0.328125
vt 0.000000 0.531250
vt 1.000000 0.531250
vn 0.9239 0.3827 0.0000
vn -0.9239 -0.3827 0.0000
vn -0.3827 0.9239 0.0000
vn 0.3827 -0.9239 -0.0000
vn 0.0000 -0.0000 1.0000
vn 0.0000 0.0000 -1.0000
usemtl none
s 1
f 33/81/21 34/82/21 35/83/21
f 34/82/21 36/84/21 35/83/21
f 37/85/22 38/86/22 39/87/22
f 38/86/22 40/88/22 39/87/22
usemtl m_texture
f 37/89/23 39/90/23 35/91/23
f 39/90/23 33/92/23 35/91/23
f 40/93/24 38/94/24 34/95/24
f 38/94/24 36/96/24 34/95/24
f 39/97/25 40/98/25 33/99/25
f 40/98/25 34/100/25 33/99/25
f 35/101/26 36/102/26 37/103/26
f 36/102/26 38/104/26 37/103/26
o medium_full_wheel.004
v -0.066454 1.311740 0.938597
v 1.347759 -0.102474 0.938596
v -0.066454 1.311740 0.813597
v 1.347759 -0.102474 0.813596
v -0.347759 1.030435 0.813597
v 1.066454 -0.383778 0.813596
v -0.347759 1.030435 0.938597
v 1.066454 -0.383778 0.938596
vt 0.000000 1.000000
vt 0.000000 0.984375
vt 0.015625 1.000000
vt 0.015625 0.984375
vt 0.000000 1.000000
vt 0.000000 0.984375
vt 0.015625 1.000000
vt 0.015625 0.984375
vt 0.406250 0.843750
vt 0.406250 0.781250
vt 0.609375 0.843750
vt 0.609375 0.781250
vt 0.609375 0.781250
vt 0.609375 0.843750
vt 0.406250 0.781250
vt 0.406250 0.843750
vt 0.000000 0.328125
vt 1.000000 0.328125
vt 0.000000 0.531250
vt 1.000000 0.531250
vt 0.000000 0.328125
vt 1.000000 0.328125
vt 0.000000 0.531250
vt 1.000000 0.531250
vn 0.7071 0.7071 0.0000
vn -0.7071 -0.7071 0.0000
vn -0.7071 0.7071 0.0000
vn 0.7071 -0.7071 0.0000
vn 0.0000 -0.0000 1.0000
vn 0.0000 0.0000 -1.0000
usemtl none
s 1
f 41/105/27 42/106/27 43/107/27
f 42/106/27 44/108/27 43/107/27
f 45/109/28 46/110/28 47/111/28
f 46/110/28 48/112/28 47/111/28
usemtl m_texture
f 45/113/29 47/114/29 43/115/29
f 47/114/29 41/116/29 43/115/29
f 48/117/30 46/118/30 42/119/30
f 46/118/30 44/120/30 42/119/30
f 47/121/31 48/122/31 41/123/31
f 48/122/31 42/124/31 41/123/31
f 43/125/32 44/126/32 45/127/32
f 44/126/32 46/128/32 45/127/32
o medium_full_wheel.005
v 1.500000 0.265069 0.938596
v 1.347759 -0.102474 0.938596
v 1.500000 0.265069 0.813596
v 1.347759 -0.102474 0.813596
v -0.347759 1.030436 0.813597
v -0.500000 0.662893 0.813597
v -0.347759 1.030436 0.938597
v -0.500000 0.662893 0.938597
vt 0.578125 0.781250
vt 0.781250 0.781250
vt 0.578125 0.843750
vt 0.781250 0.843750
vt 0.781250 0.843750
vt 0.578125 0.843750
vt 0.781250 0.781250
vt 0.578125 0.781250
vt 0.000000 0.531250
vt 0.000000 0.328125
vt 1.000000 0.531250
vt 1.000000 0.328125
vt 1.000000 0.328125
vt 1.000000 0.531250
vt 0.000000 0.328125
vt 0.000000 0.531250
vt 0.000000 1.000000
vt 0.000000 0.984375
vt 0.015625 1.000000
vt 0.015625 0.984375
vt 0.000000 1.000000
vt 0.000000 0.984375
vt 0.015625 1.000000
vt 0.015625 0.984375
vn 0.9239 -0.3827 0.0000
vn -0.9239 0.3827 0.0000
vn 0.0000 -0.0000 1.0000
vn 0.0000 0.0000 -1.0000
vn 0.3827 0.9239 0.0000
vn -0.3827 -0.9239 -0.0000
usemtl m_texture
s 1
f 49/129/33 50/130/33 51/131/33
f 50/130/33 52/132/33 51/131/33
f 53/133/34 54/134/34 55/135/34
f 54/134/34 56/136/34 55/135/34
f 55/137/35 56/138/35 49/139/35
f 56/138/35 50/140/35 49/139/35
f 51/141/36 52/142/36 53/143/36
f 52/142/36 54/144/36 53/143/36
usemtl none
f 53/145/37 55/146/37 51/147/37
f 55/146/37 49/148/37 51/147/37
f 56/149/38 54/150/38 50/151/38
f 54/150/38 52/152/38 50/151/38
o medium_full_wheel.006
v 1.500000 0.662893 0.938597
v 1.500000 0.265068 0.938596
v 1.500000 0.662893 0.813597
v 1.500000 0.265068 0.813596
v -0.500000 0.662893 0.813597
v -0.500000 0.265068 0.813596
v -0.500000 0.662893 0.938597
v -0.500000 0.265068 0.938596
vt 0.796875 0.781250
vt 1.000000 0.781250
vt 0.796875 0.843750
vt 1.000000 0.843750
vt 1.000000 0.843750
vt 0.796875 0.843750
vt 1.000000 0.781250
vt 0.796875 0.781250
vt 1.000000 0.328125
vt 1.000000 0.531250
vt 0.000000 0.328125
vt 0.000000 0.531250
vt 0.000000 0.531250
vt 0.000000 0.328125
vt 1.000000 0.531250
vt 1.000000 0.328125
vt 0.000000 1.000000
vt 0.000000 0.984375
vt 0.015625 1.000000
vt 0.015625 0.984375
vt 0.000000 1.000000
vt 0.000000 0.984375
vt 0.015625 1.000000
vt 0.015625 0.984375
vn 1.0000 0.0000 0.0000
vn -1.0000 0.0000 0.0000
vn 0.0000 -0.0000 1.0000
vn 0.0000 0.0000 -1.0000
vn 0.0000 1.0000 0.0000
vn 0.0000 -1.0000 0.0000
usemtl m_texture
s 1
f 57/153/39 58/154/39 59/155/39
f 58/154/39 60/156/39 59/155/39
f 61/157/40 62/158/40 63/159/40
f 62/158/40 64/160/40 63/159/40
f 63/161/41 64/162/41 57/163/41
f 64/162/41 58/164/41 57/163/41
f 59/165/42 60/166/42 61/167/42
f 60/166/42 62/168/42 61/167/42
usemtl none
f 61/169/43 63/170/43 59/171/43
f 63/170/43 57/172/43 59/171/43
f 64/173/44 62/174/44 58/175/44
f 62/174/44 60/176/44 58/175/44
o medium_full_wheel.007
v 1.347759 1.030436 0.938597
v 1.500000 0.662893 0.938597
v 1.347759 1.030436 0.813597
v 1.500000 0.662893 0.813597
v -0.500000 0.265069 0.813596
v -0.347759 -0.102474 0.813596
v -0.500000 0.265069 0.938596
v -0.347759 -0.102474 0.938596
vt 0.218750 0.781250
vt 0.421875 0.781250
vt 0.218750 0.843750
vt 0.421875 0.843750
vt 0.406250 0.843750
vt 0.203125 0.843750
vt 0.406250 0.781250
vt 0.203125 0.781250
vt 1.000000 0.328125
vt 1.000000 0.531250
vt 0.000000 0.328125
vt 0.000000 0.531250
vt 0.000000 0.531250
vt 0.000000 0.328125
vt 1.000000 0.531250
vt 1.000000 0.328125
vt 0.000000 1.000000
vt 0.000000 0.984375
vt 0.015625 1.000000
vt 0.015625 0.984375
vt 0.000000 1.000000
vt 0.000000 0.984375
vt 0.015625 1.000000
vt 0.015625 0.984375
vn 0.9239 0.3827 0.0000
vn -0.9239 -0.3827 0.0000
vn -0.0000 -0.0000 1.0000
vn 0.0000 0.0000 -1.0000
vn -0.3827 0.9239 0.0000
vn 0.3827 -0.9239 0.0000
usemtl m_texture
s 1
f 65/177/45 66/178/45 67/179/45
f 66/178/45 68/180/45 67/179/45
f 69/181/46 70/182/46 71/183/46
f 70/182/46 72/184/46 71/183/46
f 71/185/47 72/186/47 65/187/47
f 72/186/47 66/188/47 65/187/47
f 67/189/48 68/190/48 69/191/48
f 68/190/48 70/192/48 69/191/48
usemtl none
f 69/193/49 71/194/49 67/195/49
f 71/194/49 65/196/49 67/195/49
f 72/197/50 70/198/50 66/199/50
f 70/198/50 68/200/50 66/199/50
o medium_full_wheel.008
v 1.312500 1.057731 0.813597
v 1.312500 0.870231 0.813597
v 1.312500 1.057731 0.751097
v 1.312500 0.870231 0.751097
v -0.312500 1.057731 0.751097
v -0.312500 0.870231 0.751097
v -0.312500 1.057731 0.813597
v -0.312500 0.870231 0.813597
vt 0.000000 0.718750
vt 0.000000 0.625000
vt 0.031250 0.718750
vt 0.031250 0.625000
vt 0.781250 0.718750
vt 0.781250 0.625000
vt 0.812500 0.718750
vt 0.812500 0.625000
vt 0.000000 0.718750
vt 0.000000 0.687500
vt 0.812500 0.718750
vt 0.812500 0.687500
vt 0.000000 0.625000
vt 0.000000 0.656250
vt 0.812500 0.625000
vt 0.812500 0.656250
vt 0.000000 0.718750
vt 0.000000 0.625000
vt 0.812500 0.718750
vt 0.812500 0.625000
vn 1.0000 0.0000 0.0000
vn -1.0000 0.0000 0.0000
vn 0.0000 1.0000 0.0000
vn 0.0000 -1.0000 0.0000
vn 0.0000 0.0000 -1.0000
usemtl m_texture
s 1
f 73/201/51 74/202/51 75/203/51
f 74/202/51 76/204/51 75/203/51
f 77/205/52 78/206/52 79/207/52
f 78/206/52 80/208/52 79/207/52
f 77/209/53 79/210/53 75/211/53
f 79/210/53 73/212/53 75/211/53
f 80/213/54 78/214/54 74/215/54
f 78/214/54 76/216/54 74/215/54
f 75/217/55 76/218/55 77/219/55
f 76/218/55 78/220/55 77/219/55
o medium_full_wheel.009
v 1.312500 0.057731 0.813596
v 1.312500 -0.129769 0.813596
v 1.312500 0.057731 0.751096
v 1.312500 -0.129769 0.751096
v -0.312500 0.057731 0.751096
v -0.312500 -0.129769 0.751096
v -0.312500 0.057731 0.813596
v -0.312500 -0.129769 0.813596
vt 0.000000 0.625000
vt 0.000000 0.531250
vt 0.031250 0.625000
vt 0.031250 0.531250
vt 0.781250 0.625000
vt 0.781250 0.531250
vt 0.812500 0.625000
vt 0.812500 0.531250
vt 0.000000 0.625000
vt 0.000000 0.593750
vt 0.812500 0.625000
vt 0.812500 0.593750
vt 0.000000 0.531250
vt 0.000000 0.562500
vt 0.812500 0.531250
vt 0.812500 0.562500
vt 0.000000 0.625000
vt 0.000000 0.531250
vt 0.812500 0.625000
vt 0.812500 0.531250
vn 1.0000 0.0000 0.0000
vn -1.0000 0.0000 0.0000
vn 0.0000 1.0000 0.0000
vn 0.0000 -1.0000 0.0000
vn 0.0000 0.0000 -1.0000
usemtl m_texture
s 1
f 81/221/56 82/222/56 83/223/56
f 82/222/56 84/224/56 83/223/56
f 85/225/57 86/226/57 87/227/57
f 86/226/57 88/228/57 87/227/57
f 85/229/58 87/230/58 83/231/58
f 87/230/58 81/232/58 83/231/58
f 88/233/59 86/234/59 82/235/59
f 86/234/59 84/236/59 82/235/59
f 83/237/60 84/238/60 85/239/60
f 84/238/60 86/240/60 85/239/60
o medium_full_wheel.010
v 0.562500 0.526481 1.001096
v 0.562500 0.401481 1.001096
v 0.562500 0.526481 0.751096
v 0.562500 0.401481 0.751096
v 0.437500 0.526481 0.751096
v 0.437500 0.401481 0.751096
v 0.437500 0.526481 1.001096
v 0.437500 0.401481 1.001096
vt 0.000000 0.781250
vt 0.000000 0.718750
vt 0.125000 0.781250
vt 0.125000 0.718750
vt 0.000000 0.781250
vt 0.000000 0.718750
vt 0.125000 0.781250
vt 0.125000 0.718750
vt 0.125000 0.781250
vt 0.000000 0.781250
vt 0.125000 0.718750
vt 0.000000 0.718750
vt 0.000000 0.718750
vt 0.125000 0.718750
vt 0.000000 0.781250
vt 0.125000 0.781250
vt 0.468750 0.531250
vt 0.468750 0.468750
vt 0.531250 0.531250
vt 0.531250 0.468750
vt 0.468750 0.531250
vt 0.468750 0.468750
vt 0.531250 0.531250
vt 0.531250 0.468750
vn 1.0000 0.0000 0.0000
vn -1.0000 0.0000 0.0000
vn 0.0000 1.0000 0.0000
vn 0.0000 -1.0000 -0.0000
vn 0.0000 0.0000 1.0000
vn 0.0000 0.0000 -1.0000
usemtl m_texture
s 1
f 89/241/61 90/242/61 91/243/61
f 90/242/61 92/244/61 91/243/61
f 93/245/62 94/246/62 95/247/62
f 94/246/62 96/248/62 95/247/62
f 93/249/63 95/250/63 91/251/63
f 95/250/63 89/252/63 91/251/63
f 96/253/64 94/254/64 90/255/64
f 94/254/64 92/256/64 90/255/64
usemtl m_spoke
f 95/257/65 96/258/65 89/259/65
f 96/258/65 90/260/65 89/259/65
f 91/261/66 92/262/66 93/263/66
f 92/262/66 94/264/66 93/263/66
o medium_full_wheel.011
v 0.593750 0.557731 0.969847
v 0.593750 0.370231 0.969847
v 0.593750 0.557731 0.782347
v 0.593750 0.370231 0.782346
v 0.406250 0.557731 0.782347
v 0.406250 0.370231 0.782346
v 0.406250 0.557731 0.969847
v 0.406250 0.370231 0.969847
vt 0.000000 0.781250
vt 0.093750 0.781250
vt 0.000000 0.843750
vt 0.093750 0.843750
vt 0.000000 0.781250
vt 0.093750 0.781250
vt 0.000000 0.843750
vt 0.093750 0.843750
vt 0.000000 0.843750
vt 0.000000 0.781250
vt 0.093750 0.843750
vt 0.093750 0.781250
vt 0.000000 0.843750
vt 0.000000 0.781250
vt 0.093750 0.843750
vt 0.093750 0.781250
vt 0.453125 0.546875
vt 0.453125 0.453125
vt 0.546875 0.546875
vt 0.546875 0.453125
vt 0.453125 0.546875
vt 0.453125 0.453125
vt 0.546875 0.546875
vt 0.546875 0.453125
vn 1.0000 0.0000 0.0000
vn -1.0000 0.0000 0.0000
vn 0.0000 1.0000 0.0000
vn 0.0000 -1.0000 0.0000
vn 0.0000 0.0000 1.0000
vn 0.0000 0.0000 -1.0000
usemtl m_texture
s 1
f 97/265/67 98/266/67 99/267/67
f 98/266/67 100/268/67 99/267/67
f 101/269/68 102/270/68 103/271/68
f 102/270/68 104/272/68 103/271/68
f 101/273/69 103/274/69 99/275/69
f 103/274/69 97/276/69 99/275/69
f 104/277/70 102/278/70 98/279/70
f 102/278/70 100/280/70 98/279/70
usemtl m_spoke
f 103/281/71 104/282/71 97/283/71
f 104/282/71 98/284/71 97/283/71
f 99/285/72 100/286/72 101/287/72
f 100/286/72 102/288/72 101/287/72
o medium_full_wheel.012
v 1.312500 0.057731 1.001096
v 1.312500 -0.129769 1.001096
v 1.312500 0.057731 0.938596
v 1.312500 -0.129769 0.938596
v -0.312500 0.057731 0.938596
v -0.312500 -0.129769 0.938596
v -0.312500 0.057731 1.001096
v -0.312500 -0.129769 1.001096
vt 0.031250 0.625000
vt 0.031250 0.531250
vt 0.000000 0.625000
vt 0.000000 0.531250
vt 0.812500 0.625000
vt 0.812500 0.531250
vt 0.781250 0.625000
vt 0.781250 0.531250
vt 0.000000 0.593750
vt 0.000000 0.625000
vt 0.812500 0.593750
vt 0.812500 0.625000
vt 0.000000 0.562500
vt 0.000000 0.531250
vt 0.812500 0.562500
vt 0.812500 0.531250
vt 0.812500 0.625000
vt 0.812500 0.531250
vt 0.000000 0.625000
vt 0.000000 0.531250
vn 1.0000 0.0000 0.0000
vn -1.0000 0.0000 0.0000
vn 0.0000 1.0000 0.0000
vn 0.0000 -1.0000 0.0000
vn 0.0000 0.0000 1.0000
usemtl m_texture
s 1
f 105/289/73 106/290/73 107/291/73
f 106/290/73 108/292/73 107/291/73
f 109/293/74 110/294/74 111/295/74
f 110/294/74 112/296/74 111/295/74
f 109/297/75 111/298/75 107/299/75
f 111/298/75 105/300/75 107/299/75
f 112/301/76 110/302/76 106/303/76
f 110/302/76 108/304/76 106/303/76
f 111/305/77 112/306/77 105/307/77
f 112/306/77 106/308/77 105/307/77
o medium_full_wheel.013
v 1.312500 1.057731 1.001096
v 1.312500 0.870231 1.001096
v 1.312500 1.057731 0.938597
v 1.312500 0.870231 0.938597
v -0.312500 1.057731 0.938597
v -0.312500 0.870231 0.938597
v -0.312500 1.057731 1.001096
v -0.312500 0.870231 1.001096
vt 0.031250 0.718750
vt 0.031250 0.625000
vt 0.000000 0.718750
vt 0.000000 0.625000
vt 0.812500 0.718750
vt 0.812500 0.625000
vt 0.781250 0.718750
vt 0.781250 0.625000
vt 0.000000 0.687500
vt 0.000000 0.718750
vt 0.812500 0.687500
vt 0.812500 0.718750
vt 0.000000 0.656250
vt 0.000000 0.625000
vt 0.812500 0.656250
vt 0.812500 0.625000
vt 0.812500 0.718750
vt 0.812500 0.625000
vt 0.000000 0.718750
vt 0.000000 0.625000
vn 1.0000 0.0000 0.0000
vn -1.0000 0.0000 0.0000
vn 0.0000 1.0000 0.0000
vn 0.0000 -1.0000 0.0000
vn 0.0000 0.0000 1.0000
usemtl m_texture
s 1
f 113/309/78 114/310/78 115/311/78
f 114/310/78 116/312/78 115/311/78
f 117/313/79 118/314/79 119/315/79
f 118/314/79 120/316/79 119/315/79
f 117/317/80 119/318/80 115/319/80
f 119/318/80 113/320/80 115/319/80
f 120/321/81 118/322/81 114/323/81
f 118/322/81 116/324/81 114/323/81
f 119/325/82 120/326/82 113/327/82
f 120/326/82 114/328/82 113/327/82
